G75*
%MOIN*%
%OFA0B0*%
%FSLAX25Y25*%
%IPPOS*%
%LPD*%
%AMOC8*
5,1,8,0,0,1.08239X$1,22.5*
%
%ADD10OC8,0.07400*%
%ADD11C,0.07400*%
%ADD12R,0.07400X0.07400*%
%ADD13C,0.22000*%
%ADD14C,0.14000*%
%ADD15C,0.03569*%
%ADD16C,0.01600*%
%ADD17C,0.01000*%
D10*
X0151500Y0312000D03*
X0151500Y0322000D03*
X0151500Y0332000D03*
X0151500Y0342000D03*
X0151500Y0352000D03*
X0151500Y0362000D03*
X0151500Y0372000D03*
X0151500Y0382000D03*
X0151500Y0392000D03*
X0151500Y0402000D03*
X0151500Y0412000D03*
X0151500Y0422000D03*
X0161500Y0422000D03*
X0161500Y0412000D03*
X0161500Y0402000D03*
X0161500Y0392000D03*
X0161500Y0382000D03*
X0161500Y0372000D03*
X0161500Y0362000D03*
X0161500Y0352000D03*
X0161500Y0342000D03*
X0161500Y0332000D03*
X0161500Y0322000D03*
X0161500Y0312000D03*
D11*
X0170000Y0509500D03*
X0180000Y0510500D03*
X0190000Y0509500D03*
X0200000Y0510500D03*
X0210000Y0509500D03*
X0220000Y0510500D03*
X0230000Y0509500D03*
X0240000Y0510500D03*
X0250000Y0509500D03*
X0160000Y0510500D03*
X0150000Y0509500D03*
X0140000Y0510500D03*
X0130000Y0509500D03*
X0120000Y0510500D03*
X0110000Y0509500D03*
X0100000Y0510500D03*
X0090000Y0509500D03*
X0080000Y0510500D03*
X0070000Y0509500D03*
X0060000Y0510500D03*
X0409941Y0480000D03*
X0409941Y0470000D03*
X0469000Y0470000D03*
X0469000Y0480000D03*
X0469000Y0490000D03*
D12*
X0409941Y0490000D03*
D13*
X0555000Y0499000D03*
X0555000Y0261000D03*
X0190000Y0261000D03*
X0120000Y0440000D03*
D14*
X0025000Y0509000D03*
X0295000Y0509000D03*
X0295000Y0250000D03*
X0025000Y0250000D03*
D15*
X0117000Y0311000D03*
X0070000Y0355000D03*
X0061000Y0363000D03*
X0042000Y0359000D03*
X0035000Y0355000D03*
X0110000Y0381000D03*
X0124000Y0388000D03*
X0136000Y0401000D03*
X0114000Y0414000D03*
X0078000Y0438000D03*
X0074000Y0433000D03*
X0045000Y0439000D03*
X0040000Y0433000D03*
X0027000Y0457000D03*
X0080000Y0496000D03*
X0205000Y0420000D03*
X0205000Y0410000D03*
X0205000Y0400000D03*
X0205000Y0390000D03*
X0205000Y0380000D03*
X0275000Y0455000D03*
X0250000Y0486000D03*
X0241000Y0490000D03*
X0288000Y0500000D03*
X0328000Y0400000D03*
X0425000Y0306000D03*
D16*
X0009800Y0244800D02*
X0009800Y0513901D01*
X0017739Y0513901D01*
X0017709Y0513872D01*
X0016400Y0510711D01*
X0016400Y0507289D01*
X0017709Y0504128D01*
X0020128Y0501709D01*
X0023289Y0500400D01*
X0026711Y0500400D01*
X0029872Y0501709D01*
X0032291Y0504128D01*
X0033600Y0507289D01*
X0033600Y0510711D01*
X0032291Y0513872D01*
X0032261Y0513901D01*
X0055905Y0513901D01*
X0055507Y0513502D01*
X0054700Y0511554D01*
X0054700Y0509446D01*
X0055507Y0507498D01*
X0056998Y0506007D01*
X0058946Y0505200D01*
X0061054Y0505200D01*
X0063002Y0506007D01*
X0064493Y0507498D01*
X0064793Y0508222D01*
X0065507Y0506498D01*
X0066998Y0505007D01*
X0068946Y0504200D01*
X0071054Y0504200D01*
X0073002Y0505007D01*
X0074493Y0506498D01*
X0075109Y0507984D01*
X0075296Y0507617D01*
X0075805Y0506917D01*
X0076417Y0506305D01*
X0077117Y0505796D01*
X0077889Y0505403D01*
X0078712Y0505135D01*
X0079567Y0505000D01*
X0079800Y0505000D01*
X0079800Y0510300D01*
X0080200Y0510300D01*
X0080200Y0505000D01*
X0080433Y0505000D01*
X0081288Y0505135D01*
X0082111Y0505403D01*
X0082883Y0505796D01*
X0083583Y0506305D01*
X0084195Y0506917D01*
X0084704Y0507617D01*
X0084891Y0507984D01*
X0085507Y0506498D01*
X0086998Y0505007D01*
X0088946Y0504200D01*
X0091054Y0504200D01*
X0093002Y0505007D01*
X0094493Y0506498D01*
X0095207Y0508222D01*
X0095507Y0507498D01*
X0096998Y0506007D01*
X0098946Y0505200D01*
X0101054Y0505200D01*
X0101656Y0505449D01*
X0108465Y0498641D01*
X0109141Y0497965D01*
X0110023Y0497600D01*
X0285614Y0497600D01*
X0286083Y0497131D01*
X0287327Y0496616D01*
X0288673Y0496616D01*
X0289917Y0497131D01*
X0290869Y0498083D01*
X0291384Y0499327D01*
X0291384Y0500673D01*
X0291126Y0501296D01*
X0293289Y0500400D01*
X0296711Y0500400D01*
X0299872Y0501709D01*
X0302291Y0504128D01*
X0303600Y0507289D01*
X0303600Y0510711D01*
X0302291Y0513872D01*
X0302261Y0513901D01*
X0600121Y0513901D01*
X0600121Y0244800D01*
X0301962Y0244800D01*
X0302291Y0245128D01*
X0303600Y0248289D01*
X0303600Y0251711D01*
X0302291Y0254872D01*
X0299872Y0257291D01*
X0296711Y0258600D01*
X0293289Y0258600D01*
X0290128Y0257291D01*
X0287709Y0254872D01*
X0286400Y0251711D01*
X0286400Y0248289D01*
X0287709Y0245128D01*
X0288038Y0244800D01*
X0031962Y0244800D01*
X0032291Y0245128D01*
X0033600Y0248289D01*
X0033600Y0251711D01*
X0032291Y0254872D01*
X0029872Y0257291D01*
X0026711Y0258600D01*
X0023289Y0258600D01*
X0020128Y0257291D01*
X0017709Y0254872D01*
X0016400Y0251711D01*
X0016400Y0248289D01*
X0017709Y0245128D01*
X0018038Y0244800D01*
X0009800Y0244800D01*
X0009800Y0246394D02*
X0017185Y0246394D01*
X0016523Y0247993D02*
X0009800Y0247993D01*
X0009800Y0249591D02*
X0016400Y0249591D01*
X0016400Y0251190D02*
X0009800Y0251190D01*
X0009800Y0252788D02*
X0016846Y0252788D01*
X0017508Y0254387D02*
X0009800Y0254387D01*
X0009800Y0255985D02*
X0018823Y0255985D01*
X0020836Y0257584D02*
X0009800Y0257584D01*
X0009800Y0259182D02*
X0177443Y0259182D01*
X0177400Y0259341D02*
X0178259Y0256137D01*
X0179917Y0253263D01*
X0182263Y0250917D01*
X0185137Y0249259D01*
X0188341Y0248400D01*
X0191659Y0248400D01*
X0194863Y0249259D01*
X0197737Y0250917D01*
X0200083Y0253263D01*
X0201741Y0256137D01*
X0202600Y0259341D01*
X0202600Y0262659D01*
X0201741Y0265863D01*
X0200083Y0268737D01*
X0197737Y0271083D01*
X0194863Y0272741D01*
X0191659Y0273600D01*
X0188341Y0273600D01*
X0185137Y0272741D01*
X0182263Y0271083D01*
X0179917Y0268737D01*
X0178259Y0265863D01*
X0177400Y0262659D01*
X0177400Y0259341D01*
X0177400Y0260781D02*
X0009800Y0260781D01*
X0009800Y0262379D02*
X0177400Y0262379D01*
X0177753Y0263978D02*
X0009800Y0263978D01*
X0009800Y0265576D02*
X0178182Y0265576D01*
X0179016Y0267175D02*
X0009800Y0267175D01*
X0009800Y0268773D02*
X0179954Y0268773D01*
X0181553Y0270372D02*
X0009800Y0270372D01*
X0009800Y0271970D02*
X0183801Y0271970D01*
X0188225Y0273569D02*
X0009800Y0273569D01*
X0009800Y0275167D02*
X0600121Y0275167D01*
X0600121Y0273569D02*
X0556775Y0273569D01*
X0556659Y0273600D02*
X0553341Y0273600D01*
X0550137Y0272741D01*
X0547263Y0271083D01*
X0544917Y0268737D01*
X0543259Y0265863D01*
X0542400Y0262659D01*
X0542400Y0259341D01*
X0543259Y0256137D01*
X0544917Y0253263D01*
X0547263Y0250917D01*
X0550137Y0249259D01*
X0553341Y0248400D01*
X0556659Y0248400D01*
X0559863Y0249259D01*
X0562737Y0250917D01*
X0565083Y0253263D01*
X0566741Y0256137D01*
X0567600Y0259341D01*
X0567600Y0262659D01*
X0566741Y0265863D01*
X0565083Y0268737D01*
X0562737Y0271083D01*
X0559863Y0272741D01*
X0556659Y0273600D01*
X0553225Y0273569D02*
X0191775Y0273569D01*
X0196199Y0271970D02*
X0548801Y0271970D01*
X0546553Y0270372D02*
X0198447Y0270372D01*
X0200046Y0268773D02*
X0544954Y0268773D01*
X0544016Y0267175D02*
X0200984Y0267175D01*
X0201818Y0265576D02*
X0543182Y0265576D01*
X0542753Y0263978D02*
X0202247Y0263978D01*
X0202600Y0262379D02*
X0542400Y0262379D01*
X0542400Y0260781D02*
X0202600Y0260781D01*
X0202557Y0259182D02*
X0542443Y0259182D01*
X0542871Y0257584D02*
X0299164Y0257584D01*
X0301177Y0255985D02*
X0543346Y0255985D01*
X0544269Y0254387D02*
X0302492Y0254387D01*
X0303154Y0252788D02*
X0545393Y0252788D01*
X0546991Y0251190D02*
X0303600Y0251190D01*
X0303600Y0249591D02*
X0549561Y0249591D01*
X0560439Y0249591D02*
X0600121Y0249591D01*
X0600121Y0247993D02*
X0303477Y0247993D01*
X0302815Y0246394D02*
X0600121Y0246394D01*
X0600121Y0251190D02*
X0563009Y0251190D01*
X0564607Y0252788D02*
X0600121Y0252788D01*
X0600121Y0254387D02*
X0565731Y0254387D01*
X0566654Y0255985D02*
X0600121Y0255985D01*
X0600121Y0257584D02*
X0567129Y0257584D01*
X0567557Y0259182D02*
X0600121Y0259182D01*
X0600121Y0260781D02*
X0567600Y0260781D01*
X0567600Y0262379D02*
X0600121Y0262379D01*
X0600121Y0263978D02*
X0567247Y0263978D01*
X0566818Y0265576D02*
X0600121Y0265576D01*
X0600121Y0267175D02*
X0565984Y0267175D01*
X0565046Y0268773D02*
X0600121Y0268773D01*
X0600121Y0270372D02*
X0563447Y0270372D01*
X0561199Y0271970D02*
X0600121Y0271970D01*
X0600121Y0276766D02*
X0009800Y0276766D01*
X0009800Y0278364D02*
X0600121Y0278364D01*
X0600121Y0279963D02*
X0009800Y0279963D01*
X0009800Y0281561D02*
X0600121Y0281561D01*
X0600121Y0283160D02*
X0009800Y0283160D01*
X0009800Y0284758D02*
X0600121Y0284758D01*
X0600121Y0286357D02*
X0009800Y0286357D01*
X0009800Y0287955D02*
X0600121Y0287955D01*
X0600121Y0289554D02*
X0009800Y0289554D01*
X0009800Y0291152D02*
X0600121Y0291152D01*
X0600121Y0292751D02*
X0009800Y0292751D01*
X0009800Y0294349D02*
X0600121Y0294349D01*
X0600121Y0295948D02*
X0009800Y0295948D01*
X0009800Y0297546D02*
X0600121Y0297546D01*
X0600121Y0299145D02*
X0009800Y0299145D01*
X0009800Y0300743D02*
X0600121Y0300743D01*
X0600121Y0302342D02*
X0009800Y0302342D01*
X0009800Y0303940D02*
X0395090Y0303940D01*
X0395130Y0303900D02*
X0422314Y0303900D01*
X0423083Y0303131D01*
X0424327Y0302616D01*
X0425673Y0302616D01*
X0426917Y0303131D01*
X0427869Y0304083D01*
X0428384Y0305327D01*
X0428384Y0306673D01*
X0427869Y0307917D01*
X0426917Y0308869D01*
X0425673Y0309384D01*
X0424327Y0309384D01*
X0423083Y0308869D01*
X0422314Y0308100D01*
X0396870Y0308100D01*
X0330100Y0374870D01*
X0330100Y0397314D01*
X0330869Y0398083D01*
X0331384Y0399327D01*
X0331384Y0400673D01*
X0330869Y0401917D01*
X0329917Y0402869D01*
X0328673Y0403384D01*
X0327327Y0403384D01*
X0326083Y0402869D01*
X0325131Y0401917D01*
X0324616Y0400673D01*
X0324616Y0399327D01*
X0325131Y0398083D01*
X0325900Y0397314D01*
X0325900Y0373130D01*
X0393900Y0305130D01*
X0395130Y0303900D01*
X0393491Y0305539D02*
X0182933Y0305539D01*
X0182059Y0304665D02*
X0318994Y0441600D01*
X0443477Y0441600D01*
X0444359Y0441965D01*
X0467344Y0464949D01*
X0467946Y0464700D01*
X0470054Y0464700D01*
X0472002Y0465507D01*
X0473493Y0466998D01*
X0474300Y0468946D01*
X0474300Y0471054D01*
X0473493Y0473002D01*
X0472002Y0474493D01*
X0470778Y0475000D01*
X0472002Y0475507D01*
X0473493Y0476998D01*
X0474300Y0478946D01*
X0474300Y0481054D01*
X0473493Y0483002D01*
X0472002Y0484493D01*
X0471056Y0484885D01*
X0471111Y0484903D01*
X0471883Y0485296D01*
X0472583Y0485805D01*
X0473195Y0486417D01*
X0473704Y0487117D01*
X0474097Y0487889D01*
X0474365Y0488712D01*
X0474500Y0489567D01*
X0474500Y0489800D01*
X0469200Y0489800D01*
X0469200Y0490200D01*
X0468800Y0490200D01*
X0468800Y0495500D01*
X0468567Y0495500D01*
X0467712Y0495365D01*
X0466889Y0495097D01*
X0466117Y0494704D01*
X0465417Y0494195D01*
X0464805Y0493583D01*
X0464296Y0492883D01*
X0463903Y0492111D01*
X0463635Y0491288D01*
X0463500Y0490433D01*
X0463500Y0490200D01*
X0468800Y0490200D01*
X0468800Y0489800D01*
X0463500Y0489800D01*
X0463500Y0489567D01*
X0463635Y0488712D01*
X0463903Y0487889D01*
X0464296Y0487117D01*
X0464805Y0486417D01*
X0465417Y0485805D01*
X0466117Y0485296D01*
X0466889Y0484903D01*
X0466944Y0484885D01*
X0465998Y0484493D01*
X0464507Y0483002D01*
X0464133Y0482100D01*
X0450130Y0482100D01*
X0440900Y0472870D01*
X0440400Y0472370D01*
X0418130Y0450100D01*
X0312130Y0450100D01*
X0310900Y0448870D01*
X0186130Y0324100D01*
X0166800Y0324100D01*
X0166800Y0324195D01*
X0163995Y0327000D01*
X0166800Y0329805D01*
X0166800Y0329900D01*
X0168870Y0329900D01*
X0276870Y0437900D01*
X0278100Y0439130D01*
X0278100Y0453641D01*
X0278384Y0454327D01*
X0278384Y0455673D01*
X0277869Y0456917D01*
X0276917Y0457869D01*
X0275673Y0458384D01*
X0274327Y0458384D01*
X0273083Y0457869D01*
X0272131Y0456917D01*
X0271616Y0455673D01*
X0271616Y0454327D01*
X0272131Y0453083D01*
X0273083Y0452131D01*
X0273900Y0451793D01*
X0273900Y0440870D01*
X0167130Y0334100D01*
X0166800Y0334100D01*
X0166800Y0334195D01*
X0163995Y0337000D01*
X0166800Y0339805D01*
X0166800Y0344195D01*
X0163995Y0347000D01*
X0166800Y0349805D01*
X0166800Y0354195D01*
X0163995Y0357000D01*
X0166800Y0359805D01*
X0166800Y0364195D01*
X0163995Y0367000D01*
X0166800Y0369805D01*
X0166800Y0374195D01*
X0163995Y0377000D01*
X0164595Y0377600D01*
X0202614Y0377600D01*
X0203083Y0377131D01*
X0204327Y0376616D01*
X0205673Y0376616D01*
X0206917Y0377131D01*
X0207869Y0378083D01*
X0208384Y0379327D01*
X0208384Y0380673D01*
X0207869Y0381917D01*
X0206917Y0382869D01*
X0205673Y0383384D01*
X0204327Y0383384D01*
X0203083Y0382869D01*
X0202614Y0382400D01*
X0166800Y0382400D01*
X0166800Y0384195D01*
X0163995Y0387000D01*
X0164595Y0387600D01*
X0202614Y0387600D01*
X0203083Y0387131D01*
X0204327Y0386616D01*
X0205673Y0386616D01*
X0206917Y0387131D01*
X0207869Y0388083D01*
X0208384Y0389327D01*
X0208384Y0390673D01*
X0207869Y0391917D01*
X0206917Y0392869D01*
X0205673Y0393384D01*
X0204327Y0393384D01*
X0203083Y0392869D01*
X0202614Y0392400D01*
X0166800Y0392400D01*
X0166800Y0394195D01*
X0163995Y0397000D01*
X0164595Y0397600D01*
X0202614Y0397600D01*
X0203083Y0397131D01*
X0204327Y0396616D01*
X0205673Y0396616D01*
X0206917Y0397131D01*
X0207869Y0398083D01*
X0208384Y0399327D01*
X0208384Y0400673D01*
X0207869Y0401917D01*
X0206917Y0402869D01*
X0205673Y0403384D01*
X0204327Y0403384D01*
X0203083Y0402869D01*
X0202614Y0402400D01*
X0166800Y0402400D01*
X0166800Y0404195D01*
X0163995Y0407000D01*
X0164595Y0407600D01*
X0202614Y0407600D01*
X0203083Y0407131D01*
X0204327Y0406616D01*
X0205673Y0406616D01*
X0206917Y0407131D01*
X0207869Y0408083D01*
X0208384Y0409327D01*
X0208384Y0410673D01*
X0207869Y0411917D01*
X0206917Y0412869D01*
X0205673Y0413384D01*
X0204327Y0413384D01*
X0203083Y0412869D01*
X0202614Y0412400D01*
X0166800Y0412400D01*
X0166800Y0414195D01*
X0163995Y0417000D01*
X0164595Y0417600D01*
X0202614Y0417600D01*
X0203083Y0417131D01*
X0204327Y0416616D01*
X0205673Y0416616D01*
X0206917Y0417131D01*
X0207869Y0418083D01*
X0208384Y0419327D01*
X0208384Y0420673D01*
X0207869Y0421917D01*
X0206917Y0422869D01*
X0205673Y0423384D01*
X0204327Y0423384D01*
X0203083Y0422869D01*
X0202614Y0422400D01*
X0166800Y0422400D01*
X0166800Y0424195D01*
X0163695Y0427300D01*
X0159305Y0427300D01*
X0156500Y0424495D01*
X0153695Y0427300D01*
X0149305Y0427300D01*
X0146200Y0424195D01*
X0146200Y0419805D01*
X0149005Y0417000D01*
X0146200Y0414195D01*
X0146200Y0409805D01*
X0149005Y0407000D01*
X0146200Y0404195D01*
X0146200Y0399805D01*
X0149005Y0397000D01*
X0146200Y0394195D01*
X0146200Y0389805D01*
X0149005Y0387000D01*
X0146200Y0384195D01*
X0146200Y0379805D01*
X0149005Y0377000D01*
X0146200Y0374195D01*
X0146200Y0369805D01*
X0149005Y0367000D01*
X0146200Y0364195D01*
X0146200Y0359805D01*
X0149005Y0357000D01*
X0146200Y0354195D01*
X0146200Y0349805D01*
X0149005Y0347000D01*
X0146200Y0344195D01*
X0146200Y0339805D01*
X0149005Y0337000D01*
X0146200Y0334195D01*
X0146200Y0329805D01*
X0149005Y0327000D01*
X0146405Y0324400D01*
X0127388Y0324400D01*
X0076400Y0375388D01*
X0076400Y0430614D01*
X0076869Y0431083D01*
X0077384Y0432327D01*
X0077384Y0433673D01*
X0076869Y0434917D01*
X0076400Y0435386D01*
X0076400Y0483506D01*
X0079609Y0486715D01*
X0080494Y0487600D01*
X0238614Y0487600D01*
X0239083Y0487131D01*
X0240327Y0486616D01*
X0241673Y0486616D01*
X0242917Y0487131D01*
X0243386Y0487600D01*
X0247000Y0487600D01*
X0246616Y0486673D01*
X0246616Y0485327D01*
X0247131Y0484083D01*
X0248083Y0483131D01*
X0248752Y0482854D01*
X0263641Y0467965D01*
X0264523Y0467600D01*
X0405198Y0467600D01*
X0405448Y0466998D01*
X0406939Y0465507D01*
X0408887Y0464700D01*
X0410995Y0464700D01*
X0412943Y0465507D01*
X0414434Y0466998D01*
X0415241Y0468946D01*
X0415241Y0471054D01*
X0414434Y0473002D01*
X0412943Y0474493D01*
X0411719Y0475000D01*
X0412943Y0475507D01*
X0414434Y0476998D01*
X0415241Y0478946D01*
X0415241Y0481054D01*
X0414434Y0483002D01*
X0412943Y0484493D01*
X0412444Y0484700D01*
X0414304Y0484700D01*
X0415241Y0485637D01*
X0415241Y0494363D01*
X0414304Y0495300D01*
X0405578Y0495300D01*
X0404641Y0494363D01*
X0404641Y0492400D01*
X0243386Y0492400D01*
X0242917Y0492869D01*
X0241673Y0493384D01*
X0240327Y0493384D01*
X0239083Y0492869D01*
X0238614Y0492400D01*
X0082400Y0492400D01*
X0082400Y0493614D01*
X0082869Y0494083D01*
X0083384Y0495327D01*
X0083384Y0496673D01*
X0082869Y0497917D01*
X0081917Y0498869D01*
X0080673Y0499384D01*
X0079327Y0499384D01*
X0078083Y0498869D01*
X0077131Y0497917D01*
X0076616Y0496673D01*
X0076616Y0495327D01*
X0077131Y0494083D01*
X0077600Y0493614D01*
X0077600Y0491494D01*
X0077465Y0491359D01*
X0076215Y0490109D01*
X0071965Y0485859D01*
X0071600Y0484977D01*
X0071600Y0435400D01*
X0042386Y0435400D01*
X0041917Y0435869D01*
X0040673Y0436384D01*
X0039327Y0436384D01*
X0038083Y0435869D01*
X0037131Y0434917D01*
X0036616Y0433673D01*
X0036616Y0432327D01*
X0037131Y0431083D01*
X0038083Y0430131D01*
X0039327Y0429616D01*
X0040673Y0429616D01*
X0041917Y0430131D01*
X0042386Y0430600D01*
X0071600Y0430600D01*
X0071600Y0373917D01*
X0071965Y0373035D01*
X0087600Y0357400D01*
X0072386Y0357400D01*
X0071917Y0357869D01*
X0070673Y0358384D01*
X0069327Y0358384D01*
X0068083Y0357869D01*
X0067614Y0357400D01*
X0037386Y0357400D01*
X0036917Y0357869D01*
X0035673Y0358384D01*
X0034327Y0358384D01*
X0033083Y0357869D01*
X0032131Y0356917D01*
X0031616Y0355673D01*
X0031616Y0354327D01*
X0032131Y0353083D01*
X0033083Y0352131D01*
X0034327Y0351616D01*
X0035673Y0351616D01*
X0036917Y0352131D01*
X0037386Y0352600D01*
X0067614Y0352600D01*
X0068083Y0352131D01*
X0069327Y0351616D01*
X0070673Y0351616D01*
X0071917Y0352131D01*
X0072386Y0352600D01*
X0089006Y0352600D01*
X0130965Y0310641D01*
X0130965Y0310641D01*
X0131641Y0309965D01*
X0132523Y0309600D01*
X0146405Y0309600D01*
X0149305Y0306700D01*
X0153695Y0306700D01*
X0154803Y0307808D01*
X0157270Y0305341D01*
X0157945Y0304665D01*
X0158827Y0304300D01*
X0181177Y0304300D01*
X0182059Y0304665D01*
X0180700Y0306700D02*
X0318000Y0444000D01*
X0443000Y0444000D01*
X0469000Y0470000D01*
X0474300Y0470186D02*
X0600121Y0470186D01*
X0600121Y0471784D02*
X0473998Y0471784D01*
X0473113Y0473383D02*
X0600121Y0473383D01*
X0600121Y0474981D02*
X0470824Y0474981D01*
X0473075Y0476580D02*
X0600121Y0476580D01*
X0600121Y0478178D02*
X0473982Y0478178D01*
X0474300Y0479777D02*
X0600121Y0479777D01*
X0600121Y0481375D02*
X0474167Y0481375D01*
X0473505Y0482974D02*
X0600121Y0482974D01*
X0600121Y0484572D02*
X0471811Y0484572D01*
X0472949Y0486171D02*
X0600121Y0486171D01*
X0600121Y0487769D02*
X0560748Y0487769D01*
X0559863Y0487259D02*
X0562737Y0488917D01*
X0565083Y0491263D01*
X0566741Y0494137D01*
X0567600Y0497341D01*
X0567600Y0500659D01*
X0566741Y0503863D01*
X0565083Y0506737D01*
X0562737Y0509083D01*
X0559863Y0510741D01*
X0556659Y0511600D01*
X0553341Y0511600D01*
X0550137Y0510741D01*
X0547263Y0509083D01*
X0544917Y0506737D01*
X0543259Y0503863D01*
X0542400Y0500659D01*
X0542400Y0497341D01*
X0543259Y0494137D01*
X0544917Y0491263D01*
X0547263Y0488917D01*
X0550137Y0487259D01*
X0553341Y0486400D01*
X0556659Y0486400D01*
X0559863Y0487259D01*
X0563187Y0489368D02*
X0600121Y0489368D01*
X0600121Y0490966D02*
X0564785Y0490966D01*
X0565834Y0492565D02*
X0600121Y0492565D01*
X0600121Y0494163D02*
X0566748Y0494163D01*
X0567177Y0495762D02*
X0600121Y0495762D01*
X0600121Y0497360D02*
X0567600Y0497360D01*
X0567600Y0498959D02*
X0600121Y0498959D01*
X0600121Y0500557D02*
X0567600Y0500557D01*
X0567199Y0502156D02*
X0600121Y0502156D01*
X0600121Y0503754D02*
X0566771Y0503754D01*
X0565881Y0505353D02*
X0600121Y0505353D01*
X0600121Y0506951D02*
X0564868Y0506951D01*
X0563269Y0508550D02*
X0600121Y0508550D01*
X0600121Y0510148D02*
X0560890Y0510148D01*
X0549110Y0510148D02*
X0303600Y0510148D01*
X0303600Y0508550D02*
X0546731Y0508550D01*
X0545132Y0506951D02*
X0303460Y0506951D01*
X0302798Y0505353D02*
X0544119Y0505353D01*
X0543229Y0503754D02*
X0301917Y0503754D01*
X0300318Y0502156D02*
X0542801Y0502156D01*
X0542400Y0500557D02*
X0297091Y0500557D01*
X0292909Y0500557D02*
X0291384Y0500557D01*
X0291232Y0498959D02*
X0542400Y0498959D01*
X0542400Y0497360D02*
X0290146Y0497360D01*
X0288000Y0500000D02*
X0110500Y0500000D01*
X0100000Y0510500D01*
X0096053Y0506951D02*
X0094681Y0506951D01*
X0093348Y0505353D02*
X0098577Y0505353D01*
X0101423Y0505353D02*
X0101753Y0505353D01*
X0103352Y0503754D02*
X0031917Y0503754D01*
X0032798Y0505353D02*
X0058577Y0505353D01*
X0061423Y0505353D02*
X0066652Y0505353D01*
X0065319Y0506951D02*
X0063947Y0506951D01*
X0065207Y0511778D02*
X0064493Y0513502D01*
X0064095Y0513901D01*
X0066905Y0513901D01*
X0065507Y0512502D01*
X0065207Y0511778D01*
X0064558Y0513345D02*
X0066350Y0513345D01*
X0055442Y0513345D02*
X0032509Y0513345D01*
X0033171Y0511747D02*
X0054780Y0511747D01*
X0054700Y0510148D02*
X0033600Y0510148D01*
X0033600Y0508550D02*
X0055071Y0508550D01*
X0056053Y0506951D02*
X0033460Y0506951D01*
X0030318Y0502156D02*
X0104950Y0502156D01*
X0106549Y0500557D02*
X0027091Y0500557D01*
X0022909Y0500557D02*
X0009800Y0500557D01*
X0009800Y0498959D02*
X0078300Y0498959D01*
X0076900Y0497360D02*
X0009800Y0497360D01*
X0009800Y0495762D02*
X0076616Y0495762D01*
X0077098Y0494163D02*
X0009800Y0494163D01*
X0009800Y0492565D02*
X0077600Y0492565D01*
X0077072Y0490966D02*
X0009800Y0490966D01*
X0009800Y0489368D02*
X0075474Y0489368D01*
X0073875Y0487769D02*
X0009800Y0487769D01*
X0009800Y0486171D02*
X0072277Y0486171D01*
X0071600Y0484572D02*
X0009800Y0484572D01*
X0009800Y0482974D02*
X0071600Y0482974D01*
X0071600Y0481375D02*
X0009800Y0481375D01*
X0009800Y0479777D02*
X0071600Y0479777D01*
X0071600Y0478178D02*
X0009800Y0478178D01*
X0009800Y0476580D02*
X0071600Y0476580D01*
X0071600Y0474981D02*
X0009800Y0474981D01*
X0009800Y0473383D02*
X0071600Y0473383D01*
X0071600Y0471784D02*
X0009800Y0471784D01*
X0009800Y0470186D02*
X0071600Y0470186D01*
X0071600Y0468587D02*
X0009800Y0468587D01*
X0009800Y0466989D02*
X0071600Y0466989D01*
X0071600Y0465390D02*
X0009800Y0465390D01*
X0009800Y0463792D02*
X0071600Y0463792D01*
X0071600Y0462193D02*
X0009800Y0462193D01*
X0009800Y0460595D02*
X0071600Y0460595D01*
X0071600Y0458996D02*
X0009800Y0458996D01*
X0009800Y0457398D02*
X0071600Y0457398D01*
X0071600Y0455799D02*
X0009800Y0455799D01*
X0009800Y0454201D02*
X0071600Y0454201D01*
X0071600Y0452602D02*
X0009800Y0452602D01*
X0009800Y0451003D02*
X0071600Y0451003D01*
X0071600Y0449405D02*
X0009800Y0449405D01*
X0009800Y0447806D02*
X0071600Y0447806D01*
X0071600Y0446208D02*
X0009800Y0446208D01*
X0009800Y0444609D02*
X0071600Y0444609D01*
X0071600Y0443011D02*
X0009800Y0443011D01*
X0009800Y0441412D02*
X0071600Y0441412D01*
X0071600Y0439814D02*
X0009800Y0439814D01*
X0009800Y0438215D02*
X0071600Y0438215D01*
X0071600Y0436617D02*
X0009800Y0436617D01*
X0009800Y0435018D02*
X0037232Y0435018D01*
X0036616Y0433420D02*
X0009800Y0433420D01*
X0009800Y0431821D02*
X0036825Y0431821D01*
X0037991Y0430223D02*
X0009800Y0430223D01*
X0009800Y0428624D02*
X0071600Y0428624D01*
X0071600Y0427026D02*
X0009800Y0427026D01*
X0009800Y0425427D02*
X0071600Y0425427D01*
X0071600Y0423829D02*
X0009800Y0423829D01*
X0009800Y0422230D02*
X0071600Y0422230D01*
X0071600Y0420632D02*
X0009800Y0420632D01*
X0009800Y0419033D02*
X0071600Y0419033D01*
X0071600Y0417435D02*
X0009800Y0417435D01*
X0009800Y0415836D02*
X0071600Y0415836D01*
X0071600Y0414238D02*
X0009800Y0414238D01*
X0009800Y0412639D02*
X0071600Y0412639D01*
X0071600Y0411041D02*
X0009800Y0411041D01*
X0009800Y0409442D02*
X0071600Y0409442D01*
X0071600Y0407844D02*
X0009800Y0407844D01*
X0009800Y0406245D02*
X0071600Y0406245D01*
X0071600Y0404647D02*
X0009800Y0404647D01*
X0009800Y0403048D02*
X0071600Y0403048D01*
X0071600Y0401450D02*
X0009800Y0401450D01*
X0009800Y0399851D02*
X0071600Y0399851D01*
X0071600Y0398253D02*
X0009800Y0398253D01*
X0009800Y0396654D02*
X0071600Y0396654D01*
X0071600Y0395056D02*
X0009800Y0395056D01*
X0009800Y0393457D02*
X0071600Y0393457D01*
X0071600Y0391859D02*
X0009800Y0391859D01*
X0009800Y0390260D02*
X0071600Y0390260D01*
X0071600Y0388662D02*
X0009800Y0388662D01*
X0009800Y0387063D02*
X0071600Y0387063D01*
X0071600Y0385465D02*
X0009800Y0385465D01*
X0009800Y0383866D02*
X0071600Y0383866D01*
X0071600Y0382268D02*
X0009800Y0382268D01*
X0009800Y0380669D02*
X0071600Y0380669D01*
X0071600Y0379070D02*
X0009800Y0379070D01*
X0009800Y0377472D02*
X0071600Y0377472D01*
X0071600Y0375873D02*
X0009800Y0375873D01*
X0009800Y0374275D02*
X0071600Y0374275D01*
X0072324Y0372676D02*
X0009800Y0372676D01*
X0009800Y0371078D02*
X0073922Y0371078D01*
X0075521Y0369479D02*
X0009800Y0369479D01*
X0009800Y0367881D02*
X0077119Y0367881D01*
X0078718Y0366282D02*
X0009800Y0366282D01*
X0009800Y0364684D02*
X0080316Y0364684D01*
X0081915Y0363085D02*
X0009800Y0363085D01*
X0009800Y0361487D02*
X0083513Y0361487D01*
X0085112Y0359888D02*
X0009800Y0359888D01*
X0009800Y0358290D02*
X0034099Y0358290D01*
X0035901Y0358290D02*
X0069099Y0358290D01*
X0070901Y0358290D02*
X0086710Y0358290D01*
X0090000Y0355000D02*
X0070000Y0355000D01*
X0035000Y0355000D01*
X0036349Y0351896D02*
X0068651Y0351896D01*
X0071349Y0351896D02*
X0089710Y0351896D01*
X0091309Y0350297D02*
X0009800Y0350297D01*
X0009800Y0348699D02*
X0092907Y0348699D01*
X0094506Y0347100D02*
X0009800Y0347100D01*
X0009800Y0345502D02*
X0096104Y0345502D01*
X0097703Y0343903D02*
X0009800Y0343903D01*
X0009800Y0342305D02*
X0099301Y0342305D01*
X0100900Y0340706D02*
X0009800Y0340706D01*
X0009800Y0339108D02*
X0102498Y0339108D01*
X0104097Y0337509D02*
X0009800Y0337509D01*
X0009800Y0335911D02*
X0105695Y0335911D01*
X0107294Y0334312D02*
X0009800Y0334312D01*
X0009800Y0332714D02*
X0108892Y0332714D01*
X0110491Y0331115D02*
X0009800Y0331115D01*
X0009800Y0329517D02*
X0112089Y0329517D01*
X0113688Y0327918D02*
X0009800Y0327918D01*
X0009800Y0326320D02*
X0115286Y0326320D01*
X0116885Y0324721D02*
X0009800Y0324721D01*
X0009800Y0323123D02*
X0118483Y0323123D01*
X0120082Y0321524D02*
X0009800Y0321524D01*
X0009800Y0319926D02*
X0121680Y0319926D01*
X0123279Y0318327D02*
X0009800Y0318327D01*
X0009800Y0316729D02*
X0124877Y0316729D01*
X0126476Y0315130D02*
X0009800Y0315130D01*
X0009800Y0313532D02*
X0128074Y0313532D01*
X0129673Y0311933D02*
X0009800Y0311933D01*
X0009800Y0310334D02*
X0131271Y0310334D01*
X0133000Y0312000D02*
X0151500Y0312000D01*
X0154005Y0312000D01*
X0159305Y0306700D01*
X0180700Y0306700D01*
X0179706Y0309100D02*
X0316506Y0445900D01*
X0313870Y0445900D01*
X0187870Y0319900D01*
X0166800Y0319900D01*
X0166800Y0319805D01*
X0164137Y0317141D01*
X0167000Y0314278D01*
X0167000Y0312200D01*
X0161700Y0312200D01*
X0161700Y0311800D01*
X0167000Y0311800D01*
X0167000Y0309722D01*
X0166378Y0309100D01*
X0179706Y0309100D01*
X0180940Y0310334D02*
X0167000Y0310334D01*
X0167000Y0313532D02*
X0184137Y0313532D01*
X0185736Y0315130D02*
X0166148Y0315130D01*
X0164550Y0316729D02*
X0187334Y0316729D01*
X0188933Y0318327D02*
X0165322Y0318327D01*
X0166274Y0324721D02*
X0186751Y0324721D01*
X0188350Y0326320D02*
X0164676Y0326320D01*
X0164913Y0327918D02*
X0189948Y0327918D01*
X0191547Y0329517D02*
X0166512Y0329517D01*
X0170085Y0331115D02*
X0193145Y0331115D01*
X0194744Y0332714D02*
X0171684Y0332714D01*
X0173282Y0334312D02*
X0196342Y0334312D01*
X0197941Y0335911D02*
X0174881Y0335911D01*
X0176479Y0337509D02*
X0199539Y0337509D01*
X0201138Y0339108D02*
X0178078Y0339108D01*
X0179676Y0340706D02*
X0202736Y0340706D01*
X0204335Y0342305D02*
X0181275Y0342305D01*
X0182873Y0343903D02*
X0205933Y0343903D01*
X0207532Y0345502D02*
X0184472Y0345502D01*
X0186070Y0347100D02*
X0209130Y0347100D01*
X0210729Y0348699D02*
X0187669Y0348699D01*
X0189267Y0350297D02*
X0212327Y0350297D01*
X0213926Y0351896D02*
X0190866Y0351896D01*
X0192464Y0353494D02*
X0215524Y0353494D01*
X0217123Y0355093D02*
X0194063Y0355093D01*
X0195661Y0356691D02*
X0218721Y0356691D01*
X0220320Y0358290D02*
X0197260Y0358290D01*
X0198858Y0359888D02*
X0221919Y0359888D01*
X0223517Y0361487D02*
X0200457Y0361487D01*
X0202055Y0363085D02*
X0225116Y0363085D01*
X0226714Y0364684D02*
X0203654Y0364684D01*
X0205252Y0366282D02*
X0228313Y0366282D01*
X0229911Y0367881D02*
X0206851Y0367881D01*
X0208449Y0369479D02*
X0231510Y0369479D01*
X0233108Y0371078D02*
X0210048Y0371078D01*
X0211646Y0372676D02*
X0234707Y0372676D01*
X0236305Y0374275D02*
X0213245Y0374275D01*
X0214843Y0375873D02*
X0237904Y0375873D01*
X0239502Y0377472D02*
X0216442Y0377472D01*
X0218040Y0379070D02*
X0241101Y0379070D01*
X0242699Y0380669D02*
X0219639Y0380669D01*
X0221237Y0382268D02*
X0244298Y0382268D01*
X0245896Y0383866D02*
X0222836Y0383866D01*
X0224434Y0385465D02*
X0247495Y0385465D01*
X0249093Y0387063D02*
X0226033Y0387063D01*
X0227631Y0388662D02*
X0250692Y0388662D01*
X0252290Y0390260D02*
X0229230Y0390260D01*
X0230828Y0391859D02*
X0253889Y0391859D01*
X0255487Y0393457D02*
X0232427Y0393457D01*
X0234025Y0395056D02*
X0257086Y0395056D01*
X0258684Y0396654D02*
X0235624Y0396654D01*
X0237222Y0398253D02*
X0260283Y0398253D01*
X0261881Y0399851D02*
X0238821Y0399851D01*
X0240419Y0401450D02*
X0263480Y0401450D01*
X0265078Y0403048D02*
X0242018Y0403048D01*
X0243617Y0404647D02*
X0266677Y0404647D01*
X0268275Y0406245D02*
X0245215Y0406245D01*
X0246814Y0407844D02*
X0269874Y0407844D01*
X0271472Y0409442D02*
X0248412Y0409442D01*
X0250011Y0411041D02*
X0273071Y0411041D01*
X0274669Y0412639D02*
X0251609Y0412639D01*
X0253208Y0414238D02*
X0276268Y0414238D01*
X0277866Y0415836D02*
X0254806Y0415836D01*
X0256405Y0417435D02*
X0279465Y0417435D01*
X0281063Y0419033D02*
X0258003Y0419033D01*
X0259602Y0420632D02*
X0282662Y0420632D01*
X0284260Y0422230D02*
X0261200Y0422230D01*
X0262799Y0423829D02*
X0285859Y0423829D01*
X0287457Y0425427D02*
X0264397Y0425427D01*
X0265996Y0427026D02*
X0289056Y0427026D01*
X0290654Y0428624D02*
X0267594Y0428624D01*
X0269193Y0430223D02*
X0292253Y0430223D01*
X0293852Y0431821D02*
X0270791Y0431821D01*
X0272390Y0433420D02*
X0295450Y0433420D01*
X0297049Y0435018D02*
X0273988Y0435018D01*
X0275587Y0436617D02*
X0298647Y0436617D01*
X0300246Y0438215D02*
X0277185Y0438215D01*
X0278100Y0439814D02*
X0301844Y0439814D01*
X0303443Y0441412D02*
X0278100Y0441412D01*
X0278100Y0443011D02*
X0305041Y0443011D01*
X0306640Y0444609D02*
X0278100Y0444609D01*
X0278100Y0446208D02*
X0308238Y0446208D01*
X0309837Y0447806D02*
X0278100Y0447806D01*
X0278100Y0449405D02*
X0311435Y0449405D01*
X0312579Y0444609D02*
X0315215Y0444609D01*
X0313617Y0443011D02*
X0310981Y0443011D01*
X0312018Y0441412D02*
X0309382Y0441412D01*
X0310420Y0439814D02*
X0307784Y0439814D01*
X0308821Y0438215D02*
X0306185Y0438215D01*
X0307223Y0436617D02*
X0304587Y0436617D01*
X0305624Y0435018D02*
X0302988Y0435018D01*
X0304026Y0433420D02*
X0301390Y0433420D01*
X0302427Y0431821D02*
X0299791Y0431821D01*
X0300829Y0430223D02*
X0298193Y0430223D01*
X0299230Y0428624D02*
X0296594Y0428624D01*
X0297632Y0427026D02*
X0294996Y0427026D01*
X0296033Y0425427D02*
X0293397Y0425427D01*
X0294435Y0423829D02*
X0291799Y0423829D01*
X0292836Y0422230D02*
X0290200Y0422230D01*
X0291238Y0420632D02*
X0288602Y0420632D01*
X0289639Y0419033D02*
X0287003Y0419033D01*
X0288041Y0417435D02*
X0285405Y0417435D01*
X0286442Y0415836D02*
X0283806Y0415836D01*
X0284844Y0414238D02*
X0282208Y0414238D01*
X0283245Y0412639D02*
X0280609Y0412639D01*
X0281647Y0411041D02*
X0279011Y0411041D01*
X0280048Y0409442D02*
X0277412Y0409442D01*
X0278450Y0407844D02*
X0275814Y0407844D01*
X0276851Y0406245D02*
X0274215Y0406245D01*
X0275253Y0404647D02*
X0272617Y0404647D01*
X0273654Y0403048D02*
X0271018Y0403048D01*
X0272056Y0401450D02*
X0269419Y0401450D01*
X0270457Y0399851D02*
X0267821Y0399851D01*
X0268859Y0398253D02*
X0266222Y0398253D01*
X0267260Y0396654D02*
X0264624Y0396654D01*
X0265662Y0395056D02*
X0263025Y0395056D01*
X0264063Y0393457D02*
X0261427Y0393457D01*
X0262464Y0391859D02*
X0259828Y0391859D01*
X0260866Y0390260D02*
X0258230Y0390260D01*
X0259267Y0388662D02*
X0256631Y0388662D01*
X0257669Y0387063D02*
X0255033Y0387063D01*
X0256070Y0385465D02*
X0253434Y0385465D01*
X0254472Y0383866D02*
X0251836Y0383866D01*
X0252873Y0382268D02*
X0250237Y0382268D01*
X0251275Y0380669D02*
X0248639Y0380669D01*
X0249676Y0379070D02*
X0247040Y0379070D01*
X0248078Y0377472D02*
X0245442Y0377472D01*
X0246479Y0375873D02*
X0243843Y0375873D01*
X0244881Y0374275D02*
X0242245Y0374275D01*
X0243282Y0372676D02*
X0240646Y0372676D01*
X0241684Y0371078D02*
X0239048Y0371078D01*
X0240085Y0369479D02*
X0237449Y0369479D01*
X0238487Y0367881D02*
X0235851Y0367881D01*
X0236888Y0366282D02*
X0234252Y0366282D01*
X0235290Y0364684D02*
X0232654Y0364684D01*
X0233691Y0363085D02*
X0231055Y0363085D01*
X0232093Y0361487D02*
X0229457Y0361487D01*
X0230494Y0359888D02*
X0227858Y0359888D01*
X0228896Y0358290D02*
X0226260Y0358290D01*
X0227297Y0356691D02*
X0224661Y0356691D01*
X0225699Y0355093D02*
X0223063Y0355093D01*
X0224100Y0353494D02*
X0221464Y0353494D01*
X0222502Y0351896D02*
X0219866Y0351896D01*
X0220903Y0350297D02*
X0218267Y0350297D01*
X0219305Y0348699D02*
X0216669Y0348699D01*
X0217706Y0347100D02*
X0215070Y0347100D01*
X0216108Y0345502D02*
X0213472Y0345502D01*
X0214509Y0343903D02*
X0211873Y0343903D01*
X0212911Y0342305D02*
X0210275Y0342305D01*
X0211312Y0340706D02*
X0208676Y0340706D01*
X0209714Y0339108D02*
X0207078Y0339108D01*
X0208115Y0337509D02*
X0205479Y0337509D01*
X0206517Y0335911D02*
X0203881Y0335911D01*
X0204918Y0334312D02*
X0202282Y0334312D01*
X0203320Y0332714D02*
X0200684Y0332714D01*
X0201721Y0331115D02*
X0199085Y0331115D01*
X0200123Y0329517D02*
X0197486Y0329517D01*
X0198524Y0327918D02*
X0195888Y0327918D01*
X0196926Y0326320D02*
X0194289Y0326320D01*
X0195327Y0324721D02*
X0192691Y0324721D01*
X0193728Y0323123D02*
X0191092Y0323123D01*
X0192130Y0321524D02*
X0189494Y0321524D01*
X0190531Y0319926D02*
X0187895Y0319926D01*
X0192524Y0315130D02*
X0383900Y0315130D01*
X0382302Y0316729D02*
X0194123Y0316729D01*
X0195721Y0318327D02*
X0380703Y0318327D01*
X0379105Y0319926D02*
X0197320Y0319926D01*
X0198918Y0321524D02*
X0377506Y0321524D01*
X0375908Y0323123D02*
X0200517Y0323123D01*
X0202115Y0324721D02*
X0374309Y0324721D01*
X0372711Y0326320D02*
X0203714Y0326320D01*
X0205312Y0327918D02*
X0371112Y0327918D01*
X0369514Y0329517D02*
X0206911Y0329517D01*
X0208509Y0331115D02*
X0367915Y0331115D01*
X0366316Y0332714D02*
X0210108Y0332714D01*
X0211706Y0334312D02*
X0364718Y0334312D01*
X0363119Y0335911D02*
X0213305Y0335911D01*
X0214903Y0337509D02*
X0361521Y0337509D01*
X0359922Y0339108D02*
X0216502Y0339108D01*
X0218100Y0340706D02*
X0358324Y0340706D01*
X0356725Y0342305D02*
X0219699Y0342305D01*
X0221297Y0343903D02*
X0355127Y0343903D01*
X0353528Y0345502D02*
X0222896Y0345502D01*
X0224494Y0347100D02*
X0351930Y0347100D01*
X0350331Y0348699D02*
X0226093Y0348699D01*
X0227691Y0350297D02*
X0348733Y0350297D01*
X0347134Y0351896D02*
X0229290Y0351896D01*
X0230888Y0353494D02*
X0345536Y0353494D01*
X0343937Y0355093D02*
X0232487Y0355093D01*
X0234085Y0356691D02*
X0342339Y0356691D01*
X0340740Y0358290D02*
X0235684Y0358290D01*
X0237282Y0359888D02*
X0339142Y0359888D01*
X0337543Y0361487D02*
X0238881Y0361487D01*
X0240479Y0363085D02*
X0335945Y0363085D01*
X0334346Y0364684D02*
X0242078Y0364684D01*
X0243677Y0366282D02*
X0332748Y0366282D01*
X0331149Y0367881D02*
X0245275Y0367881D01*
X0246874Y0369479D02*
X0329551Y0369479D01*
X0327952Y0371078D02*
X0248472Y0371078D01*
X0250071Y0372676D02*
X0326354Y0372676D01*
X0325900Y0374275D02*
X0251669Y0374275D01*
X0253268Y0375873D02*
X0325900Y0375873D01*
X0325900Y0377472D02*
X0254866Y0377472D01*
X0256465Y0379070D02*
X0325900Y0379070D01*
X0325900Y0380669D02*
X0258063Y0380669D01*
X0259662Y0382268D02*
X0325900Y0382268D01*
X0325900Y0383866D02*
X0261260Y0383866D01*
X0262859Y0385465D02*
X0325900Y0385465D01*
X0325900Y0387063D02*
X0264457Y0387063D01*
X0266056Y0388662D02*
X0325900Y0388662D01*
X0325900Y0390260D02*
X0267654Y0390260D01*
X0269253Y0391859D02*
X0325900Y0391859D01*
X0325900Y0393457D02*
X0270851Y0393457D01*
X0272450Y0395056D02*
X0325900Y0395056D01*
X0325900Y0396654D02*
X0274048Y0396654D01*
X0275647Y0398253D02*
X0325061Y0398253D01*
X0324616Y0399851D02*
X0277245Y0399851D01*
X0278844Y0401450D02*
X0324937Y0401450D01*
X0326515Y0403048D02*
X0280442Y0403048D01*
X0282041Y0404647D02*
X0600121Y0404647D01*
X0600121Y0406245D02*
X0283639Y0406245D01*
X0285238Y0407844D02*
X0600121Y0407844D01*
X0600121Y0409442D02*
X0286836Y0409442D01*
X0288435Y0411041D02*
X0600121Y0411041D01*
X0600121Y0412639D02*
X0290033Y0412639D01*
X0291632Y0414238D02*
X0600121Y0414238D01*
X0600121Y0415836D02*
X0293230Y0415836D01*
X0294829Y0417435D02*
X0600121Y0417435D01*
X0600121Y0419033D02*
X0296427Y0419033D01*
X0298026Y0420632D02*
X0600121Y0420632D01*
X0600121Y0422230D02*
X0299624Y0422230D01*
X0301223Y0423829D02*
X0600121Y0423829D01*
X0600121Y0425427D02*
X0302821Y0425427D01*
X0304420Y0427026D02*
X0600121Y0427026D01*
X0600121Y0428624D02*
X0306018Y0428624D01*
X0307617Y0430223D02*
X0600121Y0430223D01*
X0600121Y0431821D02*
X0309215Y0431821D01*
X0310814Y0433420D02*
X0600121Y0433420D01*
X0600121Y0435018D02*
X0312412Y0435018D01*
X0314011Y0436617D02*
X0600121Y0436617D01*
X0600121Y0438215D02*
X0315610Y0438215D01*
X0317208Y0439814D02*
X0600121Y0439814D01*
X0600121Y0441412D02*
X0318807Y0441412D01*
X0278100Y0451003D02*
X0419034Y0451003D01*
X0420632Y0452602D02*
X0278100Y0452602D01*
X0278332Y0454201D02*
X0422231Y0454201D01*
X0423829Y0455799D02*
X0278332Y0455799D01*
X0277388Y0457398D02*
X0425428Y0457398D01*
X0427026Y0458996D02*
X0076400Y0458996D01*
X0076400Y0457398D02*
X0272611Y0457398D01*
X0271668Y0455799D02*
X0076400Y0455799D01*
X0076400Y0454201D02*
X0271668Y0454201D01*
X0272612Y0452602D02*
X0076400Y0452602D01*
X0076400Y0451003D02*
X0113859Y0451003D01*
X0115137Y0451741D02*
X0112263Y0450083D01*
X0109917Y0447737D01*
X0108259Y0444863D01*
X0107400Y0441659D01*
X0107400Y0438341D01*
X0108259Y0435137D01*
X0109917Y0432263D01*
X0112263Y0429917D01*
X0115137Y0428259D01*
X0118341Y0427400D01*
X0121659Y0427400D01*
X0124863Y0428259D01*
X0127737Y0429917D01*
X0130083Y0432263D01*
X0131741Y0435137D01*
X0132600Y0438341D01*
X0132600Y0441659D01*
X0131741Y0444863D01*
X0130083Y0447737D01*
X0127737Y0450083D01*
X0124863Y0451741D01*
X0121659Y0452600D01*
X0118341Y0452600D01*
X0115137Y0451741D01*
X0111586Y0449405D02*
X0076400Y0449405D01*
X0076400Y0447806D02*
X0109987Y0447806D01*
X0109035Y0446208D02*
X0076400Y0446208D01*
X0076400Y0444609D02*
X0108191Y0444609D01*
X0107762Y0443011D02*
X0076400Y0443011D01*
X0076400Y0441412D02*
X0107400Y0441412D01*
X0107400Y0439814D02*
X0076400Y0439814D01*
X0076400Y0438215D02*
X0107434Y0438215D01*
X0107862Y0436617D02*
X0076400Y0436617D01*
X0076768Y0435018D02*
X0108327Y0435018D01*
X0109250Y0433420D02*
X0077384Y0433420D01*
X0077175Y0431821D02*
X0110360Y0431821D01*
X0111958Y0430223D02*
X0076400Y0430223D01*
X0076400Y0428624D02*
X0114503Y0428624D01*
X0125497Y0428624D02*
X0261654Y0428624D01*
X0260056Y0427026D02*
X0163969Y0427026D01*
X0165568Y0425427D02*
X0258457Y0425427D01*
X0256859Y0423829D02*
X0166800Y0423829D01*
X0163500Y0420000D02*
X0161500Y0422000D01*
X0163500Y0420000D02*
X0205000Y0420000D01*
X0207556Y0422230D02*
X0255260Y0422230D01*
X0253662Y0420632D02*
X0208384Y0420632D01*
X0208263Y0419033D02*
X0252063Y0419033D01*
X0250465Y0417435D02*
X0207221Y0417435D01*
X0202779Y0417435D02*
X0164430Y0417435D01*
X0165159Y0415836D02*
X0248866Y0415836D01*
X0247268Y0414238D02*
X0166758Y0414238D01*
X0166800Y0412639D02*
X0202853Y0412639D01*
X0205000Y0410000D02*
X0163500Y0410000D01*
X0161500Y0412000D01*
X0157841Y0415836D02*
X0155159Y0415836D01*
X0153995Y0417000D02*
X0156500Y0414495D01*
X0159005Y0417000D01*
X0156500Y0419505D01*
X0153995Y0417000D01*
X0154430Y0417435D02*
X0158570Y0417435D01*
X0156971Y0419033D02*
X0156029Y0419033D01*
X0148570Y0417435D02*
X0076400Y0417435D01*
X0076400Y0419033D02*
X0146971Y0419033D01*
X0146200Y0420632D02*
X0076400Y0420632D01*
X0076400Y0422230D02*
X0146200Y0422230D01*
X0146200Y0423829D02*
X0076400Y0423829D01*
X0076400Y0425427D02*
X0147432Y0425427D01*
X0149030Y0427026D02*
X0076400Y0427026D01*
X0071600Y0430223D02*
X0042009Y0430223D01*
X0040000Y0433000D02*
X0074000Y0433000D01*
X0074000Y0374394D01*
X0126394Y0322000D01*
X0151500Y0322000D01*
X0155322Y0318327D02*
X0157678Y0318327D01*
X0156500Y0319505D02*
X0158863Y0317141D01*
X0156359Y0314637D01*
X0153995Y0317000D01*
X0156500Y0319505D01*
X0158450Y0316729D02*
X0154267Y0316729D01*
X0155865Y0315130D02*
X0156852Y0315130D01*
X0161700Y0311933D02*
X0182539Y0311933D01*
X0186130Y0308736D02*
X0390294Y0308736D01*
X0388696Y0310334D02*
X0187729Y0310334D01*
X0189327Y0311933D02*
X0387097Y0311933D01*
X0385499Y0313532D02*
X0190926Y0313532D01*
X0184532Y0307137D02*
X0391893Y0307137D01*
X0394635Y0310334D02*
X0600121Y0310334D01*
X0600121Y0308736D02*
X0427050Y0308736D01*
X0428192Y0307137D02*
X0600121Y0307137D01*
X0600121Y0305539D02*
X0428384Y0305539D01*
X0427727Y0303940D02*
X0600121Y0303940D01*
X0600121Y0311933D02*
X0393037Y0311933D01*
X0391438Y0313532D02*
X0600121Y0313532D01*
X0600121Y0315130D02*
X0389840Y0315130D01*
X0388241Y0316729D02*
X0600121Y0316729D01*
X0600121Y0318327D02*
X0386643Y0318327D01*
X0385044Y0319926D02*
X0600121Y0319926D01*
X0600121Y0321524D02*
X0383446Y0321524D01*
X0381847Y0323123D02*
X0600121Y0323123D01*
X0600121Y0324721D02*
X0380249Y0324721D01*
X0378650Y0326320D02*
X0600121Y0326320D01*
X0600121Y0327918D02*
X0377052Y0327918D01*
X0375453Y0329517D02*
X0600121Y0329517D01*
X0600121Y0331115D02*
X0373855Y0331115D01*
X0372256Y0332714D02*
X0600121Y0332714D01*
X0600121Y0334312D02*
X0370658Y0334312D01*
X0369059Y0335911D02*
X0600121Y0335911D01*
X0600121Y0337509D02*
X0367461Y0337509D01*
X0365862Y0339108D02*
X0600121Y0339108D01*
X0600121Y0340706D02*
X0364264Y0340706D01*
X0362665Y0342305D02*
X0600121Y0342305D01*
X0600121Y0343903D02*
X0361067Y0343903D01*
X0359468Y0345502D02*
X0600121Y0345502D01*
X0600121Y0347100D02*
X0357870Y0347100D01*
X0356271Y0348699D02*
X0600121Y0348699D01*
X0600121Y0350297D02*
X0354673Y0350297D01*
X0353074Y0351896D02*
X0600121Y0351896D01*
X0600121Y0353494D02*
X0351476Y0353494D01*
X0349877Y0355093D02*
X0600121Y0355093D01*
X0600121Y0356691D02*
X0348279Y0356691D01*
X0346680Y0358290D02*
X0600121Y0358290D01*
X0600121Y0359888D02*
X0345081Y0359888D01*
X0343483Y0361487D02*
X0600121Y0361487D01*
X0600121Y0363085D02*
X0341884Y0363085D01*
X0340286Y0364684D02*
X0600121Y0364684D01*
X0600121Y0366282D02*
X0338687Y0366282D01*
X0337089Y0367881D02*
X0600121Y0367881D01*
X0600121Y0369479D02*
X0335490Y0369479D01*
X0333892Y0371078D02*
X0600121Y0371078D01*
X0600121Y0372676D02*
X0332293Y0372676D01*
X0330695Y0374275D02*
X0600121Y0374275D01*
X0600121Y0375873D02*
X0330100Y0375873D01*
X0330100Y0377472D02*
X0600121Y0377472D01*
X0600121Y0379070D02*
X0330100Y0379070D01*
X0330100Y0380669D02*
X0600121Y0380669D01*
X0600121Y0382268D02*
X0330100Y0382268D01*
X0330100Y0383866D02*
X0600121Y0383866D01*
X0600121Y0385465D02*
X0330100Y0385465D01*
X0330100Y0387063D02*
X0600121Y0387063D01*
X0600121Y0388662D02*
X0330100Y0388662D01*
X0330100Y0390260D02*
X0600121Y0390260D01*
X0600121Y0391859D02*
X0330100Y0391859D01*
X0330100Y0393457D02*
X0600121Y0393457D01*
X0600121Y0395056D02*
X0330100Y0395056D01*
X0330100Y0396654D02*
X0600121Y0396654D01*
X0600121Y0398253D02*
X0330939Y0398253D01*
X0331384Y0399851D02*
X0600121Y0399851D01*
X0600121Y0401450D02*
X0331063Y0401450D01*
X0329485Y0403048D02*
X0600121Y0403048D01*
X0600121Y0443011D02*
X0445405Y0443011D01*
X0447004Y0444609D02*
X0600121Y0444609D01*
X0600121Y0446208D02*
X0448602Y0446208D01*
X0450201Y0447806D02*
X0600121Y0447806D01*
X0600121Y0449405D02*
X0451799Y0449405D01*
X0453398Y0451003D02*
X0600121Y0451003D01*
X0600121Y0452602D02*
X0454996Y0452602D01*
X0456595Y0454201D02*
X0600121Y0454201D01*
X0600121Y0455799D02*
X0458193Y0455799D01*
X0459792Y0457398D02*
X0600121Y0457398D01*
X0600121Y0458996D02*
X0461390Y0458996D01*
X0462989Y0460595D02*
X0600121Y0460595D01*
X0600121Y0462193D02*
X0464587Y0462193D01*
X0466186Y0463792D02*
X0600121Y0463792D01*
X0600121Y0465390D02*
X0471720Y0465390D01*
X0473484Y0466989D02*
X0600121Y0466989D01*
X0600121Y0468587D02*
X0474151Y0468587D01*
X0467222Y0475000D02*
X0465998Y0474493D01*
X0464507Y0473002D01*
X0463700Y0471054D01*
X0463700Y0468946D01*
X0463949Y0468344D01*
X0442006Y0446400D01*
X0420370Y0446400D01*
X0443370Y0469400D01*
X0443870Y0469900D01*
X0451870Y0477900D01*
X0464133Y0477900D01*
X0464507Y0476998D01*
X0465998Y0475507D01*
X0467222Y0475000D01*
X0467176Y0474981D02*
X0448951Y0474981D01*
X0447352Y0473383D02*
X0464887Y0473383D01*
X0464002Y0471784D02*
X0445754Y0471784D01*
X0444155Y0470186D02*
X0463700Y0470186D01*
X0463849Y0468587D02*
X0442557Y0468587D01*
X0440958Y0466989D02*
X0462595Y0466989D01*
X0460996Y0465390D02*
X0439360Y0465390D01*
X0437761Y0463792D02*
X0459397Y0463792D01*
X0457799Y0462193D02*
X0436163Y0462193D01*
X0434564Y0460595D02*
X0456200Y0460595D01*
X0454602Y0458996D02*
X0432966Y0458996D01*
X0431367Y0457398D02*
X0453003Y0457398D01*
X0451405Y0455799D02*
X0429769Y0455799D01*
X0428170Y0454201D02*
X0449806Y0454201D01*
X0448208Y0452602D02*
X0426572Y0452602D01*
X0424973Y0451003D02*
X0446609Y0451003D01*
X0445011Y0449405D02*
X0423375Y0449405D01*
X0421776Y0447806D02*
X0443412Y0447806D01*
X0430223Y0462193D02*
X0076400Y0462193D01*
X0076400Y0460595D02*
X0428625Y0460595D01*
X0431822Y0463792D02*
X0076400Y0463792D01*
X0076400Y0465390D02*
X0407221Y0465390D01*
X0405457Y0466989D02*
X0076400Y0466989D01*
X0076400Y0468587D02*
X0263019Y0468587D01*
X0261420Y0470186D02*
X0076400Y0470186D01*
X0076400Y0471784D02*
X0259822Y0471784D01*
X0258223Y0473383D02*
X0076400Y0473383D01*
X0076400Y0474981D02*
X0256625Y0474981D01*
X0255026Y0476580D02*
X0076400Y0476580D01*
X0076400Y0478178D02*
X0253428Y0478178D01*
X0251829Y0479777D02*
X0076400Y0479777D01*
X0076400Y0481375D02*
X0250231Y0481375D01*
X0248463Y0482974D02*
X0076400Y0482974D01*
X0077466Y0484572D02*
X0246928Y0484572D01*
X0246616Y0486171D02*
X0079065Y0486171D01*
X0078250Y0488750D02*
X0079500Y0490000D01*
X0080000Y0490500D01*
X0080000Y0496000D01*
X0083100Y0497360D02*
X0285854Y0497360D01*
X0285614Y0502400D02*
X0111494Y0502400D01*
X0109694Y0504200D01*
X0111054Y0504200D01*
X0113002Y0505007D01*
X0114493Y0506498D01*
X0115207Y0508222D01*
X0115507Y0507498D01*
X0116998Y0506007D01*
X0118946Y0505200D01*
X0121054Y0505200D01*
X0123002Y0506007D01*
X0124493Y0507498D01*
X0124793Y0508222D01*
X0125507Y0506498D01*
X0126998Y0505007D01*
X0128946Y0504200D01*
X0131054Y0504200D01*
X0133002Y0505007D01*
X0134493Y0506498D01*
X0135207Y0508222D01*
X0135507Y0507498D01*
X0136998Y0506007D01*
X0138946Y0505200D01*
X0141054Y0505200D01*
X0143002Y0506007D01*
X0144493Y0507498D01*
X0144793Y0508222D01*
X0145507Y0506498D01*
X0146998Y0505007D01*
X0148946Y0504200D01*
X0151054Y0504200D01*
X0153002Y0505007D01*
X0154493Y0506498D01*
X0155207Y0508222D01*
X0155507Y0507498D01*
X0156998Y0506007D01*
X0158946Y0505200D01*
X0161054Y0505200D01*
X0163002Y0506007D01*
X0164493Y0507498D01*
X0164793Y0508222D01*
X0165507Y0506498D01*
X0166998Y0505007D01*
X0168946Y0504200D01*
X0171054Y0504200D01*
X0173002Y0505007D01*
X0174493Y0506498D01*
X0175207Y0508222D01*
X0175507Y0507498D01*
X0176998Y0506007D01*
X0178946Y0505200D01*
X0181054Y0505200D01*
X0183002Y0506007D01*
X0184493Y0507498D01*
X0184793Y0508222D01*
X0185507Y0506498D01*
X0186998Y0505007D01*
X0188946Y0504200D01*
X0191054Y0504200D01*
X0193002Y0505007D01*
X0194493Y0506498D01*
X0195207Y0508222D01*
X0195507Y0507498D01*
X0196998Y0506007D01*
X0198946Y0505200D01*
X0201054Y0505200D01*
X0203002Y0506007D01*
X0204493Y0507498D01*
X0204793Y0508222D01*
X0205507Y0506498D01*
X0206998Y0505007D01*
X0208946Y0504200D01*
X0211054Y0504200D01*
X0213002Y0505007D01*
X0214493Y0506498D01*
X0215207Y0508222D01*
X0215507Y0507498D01*
X0216998Y0506007D01*
X0218946Y0505200D01*
X0221054Y0505200D01*
X0223002Y0506007D01*
X0224493Y0507498D01*
X0224793Y0508222D01*
X0225507Y0506498D01*
X0226998Y0505007D01*
X0228946Y0504200D01*
X0231054Y0504200D01*
X0233002Y0505007D01*
X0234493Y0506498D01*
X0235207Y0508222D01*
X0235507Y0507498D01*
X0236998Y0506007D01*
X0238946Y0505200D01*
X0241054Y0505200D01*
X0243002Y0506007D01*
X0244493Y0507498D01*
X0244793Y0508222D01*
X0245507Y0506498D01*
X0246998Y0505007D01*
X0248946Y0504200D01*
X0251054Y0504200D01*
X0253002Y0505007D01*
X0254493Y0506498D01*
X0255300Y0508446D01*
X0255300Y0510554D01*
X0254493Y0512502D01*
X0253095Y0513901D01*
X0287739Y0513901D01*
X0287709Y0513872D01*
X0286400Y0510711D01*
X0286400Y0507289D01*
X0287709Y0504128D01*
X0288454Y0503384D01*
X0287327Y0503384D01*
X0286083Y0502869D01*
X0285614Y0502400D01*
X0288083Y0503754D02*
X0110140Y0503754D01*
X0113348Y0505353D02*
X0118577Y0505353D01*
X0121423Y0505353D02*
X0126652Y0505353D01*
X0125319Y0506951D02*
X0123947Y0506951D01*
X0125207Y0511778D02*
X0124493Y0513502D01*
X0124095Y0513901D01*
X0126905Y0513901D01*
X0125507Y0512502D01*
X0125207Y0511778D01*
X0124558Y0513345D02*
X0126350Y0513345D01*
X0133095Y0513901D02*
X0135905Y0513901D01*
X0135507Y0513502D01*
X0134793Y0511778D01*
X0134493Y0512502D01*
X0133095Y0513901D01*
X0133650Y0513345D02*
X0135442Y0513345D01*
X0136053Y0506951D02*
X0134681Y0506951D01*
X0133348Y0505353D02*
X0138577Y0505353D01*
X0141423Y0505353D02*
X0146652Y0505353D01*
X0145319Y0506951D02*
X0143947Y0506951D01*
X0145207Y0511778D02*
X0144493Y0513502D01*
X0144095Y0513901D01*
X0146905Y0513901D01*
X0145507Y0512502D01*
X0145207Y0511778D01*
X0144558Y0513345D02*
X0146350Y0513345D01*
X0153095Y0513901D02*
X0155905Y0513901D01*
X0155507Y0513502D01*
X0154793Y0511778D01*
X0154493Y0512502D01*
X0153095Y0513901D01*
X0153650Y0513345D02*
X0155442Y0513345D01*
X0156053Y0506951D02*
X0154681Y0506951D01*
X0153348Y0505353D02*
X0158577Y0505353D01*
X0161423Y0505353D02*
X0166652Y0505353D01*
X0165319Y0506951D02*
X0163947Y0506951D01*
X0165207Y0511778D02*
X0164493Y0513502D01*
X0164095Y0513901D01*
X0166905Y0513901D01*
X0165507Y0512502D01*
X0165207Y0511778D01*
X0164558Y0513345D02*
X0166350Y0513345D01*
X0173095Y0513901D02*
X0175905Y0513901D01*
X0175507Y0513502D01*
X0174793Y0511778D01*
X0174493Y0512502D01*
X0173095Y0513901D01*
X0173650Y0513345D02*
X0175442Y0513345D01*
X0176053Y0506951D02*
X0174681Y0506951D01*
X0173348Y0505353D02*
X0178577Y0505353D01*
X0181423Y0505353D02*
X0186652Y0505353D01*
X0185319Y0506951D02*
X0183947Y0506951D01*
X0185207Y0511778D02*
X0184493Y0513502D01*
X0184095Y0513901D01*
X0186905Y0513901D01*
X0185507Y0512502D01*
X0185207Y0511778D01*
X0184558Y0513345D02*
X0186350Y0513345D01*
X0193095Y0513901D02*
X0195905Y0513901D01*
X0195507Y0513502D01*
X0194793Y0511778D01*
X0194493Y0512502D01*
X0193095Y0513901D01*
X0193650Y0513345D02*
X0195442Y0513345D01*
X0196053Y0506951D02*
X0194681Y0506951D01*
X0193348Y0505353D02*
X0198577Y0505353D01*
X0201423Y0505353D02*
X0206652Y0505353D01*
X0205319Y0506951D02*
X0203947Y0506951D01*
X0205207Y0511778D02*
X0204493Y0513502D01*
X0204095Y0513901D01*
X0206905Y0513901D01*
X0205507Y0512502D01*
X0205207Y0511778D01*
X0204558Y0513345D02*
X0206350Y0513345D01*
X0213095Y0513901D02*
X0215905Y0513901D01*
X0215507Y0513502D01*
X0214793Y0511778D01*
X0214493Y0512502D01*
X0213095Y0513901D01*
X0213650Y0513345D02*
X0215442Y0513345D01*
X0216053Y0506951D02*
X0214681Y0506951D01*
X0213348Y0505353D02*
X0218577Y0505353D01*
X0221423Y0505353D02*
X0226652Y0505353D01*
X0225319Y0506951D02*
X0223947Y0506951D01*
X0225207Y0511778D02*
X0224493Y0513502D01*
X0224095Y0513901D01*
X0226905Y0513901D01*
X0225507Y0512502D01*
X0225207Y0511778D01*
X0224558Y0513345D02*
X0226350Y0513345D01*
X0233095Y0513901D02*
X0235905Y0513901D01*
X0235507Y0513502D01*
X0234793Y0511778D01*
X0234493Y0512502D01*
X0233095Y0513901D01*
X0233650Y0513345D02*
X0235442Y0513345D01*
X0236053Y0506951D02*
X0234681Y0506951D01*
X0233348Y0505353D02*
X0238577Y0505353D01*
X0241423Y0505353D02*
X0246652Y0505353D01*
X0245319Y0506951D02*
X0243947Y0506951D01*
X0245207Y0511778D02*
X0244493Y0513502D01*
X0244095Y0513901D01*
X0246905Y0513901D01*
X0245507Y0512502D01*
X0245207Y0511778D01*
X0244558Y0513345D02*
X0246350Y0513345D01*
X0253650Y0513345D02*
X0287491Y0513345D01*
X0286829Y0511747D02*
X0254806Y0511747D01*
X0255300Y0510148D02*
X0286400Y0510148D01*
X0286400Y0508550D02*
X0255300Y0508550D01*
X0254681Y0506951D02*
X0286540Y0506951D01*
X0287202Y0505353D02*
X0253348Y0505353D01*
X0243221Y0492565D02*
X0404641Y0492565D01*
X0404641Y0494163D02*
X0082902Y0494163D01*
X0083384Y0495762D02*
X0542823Y0495762D01*
X0543252Y0494163D02*
X0472615Y0494163D01*
X0472583Y0494195D02*
X0471883Y0494704D01*
X0471111Y0495097D01*
X0470288Y0495365D01*
X0469433Y0495500D01*
X0469200Y0495500D01*
X0469200Y0490200D01*
X0474500Y0490200D01*
X0474500Y0490433D01*
X0474365Y0491288D01*
X0474097Y0492111D01*
X0473704Y0492883D01*
X0473195Y0493583D01*
X0472583Y0494195D01*
X0473866Y0492565D02*
X0544166Y0492565D01*
X0545215Y0490966D02*
X0474416Y0490966D01*
X0474468Y0489368D02*
X0546813Y0489368D01*
X0549252Y0487769D02*
X0474036Y0487769D01*
X0469200Y0490966D02*
X0468800Y0490966D01*
X0468800Y0492565D02*
X0469200Y0492565D01*
X0469200Y0494163D02*
X0468800Y0494163D01*
X0465385Y0494163D02*
X0415241Y0494163D01*
X0415241Y0492565D02*
X0464134Y0492565D01*
X0463584Y0490966D02*
X0415241Y0490966D01*
X0415241Y0489368D02*
X0463532Y0489368D01*
X0463964Y0487769D02*
X0415241Y0487769D01*
X0415241Y0486171D02*
X0465051Y0486171D01*
X0466189Y0484572D02*
X0412752Y0484572D01*
X0414446Y0482974D02*
X0464495Y0482974D01*
X0464925Y0476580D02*
X0450550Y0476580D01*
X0447807Y0479777D02*
X0415241Y0479777D01*
X0415108Y0481375D02*
X0449405Y0481375D01*
X0446208Y0478178D02*
X0414923Y0478178D01*
X0414016Y0476580D02*
X0444610Y0476580D01*
X0443011Y0474981D02*
X0411765Y0474981D01*
X0414054Y0473383D02*
X0441413Y0473383D01*
X0439814Y0471784D02*
X0414939Y0471784D01*
X0415241Y0470186D02*
X0438216Y0470186D01*
X0436617Y0468587D02*
X0415092Y0468587D01*
X0414425Y0466989D02*
X0435019Y0466989D01*
X0433420Y0465390D02*
X0412661Y0465390D01*
X0409941Y0470000D02*
X0265000Y0470000D01*
X0250000Y0485000D01*
X0250000Y0486000D01*
X0253384Y0486171D02*
X0404641Y0486171D01*
X0404641Y0485637D02*
X0405578Y0484700D01*
X0407438Y0484700D01*
X0406939Y0484493D01*
X0405448Y0483002D01*
X0404641Y0481054D01*
X0404641Y0478946D01*
X0405448Y0476998D01*
X0406939Y0475507D01*
X0408162Y0475000D01*
X0406939Y0474493D01*
X0405448Y0473002D01*
X0405198Y0472400D01*
X0265994Y0472400D01*
X0253291Y0485103D01*
X0253384Y0485327D01*
X0253384Y0486673D01*
X0253000Y0487600D01*
X0404641Y0487600D01*
X0404641Y0485637D01*
X0407130Y0484572D02*
X0253822Y0484572D01*
X0255420Y0482974D02*
X0405436Y0482974D01*
X0404774Y0481375D02*
X0257019Y0481375D01*
X0258617Y0479777D02*
X0404641Y0479777D01*
X0404959Y0478178D02*
X0260216Y0478178D01*
X0261814Y0476580D02*
X0405866Y0476580D01*
X0408117Y0474981D02*
X0263413Y0474981D01*
X0265011Y0473383D02*
X0405828Y0473383D01*
X0409941Y0490000D02*
X0241000Y0490000D01*
X0079500Y0490000D01*
X0078250Y0488750D02*
X0074000Y0484500D01*
X0074000Y0433000D01*
X0076400Y0415836D02*
X0147841Y0415836D01*
X0146242Y0414238D02*
X0076400Y0414238D01*
X0076400Y0412639D02*
X0146200Y0412639D01*
X0146200Y0411041D02*
X0076400Y0411041D01*
X0076400Y0409442D02*
X0146562Y0409442D01*
X0148161Y0407844D02*
X0076400Y0407844D01*
X0076400Y0406245D02*
X0148250Y0406245D01*
X0146651Y0404647D02*
X0076400Y0404647D01*
X0076400Y0403048D02*
X0133262Y0403048D01*
X0133131Y0402917D02*
X0132616Y0401673D01*
X0132616Y0400327D01*
X0132833Y0399803D01*
X0124414Y0391384D01*
X0123327Y0391384D01*
X0122083Y0390869D01*
X0121131Y0389917D01*
X0120616Y0388673D01*
X0120616Y0387327D01*
X0121131Y0386083D01*
X0122083Y0385131D01*
X0123327Y0384616D01*
X0124673Y0384616D01*
X0125917Y0385131D01*
X0126869Y0386083D01*
X0127384Y0387327D01*
X0127384Y0388414D01*
X0136586Y0397616D01*
X0136673Y0397616D01*
X0137917Y0398131D01*
X0138869Y0399083D01*
X0139384Y0400327D01*
X0139384Y0401673D01*
X0138869Y0402917D01*
X0137917Y0403869D01*
X0136673Y0404384D01*
X0135327Y0404384D01*
X0134083Y0403869D01*
X0133131Y0402917D01*
X0132616Y0401450D02*
X0076400Y0401450D01*
X0076400Y0399851D02*
X0132813Y0399851D01*
X0131283Y0398253D02*
X0076400Y0398253D01*
X0076400Y0396654D02*
X0129684Y0396654D01*
X0128086Y0395056D02*
X0076400Y0395056D01*
X0076400Y0393457D02*
X0126487Y0393457D01*
X0124889Y0391859D02*
X0076400Y0391859D01*
X0076400Y0390260D02*
X0121474Y0390260D01*
X0120616Y0388662D02*
X0076400Y0388662D01*
X0076400Y0387063D02*
X0120725Y0387063D01*
X0121749Y0385465D02*
X0076400Y0385465D01*
X0076400Y0383866D02*
X0146200Y0383866D01*
X0146200Y0382268D02*
X0076400Y0382268D01*
X0076400Y0380669D02*
X0146200Y0380669D01*
X0146934Y0379070D02*
X0076400Y0379070D01*
X0076400Y0377472D02*
X0148533Y0377472D01*
X0147878Y0375873D02*
X0076400Y0375873D01*
X0077513Y0374275D02*
X0146280Y0374275D01*
X0146200Y0372676D02*
X0079112Y0372676D01*
X0080710Y0371078D02*
X0146200Y0371078D01*
X0146525Y0369479D02*
X0082309Y0369479D01*
X0083907Y0367881D02*
X0148124Y0367881D01*
X0148287Y0366282D02*
X0085506Y0366282D01*
X0087104Y0364684D02*
X0146689Y0364684D01*
X0146200Y0363085D02*
X0088703Y0363085D01*
X0090301Y0361487D02*
X0146200Y0361487D01*
X0146200Y0359888D02*
X0091900Y0359888D01*
X0093498Y0358290D02*
X0147715Y0358290D01*
X0148696Y0356691D02*
X0095097Y0356691D01*
X0096695Y0355093D02*
X0147097Y0355093D01*
X0146200Y0353494D02*
X0098294Y0353494D01*
X0099892Y0351896D02*
X0146200Y0351896D01*
X0146200Y0350297D02*
X0101491Y0350297D01*
X0103089Y0348699D02*
X0147306Y0348699D01*
X0148904Y0347100D02*
X0104688Y0347100D01*
X0106286Y0345502D02*
X0147506Y0345502D01*
X0146200Y0343903D02*
X0107885Y0343903D01*
X0109483Y0342305D02*
X0146200Y0342305D01*
X0146200Y0340706D02*
X0111082Y0340706D01*
X0112681Y0339108D02*
X0146897Y0339108D01*
X0148495Y0337509D02*
X0114279Y0337509D01*
X0115878Y0335911D02*
X0147915Y0335911D01*
X0146317Y0334312D02*
X0117476Y0334312D01*
X0119075Y0332714D02*
X0146200Y0332714D01*
X0146200Y0331115D02*
X0120673Y0331115D01*
X0122272Y0329517D02*
X0146488Y0329517D01*
X0148087Y0327918D02*
X0123870Y0327918D01*
X0125469Y0326320D02*
X0148324Y0326320D01*
X0146726Y0324721D02*
X0127067Y0324721D01*
X0128794Y0319600D02*
X0146405Y0319600D01*
X0149005Y0317000D01*
X0146405Y0314400D01*
X0133994Y0314400D01*
X0128794Y0319600D01*
X0130067Y0318327D02*
X0147678Y0318327D01*
X0148733Y0316729D02*
X0131666Y0316729D01*
X0133264Y0315130D02*
X0147135Y0315130D01*
X0156500Y0324495D02*
X0153995Y0327000D01*
X0156500Y0329505D01*
X0159005Y0327000D01*
X0156500Y0324495D01*
X0156274Y0324721D02*
X0156726Y0324721D01*
X0158324Y0326320D02*
X0154676Y0326320D01*
X0154913Y0327918D02*
X0158087Y0327918D01*
X0156500Y0334495D02*
X0153995Y0337000D01*
X0156500Y0339505D01*
X0159005Y0337000D01*
X0156500Y0334495D01*
X0155085Y0335911D02*
X0157915Y0335911D01*
X0158495Y0337509D02*
X0154505Y0337509D01*
X0156103Y0339108D02*
X0156897Y0339108D01*
X0156500Y0344495D02*
X0153995Y0347000D01*
X0156500Y0349505D01*
X0159005Y0347000D01*
X0156500Y0344495D01*
X0155494Y0345502D02*
X0157506Y0345502D01*
X0158904Y0347100D02*
X0154096Y0347100D01*
X0155694Y0348699D02*
X0157306Y0348699D01*
X0156500Y0354495D02*
X0153995Y0357000D01*
X0156500Y0359505D01*
X0159005Y0357000D01*
X0156500Y0354495D01*
X0157097Y0355093D02*
X0155902Y0355093D01*
X0154304Y0356691D02*
X0158696Y0356691D01*
X0157715Y0358290D02*
X0155285Y0358290D01*
X0156500Y0364495D02*
X0153995Y0367000D01*
X0156500Y0369505D01*
X0159005Y0367000D01*
X0156500Y0364495D01*
X0156311Y0364684D02*
X0156689Y0364684D01*
X0158287Y0366282D02*
X0154713Y0366282D01*
X0154876Y0367881D02*
X0158124Y0367881D01*
X0156525Y0369479D02*
X0156475Y0369479D01*
X0156500Y0374495D02*
X0153995Y0377000D01*
X0156500Y0379505D01*
X0159005Y0377000D01*
X0156500Y0374495D01*
X0155122Y0375873D02*
X0157878Y0375873D01*
X0158533Y0377472D02*
X0154467Y0377472D01*
X0156066Y0379070D02*
X0156934Y0379070D01*
X0161500Y0382000D02*
X0163500Y0380000D01*
X0205000Y0380000D01*
X0207519Y0382268D02*
X0215298Y0382268D01*
X0216896Y0383866D02*
X0166800Y0383866D01*
X0165531Y0385465D02*
X0218495Y0385465D01*
X0220093Y0387063D02*
X0206753Y0387063D01*
X0208109Y0388662D02*
X0221692Y0388662D01*
X0223290Y0390260D02*
X0208384Y0390260D01*
X0207893Y0391859D02*
X0224889Y0391859D01*
X0226487Y0393457D02*
X0166800Y0393457D01*
X0165940Y0395056D02*
X0228086Y0395056D01*
X0229684Y0396654D02*
X0205766Y0396654D01*
X0204234Y0396654D02*
X0164341Y0396654D01*
X0163500Y0400000D02*
X0161500Y0402000D01*
X0163500Y0400000D02*
X0205000Y0400000D01*
X0208384Y0399851D02*
X0232881Y0399851D01*
X0231283Y0398253D02*
X0207939Y0398253D01*
X0208063Y0401450D02*
X0234480Y0401450D01*
X0236078Y0403048D02*
X0206485Y0403048D01*
X0203515Y0403048D02*
X0166800Y0403048D01*
X0166349Y0404647D02*
X0237677Y0404647D01*
X0239275Y0406245D02*
X0164750Y0406245D01*
X0159005Y0407000D02*
X0156500Y0404495D01*
X0153995Y0407000D01*
X0156500Y0409505D01*
X0159005Y0407000D01*
X0158250Y0406245D02*
X0154750Y0406245D01*
X0154839Y0407844D02*
X0158161Y0407844D01*
X0156562Y0409442D02*
X0156438Y0409442D01*
X0156349Y0404647D02*
X0156651Y0404647D01*
X0156500Y0399505D02*
X0159005Y0397000D01*
X0156500Y0394495D01*
X0153995Y0397000D01*
X0156500Y0399505D01*
X0155248Y0398253D02*
X0157752Y0398253D01*
X0158659Y0396654D02*
X0154341Y0396654D01*
X0155940Y0395056D02*
X0157060Y0395056D01*
X0161500Y0392000D02*
X0163500Y0390000D01*
X0205000Y0390000D01*
X0203247Y0387063D02*
X0164058Y0387063D01*
X0159005Y0387000D02*
X0156500Y0384495D01*
X0153995Y0387000D01*
X0156500Y0389505D01*
X0159005Y0387000D01*
X0158942Y0387063D02*
X0154058Y0387063D01*
X0155531Y0385465D02*
X0157469Y0385465D01*
X0157343Y0388662D02*
X0155657Y0388662D01*
X0148942Y0387063D02*
X0127275Y0387063D01*
X0127631Y0388662D02*
X0147343Y0388662D01*
X0146200Y0390260D02*
X0129230Y0390260D01*
X0130828Y0391859D02*
X0146200Y0391859D01*
X0146200Y0393457D02*
X0132427Y0393457D01*
X0134025Y0395056D02*
X0147060Y0395056D01*
X0148659Y0396654D02*
X0135624Y0396654D01*
X0138039Y0398253D02*
X0147752Y0398253D01*
X0146200Y0399851D02*
X0139187Y0399851D01*
X0139384Y0401450D02*
X0146200Y0401450D01*
X0146200Y0403048D02*
X0138738Y0403048D01*
X0147469Y0385465D02*
X0126251Y0385465D01*
X0090000Y0355000D02*
X0133000Y0312000D01*
X0147269Y0308736D02*
X0009800Y0308736D01*
X0009800Y0307137D02*
X0148867Y0307137D01*
X0154133Y0307137D02*
X0155473Y0307137D01*
X0157072Y0305539D02*
X0009800Y0305539D01*
X0009800Y0351896D02*
X0033651Y0351896D01*
X0031961Y0353494D02*
X0009800Y0353494D01*
X0009800Y0355093D02*
X0031616Y0355093D01*
X0032037Y0356691D02*
X0009800Y0356691D01*
X0029164Y0257584D02*
X0177871Y0257584D01*
X0178346Y0255985D02*
X0031177Y0255985D01*
X0032492Y0254387D02*
X0179269Y0254387D01*
X0180393Y0252788D02*
X0033154Y0252788D01*
X0033600Y0251190D02*
X0181991Y0251190D01*
X0184561Y0249591D02*
X0033600Y0249591D01*
X0033477Y0247993D02*
X0286523Y0247993D01*
X0286400Y0249591D02*
X0195439Y0249591D01*
X0198009Y0251190D02*
X0286400Y0251190D01*
X0286846Y0252788D02*
X0199607Y0252788D01*
X0200731Y0254387D02*
X0287508Y0254387D01*
X0288823Y0255985D02*
X0201654Y0255985D01*
X0202129Y0257584D02*
X0290836Y0257584D01*
X0287185Y0246394D02*
X0032815Y0246394D01*
X0165085Y0335911D02*
X0168941Y0335911D01*
X0170539Y0337509D02*
X0164505Y0337509D01*
X0166103Y0339108D02*
X0172138Y0339108D01*
X0173736Y0340706D02*
X0166800Y0340706D01*
X0166800Y0342305D02*
X0175335Y0342305D01*
X0176933Y0343903D02*
X0166800Y0343903D01*
X0165494Y0345502D02*
X0178532Y0345502D01*
X0180130Y0347100D02*
X0164096Y0347100D01*
X0165694Y0348699D02*
X0181729Y0348699D01*
X0183327Y0350297D02*
X0166800Y0350297D01*
X0166800Y0351896D02*
X0184926Y0351896D01*
X0186524Y0353494D02*
X0166800Y0353494D01*
X0165902Y0355093D02*
X0188123Y0355093D01*
X0189721Y0356691D02*
X0164304Y0356691D01*
X0165285Y0358290D02*
X0191320Y0358290D01*
X0192919Y0359888D02*
X0166800Y0359888D01*
X0166800Y0361487D02*
X0194517Y0361487D01*
X0196116Y0363085D02*
X0166800Y0363085D01*
X0166311Y0364684D02*
X0197714Y0364684D01*
X0199313Y0366282D02*
X0164713Y0366282D01*
X0164876Y0367881D02*
X0200911Y0367881D01*
X0202510Y0369479D02*
X0166475Y0369479D01*
X0166800Y0371078D02*
X0204108Y0371078D01*
X0205707Y0372676D02*
X0166800Y0372676D01*
X0166720Y0374275D02*
X0207305Y0374275D01*
X0208904Y0375873D02*
X0165122Y0375873D01*
X0164467Y0377472D02*
X0202742Y0377472D01*
X0207258Y0377472D02*
X0210502Y0377472D01*
X0212101Y0379070D02*
X0208278Y0379070D01*
X0208384Y0380669D02*
X0213699Y0380669D01*
X0207630Y0407844D02*
X0240874Y0407844D01*
X0242472Y0409442D02*
X0208384Y0409442D01*
X0208232Y0411041D02*
X0244071Y0411041D01*
X0245669Y0412639D02*
X0207147Y0412639D01*
X0159030Y0427026D02*
X0153969Y0427026D01*
X0155568Y0425427D02*
X0157432Y0425427D01*
X0131673Y0435018D02*
X0268049Y0435018D01*
X0269647Y0436617D02*
X0132138Y0436617D01*
X0132566Y0438215D02*
X0271246Y0438215D01*
X0272844Y0439814D02*
X0132600Y0439814D01*
X0132600Y0441412D02*
X0273900Y0441412D01*
X0273900Y0443011D02*
X0132238Y0443011D01*
X0131809Y0444609D02*
X0273900Y0444609D01*
X0273900Y0446208D02*
X0130965Y0446208D01*
X0130013Y0447806D02*
X0273900Y0447806D01*
X0273900Y0449405D02*
X0128414Y0449405D01*
X0126141Y0451003D02*
X0273900Y0451003D01*
X0266450Y0433420D02*
X0130750Y0433420D01*
X0129640Y0431821D02*
X0264852Y0431821D01*
X0263253Y0430223D02*
X0128042Y0430223D01*
X0082400Y0492565D02*
X0238779Y0492565D01*
X0302509Y0513345D02*
X0600121Y0513345D01*
X0600121Y0511747D02*
X0303171Y0511747D01*
X0116053Y0506951D02*
X0114681Y0506951D01*
X0114793Y0511778D02*
X0114493Y0512502D01*
X0113095Y0513901D01*
X0115905Y0513901D01*
X0115507Y0513502D01*
X0114793Y0511778D01*
X0115442Y0513345D02*
X0113650Y0513345D01*
X0106905Y0513901D02*
X0105507Y0512502D01*
X0105207Y0511778D01*
X0104493Y0513502D01*
X0104095Y0513901D01*
X0106905Y0513901D01*
X0106350Y0513345D02*
X0104558Y0513345D01*
X0095905Y0513901D02*
X0095507Y0513502D01*
X0094793Y0511778D01*
X0094493Y0512502D01*
X0093095Y0513901D01*
X0095905Y0513901D01*
X0095442Y0513345D02*
X0093650Y0513345D01*
X0086905Y0513901D02*
X0085507Y0512502D01*
X0085297Y0511996D01*
X0085097Y0512611D01*
X0084704Y0513383D01*
X0084328Y0513901D01*
X0086905Y0513901D01*
X0086350Y0513345D02*
X0084723Y0513345D01*
X0080200Y0510148D02*
X0079800Y0510148D01*
X0079800Y0508550D02*
X0080200Y0508550D01*
X0080200Y0506951D02*
X0079800Y0506951D01*
X0079800Y0505353D02*
X0080200Y0505353D01*
X0081957Y0505353D02*
X0086652Y0505353D01*
X0085319Y0506951D02*
X0084220Y0506951D01*
X0078043Y0505353D02*
X0073348Y0505353D01*
X0074681Y0506951D02*
X0075780Y0506951D01*
X0074703Y0511996D02*
X0074493Y0512502D01*
X0073095Y0513901D01*
X0075672Y0513901D01*
X0075296Y0513383D01*
X0074903Y0512611D01*
X0074703Y0511996D01*
X0075277Y0513345D02*
X0073650Y0513345D01*
X0081700Y0498959D02*
X0108147Y0498959D01*
X0019682Y0502156D02*
X0009800Y0502156D01*
X0009800Y0503754D02*
X0018083Y0503754D01*
X0017202Y0505353D02*
X0009800Y0505353D01*
X0009800Y0506951D02*
X0016540Y0506951D01*
X0016400Y0508550D02*
X0009800Y0508550D01*
X0009800Y0510148D02*
X0016400Y0510148D01*
X0016829Y0511747D02*
X0009800Y0511747D01*
X0009800Y0513345D02*
X0017491Y0513345D01*
X0166683Y0334312D02*
X0167342Y0334312D01*
X0396234Y0308736D02*
X0422950Y0308736D01*
D17*
X0425000Y0306000D02*
X0396000Y0306000D01*
X0328000Y0374000D01*
X0328000Y0400000D01*
X0313000Y0448000D02*
X0419000Y0448000D01*
X0442500Y0471500D01*
X0443000Y0472000D01*
X0451000Y0480000D01*
X0469000Y0480000D01*
X0313000Y0448000D02*
X0187000Y0322000D01*
X0161500Y0322000D01*
X0161500Y0332000D02*
X0168000Y0332000D01*
X0276000Y0440000D01*
X0276000Y0454000D01*
X0275000Y0455000D01*
X0136000Y0401000D02*
X0136000Y0400000D01*
X0124000Y0388000D01*
M02*
