G75*
%MOIN*%
%OFA0B0*%
%FSLAX25Y25*%
%IPPOS*%
%LPD*%
%AMOC8*
5,1,8,0,0,1.08239X$1,22.5*
%
%ADD10OC8,0.07400*%
%ADD11C,0.07400*%
%ADD12R,0.01200X0.03900*%
%ADD13R,0.07400X0.07400*%
%ADD14R,0.03937X0.04331*%
%ADD15R,0.04331X0.03937*%
%ADD16C,0.22000*%
%ADD17R,0.02500X0.05000*%
%ADD18C,0.01000*%
%ADD19R,0.02756X0.02756*%
%ADD20C,0.14000*%
%ADD21C,0.03569*%
%ADD22C,0.01600*%
D10*
X0151500Y0312000D03*
X0151500Y0322000D03*
X0151500Y0332000D03*
X0151500Y0342000D03*
X0151500Y0352000D03*
X0151500Y0362000D03*
X0151500Y0372000D03*
X0151500Y0382000D03*
X0151500Y0392000D03*
X0151500Y0402000D03*
X0151500Y0412000D03*
X0151500Y0422000D03*
X0161500Y0422000D03*
X0161500Y0412000D03*
X0161500Y0402000D03*
X0161500Y0392000D03*
X0161500Y0382000D03*
X0161500Y0372000D03*
X0161500Y0362000D03*
X0161500Y0352000D03*
X0161500Y0342000D03*
X0161500Y0332000D03*
X0161500Y0322000D03*
X0161500Y0312000D03*
D11*
X0170000Y0509500D03*
X0180000Y0510500D03*
X0190000Y0509500D03*
X0200000Y0510500D03*
X0210000Y0509500D03*
X0220000Y0510500D03*
X0230000Y0509500D03*
X0240000Y0510500D03*
X0250000Y0509500D03*
X0160000Y0510500D03*
X0150000Y0509500D03*
X0140000Y0510500D03*
X0130000Y0509500D03*
X0120000Y0510500D03*
X0110000Y0509500D03*
X0100000Y0510500D03*
X0090000Y0509500D03*
X0080000Y0510500D03*
X0070000Y0509500D03*
X0060000Y0510500D03*
X0409941Y0480000D03*
X0409941Y0470000D03*
X0469000Y0470000D03*
X0469000Y0480000D03*
X0469000Y0490000D03*
D12*
X0091516Y0406487D03*
X0088957Y0406487D03*
X0086398Y0406487D03*
X0083839Y0406487D03*
X0081280Y0406487D03*
X0078720Y0406487D03*
X0076161Y0406487D03*
X0073602Y0406487D03*
X0071043Y0406487D03*
X0068484Y0406487D03*
X0056516Y0406487D03*
X0053957Y0406487D03*
X0051398Y0406487D03*
X0048839Y0406487D03*
X0046280Y0406487D03*
X0043720Y0406487D03*
X0041161Y0406487D03*
X0038602Y0406487D03*
X0036043Y0406487D03*
X0033484Y0406487D03*
X0033484Y0383513D03*
X0036043Y0383513D03*
X0038602Y0383513D03*
X0041161Y0383513D03*
X0043720Y0383513D03*
X0046280Y0383513D03*
X0048839Y0383513D03*
X0051398Y0383513D03*
X0053957Y0383513D03*
X0056516Y0383513D03*
X0068484Y0383513D03*
X0071043Y0383513D03*
X0073602Y0383513D03*
X0076161Y0383513D03*
X0078720Y0383513D03*
X0081280Y0383513D03*
X0083839Y0383513D03*
X0086398Y0383513D03*
X0088957Y0383513D03*
X0091516Y0383513D03*
D13*
X0409941Y0490000D03*
D14*
X0285000Y0473346D03*
X0285000Y0466654D03*
X0275000Y0466654D03*
X0275000Y0473346D03*
X0260000Y0481654D03*
X0260000Y0488346D03*
D15*
X0198346Y0420000D03*
X0191654Y0420000D03*
X0191654Y0410000D03*
X0198346Y0410000D03*
X0198346Y0400000D03*
X0191654Y0400000D03*
X0191654Y0390000D03*
X0198346Y0390000D03*
X0198346Y0380000D03*
X0191654Y0380000D03*
X0078346Y0365000D03*
X0071654Y0365000D03*
X0043346Y0365000D03*
X0036654Y0365000D03*
X0036654Y0425000D03*
X0043346Y0425000D03*
X0071654Y0425000D03*
X0078346Y0425000D03*
X0101654Y0495000D03*
X0108346Y0495000D03*
D16*
X0120000Y0440000D03*
X0190000Y0261000D03*
X0555000Y0261000D03*
X0555000Y0499000D03*
D17*
X0234000Y0485000D03*
X0230000Y0485000D03*
X0226000Y0485000D03*
D18*
X0230000Y0485000D02*
X0234000Y0485000D01*
X0230000Y0490000D02*
X0220000Y0500000D01*
X0220000Y0510500D01*
X0230000Y0509500D02*
X0230000Y0506000D01*
X0250000Y0486000D01*
X0275000Y0466654D02*
X0275000Y0455000D01*
X0328000Y0400000D02*
X0205000Y0400000D01*
X0205000Y0390000D02*
X0355000Y0390000D01*
X0380000Y0365000D01*
X0405000Y0365000D01*
X0419000Y0396000D02*
X0466000Y0396000D01*
X0487000Y0375000D01*
X0487000Y0369000D01*
X0490000Y0366000D01*
X0506000Y0366000D01*
X0507000Y0367000D01*
X0456000Y0414000D02*
X0461000Y0419000D01*
X0461000Y0424000D01*
X0454000Y0431000D01*
X0444000Y0431000D01*
X0433000Y0420000D01*
X0205000Y0420000D01*
X0205000Y0410000D02*
X0405000Y0410000D01*
X0419000Y0396000D01*
X0454000Y0366000D02*
X0421000Y0333000D01*
X0392000Y0333000D01*
X0345000Y0380000D01*
X0205000Y0380000D01*
X0165000Y0352000D02*
X0177000Y0340000D01*
X0177000Y0304000D01*
X0172000Y0299000D01*
X0099000Y0299000D01*
X0048000Y0350000D01*
X0048000Y0366319D01*
X0046050Y0368269D01*
X0043731Y0368269D01*
X0038602Y0373398D01*
X0038602Y0383513D01*
X0036043Y0383513D02*
X0036043Y0386043D01*
X0040000Y0390000D01*
X0055000Y0390000D01*
X0056516Y0388484D01*
X0056516Y0383513D01*
X0053957Y0383513D02*
X0053957Y0375690D01*
X0054823Y0374823D01*
X0060732Y0374823D01*
X0062984Y0377075D01*
X0062984Y0387492D01*
X0063743Y0388251D01*
X0063743Y0388926D01*
X0072018Y0397200D01*
X0139629Y0397200D01*
X0151500Y0409071D01*
X0151500Y0412000D01*
X0146500Y0411500D02*
X0136000Y0401000D01*
X0144900Y0395400D02*
X0072763Y0395400D01*
X0065543Y0388180D01*
X0065543Y0387506D01*
X0064784Y0386747D01*
X0064784Y0376330D01*
X0061478Y0373023D01*
X0054023Y0373023D01*
X0051398Y0375649D01*
X0051398Y0383513D01*
X0048839Y0383513D02*
X0048839Y0375663D01*
X0053501Y0371000D01*
X0062000Y0371000D01*
X0066584Y0375584D01*
X0066584Y0386001D01*
X0067343Y0386760D01*
X0067343Y0387434D01*
X0073509Y0393600D01*
X0091491Y0393600D01*
X0093091Y0392000D01*
X0151500Y0392000D01*
X0144900Y0395400D02*
X0151500Y0402000D01*
X0146500Y0411500D02*
X0146500Y0414071D01*
X0151500Y0419071D01*
X0151500Y0422000D01*
X0124000Y0388000D02*
X0098000Y0388000D01*
X0097000Y0389000D01*
X0093546Y0389000D01*
X0090746Y0391800D01*
X0074254Y0391800D01*
X0069143Y0386689D01*
X0069143Y0384172D01*
X0068484Y0383513D01*
X0071043Y0383513D02*
X0071043Y0386043D01*
X0075000Y0390000D01*
X0090000Y0390000D01*
X0091516Y0388484D01*
X0091516Y0383513D01*
X0081280Y0383513D02*
X0081280Y0375676D01*
X0083156Y0373800D01*
X0140800Y0373800D01*
X0149000Y0382000D01*
X0151500Y0382000D01*
X0151500Y0372000D02*
X0082410Y0372000D01*
X0078720Y0375690D01*
X0078720Y0383513D01*
X0076161Y0383513D02*
X0076161Y0375703D01*
X0089864Y0362000D01*
X0151500Y0362000D01*
X0151500Y0352000D02*
X0097319Y0352000D01*
X0081050Y0368269D01*
X0078731Y0368269D01*
X0073602Y0373398D01*
X0073602Y0383513D01*
X0071043Y0383513D02*
X0071043Y0365610D01*
X0071654Y0365000D01*
X0071654Y0356654D01*
X0070000Y0355000D01*
X0058637Y0347000D02*
X0153571Y0347000D01*
X0158571Y0342000D01*
X0161500Y0342000D01*
X0161500Y0352000D02*
X0165000Y0352000D01*
X0161500Y0359071D02*
X0178800Y0341771D01*
X0178800Y0303254D01*
X0172746Y0297200D01*
X0098254Y0297200D01*
X0043539Y0351916D01*
X0033722Y0351916D01*
X0031916Y0353722D01*
X0031916Y0381944D01*
X0033484Y0383513D01*
X0036043Y0383513D02*
X0036043Y0365610D01*
X0036654Y0365000D01*
X0036654Y0356654D01*
X0035000Y0355000D01*
X0049800Y0350746D02*
X0049800Y0367064D01*
X0041161Y0375703D01*
X0041161Y0383513D01*
X0043720Y0383513D02*
X0043720Y0375690D01*
X0051600Y0367810D01*
X0051600Y0351491D01*
X0061091Y0342000D01*
X0151500Y0342000D01*
X0151500Y0332000D02*
X0068546Y0332000D01*
X0049800Y0350746D01*
X0053400Y0352237D02*
X0058637Y0347000D01*
X0054818Y0350818D02*
X0053400Y0352237D01*
X0053400Y0368556D01*
X0046280Y0375676D01*
X0046280Y0383513D01*
X0046280Y0406487D02*
X0046280Y0413643D01*
X0055400Y0422763D01*
X0055400Y0425746D01*
X0055400Y0457763D01*
X0081491Y0483854D01*
X0124354Y0483854D01*
X0130000Y0489500D01*
X0130000Y0509500D01*
X0120000Y0510500D02*
X0120000Y0490500D01*
X0115154Y0485654D01*
X0080746Y0485654D01*
X0053600Y0458509D01*
X0053600Y0425000D01*
X0053600Y0425000D01*
X0053600Y0423509D01*
X0043720Y0413629D01*
X0043720Y0406487D01*
X0041161Y0406487D02*
X0041161Y0413616D01*
X0051800Y0424254D01*
X0051800Y0459254D01*
X0080000Y0487454D01*
X0107954Y0487454D01*
X0111812Y0491312D01*
X0111812Y0497507D01*
X0110000Y0499319D01*
X0110000Y0509500D01*
X0140000Y0510500D02*
X0140000Y0490500D01*
X0131554Y0482054D01*
X0082237Y0482054D01*
X0057200Y0457018D01*
X0057200Y0426491D01*
X0057200Y0422018D01*
X0048839Y0413656D01*
X0048839Y0406487D01*
X0051398Y0406487D02*
X0051398Y0413670D01*
X0059000Y0421272D01*
X0059000Y0456272D01*
X0082982Y0480254D01*
X0140754Y0480254D01*
X0150000Y0489500D01*
X0150000Y0509500D01*
X0160000Y0510500D02*
X0160000Y0490500D01*
X0147954Y0478454D01*
X0083728Y0478454D01*
X0060800Y0455527D01*
X0060800Y0420526D01*
X0053957Y0413683D01*
X0053957Y0406487D01*
X0038602Y0406487D02*
X0038602Y0413602D01*
X0050000Y0425000D01*
X0050000Y0460000D01*
X0070000Y0480000D01*
X0070000Y0509500D01*
X0060000Y0510500D02*
X0060000Y0472546D01*
X0048200Y0460746D01*
X0048200Y0449200D01*
X0030000Y0431000D01*
X0030000Y0420000D01*
X0033484Y0416516D01*
X0033484Y0406487D01*
X0036043Y0406487D02*
X0036043Y0424390D01*
X0036654Y0425000D01*
X0036654Y0429654D01*
X0040000Y0433000D01*
X0055400Y0425746D02*
X0055400Y0425746D01*
X0057200Y0426491D02*
X0057200Y0426491D01*
X0068188Y0422493D02*
X0068188Y0460369D01*
X0084474Y0476654D01*
X0157154Y0476654D01*
X0170000Y0489500D01*
X0170000Y0509500D01*
X0180000Y0510500D02*
X0180000Y0490500D01*
X0164354Y0474854D01*
X0115854Y0474854D01*
X0115818Y0474818D01*
X0085182Y0474818D01*
X0081812Y0471447D01*
X0081812Y0422493D01*
X0073602Y0414284D01*
X0073602Y0406487D01*
X0071043Y0406487D02*
X0071043Y0424390D01*
X0071654Y0425000D01*
X0071654Y0429654D01*
X0074000Y0433000D01*
X0068188Y0422493D02*
X0068484Y0422197D01*
X0068484Y0406487D01*
X0076161Y0406487D02*
X0076161Y0414297D01*
X0083612Y0421747D01*
X0083612Y0470701D01*
X0085928Y0473018D01*
X0173518Y0473018D01*
X0190000Y0489500D01*
X0190000Y0509500D01*
X0200000Y0510500D02*
X0200000Y0491218D01*
X0180000Y0471218D01*
X0090218Y0471218D01*
X0085412Y0466412D01*
X0085412Y0421002D01*
X0078720Y0414310D01*
X0078720Y0406487D01*
X0081280Y0406487D02*
X0081280Y0414324D01*
X0087212Y0420256D01*
X0087212Y0465666D01*
X0090963Y0469418D01*
X0188000Y0469418D01*
X0210000Y0491418D01*
X0210000Y0509500D01*
X0161500Y0362000D02*
X0161500Y0359071D01*
X0425000Y0306000D02*
X0450000Y0306000D01*
X0457000Y0313000D01*
D19*
X0282559Y0481358D03*
X0277441Y0481358D03*
X0280000Y0488642D03*
D20*
X0295000Y0509000D03*
X0025000Y0509000D03*
X0025000Y0250000D03*
X0295000Y0250000D03*
D21*
X0425000Y0306000D03*
X0328000Y0400000D03*
X0275000Y0455000D03*
X0250000Y0486000D03*
X0241000Y0490000D03*
X0288000Y0500000D03*
X0205000Y0420000D03*
X0205000Y0410000D03*
X0205000Y0400000D03*
X0205000Y0390000D03*
X0205000Y0380000D03*
X0136000Y0401000D03*
X0124000Y0388000D03*
X0110000Y0381000D03*
X0114000Y0414000D03*
X0078000Y0438000D03*
X0074000Y0433000D03*
X0045000Y0439000D03*
X0040000Y0433000D03*
X0027000Y0457000D03*
X0080000Y0496000D03*
X0061000Y0363000D03*
X0070000Y0355000D03*
X0042000Y0359000D03*
X0035000Y0355000D03*
X0117000Y0311000D03*
D22*
X0009800Y0244800D02*
X0009800Y0513901D01*
X0017739Y0513901D01*
X0017709Y0513872D01*
X0016400Y0510711D01*
X0016400Y0507289D01*
X0017709Y0504128D01*
X0020128Y0501709D01*
X0023289Y0500400D01*
X0026711Y0500400D01*
X0029872Y0501709D01*
X0032291Y0504128D01*
X0033600Y0507289D01*
X0033600Y0510711D01*
X0032291Y0513872D01*
X0032261Y0513901D01*
X0055905Y0513901D01*
X0055507Y0513502D01*
X0054700Y0511554D01*
X0054700Y0509446D01*
X0055507Y0507498D01*
X0056998Y0506007D01*
X0057900Y0505633D01*
X0057900Y0473415D01*
X0047330Y0462846D01*
X0046100Y0461615D01*
X0046100Y0450070D01*
X0027900Y0431870D01*
X0027900Y0419130D01*
X0029130Y0417900D01*
X0031384Y0415646D01*
X0031384Y0409200D01*
X0031284Y0409100D01*
X0031284Y0403875D01*
X0032222Y0402937D01*
X0034747Y0402937D01*
X0034764Y0402954D01*
X0034781Y0402937D01*
X0037306Y0402937D01*
X0037323Y0402954D01*
X0037340Y0402937D01*
X0039865Y0402937D01*
X0039882Y0402954D01*
X0039899Y0402937D01*
X0042424Y0402937D01*
X0042441Y0402954D01*
X0042458Y0402937D01*
X0044983Y0402937D01*
X0045000Y0402954D01*
X0045017Y0402937D01*
X0047542Y0402937D01*
X0047559Y0402954D01*
X0047576Y0402937D01*
X0050101Y0402937D01*
X0050118Y0402954D01*
X0050135Y0402937D01*
X0052660Y0402937D01*
X0052677Y0402954D01*
X0052694Y0402937D01*
X0055087Y0402937D01*
X0055221Y0402860D01*
X0055679Y0402737D01*
X0056516Y0402737D01*
X0057353Y0402737D01*
X0057811Y0402860D01*
X0058221Y0403097D01*
X0058556Y0403432D01*
X0058793Y0403843D01*
X0058916Y0404300D01*
X0058916Y0406487D01*
X0056516Y0406487D01*
X0056516Y0402737D01*
X0056516Y0406487D01*
X0056516Y0406487D01*
X0056516Y0406487D01*
X0058916Y0406487D01*
X0058916Y0408674D01*
X0058793Y0409132D01*
X0058556Y0409543D01*
X0058221Y0409878D01*
X0057811Y0410115D01*
X0057353Y0410237D01*
X0056516Y0410237D01*
X0056516Y0406488D01*
X0056516Y0406488D01*
X0056516Y0410237D01*
X0056057Y0410237D01*
X0056057Y0412813D01*
X0061670Y0418426D01*
X0062900Y0419657D01*
X0062900Y0454657D01*
X0066088Y0457845D01*
X0066088Y0421623D01*
X0066384Y0421327D01*
X0066384Y0409200D01*
X0066284Y0409100D01*
X0066284Y0403875D01*
X0067222Y0402937D01*
X0069747Y0402937D01*
X0069764Y0402954D01*
X0069781Y0402937D01*
X0072306Y0402937D01*
X0072323Y0402954D01*
X0072340Y0402937D01*
X0074865Y0402937D01*
X0074882Y0402954D01*
X0074899Y0402937D01*
X0077424Y0402937D01*
X0077441Y0402954D01*
X0077458Y0402937D01*
X0079983Y0402937D01*
X0080000Y0402954D01*
X0080017Y0402937D01*
X0082410Y0402937D01*
X0082544Y0402860D01*
X0083002Y0402737D01*
X0083839Y0402737D01*
X0084676Y0402737D01*
X0085118Y0402856D01*
X0085561Y0402737D01*
X0086398Y0402737D01*
X0087235Y0402737D01*
X0087677Y0402856D01*
X0088120Y0402737D01*
X0088957Y0402737D01*
X0089794Y0402737D01*
X0090236Y0402856D01*
X0090679Y0402737D01*
X0091516Y0402737D01*
X0092353Y0402737D01*
X0092811Y0402860D01*
X0093221Y0403097D01*
X0093556Y0403432D01*
X0093793Y0403843D01*
X0093916Y0404300D01*
X0093916Y0406487D01*
X0091516Y0406487D01*
X0091516Y0402737D01*
X0091516Y0406487D01*
X0091516Y0406487D01*
X0091516Y0406487D01*
X0093916Y0406487D01*
X0093916Y0408674D01*
X0093793Y0409132D01*
X0093556Y0409543D01*
X0093221Y0409878D01*
X0092811Y0410115D01*
X0092353Y0410237D01*
X0091516Y0410237D01*
X0091516Y0406488D01*
X0091516Y0406488D01*
X0091516Y0410237D01*
X0090679Y0410237D01*
X0090236Y0410119D01*
X0089794Y0410237D01*
X0088957Y0410237D01*
X0088957Y0406488D01*
X0088957Y0406488D01*
X0088957Y0406487D02*
X0091516Y0406487D01*
X0089116Y0406487D01*
X0088957Y0406487D01*
X0088957Y0406487D01*
X0088957Y0402737D01*
X0088957Y0406487D01*
X0088957Y0406487D01*
X0088798Y0406487D01*
X0086398Y0406487D01*
X0086398Y0406487D01*
X0086398Y0402737D01*
X0086398Y0406487D01*
X0086398Y0406487D01*
X0088957Y0406487D01*
X0088957Y0406487D01*
X0088957Y0406488D02*
X0088957Y0410237D01*
X0088120Y0410237D01*
X0087677Y0410119D01*
X0087235Y0410237D01*
X0086398Y0410237D01*
X0086398Y0406488D01*
X0086398Y0406488D01*
X0086398Y0410237D01*
X0085561Y0410237D01*
X0085118Y0410119D01*
X0084676Y0410237D01*
X0083839Y0410237D01*
X0083839Y0406488D01*
X0083839Y0406488D01*
X0083839Y0406487D02*
X0086239Y0406487D01*
X0086398Y0406487D01*
X0083839Y0406487D01*
X0083839Y0406487D01*
X0083839Y0402737D01*
X0083839Y0406487D01*
X0083839Y0406487D01*
X0083839Y0406488D02*
X0083839Y0410237D01*
X0083380Y0410237D01*
X0083380Y0413454D01*
X0088082Y0418156D01*
X0089312Y0419386D01*
X0089312Y0464796D01*
X0091833Y0467318D01*
X0188870Y0467318D01*
X0212100Y0490548D01*
X0212100Y0504633D01*
X0213002Y0505007D01*
X0214493Y0506498D01*
X0215207Y0508222D01*
X0215507Y0507498D01*
X0216998Y0506007D01*
X0217900Y0505633D01*
X0217900Y0499130D01*
X0219130Y0497900D01*
X0219130Y0497900D01*
X0227600Y0489430D01*
X0227600Y0489270D01*
X0227487Y0489300D01*
X0226000Y0489300D01*
X0226000Y0485000D01*
X0226000Y0485000D01*
X0226000Y0480700D01*
X0227487Y0480700D01*
X0227945Y0480823D01*
X0228084Y0480903D01*
X0228087Y0480900D01*
X0231913Y0480900D01*
X0232000Y0480987D01*
X0232087Y0480900D01*
X0235913Y0480900D01*
X0236850Y0481837D01*
X0236850Y0482600D01*
X0244006Y0482600D01*
X0246987Y0479619D01*
X0247869Y0479254D01*
X0256431Y0479254D01*
X0256431Y0478825D01*
X0257369Y0477888D01*
X0262631Y0477888D01*
X0263568Y0478825D01*
X0263568Y0484482D01*
X0263050Y0485000D01*
X0263568Y0485518D01*
X0263568Y0491175D01*
X0262631Y0492112D01*
X0259629Y0492112D01*
X0244368Y0507373D01*
X0244493Y0507498D01*
X0244793Y0508222D01*
X0245507Y0506498D01*
X0246998Y0505007D01*
X0248946Y0504200D01*
X0251054Y0504200D01*
X0253002Y0505007D01*
X0254493Y0506498D01*
X0254743Y0507100D01*
X0258148Y0507100D01*
X0277022Y0488226D01*
X0277022Y0486601D01*
X0277959Y0485664D01*
X0282041Y0485664D01*
X0282978Y0486601D01*
X0282978Y0490682D01*
X0282041Y0491620D01*
X0280416Y0491620D01*
X0260501Y0511535D01*
X0259619Y0511900D01*
X0254743Y0511900D01*
X0254493Y0512502D01*
X0253095Y0513901D01*
X0287739Y0513901D01*
X0287709Y0513872D01*
X0286400Y0510711D01*
X0286400Y0507289D01*
X0287709Y0504128D01*
X0288454Y0503384D01*
X0287327Y0503384D01*
X0286083Y0502869D01*
X0285131Y0501917D01*
X0284616Y0500673D01*
X0284616Y0499327D01*
X0285131Y0498083D01*
X0286083Y0497131D01*
X0287327Y0496616D01*
X0287990Y0496616D01*
X0306641Y0477965D01*
X0307523Y0477600D01*
X0315000Y0477600D01*
X0315000Y0422100D01*
X0207686Y0422100D01*
X0206917Y0422869D01*
X0205673Y0423384D01*
X0204327Y0423384D01*
X0203083Y0422869D01*
X0202614Y0422400D01*
X0202112Y0422400D01*
X0202112Y0422631D01*
X0201175Y0423568D01*
X0195518Y0423568D01*
X0195000Y0423050D01*
X0194482Y0423568D01*
X0188825Y0423568D01*
X0187888Y0422631D01*
X0187888Y0421282D01*
X0183641Y0417035D01*
X0183641Y0417035D01*
X0182965Y0416359D01*
X0182600Y0415477D01*
X0182600Y0380994D01*
X0176006Y0374400D01*
X0166595Y0374400D01*
X0163995Y0377000D01*
X0166800Y0379805D01*
X0166800Y0384195D01*
X0163995Y0387000D01*
X0166800Y0389805D01*
X0166800Y0394195D01*
X0163995Y0397000D01*
X0166800Y0399805D01*
X0166800Y0404195D01*
X0163995Y0407000D01*
X0166800Y0409805D01*
X0166800Y0414195D01*
X0163995Y0417000D01*
X0166800Y0419805D01*
X0166800Y0424195D01*
X0163695Y0427300D01*
X0159305Y0427300D01*
X0156500Y0424495D01*
X0153695Y0427300D01*
X0149305Y0427300D01*
X0146200Y0424195D01*
X0146200Y0419805D01*
X0147732Y0418273D01*
X0144400Y0414941D01*
X0144400Y0412370D01*
X0136414Y0404384D01*
X0135327Y0404384D01*
X0134083Y0403869D01*
X0133131Y0402917D01*
X0132616Y0401673D01*
X0132616Y0400327D01*
X0133041Y0399300D01*
X0071148Y0399300D01*
X0069918Y0398070D01*
X0061643Y0389796D01*
X0061643Y0389121D01*
X0060884Y0388362D01*
X0060884Y0377945D01*
X0059862Y0376923D01*
X0056057Y0376923D01*
X0056057Y0379963D01*
X0057778Y0379963D01*
X0058716Y0380900D01*
X0058716Y0386125D01*
X0058616Y0386225D01*
X0058616Y0389354D01*
X0057100Y0390870D01*
X0055870Y0392100D01*
X0039130Y0392100D01*
X0037900Y0390870D01*
X0034093Y0387063D01*
X0009800Y0387063D01*
X0009800Y0385465D02*
X0031284Y0385465D01*
X0031284Y0386125D02*
X0031284Y0384282D01*
X0031046Y0384044D01*
X0029816Y0382814D01*
X0029816Y0352853D01*
X0031046Y0351622D01*
X0031622Y0351046D01*
X0032853Y0349816D01*
X0042669Y0349816D01*
X0097385Y0295100D01*
X0173615Y0295100D01*
X0179670Y0301154D01*
X0180900Y0302385D01*
X0180900Y0342641D01*
X0165268Y0358273D01*
X0166800Y0359805D01*
X0166800Y0364195D01*
X0163995Y0367000D01*
X0166595Y0369600D01*
X0177477Y0369600D01*
X0178359Y0369965D01*
X0185994Y0377600D01*
X0187888Y0377600D01*
X0187888Y0377369D01*
X0188825Y0376431D01*
X0194482Y0376431D01*
X0195000Y0376950D01*
X0195518Y0376431D01*
X0201175Y0376431D01*
X0202112Y0377369D01*
X0202112Y0377600D01*
X0202614Y0377600D01*
X0203083Y0377131D01*
X0204327Y0376616D01*
X0205673Y0376616D01*
X0206917Y0377131D01*
X0207686Y0377900D01*
X0315000Y0377900D01*
X0315000Y0244800D01*
X0301962Y0244800D01*
X0302291Y0245128D01*
X0303600Y0248289D01*
X0303600Y0251711D01*
X0302291Y0254872D01*
X0299872Y0257291D01*
X0296711Y0258600D01*
X0293289Y0258600D01*
X0290128Y0257291D01*
X0287709Y0254872D01*
X0286400Y0251711D01*
X0286400Y0248289D01*
X0287709Y0245128D01*
X0288038Y0244800D01*
X0031962Y0244800D01*
X0032291Y0245128D01*
X0033600Y0248289D01*
X0033600Y0251711D01*
X0032291Y0254872D01*
X0029872Y0257291D01*
X0026711Y0258600D01*
X0023289Y0258600D01*
X0020128Y0257291D01*
X0017709Y0254872D01*
X0016400Y0251711D01*
X0016400Y0248289D01*
X0017709Y0245128D01*
X0018038Y0244800D01*
X0009800Y0244800D01*
X0009800Y0246394D02*
X0017185Y0246394D01*
X0016523Y0247993D02*
X0009800Y0247993D01*
X0009800Y0249591D02*
X0016400Y0249591D01*
X0016400Y0251190D02*
X0009800Y0251190D01*
X0009800Y0252788D02*
X0016846Y0252788D01*
X0017508Y0254387D02*
X0009800Y0254387D01*
X0009800Y0255985D02*
X0018823Y0255985D01*
X0020836Y0257584D02*
X0009800Y0257584D01*
X0009800Y0259182D02*
X0177443Y0259182D01*
X0177400Y0259341D02*
X0178259Y0256137D01*
X0179917Y0253263D01*
X0182263Y0250917D01*
X0185137Y0249259D01*
X0188341Y0248400D01*
X0191659Y0248400D01*
X0194863Y0249259D01*
X0197737Y0250917D01*
X0200083Y0253263D01*
X0201741Y0256137D01*
X0202600Y0259341D01*
X0202600Y0262659D01*
X0201741Y0265863D01*
X0200083Y0268737D01*
X0197737Y0271083D01*
X0194863Y0272741D01*
X0191659Y0273600D01*
X0188341Y0273600D01*
X0185137Y0272741D01*
X0182263Y0271083D01*
X0179917Y0268737D01*
X0178259Y0265863D01*
X0177400Y0262659D01*
X0177400Y0259341D01*
X0177400Y0260781D02*
X0009800Y0260781D01*
X0009800Y0262379D02*
X0177400Y0262379D01*
X0177753Y0263978D02*
X0009800Y0263978D01*
X0009800Y0265576D02*
X0178182Y0265576D01*
X0179016Y0267175D02*
X0009800Y0267175D01*
X0009800Y0268773D02*
X0179954Y0268773D01*
X0181553Y0270372D02*
X0009800Y0270372D01*
X0009800Y0271970D02*
X0183801Y0271970D01*
X0188225Y0273569D02*
X0009800Y0273569D01*
X0009800Y0275167D02*
X0315000Y0275167D01*
X0315000Y0273569D02*
X0191775Y0273569D01*
X0196199Y0271970D02*
X0315000Y0271970D01*
X0315000Y0270372D02*
X0198447Y0270372D01*
X0200046Y0268773D02*
X0315000Y0268773D01*
X0315000Y0267175D02*
X0200984Y0267175D01*
X0201818Y0265576D02*
X0315000Y0265576D01*
X0315000Y0263978D02*
X0202247Y0263978D01*
X0202600Y0262379D02*
X0315000Y0262379D01*
X0315000Y0260781D02*
X0202600Y0260781D01*
X0202557Y0259182D02*
X0315000Y0259182D01*
X0315000Y0257584D02*
X0299164Y0257584D01*
X0301177Y0255985D02*
X0315000Y0255985D01*
X0315000Y0254387D02*
X0302492Y0254387D01*
X0303154Y0252788D02*
X0315000Y0252788D01*
X0315000Y0251190D02*
X0303600Y0251190D01*
X0303600Y0249591D02*
X0315000Y0249591D01*
X0315000Y0247993D02*
X0303477Y0247993D01*
X0302815Y0246394D02*
X0315000Y0246394D01*
X0290836Y0257584D02*
X0202129Y0257584D01*
X0201654Y0255985D02*
X0288823Y0255985D01*
X0287508Y0254387D02*
X0200731Y0254387D01*
X0199607Y0252788D02*
X0286846Y0252788D01*
X0286400Y0251190D02*
X0198009Y0251190D01*
X0195439Y0249591D02*
X0286400Y0249591D01*
X0286523Y0247993D02*
X0033477Y0247993D01*
X0033600Y0249591D02*
X0184561Y0249591D01*
X0181991Y0251190D02*
X0033600Y0251190D01*
X0033154Y0252788D02*
X0180393Y0252788D01*
X0179269Y0254387D02*
X0032492Y0254387D01*
X0031177Y0255985D02*
X0178346Y0255985D01*
X0177871Y0257584D02*
X0029164Y0257584D01*
X0032815Y0246394D02*
X0287185Y0246394D01*
X0315000Y0276766D02*
X0009800Y0276766D01*
X0009800Y0278364D02*
X0315000Y0278364D01*
X0315000Y0279963D02*
X0009800Y0279963D01*
X0009800Y0281561D02*
X0315000Y0281561D01*
X0315000Y0283160D02*
X0009800Y0283160D01*
X0009800Y0284758D02*
X0315000Y0284758D01*
X0315000Y0286357D02*
X0009800Y0286357D01*
X0009800Y0287955D02*
X0315000Y0287955D01*
X0315000Y0289554D02*
X0009800Y0289554D01*
X0009800Y0291152D02*
X0315000Y0291152D01*
X0315000Y0292751D02*
X0009800Y0292751D01*
X0009800Y0294349D02*
X0315000Y0294349D01*
X0315000Y0295948D02*
X0174463Y0295948D01*
X0176062Y0297546D02*
X0315000Y0297546D01*
X0315000Y0299145D02*
X0177660Y0299145D01*
X0179259Y0300743D02*
X0315000Y0300743D01*
X0315000Y0302342D02*
X0180857Y0302342D01*
X0180900Y0303940D02*
X0315000Y0303940D01*
X0315000Y0305539D02*
X0180900Y0305539D01*
X0180900Y0307137D02*
X0315000Y0307137D01*
X0315000Y0308736D02*
X0180900Y0308736D01*
X0180900Y0310334D02*
X0315000Y0310334D01*
X0315000Y0311933D02*
X0180900Y0311933D01*
X0180900Y0313532D02*
X0315000Y0313532D01*
X0315000Y0315130D02*
X0180900Y0315130D01*
X0180900Y0316729D02*
X0315000Y0316729D01*
X0315000Y0318327D02*
X0180900Y0318327D01*
X0180900Y0319926D02*
X0315000Y0319926D01*
X0315000Y0321524D02*
X0180900Y0321524D01*
X0180900Y0323123D02*
X0315000Y0323123D01*
X0315000Y0324721D02*
X0180900Y0324721D01*
X0180900Y0326320D02*
X0315000Y0326320D01*
X0315000Y0327918D02*
X0180900Y0327918D01*
X0180900Y0329517D02*
X0315000Y0329517D01*
X0315000Y0331115D02*
X0180900Y0331115D01*
X0180900Y0332714D02*
X0315000Y0332714D01*
X0315000Y0334312D02*
X0180900Y0334312D01*
X0180900Y0335911D02*
X0315000Y0335911D01*
X0315000Y0337509D02*
X0180900Y0337509D01*
X0180900Y0339108D02*
X0315000Y0339108D01*
X0315000Y0340706D02*
X0180900Y0340706D01*
X0180900Y0342305D02*
X0315000Y0342305D01*
X0315000Y0343903D02*
X0179638Y0343903D01*
X0178039Y0345502D02*
X0315000Y0345502D01*
X0315000Y0347100D02*
X0176441Y0347100D01*
X0174842Y0348699D02*
X0315000Y0348699D01*
X0315000Y0350297D02*
X0173244Y0350297D01*
X0171645Y0351896D02*
X0315000Y0351896D01*
X0315000Y0353494D02*
X0170047Y0353494D01*
X0168448Y0355093D02*
X0315000Y0355093D01*
X0315000Y0356691D02*
X0166850Y0356691D01*
X0165285Y0358290D02*
X0315000Y0358290D01*
X0315000Y0359888D02*
X0166800Y0359888D01*
X0166800Y0361487D02*
X0315000Y0361487D01*
X0315000Y0363085D02*
X0166800Y0363085D01*
X0166311Y0364684D02*
X0315000Y0364684D01*
X0315000Y0366282D02*
X0164713Y0366282D01*
X0164876Y0367881D02*
X0315000Y0367881D01*
X0315000Y0369479D02*
X0166475Y0369479D01*
X0161500Y0372000D02*
X0177000Y0372000D01*
X0185000Y0380000D01*
X0185000Y0390000D01*
X0191654Y0390000D01*
X0187888Y0387600D02*
X0187888Y0387369D01*
X0188825Y0386431D01*
X0194482Y0386431D01*
X0195000Y0386950D01*
X0195518Y0386431D01*
X0201175Y0386431D01*
X0202112Y0387369D01*
X0202112Y0387600D01*
X0202614Y0387600D01*
X0203083Y0387131D01*
X0204327Y0386616D01*
X0205673Y0386616D01*
X0206917Y0387131D01*
X0207686Y0387900D01*
X0315000Y0387900D01*
X0315000Y0382100D01*
X0207686Y0382100D01*
X0206917Y0382869D01*
X0205673Y0383384D01*
X0204327Y0383384D01*
X0203083Y0382869D01*
X0202614Y0382400D01*
X0202112Y0382400D01*
X0202112Y0382631D01*
X0201175Y0383568D01*
X0195518Y0383568D01*
X0195000Y0383050D01*
X0194482Y0383568D01*
X0188825Y0383568D01*
X0187888Y0382631D01*
X0187888Y0382400D01*
X0187400Y0382400D01*
X0187400Y0387600D01*
X0187888Y0387600D01*
X0188194Y0387063D02*
X0187400Y0387063D01*
X0187400Y0385465D02*
X0315000Y0385465D01*
X0315000Y0387063D02*
X0206753Y0387063D01*
X0205000Y0390000D02*
X0198346Y0390000D01*
X0202112Y0392400D02*
X0202112Y0392631D01*
X0201175Y0393568D01*
X0195518Y0393568D01*
X0195000Y0393050D01*
X0194482Y0393568D01*
X0188825Y0393568D01*
X0187888Y0392631D01*
X0187888Y0392400D01*
X0187400Y0392400D01*
X0187400Y0397600D01*
X0187888Y0397600D01*
X0187888Y0397369D01*
X0188825Y0396431D01*
X0194482Y0396431D01*
X0195000Y0396950D01*
X0195518Y0396431D01*
X0201175Y0396431D01*
X0202112Y0397369D01*
X0202112Y0397600D01*
X0202614Y0397600D01*
X0203083Y0397131D01*
X0204327Y0396616D01*
X0205673Y0396616D01*
X0206917Y0397131D01*
X0207686Y0397900D01*
X0315000Y0397900D01*
X0315000Y0392100D01*
X0207686Y0392100D01*
X0206917Y0392869D01*
X0205673Y0393384D01*
X0204327Y0393384D01*
X0203083Y0392869D01*
X0202614Y0392400D01*
X0202112Y0392400D01*
X0201286Y0393457D02*
X0315000Y0393457D01*
X0315000Y0395056D02*
X0187400Y0395056D01*
X0187400Y0396654D02*
X0188603Y0396654D01*
X0188714Y0393457D02*
X0187400Y0393457D01*
X0185000Y0390000D02*
X0185000Y0400000D01*
X0191654Y0400000D01*
X0187888Y0402400D02*
X0187400Y0402400D01*
X0187400Y0407600D01*
X0187888Y0407600D01*
X0187888Y0407369D01*
X0188825Y0406431D01*
X0194482Y0406431D01*
X0195000Y0406950D01*
X0195518Y0406431D01*
X0201175Y0406431D01*
X0202112Y0407369D01*
X0202112Y0407600D01*
X0202614Y0407600D01*
X0203083Y0407131D01*
X0204327Y0406616D01*
X0205673Y0406616D01*
X0206917Y0407131D01*
X0207686Y0407900D01*
X0315000Y0407900D01*
X0315000Y0402100D01*
X0207686Y0402100D01*
X0206917Y0402869D01*
X0205673Y0403384D01*
X0204327Y0403384D01*
X0203083Y0402869D01*
X0202614Y0402400D01*
X0202112Y0402400D01*
X0202112Y0402631D01*
X0201175Y0403568D01*
X0195518Y0403568D01*
X0195000Y0403050D01*
X0194482Y0403568D01*
X0188825Y0403568D01*
X0187888Y0402631D01*
X0187888Y0402400D01*
X0188305Y0403048D02*
X0187400Y0403048D01*
X0187400Y0404647D02*
X0315000Y0404647D01*
X0315000Y0406245D02*
X0187400Y0406245D01*
X0185000Y0410000D02*
X0185000Y0400000D01*
X0182600Y0399851D02*
X0166800Y0399851D01*
X0166800Y0401450D02*
X0182600Y0401450D01*
X0182600Y0403048D02*
X0166800Y0403048D01*
X0166349Y0404647D02*
X0182600Y0404647D01*
X0182600Y0406245D02*
X0164750Y0406245D01*
X0164839Y0407844D02*
X0182600Y0407844D01*
X0182600Y0409442D02*
X0166438Y0409442D01*
X0166800Y0411041D02*
X0182600Y0411041D01*
X0182600Y0412639D02*
X0166800Y0412639D01*
X0166758Y0414238D02*
X0182600Y0414238D01*
X0182749Y0415836D02*
X0165159Y0415836D01*
X0164430Y0417435D02*
X0184041Y0417435D01*
X0185639Y0419033D02*
X0166029Y0419033D01*
X0166800Y0420632D02*
X0187238Y0420632D01*
X0187888Y0422230D02*
X0166800Y0422230D01*
X0166800Y0423829D02*
X0315000Y0423829D01*
X0315000Y0425427D02*
X0165568Y0425427D01*
X0163969Y0427026D02*
X0315000Y0427026D01*
X0315000Y0428624D02*
X0125497Y0428624D01*
X0124863Y0428259D02*
X0127737Y0429917D01*
X0130083Y0432263D01*
X0131741Y0435137D01*
X0132600Y0438341D01*
X0132600Y0441659D01*
X0131741Y0444863D01*
X0130083Y0447737D01*
X0127737Y0450083D01*
X0124863Y0451741D01*
X0121659Y0452600D01*
X0118341Y0452600D01*
X0115137Y0451741D01*
X0112263Y0450083D01*
X0109917Y0447737D01*
X0108259Y0444863D01*
X0107400Y0441659D01*
X0107400Y0438341D01*
X0108259Y0435137D01*
X0109917Y0432263D01*
X0112263Y0429917D01*
X0115137Y0428259D01*
X0118341Y0427400D01*
X0121659Y0427400D01*
X0124863Y0428259D01*
X0128042Y0430223D02*
X0315000Y0430223D01*
X0315000Y0431821D02*
X0129640Y0431821D01*
X0130750Y0433420D02*
X0315000Y0433420D01*
X0315000Y0435018D02*
X0131673Y0435018D01*
X0132138Y0436617D02*
X0315000Y0436617D01*
X0315000Y0438215D02*
X0132566Y0438215D01*
X0132600Y0439814D02*
X0315000Y0439814D01*
X0315000Y0441412D02*
X0132600Y0441412D01*
X0132238Y0443011D02*
X0315000Y0443011D01*
X0315000Y0444609D02*
X0131809Y0444609D01*
X0130965Y0446208D02*
X0315000Y0446208D01*
X0315000Y0447806D02*
X0130013Y0447806D01*
X0128414Y0449405D02*
X0315000Y0449405D01*
X0315000Y0451003D02*
X0126141Y0451003D01*
X0113859Y0451003D02*
X0089312Y0451003D01*
X0089312Y0449405D02*
X0111586Y0449405D01*
X0109987Y0447806D02*
X0089312Y0447806D01*
X0089312Y0446208D02*
X0109035Y0446208D01*
X0108191Y0444609D02*
X0089312Y0444609D01*
X0089312Y0443011D02*
X0107762Y0443011D01*
X0107400Y0441412D02*
X0089312Y0441412D01*
X0089312Y0439814D02*
X0107400Y0439814D01*
X0107434Y0438215D02*
X0089312Y0438215D01*
X0089312Y0436617D02*
X0107862Y0436617D01*
X0108327Y0435018D02*
X0089312Y0435018D01*
X0089312Y0433420D02*
X0109250Y0433420D01*
X0110360Y0431821D02*
X0089312Y0431821D01*
X0089312Y0430223D02*
X0111958Y0430223D01*
X0114503Y0428624D02*
X0089312Y0428624D01*
X0089312Y0427026D02*
X0149030Y0427026D01*
X0147432Y0425427D02*
X0089312Y0425427D01*
X0089312Y0423829D02*
X0146200Y0423829D01*
X0146200Y0422230D02*
X0089312Y0422230D01*
X0089312Y0420632D02*
X0146200Y0420632D01*
X0146971Y0419033D02*
X0088959Y0419033D01*
X0087360Y0417435D02*
X0146894Y0417435D01*
X0145295Y0415836D02*
X0085762Y0415836D01*
X0084163Y0414238D02*
X0144400Y0414238D01*
X0144400Y0412639D02*
X0083380Y0412639D01*
X0083380Y0411041D02*
X0143071Y0411041D01*
X0141472Y0409442D02*
X0093614Y0409442D01*
X0093916Y0407844D02*
X0139874Y0407844D01*
X0138275Y0406245D02*
X0093916Y0406245D01*
X0093916Y0404647D02*
X0136677Y0404647D01*
X0133262Y0403048D02*
X0093136Y0403048D01*
X0091516Y0403048D02*
X0091516Y0403048D01*
X0091516Y0404647D02*
X0091516Y0404647D01*
X0091516Y0406245D02*
X0091516Y0406245D01*
X0091516Y0406487D02*
X0091516Y0406487D01*
X0091516Y0407844D02*
X0091516Y0407844D01*
X0091516Y0409442D02*
X0091516Y0409442D01*
X0088957Y0409442D02*
X0088957Y0409442D01*
X0088957Y0407844D02*
X0088957Y0407844D01*
X0088957Y0406245D02*
X0088957Y0406245D01*
X0088957Y0404647D02*
X0088957Y0404647D01*
X0088957Y0403048D02*
X0088957Y0403048D01*
X0086398Y0403048D02*
X0086398Y0403048D01*
X0086398Y0404647D02*
X0086398Y0404647D01*
X0086398Y0406245D02*
X0086398Y0406245D01*
X0086398Y0406487D02*
X0086398Y0406487D01*
X0086398Y0407844D02*
X0086398Y0407844D01*
X0086398Y0409442D02*
X0086398Y0409442D01*
X0083839Y0409442D02*
X0083839Y0409442D01*
X0083839Y0407844D02*
X0083839Y0407844D01*
X0083839Y0406245D02*
X0083839Y0406245D01*
X0083839Y0404647D02*
X0083839Y0404647D01*
X0083839Y0403048D02*
X0083839Y0403048D01*
X0070100Y0398253D02*
X0009800Y0398253D01*
X0009800Y0399851D02*
X0132813Y0399851D01*
X0132616Y0401450D02*
X0009800Y0401450D01*
X0009800Y0403048D02*
X0032111Y0403048D01*
X0031284Y0404647D02*
X0009800Y0404647D01*
X0009800Y0406245D02*
X0031284Y0406245D01*
X0031284Y0407844D02*
X0009800Y0407844D01*
X0009800Y0409442D02*
X0031384Y0409442D01*
X0031384Y0411041D02*
X0009800Y0411041D01*
X0009800Y0412639D02*
X0031384Y0412639D01*
X0031384Y0414238D02*
X0009800Y0414238D01*
X0009800Y0415836D02*
X0031194Y0415836D01*
X0029595Y0417435D02*
X0009800Y0417435D01*
X0009800Y0419033D02*
X0027997Y0419033D01*
X0027900Y0420632D02*
X0009800Y0420632D01*
X0009800Y0422230D02*
X0027900Y0422230D01*
X0027900Y0423829D02*
X0009800Y0423829D01*
X0009800Y0425427D02*
X0027900Y0425427D01*
X0027900Y0427026D02*
X0009800Y0427026D01*
X0009800Y0428624D02*
X0027900Y0428624D01*
X0027900Y0430223D02*
X0009800Y0430223D01*
X0009800Y0431821D02*
X0027900Y0431821D01*
X0029450Y0433420D02*
X0009800Y0433420D01*
X0009800Y0435018D02*
X0031049Y0435018D01*
X0032647Y0436617D02*
X0009800Y0436617D01*
X0009800Y0438215D02*
X0034246Y0438215D01*
X0035844Y0439814D02*
X0009800Y0439814D01*
X0009800Y0441412D02*
X0037443Y0441412D01*
X0039041Y0443011D02*
X0009800Y0443011D01*
X0009800Y0444609D02*
X0040640Y0444609D01*
X0042238Y0446208D02*
X0009800Y0446208D01*
X0009800Y0447806D02*
X0043837Y0447806D01*
X0045435Y0449405D02*
X0009800Y0449405D01*
X0009800Y0451003D02*
X0046100Y0451003D01*
X0046100Y0452602D02*
X0009800Y0452602D01*
X0009800Y0454201D02*
X0046100Y0454201D01*
X0046100Y0455799D02*
X0009800Y0455799D01*
X0009800Y0457398D02*
X0046100Y0457398D01*
X0046100Y0458996D02*
X0009800Y0458996D01*
X0009800Y0460595D02*
X0046100Y0460595D01*
X0046678Y0462193D02*
X0009800Y0462193D01*
X0009800Y0463792D02*
X0048276Y0463792D01*
X0049875Y0465390D02*
X0009800Y0465390D01*
X0009800Y0466989D02*
X0051473Y0466989D01*
X0053072Y0468587D02*
X0009800Y0468587D01*
X0009800Y0470186D02*
X0054670Y0470186D01*
X0056269Y0471784D02*
X0009800Y0471784D01*
X0009800Y0473383D02*
X0057867Y0473383D01*
X0057900Y0474981D02*
X0009800Y0474981D01*
X0009800Y0476580D02*
X0057900Y0476580D01*
X0057900Y0478178D02*
X0009800Y0478178D01*
X0009800Y0479777D02*
X0057900Y0479777D01*
X0057900Y0481375D02*
X0009800Y0481375D01*
X0009800Y0482974D02*
X0057900Y0482974D01*
X0057900Y0484572D02*
X0009800Y0484572D01*
X0009800Y0486171D02*
X0057900Y0486171D01*
X0057900Y0487769D02*
X0009800Y0487769D01*
X0009800Y0489368D02*
X0057900Y0489368D01*
X0057900Y0490966D02*
X0009800Y0490966D01*
X0009800Y0492565D02*
X0057900Y0492565D01*
X0057900Y0494163D02*
X0009800Y0494163D01*
X0009800Y0495762D02*
X0057900Y0495762D01*
X0057900Y0497360D02*
X0009800Y0497360D01*
X0009800Y0498959D02*
X0057900Y0498959D01*
X0057900Y0500557D02*
X0027091Y0500557D01*
X0030318Y0502156D02*
X0057900Y0502156D01*
X0057900Y0503754D02*
X0031917Y0503754D01*
X0032798Y0505353D02*
X0057900Y0505353D01*
X0056053Y0506951D02*
X0033460Y0506951D01*
X0033600Y0508550D02*
X0055071Y0508550D01*
X0054700Y0510148D02*
X0033600Y0510148D01*
X0033171Y0511747D02*
X0054780Y0511747D01*
X0055442Y0513345D02*
X0032509Y0513345D01*
X0022909Y0500557D02*
X0009800Y0500557D01*
X0009800Y0502156D02*
X0019682Y0502156D01*
X0018083Y0503754D02*
X0009800Y0503754D01*
X0009800Y0505353D02*
X0017202Y0505353D01*
X0016540Y0506951D02*
X0009800Y0506951D01*
X0009800Y0508550D02*
X0016400Y0508550D01*
X0016400Y0510148D02*
X0009800Y0510148D01*
X0009800Y0511747D02*
X0016829Y0511747D01*
X0017491Y0513345D02*
X0009800Y0513345D01*
X0062100Y0505633D02*
X0062100Y0475070D01*
X0067900Y0480870D01*
X0067900Y0504633D01*
X0066998Y0505007D01*
X0065507Y0506498D01*
X0064793Y0508222D01*
X0064493Y0507498D01*
X0063002Y0506007D01*
X0062100Y0505633D01*
X0062100Y0505353D02*
X0066652Y0505353D01*
X0067900Y0503754D02*
X0062100Y0503754D01*
X0062100Y0502156D02*
X0067900Y0502156D01*
X0067900Y0500557D02*
X0062100Y0500557D01*
X0062100Y0498959D02*
X0067900Y0498959D01*
X0067900Y0497360D02*
X0062100Y0497360D01*
X0062100Y0495762D02*
X0067900Y0495762D01*
X0067900Y0494163D02*
X0062100Y0494163D01*
X0062100Y0492565D02*
X0067900Y0492565D01*
X0067900Y0490966D02*
X0062100Y0490966D01*
X0062100Y0489368D02*
X0067900Y0489368D01*
X0067900Y0487769D02*
X0062100Y0487769D01*
X0062100Y0486171D02*
X0067900Y0486171D01*
X0067900Y0484572D02*
X0062100Y0484572D01*
X0062100Y0482974D02*
X0067900Y0482974D01*
X0067900Y0481375D02*
X0062100Y0481375D01*
X0062100Y0479777D02*
X0066807Y0479777D01*
X0065208Y0478178D02*
X0062100Y0478178D01*
X0062100Y0476580D02*
X0063610Y0476580D01*
X0072100Y0482524D02*
X0072100Y0504633D01*
X0073002Y0505007D01*
X0074493Y0506498D01*
X0075109Y0507984D01*
X0075296Y0507617D01*
X0075805Y0506917D01*
X0076417Y0506305D01*
X0077117Y0505796D01*
X0077889Y0505403D01*
X0078712Y0505135D01*
X0079567Y0505000D01*
X0079800Y0505000D01*
X0079800Y0510300D01*
X0080200Y0510300D01*
X0080200Y0505000D01*
X0080433Y0505000D01*
X0081288Y0505135D01*
X0082111Y0505403D01*
X0082883Y0505796D01*
X0083583Y0506305D01*
X0084195Y0506917D01*
X0084704Y0507617D01*
X0084891Y0507984D01*
X0085507Y0506498D01*
X0086305Y0505699D01*
X0083141Y0502535D01*
X0083141Y0502535D01*
X0082465Y0501859D01*
X0079990Y0499384D01*
X0079327Y0499384D01*
X0078083Y0498869D01*
X0077131Y0497917D01*
X0076616Y0496673D01*
X0076616Y0495327D01*
X0077131Y0494083D01*
X0078083Y0493131D01*
X0079327Y0492616D01*
X0080673Y0492616D01*
X0080687Y0492621D01*
X0080738Y0492600D01*
X0081892Y0492600D01*
X0082774Y0492965D01*
X0083449Y0493641D01*
X0083814Y0494523D01*
X0083814Y0495477D01*
X0083538Y0496144D01*
X0085494Y0498100D01*
X0098074Y0498100D01*
X0098048Y0498074D01*
X0097811Y0497663D01*
X0097688Y0497205D01*
X0097688Y0495184D01*
X0101469Y0495184D01*
X0101469Y0494816D01*
X0097688Y0494816D01*
X0097688Y0492795D01*
X0097811Y0492337D01*
X0098048Y0491926D01*
X0098383Y0491591D01*
X0098793Y0491354D01*
X0099251Y0491231D01*
X0101469Y0491231D01*
X0101469Y0494816D01*
X0101838Y0494816D01*
X0101838Y0491231D01*
X0104056Y0491231D01*
X0104514Y0491354D01*
X0104924Y0491591D01*
X0105141Y0491808D01*
X0105518Y0491431D01*
X0108962Y0491431D01*
X0107085Y0489554D01*
X0079130Y0489554D01*
X0077900Y0488324D01*
X0072100Y0482524D01*
X0072100Y0482974D02*
X0072549Y0482974D01*
X0072100Y0484572D02*
X0074148Y0484572D01*
X0075747Y0486171D02*
X0072100Y0486171D01*
X0072100Y0487769D02*
X0077345Y0487769D01*
X0078944Y0489368D02*
X0072100Y0489368D01*
X0072100Y0490966D02*
X0108496Y0490966D01*
X0108346Y0495000D02*
X0102846Y0500500D01*
X0084500Y0500500D01*
X0090000Y0506000D01*
X0090000Y0509500D01*
X0091976Y0504582D02*
X0093002Y0505007D01*
X0094493Y0506498D01*
X0095207Y0508222D01*
X0095507Y0507498D01*
X0096998Y0506007D01*
X0098946Y0505200D01*
X0101054Y0505200D01*
X0103002Y0506007D01*
X0104493Y0507498D01*
X0104793Y0508222D01*
X0105507Y0506498D01*
X0106998Y0505007D01*
X0107900Y0504633D01*
X0107900Y0498841D01*
X0104881Y0501859D01*
X0104206Y0502535D01*
X0103324Y0502900D01*
X0090294Y0502900D01*
X0091359Y0503965D01*
X0091976Y0504582D01*
X0091148Y0503754D02*
X0107900Y0503754D01*
X0107900Y0502156D02*
X0104585Y0502156D01*
X0106183Y0500557D02*
X0107900Y0500557D01*
X0107900Y0498959D02*
X0107782Y0498959D01*
X0112100Y0500189D02*
X0112100Y0504633D01*
X0113002Y0505007D01*
X0114493Y0506498D01*
X0115207Y0508222D01*
X0115507Y0507498D01*
X0116998Y0506007D01*
X0117900Y0505633D01*
X0117900Y0491370D01*
X0114285Y0487754D01*
X0111224Y0487754D01*
X0113912Y0490442D01*
X0113912Y0498377D01*
X0112682Y0499607D01*
X0112100Y0500189D01*
X0112100Y0500557D02*
X0117900Y0500557D01*
X0117900Y0498959D02*
X0113330Y0498959D01*
X0113912Y0497360D02*
X0117900Y0497360D01*
X0117900Y0495762D02*
X0113912Y0495762D01*
X0113912Y0494163D02*
X0117900Y0494163D01*
X0117900Y0492565D02*
X0113912Y0492565D01*
X0113912Y0490966D02*
X0117496Y0490966D01*
X0115898Y0489368D02*
X0112838Y0489368D01*
X0114299Y0487769D02*
X0111239Y0487769D01*
X0118424Y0485954D02*
X0123485Y0485954D01*
X0127900Y0490370D01*
X0127900Y0504633D01*
X0126998Y0505007D01*
X0125507Y0506498D01*
X0124793Y0508222D01*
X0124493Y0507498D01*
X0123002Y0506007D01*
X0122100Y0505633D01*
X0122100Y0489630D01*
X0120870Y0488400D01*
X0120870Y0488400D01*
X0118424Y0485954D01*
X0118641Y0486171D02*
X0123701Y0486171D01*
X0125299Y0487769D02*
X0120239Y0487769D01*
X0121838Y0489368D02*
X0126898Y0489368D01*
X0127900Y0490966D02*
X0122100Y0490966D01*
X0122100Y0492565D02*
X0127900Y0492565D01*
X0127900Y0494163D02*
X0122100Y0494163D01*
X0122100Y0495762D02*
X0127900Y0495762D01*
X0127900Y0497360D02*
X0122100Y0497360D01*
X0122100Y0498959D02*
X0127900Y0498959D01*
X0127900Y0500557D02*
X0122100Y0500557D01*
X0122100Y0502156D02*
X0127900Y0502156D01*
X0127900Y0503754D02*
X0122100Y0503754D01*
X0122100Y0505353D02*
X0126652Y0505353D01*
X0125319Y0506951D02*
X0123947Y0506951D01*
X0125207Y0511778D02*
X0124493Y0513502D01*
X0124095Y0513901D01*
X0126905Y0513901D01*
X0125507Y0512502D01*
X0125207Y0511778D01*
X0124558Y0513345D02*
X0126350Y0513345D01*
X0133095Y0513901D02*
X0135905Y0513901D01*
X0135507Y0513502D01*
X0134793Y0511778D01*
X0134493Y0512502D01*
X0133095Y0513901D01*
X0133650Y0513345D02*
X0135442Y0513345D01*
X0135207Y0508222D02*
X0135507Y0507498D01*
X0136998Y0506007D01*
X0137900Y0505633D01*
X0137900Y0491370D01*
X0130685Y0484154D01*
X0127624Y0484154D01*
X0132100Y0488630D01*
X0132100Y0504633D01*
X0133002Y0505007D01*
X0134493Y0506498D01*
X0135207Y0508222D01*
X0134681Y0506951D02*
X0136053Y0506951D01*
X0137900Y0505353D02*
X0133348Y0505353D01*
X0132100Y0503754D02*
X0137900Y0503754D01*
X0137900Y0502156D02*
X0132100Y0502156D01*
X0132100Y0500557D02*
X0137900Y0500557D01*
X0137900Y0498959D02*
X0132100Y0498959D01*
X0132100Y0497360D02*
X0137900Y0497360D01*
X0137900Y0495762D02*
X0132100Y0495762D01*
X0132100Y0494163D02*
X0137900Y0494163D01*
X0137900Y0492565D02*
X0132100Y0492565D01*
X0132100Y0490966D02*
X0137496Y0490966D01*
X0135898Y0489368D02*
X0132100Y0489368D01*
X0131239Y0487769D02*
X0134299Y0487769D01*
X0132701Y0486171D02*
X0129641Y0486171D01*
X0131102Y0484572D02*
X0128042Y0484572D01*
X0134824Y0482354D02*
X0139885Y0482354D01*
X0147900Y0490370D01*
X0147900Y0504633D01*
X0146998Y0505007D01*
X0145507Y0506498D01*
X0144793Y0508222D01*
X0144493Y0507498D01*
X0143002Y0506007D01*
X0142100Y0505633D01*
X0142100Y0489630D01*
X0134824Y0482354D01*
X0135444Y0482974D02*
X0140504Y0482974D01*
X0142102Y0484572D02*
X0137042Y0484572D01*
X0138641Y0486171D02*
X0143701Y0486171D01*
X0145299Y0487769D02*
X0140239Y0487769D01*
X0141838Y0489368D02*
X0146898Y0489368D01*
X0147900Y0490966D02*
X0142100Y0490966D01*
X0142100Y0492565D02*
X0147900Y0492565D01*
X0147900Y0494163D02*
X0142100Y0494163D01*
X0142100Y0495762D02*
X0147900Y0495762D01*
X0147900Y0497360D02*
X0142100Y0497360D01*
X0142100Y0498959D02*
X0147900Y0498959D01*
X0147900Y0500557D02*
X0142100Y0500557D01*
X0142100Y0502156D02*
X0147900Y0502156D01*
X0147900Y0503754D02*
X0142100Y0503754D01*
X0142100Y0505353D02*
X0146652Y0505353D01*
X0145319Y0506951D02*
X0143947Y0506951D01*
X0145207Y0511778D02*
X0144493Y0513502D01*
X0144095Y0513901D01*
X0146905Y0513901D01*
X0145507Y0512502D01*
X0145207Y0511778D01*
X0144558Y0513345D02*
X0146350Y0513345D01*
X0153095Y0513901D02*
X0155905Y0513901D01*
X0155507Y0513502D01*
X0154793Y0511778D01*
X0154493Y0512502D01*
X0153095Y0513901D01*
X0153650Y0513345D02*
X0155442Y0513345D01*
X0155207Y0508222D02*
X0155507Y0507498D01*
X0156998Y0506007D01*
X0157900Y0505633D01*
X0157900Y0491370D01*
X0147085Y0480554D01*
X0144024Y0480554D01*
X0152100Y0488630D01*
X0152100Y0504633D01*
X0153002Y0505007D01*
X0154493Y0506498D01*
X0155207Y0508222D01*
X0154681Y0506951D02*
X0156053Y0506951D01*
X0157900Y0505353D02*
X0153348Y0505353D01*
X0152100Y0503754D02*
X0157900Y0503754D01*
X0157900Y0502156D02*
X0152100Y0502156D01*
X0152100Y0500557D02*
X0157900Y0500557D01*
X0157900Y0498959D02*
X0152100Y0498959D01*
X0152100Y0497360D02*
X0157900Y0497360D01*
X0157900Y0495762D02*
X0152100Y0495762D01*
X0152100Y0494163D02*
X0157900Y0494163D01*
X0157900Y0492565D02*
X0152100Y0492565D01*
X0152100Y0490966D02*
X0157496Y0490966D01*
X0155898Y0489368D02*
X0152100Y0489368D01*
X0151239Y0487769D02*
X0154299Y0487769D01*
X0152701Y0486171D02*
X0149641Y0486171D01*
X0151102Y0484572D02*
X0148042Y0484572D01*
X0149504Y0482974D02*
X0146444Y0482974D01*
X0147905Y0481375D02*
X0144845Y0481375D01*
X0151224Y0478754D02*
X0156285Y0478754D01*
X0167900Y0490370D01*
X0167900Y0504633D01*
X0166998Y0505007D01*
X0165507Y0506498D01*
X0164793Y0508222D01*
X0164493Y0507498D01*
X0163002Y0506007D01*
X0162100Y0505633D01*
X0162100Y0489630D01*
X0151224Y0478754D01*
X0152247Y0479777D02*
X0157307Y0479777D01*
X0158905Y0481375D02*
X0153845Y0481375D01*
X0155444Y0482974D02*
X0160504Y0482974D01*
X0162102Y0484572D02*
X0157042Y0484572D01*
X0158641Y0486171D02*
X0163701Y0486171D01*
X0165299Y0487769D02*
X0160239Y0487769D01*
X0161838Y0489368D02*
X0166898Y0489368D01*
X0167900Y0490966D02*
X0162100Y0490966D01*
X0162100Y0492565D02*
X0167900Y0492565D01*
X0167900Y0494163D02*
X0162100Y0494163D01*
X0162100Y0495762D02*
X0167900Y0495762D01*
X0167900Y0497360D02*
X0162100Y0497360D01*
X0162100Y0498959D02*
X0167900Y0498959D01*
X0167900Y0500557D02*
X0162100Y0500557D01*
X0162100Y0502156D02*
X0167900Y0502156D01*
X0167900Y0503754D02*
X0162100Y0503754D01*
X0162100Y0505353D02*
X0166652Y0505353D01*
X0165319Y0506951D02*
X0163947Y0506951D01*
X0165207Y0511778D02*
X0164493Y0513502D01*
X0164095Y0513901D01*
X0166905Y0513901D01*
X0165507Y0512502D01*
X0165207Y0511778D01*
X0164558Y0513345D02*
X0166350Y0513345D01*
X0173095Y0513901D02*
X0175905Y0513901D01*
X0175507Y0513502D01*
X0174793Y0511778D01*
X0174493Y0512502D01*
X0173095Y0513901D01*
X0173650Y0513345D02*
X0175442Y0513345D01*
X0175207Y0508222D02*
X0175507Y0507498D01*
X0176998Y0506007D01*
X0177900Y0505633D01*
X0177900Y0491370D01*
X0163485Y0476954D01*
X0160424Y0476954D01*
X0172100Y0488630D01*
X0172100Y0504633D01*
X0173002Y0505007D01*
X0174493Y0506498D01*
X0175207Y0508222D01*
X0174681Y0506951D02*
X0176053Y0506951D01*
X0177900Y0505353D02*
X0173348Y0505353D01*
X0172100Y0503754D02*
X0177900Y0503754D01*
X0177900Y0502156D02*
X0172100Y0502156D01*
X0172100Y0500557D02*
X0177900Y0500557D01*
X0177900Y0498959D02*
X0172100Y0498959D01*
X0172100Y0497360D02*
X0177900Y0497360D01*
X0177900Y0495762D02*
X0172100Y0495762D01*
X0172100Y0494163D02*
X0177900Y0494163D01*
X0177900Y0492565D02*
X0172100Y0492565D01*
X0172100Y0490966D02*
X0177496Y0490966D01*
X0175898Y0489368D02*
X0172100Y0489368D01*
X0171239Y0487769D02*
X0174299Y0487769D01*
X0172701Y0486171D02*
X0169641Y0486171D01*
X0171102Y0484572D02*
X0168042Y0484572D01*
X0169504Y0482974D02*
X0166444Y0482974D01*
X0167905Y0481375D02*
X0164845Y0481375D01*
X0166307Y0479777D02*
X0163247Y0479777D01*
X0164708Y0478178D02*
X0161648Y0478178D01*
X0167587Y0475118D02*
X0182100Y0489630D01*
X0182100Y0491370D01*
X0182100Y0505633D01*
X0183002Y0506007D01*
X0184493Y0507498D01*
X0184793Y0508222D01*
X0185507Y0506498D01*
X0186998Y0505007D01*
X0187900Y0504633D01*
X0187900Y0490370D01*
X0172648Y0475118D01*
X0167587Y0475118D01*
X0169050Y0476580D02*
X0174110Y0476580D01*
X0175708Y0478178D02*
X0170648Y0478178D01*
X0172247Y0479777D02*
X0177307Y0479777D01*
X0178905Y0481375D02*
X0173845Y0481375D01*
X0175444Y0482974D02*
X0180504Y0482974D01*
X0182102Y0484572D02*
X0177042Y0484572D01*
X0178641Y0486171D02*
X0183701Y0486171D01*
X0185299Y0487769D02*
X0180239Y0487769D01*
X0181838Y0489368D02*
X0186898Y0489368D01*
X0187900Y0490966D02*
X0182100Y0490966D01*
X0182100Y0492565D02*
X0187900Y0492565D01*
X0187900Y0494163D02*
X0182100Y0494163D01*
X0182100Y0495762D02*
X0187900Y0495762D01*
X0187900Y0497360D02*
X0182100Y0497360D01*
X0182100Y0498959D02*
X0187900Y0498959D01*
X0187900Y0500557D02*
X0182100Y0500557D01*
X0182100Y0502156D02*
X0187900Y0502156D01*
X0187900Y0503754D02*
X0182100Y0503754D01*
X0182100Y0505353D02*
X0186652Y0505353D01*
X0185319Y0506951D02*
X0183947Y0506951D01*
X0185207Y0511778D02*
X0184493Y0513502D01*
X0184095Y0513901D01*
X0186905Y0513901D01*
X0185507Y0512502D01*
X0185207Y0511778D01*
X0184558Y0513345D02*
X0186350Y0513345D01*
X0193095Y0513901D02*
X0195905Y0513901D01*
X0195507Y0513502D01*
X0194793Y0511778D01*
X0194493Y0512502D01*
X0193095Y0513901D01*
X0193650Y0513345D02*
X0195442Y0513345D01*
X0195207Y0508222D02*
X0195507Y0507498D01*
X0196998Y0506007D01*
X0197900Y0505633D01*
X0197900Y0492087D01*
X0179130Y0473318D01*
X0176787Y0473318D01*
X0192100Y0488630D01*
X0192100Y0490370D01*
X0192100Y0504633D01*
X0193002Y0505007D01*
X0194493Y0506498D01*
X0195207Y0508222D01*
X0194681Y0506951D02*
X0196053Y0506951D01*
X0197900Y0505353D02*
X0193348Y0505353D01*
X0192100Y0503754D02*
X0197900Y0503754D01*
X0197900Y0502156D02*
X0192100Y0502156D01*
X0192100Y0500557D02*
X0197900Y0500557D01*
X0197900Y0498959D02*
X0192100Y0498959D01*
X0192100Y0497360D02*
X0197900Y0497360D01*
X0197900Y0495762D02*
X0192100Y0495762D01*
X0192100Y0494163D02*
X0197900Y0494163D01*
X0197900Y0492565D02*
X0192100Y0492565D01*
X0192100Y0490966D02*
X0196779Y0490966D01*
X0195180Y0489368D02*
X0192100Y0489368D01*
X0191239Y0487769D02*
X0193582Y0487769D01*
X0191983Y0486171D02*
X0189641Y0486171D01*
X0190385Y0484572D02*
X0188042Y0484572D01*
X0188786Y0482974D02*
X0186444Y0482974D01*
X0187188Y0481375D02*
X0184845Y0481375D01*
X0185589Y0479777D02*
X0183247Y0479777D01*
X0183991Y0478178D02*
X0181648Y0478178D01*
X0182392Y0476580D02*
X0180050Y0476580D01*
X0180794Y0474981D02*
X0178451Y0474981D01*
X0179195Y0473383D02*
X0176852Y0473383D01*
X0183270Y0471518D02*
X0202100Y0490348D01*
X0202100Y0492087D01*
X0202100Y0505633D01*
X0203002Y0506007D01*
X0204493Y0507498D01*
X0204793Y0508222D01*
X0205507Y0506498D01*
X0206998Y0505007D01*
X0207900Y0504633D01*
X0207900Y0492287D01*
X0187130Y0471518D01*
X0183270Y0471518D01*
X0183536Y0471784D02*
X0187397Y0471784D01*
X0188995Y0473383D02*
X0185135Y0473383D01*
X0186733Y0474981D02*
X0190594Y0474981D01*
X0192192Y0476580D02*
X0188332Y0476580D01*
X0189930Y0478178D02*
X0193791Y0478178D01*
X0195389Y0479777D02*
X0191529Y0479777D01*
X0193127Y0481375D02*
X0196988Y0481375D01*
X0198586Y0482974D02*
X0194726Y0482974D01*
X0196324Y0484572D02*
X0200185Y0484572D01*
X0201783Y0486171D02*
X0197923Y0486171D01*
X0199521Y0487769D02*
X0203382Y0487769D01*
X0204980Y0489368D02*
X0201120Y0489368D01*
X0202100Y0490966D02*
X0206579Y0490966D01*
X0207900Y0492565D02*
X0202100Y0492565D01*
X0202100Y0494163D02*
X0207900Y0494163D01*
X0207900Y0495762D02*
X0202100Y0495762D01*
X0202100Y0497360D02*
X0207900Y0497360D01*
X0207900Y0498959D02*
X0202100Y0498959D01*
X0202100Y0500557D02*
X0207900Y0500557D01*
X0207900Y0502156D02*
X0202100Y0502156D01*
X0202100Y0503754D02*
X0207900Y0503754D01*
X0206652Y0505353D02*
X0202100Y0505353D01*
X0203947Y0506951D02*
X0205319Y0506951D01*
X0205207Y0511778D02*
X0204493Y0513502D01*
X0204095Y0513901D01*
X0206905Y0513901D01*
X0205507Y0512502D01*
X0205207Y0511778D01*
X0204558Y0513345D02*
X0206350Y0513345D01*
X0213095Y0513901D02*
X0215905Y0513901D01*
X0215507Y0513502D01*
X0214793Y0511778D01*
X0214493Y0512502D01*
X0213095Y0513901D01*
X0213650Y0513345D02*
X0215442Y0513345D01*
X0216053Y0506951D02*
X0214681Y0506951D01*
X0213348Y0505353D02*
X0217900Y0505353D01*
X0217900Y0503754D02*
X0212100Y0503754D01*
X0212100Y0502156D02*
X0217900Y0502156D01*
X0217900Y0500557D02*
X0212100Y0500557D01*
X0212100Y0498959D02*
X0218071Y0498959D01*
X0219670Y0497360D02*
X0212100Y0497360D01*
X0212100Y0495762D02*
X0221268Y0495762D01*
X0222867Y0494163D02*
X0212100Y0494163D01*
X0212100Y0492565D02*
X0224465Y0492565D01*
X0226064Y0490966D02*
X0212100Y0490966D01*
X0210920Y0489368D02*
X0227600Y0489368D01*
X0226000Y0489300D02*
X0224513Y0489300D01*
X0224055Y0489177D01*
X0223645Y0488940D01*
X0223310Y0488605D01*
X0223073Y0488195D01*
X0222950Y0487737D01*
X0222950Y0485000D01*
X0226000Y0485000D01*
X0226000Y0485000D01*
X0226000Y0485000D01*
X0226000Y0489300D01*
X0226000Y0487769D02*
X0226000Y0487769D01*
X0226000Y0486171D02*
X0226000Y0486171D01*
X0226000Y0485000D02*
X0222950Y0485000D01*
X0222950Y0482263D01*
X0223073Y0481805D01*
X0223310Y0481395D01*
X0223645Y0481060D01*
X0224055Y0480823D01*
X0224513Y0480700D01*
X0226000Y0480700D01*
X0226000Y0485000D01*
X0226000Y0484572D02*
X0226000Y0484572D01*
X0226000Y0482974D02*
X0226000Y0482974D01*
X0226000Y0481375D02*
X0226000Y0481375D01*
X0223329Y0481375D02*
X0202927Y0481375D01*
X0201329Y0479777D02*
X0246829Y0479777D01*
X0245231Y0481375D02*
X0236388Y0481375D01*
X0234000Y0485000D02*
X0241000Y0485000D01*
X0241000Y0490000D01*
X0243400Y0487614D02*
X0243400Y0487400D01*
X0245477Y0487400D01*
X0245738Y0487292D01*
X0244185Y0488845D01*
X0243869Y0488083D01*
X0243400Y0487614D01*
X0243555Y0487769D02*
X0245261Y0487769D01*
X0245000Y0485000D02*
X0241000Y0485000D01*
X0238600Y0487400D02*
X0236850Y0487400D01*
X0236850Y0488163D01*
X0235913Y0489100D01*
X0232400Y0489100D01*
X0232400Y0490477D01*
X0232035Y0491359D01*
X0231359Y0492035D01*
X0230635Y0492335D01*
X0222100Y0500870D01*
X0222100Y0505633D01*
X0223002Y0506007D01*
X0224493Y0507498D01*
X0224793Y0508222D01*
X0225507Y0506498D01*
X0226998Y0505007D01*
X0228748Y0504282D01*
X0239845Y0493185D01*
X0239083Y0492869D01*
X0238131Y0491917D01*
X0237616Y0490673D01*
X0237616Y0489327D01*
X0238131Y0488083D01*
X0238600Y0487614D01*
X0238600Y0487400D01*
X0238445Y0487769D02*
X0236850Y0487769D01*
X0237616Y0489368D02*
X0232400Y0489368D01*
X0232197Y0490966D02*
X0237737Y0490966D01*
X0238779Y0492565D02*
X0230405Y0492565D01*
X0228807Y0494163D02*
X0238867Y0494163D01*
X0237268Y0495762D02*
X0227208Y0495762D01*
X0225609Y0497360D02*
X0235670Y0497360D01*
X0234071Y0498959D02*
X0224011Y0498959D01*
X0222412Y0500557D02*
X0232473Y0500557D01*
X0230874Y0502156D02*
X0222100Y0502156D01*
X0222100Y0503754D02*
X0229276Y0503754D01*
X0226652Y0505353D02*
X0222100Y0505353D01*
X0223947Y0506951D02*
X0225319Y0506951D01*
X0225207Y0511778D02*
X0224493Y0513502D01*
X0224095Y0513901D01*
X0226905Y0513901D01*
X0225507Y0512502D01*
X0225207Y0511778D01*
X0224558Y0513345D02*
X0226350Y0513345D01*
X0233095Y0513901D02*
X0235905Y0513901D01*
X0235507Y0513502D01*
X0234793Y0511778D01*
X0234493Y0512502D01*
X0233095Y0513901D01*
X0233650Y0513345D02*
X0235442Y0513345D01*
X0235207Y0508222D02*
X0235507Y0507498D01*
X0236998Y0506007D01*
X0238946Y0505200D01*
X0239752Y0505200D01*
X0256431Y0488521D01*
X0256431Y0485518D01*
X0256950Y0485000D01*
X0256431Y0484482D01*
X0256431Y0484054D01*
X0252840Y0484054D01*
X0252869Y0484083D01*
X0253384Y0485327D01*
X0253384Y0486673D01*
X0252869Y0487917D01*
X0251917Y0488869D01*
X0250673Y0489384D01*
X0249586Y0489384D01*
X0233483Y0505487D01*
X0234493Y0506498D01*
X0235207Y0508222D01*
X0234681Y0506951D02*
X0236053Y0506951D01*
X0233617Y0505353D02*
X0238577Y0505353D01*
X0241198Y0503754D02*
X0235215Y0503754D01*
X0236814Y0502156D02*
X0242796Y0502156D01*
X0244395Y0500557D02*
X0238412Y0500557D01*
X0240011Y0498959D02*
X0245994Y0498959D01*
X0247592Y0497360D02*
X0241610Y0497360D01*
X0243208Y0495762D02*
X0249191Y0495762D01*
X0250789Y0494163D02*
X0244807Y0494163D01*
X0246405Y0492565D02*
X0252388Y0492565D01*
X0253986Y0490966D02*
X0248004Y0490966D01*
X0250713Y0489368D02*
X0255585Y0489368D01*
X0256431Y0487769D02*
X0252930Y0487769D01*
X0253384Y0486171D02*
X0256431Y0486171D01*
X0256522Y0484572D02*
X0253072Y0484572D01*
X0248346Y0481654D02*
X0245000Y0485000D01*
X0248346Y0481654D02*
X0260000Y0481654D01*
X0263568Y0481375D02*
X0274463Y0481375D01*
X0274463Y0479777D02*
X0263568Y0479777D01*
X0262921Y0478178D02*
X0275041Y0478178D01*
X0275041Y0478740D02*
X0275041Y0477112D01*
X0272369Y0477112D01*
X0271431Y0476175D01*
X0271431Y0470518D01*
X0271950Y0470000D01*
X0271431Y0469482D01*
X0271431Y0463825D01*
X0272369Y0462888D01*
X0272900Y0462888D01*
X0272900Y0457686D01*
X0272131Y0456917D01*
X0271616Y0455673D01*
X0271616Y0454327D01*
X0272131Y0453083D01*
X0273083Y0452131D01*
X0274327Y0451616D01*
X0275673Y0451616D01*
X0276917Y0452131D01*
X0277869Y0453083D01*
X0278384Y0454327D01*
X0278384Y0455673D01*
X0277869Y0456917D01*
X0277100Y0457686D01*
X0277100Y0462888D01*
X0277631Y0462888D01*
X0278568Y0463825D01*
X0278568Y0469482D01*
X0278050Y0470000D01*
X0278568Y0470518D01*
X0278568Y0470946D01*
X0281431Y0470946D01*
X0281431Y0470518D01*
X0281808Y0470141D01*
X0281591Y0469924D01*
X0281354Y0469514D01*
X0281231Y0469056D01*
X0281231Y0466838D01*
X0284816Y0466838D01*
X0284816Y0466469D01*
X0285184Y0466469D01*
X0285184Y0462688D01*
X0287205Y0462688D01*
X0287663Y0462811D01*
X0288074Y0463048D01*
X0288409Y0463383D01*
X0288646Y0463793D01*
X0288768Y0464251D01*
X0288768Y0466469D01*
X0285184Y0466469D01*
X0285184Y0466838D01*
X0288768Y0466838D01*
X0288768Y0469056D01*
X0288646Y0469514D01*
X0288409Y0469924D01*
X0288192Y0470141D01*
X0288568Y0470518D01*
X0288568Y0476175D01*
X0287631Y0477112D01*
X0282369Y0477112D01*
X0281431Y0476175D01*
X0281431Y0475746D01*
X0280994Y0475746D01*
X0279841Y0476900D01*
X0279841Y0478740D01*
X0279859Y0478757D01*
X0280076Y0478540D01*
X0280486Y0478303D01*
X0280944Y0478180D01*
X0282559Y0478180D01*
X0282559Y0481358D01*
X0282559Y0481358D01*
X0282559Y0478180D01*
X0284174Y0478180D01*
X0284632Y0478303D01*
X0285042Y0478540D01*
X0285377Y0478875D01*
X0285614Y0479286D01*
X0285737Y0479743D01*
X0285737Y0481358D01*
X0282559Y0481358D01*
X0282559Y0481358D01*
X0285737Y0481358D01*
X0285737Y0482973D01*
X0285614Y0483431D01*
X0285377Y0483841D01*
X0285042Y0484177D01*
X0284632Y0484414D01*
X0284174Y0484536D01*
X0282559Y0484536D01*
X0280944Y0484536D01*
X0280486Y0484414D01*
X0280076Y0484177D01*
X0279859Y0483959D01*
X0279482Y0484336D01*
X0275400Y0484336D01*
X0274463Y0483399D01*
X0274463Y0479318D01*
X0275041Y0478740D01*
X0277441Y0481358D02*
X0277441Y0475906D01*
X0280000Y0473346D01*
X0285000Y0473346D01*
X0288568Y0473383D02*
X0315000Y0473383D01*
X0315000Y0474981D02*
X0288568Y0474981D01*
X0288163Y0476580D02*
X0315000Y0476580D01*
X0315000Y0471784D02*
X0288568Y0471784D01*
X0288236Y0470186D02*
X0315000Y0470186D01*
X0315000Y0468587D02*
X0288768Y0468587D01*
X0288768Y0466989D02*
X0315000Y0466989D01*
X0315000Y0465390D02*
X0288768Y0465390D01*
X0288645Y0463792D02*
X0315000Y0463792D01*
X0315000Y0462193D02*
X0277100Y0462193D01*
X0277100Y0460595D02*
X0315000Y0460595D01*
X0315000Y0458996D02*
X0277100Y0458996D01*
X0277388Y0457398D02*
X0315000Y0457398D01*
X0315000Y0455799D02*
X0278332Y0455799D01*
X0278332Y0454201D02*
X0315000Y0454201D01*
X0315000Y0452602D02*
X0277388Y0452602D01*
X0272612Y0452602D02*
X0089312Y0452602D01*
X0089312Y0454201D02*
X0271668Y0454201D01*
X0271668Y0455799D02*
X0089312Y0455799D01*
X0089312Y0457398D02*
X0272611Y0457398D01*
X0272900Y0458996D02*
X0089312Y0458996D01*
X0089312Y0460595D02*
X0272900Y0460595D01*
X0272900Y0462193D02*
X0089312Y0462193D01*
X0089312Y0463792D02*
X0271465Y0463792D01*
X0271431Y0465390D02*
X0089906Y0465390D01*
X0091504Y0466989D02*
X0271431Y0466989D01*
X0271431Y0468587D02*
X0190139Y0468587D01*
X0191738Y0470186D02*
X0271764Y0470186D01*
X0271431Y0471784D02*
X0193336Y0471784D01*
X0194935Y0473383D02*
X0271431Y0473383D01*
X0271431Y0474981D02*
X0196533Y0474981D01*
X0198132Y0476580D02*
X0271837Y0476580D01*
X0275000Y0473346D02*
X0280000Y0473346D01*
X0280161Y0476580D02*
X0281837Y0476580D01*
X0279841Y0478178D02*
X0306428Y0478178D01*
X0304829Y0479777D02*
X0285737Y0479777D01*
X0285737Y0481375D02*
X0303231Y0481375D01*
X0301632Y0482974D02*
X0285737Y0482974D01*
X0282559Y0482974D02*
X0282559Y0482974D01*
X0282559Y0484536D02*
X0282559Y0481358D01*
X0282559Y0481358D01*
X0282559Y0484536D01*
X0282548Y0486171D02*
X0298435Y0486171D01*
X0296837Y0487769D02*
X0282978Y0487769D01*
X0282978Y0489368D02*
X0295238Y0489368D01*
X0293640Y0490966D02*
X0282694Y0490966D01*
X0280000Y0488642D02*
X0259142Y0509500D01*
X0250000Y0509500D01*
X0253650Y0513345D02*
X0287491Y0513345D01*
X0286829Y0511747D02*
X0259989Y0511747D01*
X0261887Y0510148D02*
X0286400Y0510148D01*
X0286400Y0508550D02*
X0263486Y0508550D01*
X0265084Y0506951D02*
X0286540Y0506951D01*
X0287202Y0505353D02*
X0266683Y0505353D01*
X0268281Y0503754D02*
X0288083Y0503754D01*
X0285370Y0502156D02*
X0269880Y0502156D01*
X0271478Y0500557D02*
X0284616Y0500557D01*
X0284768Y0498959D02*
X0273077Y0498959D01*
X0274676Y0497360D02*
X0285854Y0497360D01*
X0288844Y0495762D02*
X0276274Y0495762D01*
X0277873Y0494163D02*
X0290443Y0494163D01*
X0292041Y0492565D02*
X0279471Y0492565D01*
X0275880Y0489368D02*
X0263568Y0489368D01*
X0263568Y0490966D02*
X0274281Y0490966D01*
X0272683Y0492565D02*
X0259176Y0492565D01*
X0257577Y0494163D02*
X0271084Y0494163D01*
X0269486Y0495762D02*
X0255979Y0495762D01*
X0254380Y0497360D02*
X0267887Y0497360D01*
X0266289Y0498959D02*
X0252782Y0498959D01*
X0251183Y0500557D02*
X0264690Y0500557D01*
X0263092Y0502156D02*
X0249585Y0502156D01*
X0247986Y0503754D02*
X0261493Y0503754D01*
X0259895Y0505353D02*
X0253348Y0505353D01*
X0254681Y0506951D02*
X0258296Y0506951D01*
X0246652Y0505353D02*
X0246388Y0505353D01*
X0245319Y0506951D02*
X0244789Y0506951D01*
X0245207Y0511778D02*
X0244493Y0513502D01*
X0244095Y0513901D01*
X0246905Y0513901D01*
X0245507Y0512502D01*
X0245207Y0511778D01*
X0244558Y0513345D02*
X0246350Y0513345D01*
X0240000Y0510500D02*
X0240000Y0508346D01*
X0260000Y0488346D01*
X0263568Y0487769D02*
X0277022Y0487769D01*
X0277452Y0486171D02*
X0263568Y0486171D01*
X0263478Y0484572D02*
X0300034Y0484572D01*
X0303625Y0487769D02*
X0315000Y0487769D01*
X0315000Y0486171D02*
X0305223Y0486171D01*
X0306822Y0484572D02*
X0315000Y0484572D01*
X0315000Y0482974D02*
X0308420Y0482974D01*
X0308994Y0482400D02*
X0291384Y0500010D01*
X0291384Y0500673D01*
X0291126Y0501296D01*
X0293289Y0500400D01*
X0296711Y0500400D01*
X0299872Y0501709D01*
X0302291Y0504128D01*
X0303600Y0507289D01*
X0303600Y0510711D01*
X0302291Y0513872D01*
X0302261Y0513901D01*
X0315000Y0513901D01*
X0315000Y0482400D01*
X0308994Y0482400D01*
X0308000Y0480000D02*
X0288000Y0500000D01*
X0291384Y0500557D02*
X0292909Y0500557D01*
X0292435Y0498959D02*
X0315000Y0498959D01*
X0315000Y0500557D02*
X0297091Y0500557D01*
X0300318Y0502156D02*
X0315000Y0502156D01*
X0315000Y0503754D02*
X0301917Y0503754D01*
X0302798Y0505353D02*
X0315000Y0505353D01*
X0315000Y0506951D02*
X0303460Y0506951D01*
X0303600Y0508550D02*
X0315000Y0508550D01*
X0315000Y0510148D02*
X0303600Y0510148D01*
X0303171Y0511747D02*
X0315000Y0511747D01*
X0315000Y0513345D02*
X0302509Y0513345D01*
X0294034Y0497360D02*
X0315000Y0497360D01*
X0315000Y0495762D02*
X0295632Y0495762D01*
X0297231Y0494163D02*
X0315000Y0494163D01*
X0315000Y0492565D02*
X0298829Y0492565D01*
X0300428Y0490966D02*
X0315000Y0490966D01*
X0315000Y0489368D02*
X0302026Y0489368D01*
X0308000Y0480000D02*
X0409941Y0480000D01*
X0455000Y0430000D02*
X0480000Y0405000D01*
X0430000Y0405000D01*
X0455000Y0430000D01*
X0453624Y0428624D02*
X0456376Y0428624D01*
X0457974Y0427026D02*
X0452026Y0427026D01*
X0450427Y0425427D02*
X0459573Y0425427D01*
X0461171Y0423829D02*
X0448829Y0423829D01*
X0447230Y0422230D02*
X0462770Y0422230D01*
X0464368Y0420632D02*
X0445632Y0420632D01*
X0444033Y0419033D02*
X0465967Y0419033D01*
X0467565Y0417435D02*
X0442435Y0417435D01*
X0440836Y0415836D02*
X0469164Y0415836D01*
X0470762Y0414238D02*
X0439238Y0414238D01*
X0437639Y0412639D02*
X0472361Y0412639D01*
X0473959Y0411041D02*
X0436041Y0411041D01*
X0434442Y0409442D02*
X0475558Y0409442D01*
X0477156Y0407844D02*
X0432844Y0407844D01*
X0431245Y0406245D02*
X0478755Y0406245D01*
X0466618Y0387136D02*
X0463865Y0388375D01*
X0460983Y0389274D01*
X0458013Y0389818D01*
X0455000Y0390000D01*
X0451987Y0389818D01*
X0449017Y0389274D01*
X0446135Y0388375D01*
X0443382Y0387136D01*
X0440798Y0385575D01*
X0438422Y0383713D01*
X0436287Y0381578D01*
X0434425Y0379202D01*
X0432864Y0376618D01*
X0431625Y0373865D01*
X0430726Y0370983D01*
X0430182Y0368013D01*
X0430000Y0365000D01*
X0430182Y0361987D01*
X0430726Y0359017D01*
X0431625Y0356135D01*
X0432864Y0353382D01*
X0434425Y0350798D01*
X0436287Y0348422D01*
X0438422Y0346287D01*
X0440798Y0344425D01*
X0443382Y0342864D01*
X0446135Y0341625D01*
X0449017Y0340726D01*
X0451987Y0340182D01*
X0455000Y0340000D01*
X0458013Y0340182D01*
X0460983Y0340726D01*
X0463865Y0341625D01*
X0466618Y0342864D01*
X0469202Y0344425D01*
X0471578Y0346287D01*
X0473713Y0348422D01*
X0475575Y0350798D01*
X0477136Y0353382D01*
X0478375Y0356135D01*
X0479274Y0359017D01*
X0479818Y0361987D01*
X0480000Y0365000D01*
X0479818Y0368013D01*
X0479274Y0370983D01*
X0478375Y0373865D01*
X0477136Y0376618D01*
X0475575Y0379202D01*
X0473713Y0381578D01*
X0471578Y0383713D01*
X0469202Y0385575D01*
X0466618Y0387136D01*
X0466739Y0387063D02*
X0443261Y0387063D01*
X0440658Y0385465D02*
X0469342Y0385465D01*
X0471382Y0383866D02*
X0438618Y0383866D01*
X0436977Y0382268D02*
X0473023Y0382268D01*
X0474425Y0380669D02*
X0435575Y0380669D01*
X0434346Y0379070D02*
X0475654Y0379070D01*
X0476620Y0377472D02*
X0433380Y0377472D01*
X0432528Y0375873D02*
X0477472Y0375873D01*
X0478191Y0374275D02*
X0431809Y0374275D01*
X0431254Y0372676D02*
X0478746Y0372676D01*
X0479244Y0371078D02*
X0430756Y0371078D01*
X0430451Y0369479D02*
X0479549Y0369479D01*
X0479826Y0367881D02*
X0430174Y0367881D01*
X0430078Y0366282D02*
X0479922Y0366282D01*
X0479981Y0364684D02*
X0430019Y0364684D01*
X0430116Y0363085D02*
X0479884Y0363085D01*
X0479726Y0361487D02*
X0430274Y0361487D01*
X0430567Y0359888D02*
X0479433Y0359888D01*
X0479047Y0358290D02*
X0430953Y0358290D01*
X0431451Y0356691D02*
X0478549Y0356691D01*
X0477906Y0355093D02*
X0432094Y0355093D01*
X0432813Y0353494D02*
X0477187Y0353494D01*
X0476238Y0351896D02*
X0433762Y0351896D01*
X0434818Y0350297D02*
X0475182Y0350297D01*
X0473930Y0348699D02*
X0436070Y0348699D01*
X0437609Y0347100D02*
X0472391Y0347100D01*
X0470575Y0345502D02*
X0439425Y0345502D01*
X0441662Y0343903D02*
X0468338Y0343903D01*
X0465376Y0342305D02*
X0444624Y0342305D01*
X0449128Y0340706D02*
X0460872Y0340706D01*
X0478123Y0323123D02*
X0431877Y0323123D01*
X0430279Y0324721D02*
X0479721Y0324721D01*
X0480000Y0325000D02*
X0455000Y0300000D01*
X0430000Y0325000D01*
X0480000Y0325000D01*
X0476524Y0321524D02*
X0433476Y0321524D01*
X0435074Y0319926D02*
X0474926Y0319926D01*
X0473327Y0318327D02*
X0436673Y0318327D01*
X0438271Y0316729D02*
X0471729Y0316729D01*
X0470130Y0315130D02*
X0439870Y0315130D01*
X0441468Y0313532D02*
X0468532Y0313532D01*
X0466933Y0311933D02*
X0443067Y0311933D01*
X0444666Y0310334D02*
X0465334Y0310334D01*
X0463736Y0308736D02*
X0446264Y0308736D01*
X0447863Y0307137D02*
X0462137Y0307137D01*
X0460539Y0305539D02*
X0449461Y0305539D01*
X0451060Y0303940D02*
X0458940Y0303940D01*
X0457342Y0302342D02*
X0452658Y0302342D01*
X0454257Y0300743D02*
X0455743Y0300743D01*
X0495000Y0340000D02*
X0520000Y0365000D01*
X0495000Y0390000D01*
X0495000Y0340000D01*
X0495000Y0340706D02*
X0495706Y0340706D01*
X0495000Y0342305D02*
X0497305Y0342305D01*
X0498903Y0343903D02*
X0495000Y0343903D01*
X0495000Y0345502D02*
X0500502Y0345502D01*
X0502100Y0347100D02*
X0495000Y0347100D01*
X0495000Y0348699D02*
X0503699Y0348699D01*
X0505297Y0350297D02*
X0495000Y0350297D01*
X0495000Y0351896D02*
X0506896Y0351896D01*
X0508494Y0353494D02*
X0495000Y0353494D01*
X0495000Y0355093D02*
X0510093Y0355093D01*
X0511691Y0356691D02*
X0495000Y0356691D01*
X0495000Y0358290D02*
X0513290Y0358290D01*
X0514888Y0359888D02*
X0495000Y0359888D01*
X0495000Y0361487D02*
X0516487Y0361487D01*
X0518085Y0363085D02*
X0495000Y0363085D01*
X0495000Y0364684D02*
X0519684Y0364684D01*
X0518718Y0366282D02*
X0495000Y0366282D01*
X0495000Y0367881D02*
X0517119Y0367881D01*
X0515521Y0369479D02*
X0495000Y0369479D01*
X0495000Y0371078D02*
X0513922Y0371078D01*
X0512324Y0372676D02*
X0495000Y0372676D01*
X0495000Y0374275D02*
X0510725Y0374275D01*
X0509127Y0375873D02*
X0495000Y0375873D01*
X0495000Y0377472D02*
X0507528Y0377472D01*
X0505930Y0379070D02*
X0495000Y0379070D01*
X0495000Y0380669D02*
X0504331Y0380669D01*
X0502732Y0382268D02*
X0495000Y0382268D01*
X0495000Y0383866D02*
X0501134Y0383866D01*
X0499535Y0385465D02*
X0495000Y0385465D01*
X0495000Y0387063D02*
X0497937Y0387063D01*
X0496338Y0388662D02*
X0495000Y0388662D01*
X0462947Y0388662D02*
X0447053Y0388662D01*
X0415000Y0388662D02*
X0413662Y0388662D01*
X0415000Y0390000D02*
X0390000Y0365000D01*
X0415000Y0340000D01*
X0415000Y0390000D01*
X0415000Y0387063D02*
X0412063Y0387063D01*
X0410465Y0385465D02*
X0415000Y0385465D01*
X0415000Y0383866D02*
X0408866Y0383866D01*
X0407268Y0382268D02*
X0415000Y0382268D01*
X0415000Y0380669D02*
X0405669Y0380669D01*
X0404070Y0379070D02*
X0415000Y0379070D01*
X0415000Y0377472D02*
X0402472Y0377472D01*
X0400873Y0375873D02*
X0415000Y0375873D01*
X0415000Y0374275D02*
X0399275Y0374275D01*
X0397676Y0372676D02*
X0415000Y0372676D01*
X0415000Y0371078D02*
X0396078Y0371078D01*
X0394479Y0369479D02*
X0415000Y0369479D01*
X0415000Y0367881D02*
X0392881Y0367881D01*
X0391282Y0366282D02*
X0415000Y0366282D01*
X0415000Y0364684D02*
X0390316Y0364684D01*
X0391915Y0363085D02*
X0415000Y0363085D01*
X0415000Y0361487D02*
X0393513Y0361487D01*
X0395112Y0359888D02*
X0415000Y0359888D01*
X0415000Y0358290D02*
X0396710Y0358290D01*
X0398309Y0356691D02*
X0415000Y0356691D01*
X0415000Y0355093D02*
X0399907Y0355093D01*
X0401506Y0353494D02*
X0415000Y0353494D01*
X0415000Y0351896D02*
X0403104Y0351896D01*
X0404703Y0350297D02*
X0415000Y0350297D01*
X0415000Y0348699D02*
X0406301Y0348699D01*
X0407900Y0347100D02*
X0415000Y0347100D01*
X0415000Y0345502D02*
X0409498Y0345502D01*
X0411097Y0343903D02*
X0415000Y0343903D01*
X0415000Y0342305D02*
X0412695Y0342305D01*
X0414294Y0340706D02*
X0415000Y0340706D01*
X0315000Y0371078D02*
X0179472Y0371078D01*
X0181071Y0372676D02*
X0315000Y0372676D01*
X0315000Y0374275D02*
X0182669Y0374275D01*
X0184268Y0375873D02*
X0315000Y0375873D01*
X0315000Y0377472D02*
X0207258Y0377472D01*
X0205000Y0380000D02*
X0198346Y0380000D01*
X0202112Y0377472D02*
X0202742Y0377472D01*
X0207519Y0382268D02*
X0315000Y0382268D01*
X0315000Y0383866D02*
X0187400Y0383866D01*
X0185000Y0380000D02*
X0191654Y0380000D01*
X0187888Y0377472D02*
X0185866Y0377472D01*
X0182275Y0380669D02*
X0166800Y0380669D01*
X0166800Y0382268D02*
X0182600Y0382268D01*
X0182600Y0383866D02*
X0166800Y0383866D01*
X0165531Y0385465D02*
X0182600Y0385465D01*
X0182600Y0387063D02*
X0164058Y0387063D01*
X0165657Y0388662D02*
X0182600Y0388662D01*
X0182600Y0390260D02*
X0166800Y0390260D01*
X0166800Y0391859D02*
X0182600Y0391859D01*
X0182600Y0393457D02*
X0166800Y0393457D01*
X0165940Y0395056D02*
X0182600Y0395056D01*
X0182600Y0396654D02*
X0164341Y0396654D01*
X0165248Y0398253D02*
X0182600Y0398253D01*
X0194704Y0396654D02*
X0195296Y0396654D01*
X0195407Y0393457D02*
X0194593Y0393457D01*
X0201397Y0396654D02*
X0204234Y0396654D01*
X0205766Y0396654D02*
X0315000Y0396654D01*
X0315000Y0403048D02*
X0206485Y0403048D01*
X0203515Y0403048D02*
X0201695Y0403048D01*
X0205000Y0400000D02*
X0198346Y0400000D01*
X0198346Y0410000D02*
X0205000Y0410000D01*
X0202614Y0412400D02*
X0202112Y0412400D01*
X0202112Y0412631D01*
X0201175Y0413568D01*
X0195518Y0413568D01*
X0195000Y0413050D01*
X0194482Y0413568D01*
X0188825Y0413568D01*
X0187888Y0412631D01*
X0187888Y0412400D01*
X0187400Y0412400D01*
X0187400Y0414006D01*
X0189826Y0416431D01*
X0194482Y0416431D01*
X0195000Y0416950D01*
X0195518Y0416431D01*
X0201175Y0416431D01*
X0202112Y0417369D01*
X0202112Y0417600D01*
X0202614Y0417600D01*
X0203083Y0417131D01*
X0204327Y0416616D01*
X0205673Y0416616D01*
X0206917Y0417131D01*
X0207686Y0417900D01*
X0315000Y0417900D01*
X0315000Y0412100D01*
X0207686Y0412100D01*
X0206917Y0412869D01*
X0205673Y0413384D01*
X0204327Y0413384D01*
X0203083Y0412869D01*
X0202614Y0412400D01*
X0202853Y0412639D02*
X0202104Y0412639D01*
X0202112Y0417435D02*
X0202779Y0417435D01*
X0205000Y0420000D02*
X0198346Y0420000D01*
X0191654Y0420000D02*
X0190000Y0420000D01*
X0185000Y0415000D01*
X0185000Y0410000D01*
X0191654Y0410000D01*
X0187896Y0412639D02*
X0187400Y0412639D01*
X0187632Y0414238D02*
X0315000Y0414238D01*
X0315000Y0415836D02*
X0189230Y0415836D01*
X0207221Y0417435D02*
X0315000Y0417435D01*
X0315000Y0422230D02*
X0207556Y0422230D01*
X0207147Y0412639D02*
X0315000Y0412639D01*
X0315000Y0407844D02*
X0207630Y0407844D01*
X0203247Y0387063D02*
X0201806Y0387063D01*
X0180676Y0379070D02*
X0166066Y0379070D01*
X0164467Y0377472D02*
X0179078Y0377472D01*
X0177479Y0375873D02*
X0165122Y0375873D01*
X0159005Y0377000D02*
X0156500Y0374495D01*
X0153995Y0377000D01*
X0156500Y0379505D01*
X0159005Y0377000D01*
X0158533Y0377472D02*
X0154467Y0377472D01*
X0155122Y0375873D02*
X0157878Y0375873D01*
X0156934Y0379070D02*
X0156066Y0379070D01*
X0156500Y0384495D02*
X0153995Y0387000D01*
X0156500Y0389505D01*
X0159005Y0387000D01*
X0156500Y0384495D01*
X0155531Y0385465D02*
X0157469Y0385465D01*
X0158942Y0387063D02*
X0154058Y0387063D01*
X0155657Y0388662D02*
X0157343Y0388662D01*
X0156500Y0394495D02*
X0153995Y0397000D01*
X0156500Y0399505D01*
X0159005Y0397000D01*
X0156500Y0394495D01*
X0155940Y0395056D02*
X0157060Y0395056D01*
X0158659Y0396654D02*
X0154341Y0396654D01*
X0155248Y0398253D02*
X0157752Y0398253D01*
X0146267Y0399737D02*
X0144030Y0397500D01*
X0142899Y0397500D01*
X0146200Y0400801D01*
X0146200Y0399805D01*
X0146267Y0399737D01*
X0146200Y0399851D02*
X0145250Y0399851D01*
X0144783Y0398253D02*
X0143651Y0398253D01*
X0140909Y0401450D02*
X0139419Y0401450D01*
X0139384Y0401414D02*
X0146987Y0409017D01*
X0147732Y0408273D01*
X0139100Y0399641D01*
X0139384Y0400327D01*
X0139384Y0401414D01*
X0139310Y0399851D02*
X0139187Y0399851D01*
X0141018Y0403048D02*
X0142507Y0403048D01*
X0142616Y0404647D02*
X0144106Y0404647D01*
X0144215Y0406245D02*
X0145704Y0406245D01*
X0145814Y0407844D02*
X0147303Y0407844D01*
X0153995Y0407000D02*
X0156500Y0409505D01*
X0159005Y0407000D01*
X0156500Y0404495D01*
X0153995Y0407000D01*
X0154750Y0406245D02*
X0158250Y0406245D01*
X0158161Y0407844D02*
X0154839Y0407844D01*
X0156438Y0409442D02*
X0156562Y0409442D01*
X0156651Y0404647D02*
X0156349Y0404647D01*
X0156500Y0414495D02*
X0153995Y0417000D01*
X0156500Y0419505D01*
X0159005Y0417000D01*
X0156500Y0414495D01*
X0155159Y0415836D02*
X0157841Y0415836D01*
X0158570Y0417435D02*
X0154430Y0417435D01*
X0156029Y0419033D02*
X0156971Y0419033D01*
X0157432Y0425427D02*
X0155568Y0425427D01*
X0153969Y0427026D02*
X0159030Y0427026D01*
X0146200Y0389900D02*
X0126876Y0389900D01*
X0127384Y0388673D01*
X0127384Y0387327D01*
X0126869Y0386083D01*
X0125917Y0385131D01*
X0124673Y0384616D01*
X0123327Y0384616D01*
X0122083Y0385131D01*
X0121314Y0385900D01*
X0097130Y0385900D01*
X0096130Y0386900D01*
X0093616Y0386900D01*
X0093616Y0386225D01*
X0093716Y0386125D01*
X0093716Y0380900D01*
X0092778Y0379963D01*
X0090385Y0379963D01*
X0090251Y0379885D01*
X0089794Y0379763D01*
X0088957Y0379763D01*
X0088957Y0383512D01*
X0088957Y0383512D01*
X0088957Y0379763D01*
X0088120Y0379763D01*
X0087677Y0379881D01*
X0087235Y0379763D01*
X0086398Y0379763D01*
X0086398Y0383512D01*
X0086398Y0383512D01*
X0086398Y0383513D02*
X0086398Y0383513D01*
X0086398Y0383513D01*
X0086398Y0387263D01*
X0087235Y0387263D01*
X0087677Y0387144D01*
X0088120Y0387263D01*
X0088957Y0387263D01*
X0088957Y0383513D01*
X0088957Y0383513D01*
X0088957Y0387263D01*
X0089416Y0387263D01*
X0089416Y0387614D01*
X0089130Y0387900D01*
X0075870Y0387900D01*
X0075032Y0387063D01*
X0077424Y0387063D01*
X0077441Y0387046D01*
X0077458Y0387063D01*
X0079983Y0387063D01*
X0080000Y0387046D01*
X0080017Y0387063D01*
X0082410Y0387063D01*
X0082544Y0387140D01*
X0083002Y0387263D01*
X0083839Y0387263D01*
X0083839Y0383513D01*
X0086398Y0383513D01*
X0088957Y0383513D01*
X0088957Y0383513D01*
X0088798Y0383513D01*
X0086398Y0383513D01*
X0086398Y0387263D01*
X0085561Y0387263D01*
X0085118Y0387144D01*
X0084676Y0387263D01*
X0083839Y0387263D01*
X0083839Y0383513D01*
X0083839Y0383513D01*
X0083839Y0383513D01*
X0083998Y0383513D01*
X0086398Y0383513D01*
X0086398Y0383513D01*
X0086398Y0383512D02*
X0086398Y0379763D01*
X0085561Y0379763D01*
X0085118Y0379881D01*
X0084676Y0379763D01*
X0083839Y0379763D01*
X0083839Y0383512D01*
X0083839Y0383512D01*
X0083839Y0379763D01*
X0083380Y0379763D01*
X0083380Y0376546D01*
X0084025Y0375900D01*
X0139930Y0375900D01*
X0146200Y0382170D01*
X0146200Y0384195D01*
X0149005Y0387000D01*
X0146200Y0389805D01*
X0146200Y0389900D01*
X0147343Y0388662D02*
X0127384Y0388662D01*
X0127275Y0387063D02*
X0148942Y0387063D01*
X0147469Y0385465D02*
X0126251Y0385465D01*
X0121749Y0385465D02*
X0093716Y0385465D01*
X0093716Y0383866D02*
X0146200Y0383866D01*
X0146200Y0382268D02*
X0093716Y0382268D01*
X0093485Y0380669D02*
X0144699Y0380669D01*
X0143101Y0379070D02*
X0083380Y0379070D01*
X0083380Y0377472D02*
X0141502Y0377472D01*
X0144245Y0374275D02*
X0146280Y0374275D01*
X0146200Y0374195D02*
X0146200Y0374100D01*
X0144070Y0374100D01*
X0147987Y0378017D01*
X0149005Y0377000D01*
X0146200Y0374195D01*
X0145843Y0375873D02*
X0147878Y0375873D01*
X0147442Y0377472D02*
X0148533Y0377472D01*
X0146200Y0369900D02*
X0146200Y0369805D01*
X0149005Y0367000D01*
X0146200Y0364195D01*
X0146200Y0364100D01*
X0090734Y0364100D01*
X0084934Y0369900D01*
X0146200Y0369900D01*
X0146525Y0369479D02*
X0085355Y0369479D01*
X0086953Y0367881D02*
X0148124Y0367881D01*
X0148287Y0366282D02*
X0088552Y0366282D01*
X0090150Y0364684D02*
X0146689Y0364684D01*
X0146200Y0359900D02*
X0092389Y0359900D01*
X0098189Y0354100D01*
X0146200Y0354100D01*
X0146200Y0354195D01*
X0149005Y0357000D01*
X0146200Y0359805D01*
X0146200Y0359900D01*
X0146200Y0359888D02*
X0092400Y0359888D01*
X0093999Y0358290D02*
X0147715Y0358290D01*
X0148696Y0356691D02*
X0095597Y0356691D01*
X0097196Y0355093D02*
X0147097Y0355093D01*
X0146200Y0349900D02*
X0098189Y0349900D01*
X0096449Y0349900D01*
X0082312Y0364037D01*
X0082312Y0362795D01*
X0082189Y0362337D01*
X0081952Y0361926D01*
X0081617Y0361591D01*
X0081207Y0361354D01*
X0080749Y0361231D01*
X0078531Y0361231D01*
X0078531Y0364816D01*
X0078162Y0364816D01*
X0078162Y0361231D01*
X0075944Y0361231D01*
X0075486Y0361354D01*
X0075076Y0361591D01*
X0074859Y0361808D01*
X0074482Y0361431D01*
X0073754Y0361431D01*
X0073754Y0355784D01*
X0073384Y0355414D01*
X0073384Y0354327D01*
X0072869Y0353083D01*
X0071917Y0352131D01*
X0070673Y0351616D01*
X0069327Y0351616D01*
X0068083Y0352131D01*
X0067131Y0353083D01*
X0066616Y0354327D01*
X0066616Y0355673D01*
X0067131Y0356917D01*
X0068083Y0357869D01*
X0069327Y0358384D01*
X0069554Y0358384D01*
X0069554Y0361431D01*
X0068825Y0361431D01*
X0067888Y0362369D01*
X0067888Y0367631D01*
X0068825Y0368568D01*
X0068943Y0368568D01*
X0068943Y0379963D01*
X0068684Y0379963D01*
X0068684Y0374714D01*
X0067454Y0373484D01*
X0064100Y0370130D01*
X0062870Y0368900D01*
X0055500Y0368900D01*
X0055500Y0353107D01*
X0059507Y0349100D01*
X0146905Y0349100D01*
X0146200Y0349805D01*
X0146200Y0349900D01*
X0146905Y0344900D02*
X0061161Y0344900D01*
X0061961Y0344100D01*
X0146200Y0344100D01*
X0146200Y0344195D01*
X0146905Y0344900D01*
X0146200Y0339900D02*
X0146200Y0339805D01*
X0149005Y0337000D01*
X0146200Y0334195D01*
X0146200Y0334100D01*
X0069415Y0334100D01*
X0063615Y0339900D01*
X0146200Y0339900D01*
X0146897Y0339108D02*
X0064408Y0339108D01*
X0066006Y0337509D02*
X0148495Y0337509D01*
X0147915Y0335911D02*
X0067605Y0335911D01*
X0069203Y0334312D02*
X0146317Y0334312D01*
X0146200Y0329900D02*
X0146200Y0329805D01*
X0149005Y0327000D01*
X0146200Y0324195D01*
X0146200Y0319805D01*
X0149005Y0317000D01*
X0146200Y0314195D01*
X0146200Y0309805D01*
X0149305Y0306700D01*
X0153695Y0306700D01*
X0156359Y0309363D01*
X0159222Y0306500D01*
X0161300Y0306500D01*
X0161300Y0311800D01*
X0161700Y0311800D01*
X0161700Y0312200D01*
X0167000Y0312200D01*
X0167000Y0314278D01*
X0164137Y0317141D01*
X0166800Y0319805D01*
X0166800Y0324195D01*
X0163995Y0327000D01*
X0166800Y0329805D01*
X0166800Y0334195D01*
X0163995Y0337000D01*
X0166800Y0339805D01*
X0166800Y0344195D01*
X0163995Y0347000D01*
X0165513Y0348517D01*
X0174900Y0339130D01*
X0174900Y0304870D01*
X0171130Y0301100D01*
X0099870Y0301100D01*
X0071070Y0329900D01*
X0146200Y0329900D01*
X0146488Y0329517D02*
X0071453Y0329517D01*
X0073052Y0327918D02*
X0148087Y0327918D01*
X0148324Y0326320D02*
X0074650Y0326320D01*
X0076249Y0324721D02*
X0146726Y0324721D01*
X0146200Y0323123D02*
X0077847Y0323123D01*
X0079446Y0321524D02*
X0146200Y0321524D01*
X0146200Y0319926D02*
X0081044Y0319926D01*
X0082643Y0318327D02*
X0147678Y0318327D01*
X0148733Y0316729D02*
X0084241Y0316729D01*
X0085840Y0315130D02*
X0147135Y0315130D01*
X0146200Y0313532D02*
X0087438Y0313532D01*
X0089037Y0311933D02*
X0146200Y0311933D01*
X0146200Y0310334D02*
X0090635Y0310334D01*
X0092234Y0308736D02*
X0147269Y0308736D01*
X0148867Y0307137D02*
X0093832Y0307137D01*
X0095431Y0305539D02*
X0174900Y0305539D01*
X0174900Y0307137D02*
X0164416Y0307137D01*
X0163778Y0306500D02*
X0167000Y0309722D01*
X0167000Y0311800D01*
X0161700Y0311800D01*
X0161700Y0306500D01*
X0163778Y0306500D01*
X0161700Y0307137D02*
X0161300Y0307137D01*
X0161300Y0308736D02*
X0161700Y0308736D01*
X0161700Y0310334D02*
X0161300Y0310334D01*
X0161700Y0311933D02*
X0174900Y0311933D01*
X0174900Y0310334D02*
X0167000Y0310334D01*
X0166014Y0308736D02*
X0174900Y0308736D01*
X0174900Y0313532D02*
X0167000Y0313532D01*
X0166148Y0315130D02*
X0174900Y0315130D01*
X0174900Y0316729D02*
X0164550Y0316729D01*
X0165322Y0318327D02*
X0174900Y0318327D01*
X0174900Y0319926D02*
X0166800Y0319926D01*
X0166800Y0321524D02*
X0174900Y0321524D01*
X0174900Y0323123D02*
X0166800Y0323123D01*
X0166274Y0324721D02*
X0174900Y0324721D01*
X0174900Y0326320D02*
X0164676Y0326320D01*
X0164913Y0327918D02*
X0174900Y0327918D01*
X0174900Y0329517D02*
X0166512Y0329517D01*
X0166800Y0331115D02*
X0174900Y0331115D01*
X0174900Y0332714D02*
X0166800Y0332714D01*
X0166683Y0334312D02*
X0174900Y0334312D01*
X0174900Y0335911D02*
X0165085Y0335911D01*
X0164505Y0337509D02*
X0174900Y0337509D01*
X0174900Y0339108D02*
X0166103Y0339108D01*
X0166800Y0340706D02*
X0173324Y0340706D01*
X0171725Y0342305D02*
X0166800Y0342305D01*
X0166800Y0343903D02*
X0170127Y0343903D01*
X0168528Y0345502D02*
X0165494Y0345502D01*
X0164096Y0347100D02*
X0166930Y0347100D01*
X0159005Y0347000D02*
X0157773Y0345768D01*
X0155671Y0347870D01*
X0155268Y0348273D01*
X0156500Y0349505D01*
X0159005Y0347000D01*
X0158904Y0347100D02*
X0156441Y0347100D01*
X0155694Y0348699D02*
X0157306Y0348699D01*
X0156500Y0354495D02*
X0153995Y0357000D01*
X0156500Y0359505D01*
X0159005Y0357000D01*
X0156500Y0354495D01*
X0157097Y0355093D02*
X0155902Y0355093D01*
X0154304Y0356691D02*
X0158696Y0356691D01*
X0157715Y0358290D02*
X0155285Y0358290D01*
X0156500Y0364495D02*
X0153995Y0367000D01*
X0156500Y0369505D01*
X0159005Y0367000D01*
X0156500Y0364495D01*
X0156311Y0364684D02*
X0156689Y0364684D01*
X0158287Y0366282D02*
X0154713Y0366282D01*
X0154876Y0367881D02*
X0158124Y0367881D01*
X0156525Y0369479D02*
X0156475Y0369479D01*
X0156500Y0339505D02*
X0159005Y0337000D01*
X0156500Y0334495D01*
X0153995Y0337000D01*
X0156500Y0339505D01*
X0156103Y0339108D02*
X0156897Y0339108D01*
X0158495Y0337509D02*
X0154505Y0337509D01*
X0155085Y0335911D02*
X0157915Y0335911D01*
X0156500Y0329505D02*
X0159005Y0327000D01*
X0156500Y0324495D01*
X0153995Y0327000D01*
X0156500Y0329505D01*
X0154913Y0327918D02*
X0158087Y0327918D01*
X0158324Y0326320D02*
X0154676Y0326320D01*
X0156274Y0324721D02*
X0156726Y0324721D01*
X0156500Y0319505D02*
X0158863Y0317141D01*
X0156359Y0314637D01*
X0153995Y0317000D01*
X0156500Y0319505D01*
X0155322Y0318327D02*
X0157678Y0318327D01*
X0158450Y0316729D02*
X0154267Y0316729D01*
X0155865Y0315130D02*
X0156852Y0315130D01*
X0156986Y0308736D02*
X0155731Y0308736D01*
X0154133Y0307137D02*
X0158584Y0307137D01*
X0172372Y0302342D02*
X0098628Y0302342D01*
X0097029Y0303940D02*
X0173971Y0303940D01*
X0096537Y0295948D02*
X0009800Y0295948D01*
X0009800Y0297546D02*
X0094938Y0297546D01*
X0093340Y0299145D02*
X0009800Y0299145D01*
X0009800Y0300743D02*
X0091741Y0300743D01*
X0090143Y0302342D02*
X0009800Y0302342D01*
X0009800Y0303940D02*
X0088544Y0303940D01*
X0086946Y0305539D02*
X0009800Y0305539D01*
X0009800Y0307137D02*
X0085347Y0307137D01*
X0083749Y0308736D02*
X0009800Y0308736D01*
X0009800Y0310334D02*
X0082150Y0310334D01*
X0080552Y0311933D02*
X0009800Y0311933D01*
X0009800Y0313532D02*
X0078953Y0313532D01*
X0077355Y0315130D02*
X0009800Y0315130D01*
X0009800Y0316729D02*
X0075756Y0316729D01*
X0074157Y0318327D02*
X0009800Y0318327D01*
X0009800Y0319926D02*
X0072559Y0319926D01*
X0070960Y0321524D02*
X0009800Y0321524D01*
X0009800Y0323123D02*
X0069362Y0323123D01*
X0067763Y0324721D02*
X0009800Y0324721D01*
X0009800Y0326320D02*
X0066165Y0326320D01*
X0064566Y0327918D02*
X0009800Y0327918D01*
X0009800Y0329517D02*
X0062968Y0329517D01*
X0061369Y0331115D02*
X0009800Y0331115D01*
X0009800Y0332714D02*
X0059771Y0332714D01*
X0058172Y0334312D02*
X0009800Y0334312D01*
X0009800Y0335911D02*
X0056574Y0335911D01*
X0054975Y0337509D02*
X0009800Y0337509D01*
X0009800Y0339108D02*
X0053377Y0339108D01*
X0051778Y0340706D02*
X0009800Y0340706D01*
X0009800Y0342305D02*
X0050180Y0342305D01*
X0048581Y0343903D02*
X0009800Y0343903D01*
X0009800Y0345502D02*
X0046983Y0345502D01*
X0045384Y0347100D02*
X0009800Y0347100D01*
X0009800Y0348699D02*
X0043786Y0348699D01*
X0045900Y0352524D02*
X0044409Y0354016D01*
X0038255Y0354016D01*
X0038384Y0354327D01*
X0038384Y0355414D01*
X0038754Y0355784D01*
X0038754Y0361431D01*
X0039482Y0361431D01*
X0039859Y0361808D01*
X0040076Y0361591D01*
X0040486Y0361354D01*
X0040944Y0361231D01*
X0043162Y0361231D01*
X0043162Y0364816D01*
X0043531Y0364816D01*
X0043531Y0361231D01*
X0045749Y0361231D01*
X0045900Y0361272D01*
X0045900Y0352524D01*
X0045900Y0353494D02*
X0044930Y0353494D01*
X0045900Y0355093D02*
X0038384Y0355093D01*
X0038754Y0356691D02*
X0045900Y0356691D01*
X0045900Y0358290D02*
X0038754Y0358290D01*
X0038754Y0359888D02*
X0045900Y0359888D01*
X0043531Y0361487D02*
X0043162Y0361487D01*
X0043162Y0363085D02*
X0043531Y0363085D01*
X0043531Y0364684D02*
X0043162Y0364684D01*
X0040256Y0361487D02*
X0039537Y0361487D01*
X0034554Y0361431D02*
X0034016Y0361431D01*
X0034016Y0358255D01*
X0034327Y0358384D01*
X0034554Y0358384D01*
X0034554Y0361431D01*
X0034554Y0359888D02*
X0034016Y0359888D01*
X0034016Y0358290D02*
X0034099Y0358290D01*
X0029816Y0358290D02*
X0009800Y0358290D01*
X0009800Y0359888D02*
X0029816Y0359888D01*
X0029816Y0361487D02*
X0009800Y0361487D01*
X0009800Y0363085D02*
X0029816Y0363085D01*
X0029816Y0364684D02*
X0009800Y0364684D01*
X0009800Y0366282D02*
X0029816Y0366282D01*
X0029816Y0367881D02*
X0009800Y0367881D01*
X0009800Y0369479D02*
X0029816Y0369479D01*
X0029816Y0371078D02*
X0009800Y0371078D01*
X0009800Y0372676D02*
X0029816Y0372676D01*
X0029816Y0374275D02*
X0009800Y0374275D01*
X0009800Y0375873D02*
X0029816Y0375873D01*
X0029816Y0377472D02*
X0009800Y0377472D01*
X0009800Y0379070D02*
X0029816Y0379070D01*
X0029816Y0380669D02*
X0009800Y0380669D01*
X0009800Y0382268D02*
X0029816Y0382268D01*
X0030868Y0383866D02*
X0009800Y0383866D01*
X0009800Y0388662D02*
X0035692Y0388662D01*
X0037290Y0390260D02*
X0009800Y0390260D01*
X0009800Y0391859D02*
X0038889Y0391859D01*
X0040870Y0387900D02*
X0054130Y0387900D01*
X0054416Y0387614D01*
X0054416Y0387063D01*
X0040033Y0387063D01*
X0040032Y0387063D02*
X0040870Y0387900D01*
X0040032Y0387063D02*
X0042424Y0387063D01*
X0042441Y0387046D01*
X0042458Y0387063D01*
X0044983Y0387063D01*
X0045000Y0387046D01*
X0045017Y0387063D01*
X0047542Y0387063D01*
X0047559Y0387046D01*
X0047576Y0387063D01*
X0050101Y0387063D01*
X0050118Y0387046D01*
X0050135Y0387063D01*
X0052660Y0387063D01*
X0052677Y0387046D01*
X0052694Y0387063D01*
X0054416Y0387063D01*
X0058616Y0387063D02*
X0060884Y0387063D01*
X0060884Y0385465D02*
X0058716Y0385465D01*
X0058716Y0383866D02*
X0060884Y0383866D01*
X0060884Y0382268D02*
X0058716Y0382268D01*
X0058485Y0380669D02*
X0060884Y0380669D01*
X0060884Y0379070D02*
X0056057Y0379070D01*
X0056057Y0377472D02*
X0060411Y0377472D01*
X0066646Y0372676D02*
X0068943Y0372676D01*
X0068943Y0371078D02*
X0065048Y0371078D01*
X0063449Y0369479D02*
X0068943Y0369479D01*
X0068138Y0367881D02*
X0055500Y0367881D01*
X0055500Y0366282D02*
X0067888Y0366282D01*
X0067888Y0364684D02*
X0055500Y0364684D01*
X0055500Y0363085D02*
X0067888Y0363085D01*
X0068770Y0361487D02*
X0055500Y0361487D01*
X0055500Y0359888D02*
X0069554Y0359888D01*
X0069099Y0358290D02*
X0055500Y0358290D01*
X0055500Y0356691D02*
X0067037Y0356691D01*
X0066616Y0355093D02*
X0055500Y0355093D01*
X0055500Y0353494D02*
X0066961Y0353494D01*
X0068651Y0351896D02*
X0056711Y0351896D01*
X0058309Y0350297D02*
X0096052Y0350297D01*
X0094453Y0351896D02*
X0071349Y0351896D01*
X0073039Y0353494D02*
X0092855Y0353494D01*
X0091256Y0355093D02*
X0073384Y0355093D01*
X0073754Y0356691D02*
X0089658Y0356691D01*
X0088059Y0358290D02*
X0073754Y0358290D01*
X0073754Y0359888D02*
X0086461Y0359888D01*
X0084862Y0361487D02*
X0081436Y0361487D01*
X0082312Y0363085D02*
X0083264Y0363085D01*
X0078531Y0363085D02*
X0078162Y0363085D01*
X0078162Y0361487D02*
X0078531Y0361487D01*
X0078531Y0364684D02*
X0078162Y0364684D01*
X0075256Y0361487D02*
X0074537Y0361487D01*
X0074859Y0368192D02*
X0074482Y0368568D01*
X0073143Y0368568D01*
X0073143Y0370887D01*
X0075422Y0368608D01*
X0075076Y0368409D01*
X0074859Y0368192D01*
X0074551Y0369479D02*
X0073143Y0369479D01*
X0068943Y0374275D02*
X0068245Y0374275D01*
X0068684Y0375873D02*
X0068943Y0375873D01*
X0068943Y0377472D02*
X0068684Y0377472D01*
X0068684Y0379070D02*
X0068943Y0379070D01*
X0075033Y0387063D02*
X0082411Y0387063D01*
X0083839Y0387063D02*
X0083839Y0387063D01*
X0083839Y0385465D02*
X0083839Y0385465D01*
X0083839Y0383866D02*
X0083839Y0383866D01*
X0083839Y0382268D02*
X0083839Y0382268D01*
X0083839Y0380669D02*
X0083839Y0380669D01*
X0086398Y0380669D02*
X0086398Y0380669D01*
X0086398Y0382268D02*
X0086398Y0382268D01*
X0086398Y0383866D02*
X0086398Y0383866D01*
X0086398Y0385465D02*
X0086398Y0385465D01*
X0086398Y0387063D02*
X0086398Y0387063D01*
X0088957Y0387063D02*
X0088957Y0387063D01*
X0088957Y0385465D02*
X0088957Y0385465D01*
X0088957Y0383866D02*
X0088957Y0383866D01*
X0088957Y0382268D02*
X0088957Y0382268D01*
X0088957Y0380669D02*
X0088957Y0380669D01*
X0068502Y0396654D02*
X0009800Y0396654D01*
X0009800Y0395056D02*
X0066903Y0395056D01*
X0065305Y0393457D02*
X0009800Y0393457D01*
X0031284Y0386125D02*
X0032222Y0387063D01*
X0034093Y0387063D01*
X0038143Y0370887D02*
X0040422Y0368608D01*
X0040076Y0368409D01*
X0039859Y0368192D01*
X0039482Y0368568D01*
X0038143Y0368568D01*
X0038143Y0370887D01*
X0038143Y0369479D02*
X0039551Y0369479D01*
X0029816Y0356691D02*
X0009800Y0356691D01*
X0009800Y0355093D02*
X0029816Y0355093D01*
X0029816Y0353494D02*
X0009800Y0353494D01*
X0009800Y0351896D02*
X0030773Y0351896D01*
X0032371Y0350297D02*
X0009800Y0350297D01*
X0058616Y0388662D02*
X0061184Y0388662D01*
X0062108Y0390260D02*
X0057710Y0390260D01*
X0057100Y0390870D02*
X0057100Y0390870D01*
X0056111Y0391859D02*
X0063706Y0391859D01*
X0067111Y0403048D02*
X0058136Y0403048D01*
X0056516Y0403048D02*
X0056516Y0403048D01*
X0056516Y0404647D02*
X0056516Y0404647D01*
X0056516Y0406245D02*
X0056516Y0406245D01*
X0056516Y0407844D02*
X0056516Y0407844D01*
X0056516Y0409442D02*
X0056516Y0409442D01*
X0056057Y0411041D02*
X0066384Y0411041D01*
X0066384Y0412639D02*
X0056057Y0412639D01*
X0057481Y0414238D02*
X0066384Y0414238D01*
X0066384Y0415836D02*
X0059080Y0415836D01*
X0060678Y0417435D02*
X0066384Y0417435D01*
X0066384Y0419033D02*
X0062277Y0419033D01*
X0062900Y0420632D02*
X0066384Y0420632D01*
X0066088Y0422230D02*
X0062900Y0422230D01*
X0062900Y0423829D02*
X0066088Y0423829D01*
X0066088Y0425427D02*
X0062900Y0425427D01*
X0062900Y0427026D02*
X0066088Y0427026D01*
X0066088Y0428624D02*
X0062900Y0428624D01*
X0062900Y0430223D02*
X0066088Y0430223D01*
X0066088Y0431821D02*
X0062900Y0431821D01*
X0062900Y0433420D02*
X0066088Y0433420D01*
X0066088Y0435018D02*
X0062900Y0435018D01*
X0062900Y0436617D02*
X0066088Y0436617D01*
X0066088Y0438215D02*
X0062900Y0438215D01*
X0062900Y0439814D02*
X0066088Y0439814D01*
X0066088Y0441412D02*
X0062900Y0441412D01*
X0062900Y0443011D02*
X0066088Y0443011D01*
X0066088Y0444609D02*
X0062900Y0444609D01*
X0062900Y0446208D02*
X0066088Y0446208D01*
X0066088Y0447806D02*
X0062900Y0447806D01*
X0062900Y0449405D02*
X0066088Y0449405D01*
X0066088Y0451003D02*
X0062900Y0451003D01*
X0062900Y0452602D02*
X0066088Y0452602D01*
X0066088Y0454201D02*
X0062900Y0454201D01*
X0064042Y0455799D02*
X0066088Y0455799D01*
X0066088Y0457398D02*
X0065641Y0457398D01*
X0070288Y0457398D02*
X0079712Y0457398D01*
X0079712Y0458996D02*
X0070288Y0458996D01*
X0070288Y0459499D02*
X0079712Y0468923D01*
X0079712Y0428768D01*
X0078531Y0428768D01*
X0078531Y0425184D01*
X0078162Y0425184D01*
X0078162Y0428768D01*
X0075944Y0428768D01*
X0075486Y0428646D01*
X0075076Y0428409D01*
X0074859Y0428192D01*
X0074482Y0428568D01*
X0073754Y0428568D01*
X0073754Y0428991D01*
X0074192Y0429616D01*
X0074673Y0429616D01*
X0075917Y0430131D01*
X0076869Y0431083D01*
X0077384Y0432327D01*
X0077384Y0433673D01*
X0076869Y0434917D01*
X0075917Y0435869D01*
X0074673Y0436384D01*
X0073327Y0436384D01*
X0072083Y0435869D01*
X0071131Y0434917D01*
X0070616Y0433673D01*
X0070616Y0432327D01*
X0070745Y0432015D01*
X0070288Y0431364D01*
X0070288Y0459499D01*
X0071384Y0460595D02*
X0079712Y0460595D01*
X0079712Y0462193D02*
X0072982Y0462193D01*
X0074581Y0463792D02*
X0079712Y0463792D01*
X0079712Y0465390D02*
X0076179Y0465390D01*
X0077778Y0466989D02*
X0079712Y0466989D01*
X0079712Y0468587D02*
X0079376Y0468587D01*
X0085712Y0469682D02*
X0085712Y0469832D01*
X0086798Y0470918D01*
X0086948Y0470918D01*
X0085712Y0469682D01*
X0086066Y0470186D02*
X0086216Y0470186D01*
X0079712Y0455799D02*
X0070288Y0455799D01*
X0070288Y0454201D02*
X0079712Y0454201D01*
X0079712Y0452602D02*
X0070288Y0452602D01*
X0070288Y0451003D02*
X0079712Y0451003D01*
X0079712Y0449405D02*
X0070288Y0449405D01*
X0070288Y0447806D02*
X0079712Y0447806D01*
X0079712Y0446208D02*
X0070288Y0446208D01*
X0070288Y0444609D02*
X0079712Y0444609D01*
X0079712Y0443011D02*
X0070288Y0443011D01*
X0070288Y0441412D02*
X0079712Y0441412D01*
X0079712Y0439814D02*
X0070288Y0439814D01*
X0070288Y0438215D02*
X0079712Y0438215D01*
X0079712Y0436617D02*
X0070288Y0436617D01*
X0070288Y0435018D02*
X0071232Y0435018D01*
X0070616Y0433420D02*
X0070288Y0433420D01*
X0070288Y0431821D02*
X0070609Y0431821D01*
X0073754Y0428624D02*
X0075449Y0428624D01*
X0076009Y0430223D02*
X0079712Y0430223D01*
X0079712Y0431821D02*
X0077175Y0431821D01*
X0077384Y0433420D02*
X0079712Y0433420D01*
X0079712Y0435018D02*
X0076768Y0435018D01*
X0078162Y0428624D02*
X0078531Y0428624D01*
X0078531Y0427026D02*
X0078162Y0427026D01*
X0078162Y0425427D02*
X0078531Y0425427D01*
X0077580Y0421231D02*
X0073143Y0416794D01*
X0073143Y0421431D01*
X0074482Y0421431D01*
X0074859Y0421808D01*
X0075076Y0421591D01*
X0075486Y0421354D01*
X0075944Y0421231D01*
X0077580Y0421231D01*
X0076981Y0420632D02*
X0073143Y0420632D01*
X0073143Y0419033D02*
X0075382Y0419033D01*
X0073784Y0417435D02*
X0073143Y0417435D01*
X0066384Y0409442D02*
X0058614Y0409442D01*
X0058916Y0407844D02*
X0066284Y0407844D01*
X0066284Y0406245D02*
X0058916Y0406245D01*
X0058916Y0404647D02*
X0066284Y0404647D01*
X0043531Y0421501D02*
X0038143Y0416113D01*
X0038143Y0421431D01*
X0039482Y0421431D01*
X0039859Y0421808D01*
X0040076Y0421591D01*
X0040486Y0421354D01*
X0040944Y0421231D01*
X0043162Y0421231D01*
X0043162Y0424816D01*
X0043531Y0424816D01*
X0043531Y0421501D01*
X0043531Y0422230D02*
X0043162Y0422230D01*
X0043162Y0423829D02*
X0043531Y0423829D01*
X0043531Y0425184D02*
X0043162Y0425184D01*
X0043162Y0428768D01*
X0040944Y0428768D01*
X0040486Y0428646D01*
X0040076Y0428409D01*
X0039859Y0428192D01*
X0039482Y0428568D01*
X0038754Y0428568D01*
X0038754Y0428784D01*
X0039586Y0429616D01*
X0040673Y0429616D01*
X0041917Y0430131D01*
X0042869Y0431083D01*
X0043384Y0432327D01*
X0043384Y0433673D01*
X0042869Y0434917D01*
X0041917Y0435869D01*
X0040673Y0436384D01*
X0039327Y0436384D01*
X0038083Y0435869D01*
X0037131Y0434917D01*
X0036616Y0433673D01*
X0036616Y0432586D01*
X0034554Y0430523D01*
X0034554Y0428568D01*
X0033825Y0428568D01*
X0032888Y0427631D01*
X0032888Y0422369D01*
X0033825Y0421431D01*
X0033943Y0421431D01*
X0033943Y0419027D01*
X0032100Y0420870D01*
X0032100Y0430130D01*
X0047900Y0445930D01*
X0047900Y0425870D01*
X0047312Y0425282D01*
X0047312Y0427205D01*
X0047189Y0427663D01*
X0046952Y0428074D01*
X0046617Y0428409D01*
X0046207Y0428646D01*
X0045749Y0428768D01*
X0043531Y0428768D01*
X0043531Y0425184D01*
X0043531Y0425427D02*
X0043162Y0425427D01*
X0043162Y0427026D02*
X0043531Y0427026D01*
X0043531Y0428624D02*
X0043162Y0428624D01*
X0042009Y0430223D02*
X0047900Y0430223D01*
X0047900Y0431821D02*
X0043175Y0431821D01*
X0043384Y0433420D02*
X0047900Y0433420D01*
X0047900Y0435018D02*
X0042768Y0435018D01*
X0040185Y0438215D02*
X0047900Y0438215D01*
X0047900Y0436617D02*
X0038587Y0436617D01*
X0037232Y0435018D02*
X0036988Y0435018D01*
X0036616Y0433420D02*
X0035390Y0433420D01*
X0035852Y0431821D02*
X0033791Y0431821D01*
X0034554Y0430223D02*
X0032193Y0430223D01*
X0032100Y0428624D02*
X0034554Y0428624D01*
X0032888Y0427026D02*
X0032100Y0427026D01*
X0032100Y0425427D02*
X0032888Y0425427D01*
X0032888Y0423829D02*
X0032100Y0423829D01*
X0032100Y0422230D02*
X0033027Y0422230D01*
X0032338Y0420632D02*
X0033943Y0420632D01*
X0033937Y0419033D02*
X0033943Y0419033D01*
X0038143Y0419033D02*
X0041063Y0419033D01*
X0039465Y0417435D02*
X0038143Y0417435D01*
X0038143Y0420632D02*
X0042662Y0420632D01*
X0047312Y0425427D02*
X0047457Y0425427D01*
X0047312Y0427026D02*
X0047900Y0427026D01*
X0047900Y0428624D02*
X0046244Y0428624D01*
X0040449Y0428624D02*
X0038754Y0428624D01*
X0041784Y0439814D02*
X0047900Y0439814D01*
X0047900Y0441412D02*
X0043382Y0441412D01*
X0044981Y0443011D02*
X0047900Y0443011D01*
X0047900Y0444609D02*
X0046579Y0444609D01*
X0072100Y0492565D02*
X0097750Y0492565D01*
X0097688Y0494163D02*
X0083665Y0494163D01*
X0083696Y0495762D02*
X0097688Y0495762D01*
X0097730Y0497360D02*
X0084754Y0497360D01*
X0084500Y0500500D02*
X0080000Y0496000D01*
X0080707Y0495293D01*
X0080751Y0495251D01*
X0080797Y0495213D01*
X0080846Y0495177D01*
X0080897Y0495144D01*
X0080949Y0495115D01*
X0081004Y0495088D01*
X0081059Y0495065D01*
X0081116Y0495045D01*
X0081175Y0495029D01*
X0081234Y0495016D01*
X0081293Y0495007D01*
X0081354Y0495002D01*
X0081414Y0495000D01*
X0077098Y0494163D02*
X0072100Y0494163D01*
X0072100Y0495762D02*
X0076616Y0495762D01*
X0076900Y0497360D02*
X0072100Y0497360D01*
X0072100Y0498959D02*
X0078300Y0498959D01*
X0081163Y0500557D02*
X0072100Y0500557D01*
X0072100Y0502156D02*
X0082762Y0502156D01*
X0082465Y0501859D02*
X0082465Y0501859D01*
X0084360Y0503754D02*
X0072100Y0503754D01*
X0073348Y0505353D02*
X0078043Y0505353D01*
X0079800Y0505353D02*
X0080200Y0505353D01*
X0080200Y0506951D02*
X0079800Y0506951D01*
X0079800Y0508550D02*
X0080200Y0508550D01*
X0080200Y0510148D02*
X0079800Y0510148D01*
X0075780Y0506951D02*
X0074681Y0506951D01*
X0074703Y0511996D02*
X0074493Y0512502D01*
X0073095Y0513901D01*
X0075672Y0513901D01*
X0075296Y0513383D01*
X0074903Y0512611D01*
X0074703Y0511996D01*
X0075277Y0513345D02*
X0073650Y0513345D01*
X0066905Y0513901D02*
X0065507Y0512502D01*
X0065207Y0511778D01*
X0064493Y0513502D01*
X0064095Y0513901D01*
X0066905Y0513901D01*
X0066350Y0513345D02*
X0064558Y0513345D01*
X0063947Y0506951D02*
X0065319Y0506951D01*
X0081957Y0505353D02*
X0085959Y0505353D01*
X0085319Y0506951D02*
X0084220Y0506951D01*
X0085297Y0511996D02*
X0085097Y0512611D01*
X0084704Y0513383D01*
X0084328Y0513901D01*
X0086905Y0513901D01*
X0085507Y0512502D01*
X0085297Y0511996D01*
X0084723Y0513345D02*
X0086350Y0513345D01*
X0093095Y0513901D02*
X0095905Y0513901D01*
X0095507Y0513502D01*
X0094793Y0511778D01*
X0094493Y0512502D01*
X0093095Y0513901D01*
X0093650Y0513345D02*
X0095442Y0513345D01*
X0096053Y0506951D02*
X0094681Y0506951D01*
X0093348Y0505353D02*
X0098577Y0505353D01*
X0101423Y0505353D02*
X0106652Y0505353D01*
X0105319Y0506951D02*
X0103947Y0506951D01*
X0105207Y0511778D02*
X0104493Y0513502D01*
X0104095Y0513901D01*
X0106905Y0513901D01*
X0105507Y0512502D01*
X0105207Y0511778D01*
X0104558Y0513345D02*
X0106350Y0513345D01*
X0113095Y0513901D02*
X0115905Y0513901D01*
X0115507Y0513502D01*
X0114793Y0511778D01*
X0114493Y0512502D01*
X0113095Y0513901D01*
X0113650Y0513345D02*
X0115442Y0513345D01*
X0116053Y0506951D02*
X0114681Y0506951D01*
X0113348Y0505353D02*
X0117900Y0505353D01*
X0117900Y0503754D02*
X0112100Y0503754D01*
X0112100Y0502156D02*
X0117900Y0502156D01*
X0101838Y0494163D02*
X0101469Y0494163D01*
X0101469Y0492565D02*
X0101838Y0492565D01*
X0199730Y0478178D02*
X0257079Y0478178D01*
X0263568Y0482974D02*
X0274463Y0482974D01*
X0282559Y0481375D02*
X0282559Y0481375D01*
X0282559Y0479777D02*
X0282559Y0479777D01*
X0281764Y0470186D02*
X0278236Y0470186D01*
X0278568Y0468587D02*
X0281231Y0468587D01*
X0281231Y0466989D02*
X0278568Y0466989D01*
X0278568Y0465390D02*
X0281231Y0465390D01*
X0281231Y0466469D02*
X0281231Y0464251D01*
X0281354Y0463793D01*
X0281591Y0463383D01*
X0281926Y0463048D01*
X0282337Y0462811D01*
X0282795Y0462688D01*
X0284816Y0462688D01*
X0284816Y0466469D01*
X0281231Y0466469D01*
X0281355Y0463792D02*
X0278535Y0463792D01*
X0284816Y0463792D02*
X0285184Y0463792D01*
X0285184Y0465390D02*
X0284816Y0465390D01*
X0230000Y0485000D02*
X0230000Y0490000D01*
X0222959Y0487769D02*
X0209321Y0487769D01*
X0207723Y0486171D02*
X0222950Y0486171D01*
X0222950Y0484572D02*
X0206124Y0484572D01*
X0204526Y0482974D02*
X0222950Y0482974D01*
M02*
