G75*
%MOIN*%
%OFA0B0*%
%FSLAX25Y25*%
%IPPOS*%
%LPD*%
%AMOC8*
5,1,8,0,0,1.08239X$1,22.5*
%
%ADD10OC8,0.08200*%
%ADD11C,0.08200*%
%ADD12R,0.08200X0.08200*%
%ADD13C,0.22800*%
%ADD14C,0.14800*%
%ADD15C,0.04369*%
D10*
X0151500Y0312000D03*
X0151500Y0322000D03*
X0151500Y0332000D03*
X0151500Y0342000D03*
X0151500Y0352000D03*
X0151500Y0362000D03*
X0151500Y0372000D03*
X0151500Y0382000D03*
X0151500Y0392000D03*
X0151500Y0402000D03*
X0151500Y0412000D03*
X0151500Y0422000D03*
X0161500Y0422000D03*
X0161500Y0412000D03*
X0161500Y0402000D03*
X0161500Y0392000D03*
X0161500Y0382000D03*
X0161500Y0372000D03*
X0161500Y0362000D03*
X0161500Y0352000D03*
X0161500Y0342000D03*
X0161500Y0332000D03*
X0161500Y0322000D03*
X0161500Y0312000D03*
D11*
X0170000Y0509500D03*
X0180000Y0510500D03*
X0190000Y0509500D03*
X0200000Y0510500D03*
X0210000Y0509500D03*
X0220000Y0510500D03*
X0230000Y0509500D03*
X0240000Y0510500D03*
X0250000Y0509500D03*
X0160000Y0510500D03*
X0150000Y0509500D03*
X0140000Y0510500D03*
X0130000Y0509500D03*
X0120000Y0510500D03*
X0110000Y0509500D03*
X0100000Y0510500D03*
X0090000Y0509500D03*
X0080000Y0510500D03*
X0070000Y0509500D03*
X0060000Y0510500D03*
X0409941Y0480000D03*
X0409941Y0470000D03*
X0469000Y0470000D03*
X0469000Y0480000D03*
X0469000Y0490000D03*
D12*
X0409941Y0490000D03*
D13*
X0555000Y0499000D03*
X0555000Y0261000D03*
X0190000Y0261000D03*
X0120000Y0440000D03*
D14*
X0025000Y0250000D03*
X0295000Y0250000D03*
X0295000Y0509000D03*
X0025000Y0509000D03*
D15*
X0080000Y0496000D03*
X0027000Y0457000D03*
X0045000Y0439000D03*
X0040000Y0433000D03*
X0074000Y0433000D03*
X0078000Y0438000D03*
X0114000Y0414000D03*
X0136000Y0401000D03*
X0124000Y0388000D03*
X0110000Y0381000D03*
X0070000Y0355000D03*
X0061000Y0363000D03*
X0042000Y0359000D03*
X0035000Y0355000D03*
X0117000Y0311000D03*
X0205000Y0380000D03*
X0205000Y0390000D03*
X0205000Y0400000D03*
X0205000Y0410000D03*
X0205000Y0420000D03*
X0275000Y0455000D03*
X0250000Y0486000D03*
X0241000Y0490000D03*
X0288000Y0500000D03*
X0328000Y0400000D03*
X0425000Y0306000D03*
M02*
