G75*
%MOIN*%
%OFA0B0*%
%FSLAX25Y25*%
%IPPOS*%
%LPD*%
%AMOC8*
5,1,8,0,0,1.08239X$1,22.5*
%
%ADD10OC8,0.08200*%
%ADD11C,0.08200*%
%ADD12R,0.02000X0.04700*%
%ADD13R,0.08200X0.08200*%
%ADD14R,0.04737X0.05131*%
%ADD15R,0.05131X0.04737*%
%ADD16C,0.22800*%
%ADD17R,0.03300X0.05800*%
%ADD18C,0.00500*%
%ADD19R,0.03556X0.03556*%
%ADD20C,0.14800*%
%ADD21C,0.04369*%
D10*
X0151500Y0312000D03*
X0151500Y0322000D03*
X0151500Y0332000D03*
X0151500Y0342000D03*
X0151500Y0352000D03*
X0151500Y0362000D03*
X0151500Y0372000D03*
X0151500Y0382000D03*
X0151500Y0392000D03*
X0151500Y0402000D03*
X0151500Y0412000D03*
X0151500Y0422000D03*
X0161500Y0422000D03*
X0161500Y0412000D03*
X0161500Y0402000D03*
X0161500Y0392000D03*
X0161500Y0382000D03*
X0161500Y0372000D03*
X0161500Y0362000D03*
X0161500Y0352000D03*
X0161500Y0342000D03*
X0161500Y0332000D03*
X0161500Y0322000D03*
X0161500Y0312000D03*
D11*
X0170000Y0509500D03*
X0180000Y0510500D03*
X0190000Y0509500D03*
X0200000Y0510500D03*
X0210000Y0509500D03*
X0220000Y0510500D03*
X0230000Y0509500D03*
X0240000Y0510500D03*
X0250000Y0509500D03*
X0160000Y0510500D03*
X0150000Y0509500D03*
X0140000Y0510500D03*
X0130000Y0509500D03*
X0120000Y0510500D03*
X0110000Y0509500D03*
X0100000Y0510500D03*
X0090000Y0509500D03*
X0080000Y0510500D03*
X0070000Y0509500D03*
X0060000Y0510500D03*
X0409941Y0480000D03*
X0409941Y0470000D03*
X0469000Y0470000D03*
X0469000Y0480000D03*
X0469000Y0490000D03*
D12*
X0091516Y0406487D03*
X0088957Y0406487D03*
X0086398Y0406487D03*
X0083839Y0406487D03*
X0081280Y0406487D03*
X0078720Y0406487D03*
X0076161Y0406487D03*
X0073602Y0406487D03*
X0071043Y0406487D03*
X0068484Y0406487D03*
X0056516Y0406487D03*
X0053957Y0406487D03*
X0051398Y0406487D03*
X0048839Y0406487D03*
X0046280Y0406487D03*
X0043720Y0406487D03*
X0041161Y0406487D03*
X0038602Y0406487D03*
X0036043Y0406487D03*
X0033484Y0406487D03*
X0033484Y0383513D03*
X0036043Y0383513D03*
X0038602Y0383513D03*
X0041161Y0383513D03*
X0043720Y0383513D03*
X0046280Y0383513D03*
X0048839Y0383513D03*
X0051398Y0383513D03*
X0053957Y0383513D03*
X0056516Y0383513D03*
X0068484Y0383513D03*
X0071043Y0383513D03*
X0073602Y0383513D03*
X0076161Y0383513D03*
X0078720Y0383513D03*
X0081280Y0383513D03*
X0083839Y0383513D03*
X0086398Y0383513D03*
X0088957Y0383513D03*
X0091516Y0383513D03*
D13*
X0409941Y0490000D03*
D14*
X0285000Y0473346D03*
X0285000Y0466654D03*
X0275000Y0466654D03*
X0275000Y0473346D03*
X0260000Y0481654D03*
X0260000Y0488346D03*
D15*
X0198346Y0420000D03*
X0191654Y0420000D03*
X0191654Y0410000D03*
X0198346Y0410000D03*
X0198346Y0400000D03*
X0191654Y0400000D03*
X0191654Y0390000D03*
X0198346Y0390000D03*
X0198346Y0380000D03*
X0191654Y0380000D03*
X0078346Y0365000D03*
X0071654Y0365000D03*
X0043346Y0365000D03*
X0036654Y0365000D03*
X0036654Y0425000D03*
X0043346Y0425000D03*
X0071654Y0425000D03*
X0078346Y0425000D03*
X0101654Y0495000D03*
X0108346Y0495000D03*
D16*
X0120000Y0440000D03*
X0190000Y0261000D03*
X0555000Y0261000D03*
X0555000Y0499000D03*
D17*
X0234000Y0485000D03*
X0230000Y0485000D03*
X0226000Y0485000D03*
D18*
X0231250Y0484769D02*
X0232750Y0484769D01*
X0232750Y0484500D02*
X0231250Y0484500D01*
X0231250Y0485500D01*
X0232750Y0485500D01*
X0232750Y0484500D01*
X0232750Y0485268D02*
X0231250Y0485268D01*
D19*
X0277441Y0481358D03*
X0282559Y0481358D03*
X0280000Y0488642D03*
D20*
X0025000Y0250000D03*
X0295000Y0250000D03*
X0295000Y0509000D03*
X0025000Y0509000D03*
D21*
X0080000Y0496000D03*
X0027000Y0457000D03*
X0045000Y0439000D03*
X0040000Y0433000D03*
X0074000Y0433000D03*
X0078000Y0438000D03*
X0114000Y0414000D03*
X0136000Y0401000D03*
X0124000Y0388000D03*
X0110000Y0381000D03*
X0070000Y0355000D03*
X0061000Y0363000D03*
X0042000Y0359000D03*
X0035000Y0355000D03*
X0117000Y0311000D03*
X0205000Y0380000D03*
X0205000Y0390000D03*
X0205000Y0400000D03*
X0205000Y0410000D03*
X0205000Y0420000D03*
X0275000Y0455000D03*
X0250000Y0486000D03*
X0241000Y0490000D03*
X0288000Y0500000D03*
X0328000Y0400000D03*
X0425000Y0306000D03*
M02*
