%
M48
M72
T01C0.0197
T02C0.0400
T03C0.1000
T04C0.1800
%
T01
X11700Y31100
X7000Y35500
X6100Y36300
X4200Y35900
X3500Y35500
X11000Y38100
X12400Y38800
X13600Y40100
X11400Y41400
X7800Y43800
X7400Y43300
X4500Y43900
X4000Y43300
X2700Y45700
X8000Y49600
X20500Y42000
X20500Y41000
X20500Y40000
X20500Y39000
X20500Y38000
X27500Y45500
X25000Y48600
X24100Y49000
X28800Y50000
X32800Y40000
X42500Y30600
T02
X40994Y47000
X40994Y48000
X40994Y49000
X46900Y49000
X46900Y48000
X46900Y47000
X25000Y50950
X24000Y51050
X23000Y50950
X22000Y51050
X21000Y50950
X20000Y51050
X19000Y50950
X18000Y51050
X17000Y50950
X16000Y51050
X15000Y50950
X14000Y51050
X13000Y50950
X12000Y51050
X11000Y50950
X10000Y51050
X9000Y50950
X8000Y51050
X7000Y50950
X6000Y51050
X15150Y42200
X15150Y41200
X15150Y40200
X15150Y39200
X15150Y38200
X15150Y37200
X15150Y36200
X15150Y35200
X15150Y34200
X15150Y33200
X15150Y32200
X15150Y31200
X16150Y31200
X16150Y32200
X16150Y33200
X16150Y34200
X16150Y35200
X16150Y36200
X16150Y37200
X16150Y38200
X16150Y39200
X16150Y40200
X16150Y41200
X16150Y42200
T03
X2500Y25000
X29500Y25000
X29500Y50900
X2500Y50900
T04
X12000Y44000
X19000Y26100
X55500Y26100
X55500Y49900
M30
