G75*
%MOIN*%
%OFA0B0*%
%FSLAX25Y25*%
%IPPOS*%
%LPD*%
%AMOC8*
5,1,8,0,0,1.08239X$1,22.5*
%
%ADD10C,0.01600*%
%ADD11C,0.00600*%
%ADD12C,0.01000*%
%ADD13C,0.00800*%
%ADD14C,0.02362*%
%ADD15C,0.00500*%
%ADD16C,0.01200*%
%ADD17C,0.00100*%
%ADD18C,0.01000*%
%ADD19C,0.00400*%
%ADD20C,0.02000*%
%ADD21R,0.03000X0.42000*%
%ADD22R,0.02000X0.07500*%
%ADD23R,0.02000X0.03000*%
%ADD24C,0.00200*%
%ADD25C,0.00010*%
D10*
X0195000Y0085000D02*
X0195000Y0089850D01*
X0195000Y0093787D02*
X0195000Y0098638D01*
X0195000Y0102575D02*
X0195000Y0107425D01*
X0195000Y0111362D02*
X0195000Y0116213D01*
X0195000Y0120150D02*
X0195000Y0125000D01*
X0192185Y0127815D01*
X0189401Y0130599D02*
X0186586Y0133414D01*
X0183802Y0136198D02*
X0180988Y0139012D01*
X0178204Y0141796D02*
X0175389Y0144611D01*
X0172605Y0147395D02*
X0169790Y0150210D01*
X0167006Y0152994D02*
X0164191Y0155809D01*
X0161407Y0158593D02*
X0158593Y0161407D01*
X0155809Y0164191D02*
X0152994Y0167006D01*
X0150210Y0169790D02*
X0147395Y0172605D01*
X0144611Y0175389D02*
X0141796Y0178204D01*
X0139012Y0180988D02*
X0136198Y0183802D01*
X0133414Y0186586D02*
X0130599Y0189401D01*
X0127815Y0192185D02*
X0125000Y0195000D01*
X0120397Y0195000D01*
X0116460Y0195000D02*
X0111858Y0195000D01*
X0107921Y0195000D02*
X0103318Y0195000D01*
X0099381Y0195000D02*
X0094778Y0195000D01*
X0090841Y0195000D02*
X0086238Y0195000D01*
X0082301Y0195000D02*
X0077699Y0195000D01*
X0073762Y0195000D02*
X0069159Y0195000D01*
X0065222Y0195000D02*
X0060619Y0195000D01*
X0056682Y0195000D02*
X0052079Y0195000D01*
X0048142Y0195000D02*
X0043540Y0195000D01*
X0039603Y0195000D02*
X0035000Y0195000D01*
X0265000Y0195420D02*
X0265000Y0199370D01*
X0265000Y0203307D02*
X0265000Y0207257D01*
X0265000Y0211194D02*
X0265000Y0215144D01*
X0265000Y0219081D02*
X0265000Y0223031D01*
X0265000Y0226969D02*
X0265000Y0230919D01*
X0265000Y0234856D02*
X0265000Y0238806D01*
X0265000Y0242743D02*
X0265000Y0246693D01*
X0265000Y0250630D02*
X0265000Y0254580D01*
X0265000Y0258517D02*
X0265000Y0262467D01*
X0265000Y0266404D02*
X0265000Y0270354D01*
X0265000Y0274291D02*
X0265000Y0278241D01*
X0265000Y0282178D02*
X0265000Y0286129D01*
X0265000Y0290066D02*
X0265000Y0294016D01*
X0265000Y0297953D02*
X0265000Y0301903D01*
X0265000Y0305840D02*
X0265000Y0309790D01*
X0265000Y0313727D02*
X0265000Y0317677D01*
X0265000Y0321614D02*
X0265000Y0325564D01*
X0265000Y0329501D02*
X0265000Y0333451D01*
X0265000Y0337388D02*
X0265000Y0341339D01*
X0265000Y0345276D02*
X0265000Y0349226D01*
X0265000Y0353163D02*
X0265000Y0357113D01*
X0265000Y0361050D02*
X0265000Y0365000D01*
X0265000Y0191483D02*
X0265000Y0187533D01*
X0265000Y0183596D02*
X0265000Y0179646D01*
X0265000Y0175709D02*
X0265000Y0171759D01*
X0265000Y0167822D02*
X0265000Y0163871D01*
X0265000Y0159934D02*
X0265000Y0155984D01*
X0265000Y0152047D02*
X0265000Y0148097D01*
X0265000Y0144160D02*
X0265000Y0140210D01*
X0265000Y0136273D02*
X0265000Y0132323D01*
X0265000Y0128386D02*
X0265000Y0124436D01*
X0265000Y0120499D02*
X0265000Y0116549D01*
X0265000Y0112612D02*
X0265000Y0108661D01*
X0265000Y0104724D02*
X0265000Y0100774D01*
X0265000Y0096837D02*
X0265000Y0092887D01*
X0265000Y0088950D02*
X0265000Y0085000D01*
D11*
X0036284Y0098300D02*
X0036284Y0102570D01*
X0038420Y0104705D01*
X0040555Y0102570D01*
X0040555Y0098300D01*
X0042730Y0099368D02*
X0043798Y0098300D01*
X0045933Y0098300D01*
X0047000Y0099368D01*
X0049175Y0101503D02*
X0053446Y0101503D01*
X0055621Y0104705D02*
X0055621Y0098300D01*
X0059891Y0098300D02*
X0059891Y0104705D01*
X0062066Y0104705D02*
X0066337Y0104705D01*
X0064202Y0104705D02*
X0064202Y0098300D01*
X0068512Y0098300D02*
X0072782Y0098300D01*
X0068512Y0098300D02*
X0068512Y0104705D01*
X0059891Y0098300D02*
X0055621Y0104705D01*
X0047000Y0103638D02*
X0045933Y0104705D01*
X0043798Y0104705D01*
X0042730Y0103638D01*
X0042730Y0099368D01*
X0040555Y0101503D02*
X0036284Y0101503D01*
X0036284Y0130800D02*
X0036284Y0135070D01*
X0038420Y0137205D01*
X0040555Y0135070D01*
X0040555Y0130800D01*
X0042730Y0131868D02*
X0043798Y0130800D01*
X0045933Y0130800D01*
X0047000Y0131868D01*
X0049175Y0134003D02*
X0053446Y0134003D01*
X0055621Y0134003D02*
X0059891Y0134003D01*
X0062066Y0136138D02*
X0062066Y0131868D01*
X0063134Y0130800D01*
X0065269Y0130800D01*
X0066337Y0131868D01*
X0066337Y0136138D01*
X0065269Y0137205D01*
X0063134Y0137205D01*
X0062066Y0136138D01*
X0059891Y0137205D02*
X0059891Y0130800D01*
X0055621Y0130800D02*
X0055621Y0137205D01*
X0047000Y0136138D02*
X0045933Y0137205D01*
X0043798Y0137205D01*
X0042730Y0136138D01*
X0042730Y0131868D01*
X0040555Y0134003D02*
X0036284Y0134003D01*
X0068512Y0137205D02*
X0072782Y0137205D01*
X0070647Y0137205D02*
X0070647Y0130800D01*
X0071595Y0160300D02*
X0073730Y0160300D01*
X0074798Y0161368D01*
X0074798Y0163503D01*
X0072663Y0163503D01*
X0074798Y0165638D02*
X0073730Y0166705D01*
X0071595Y0166705D01*
X0070527Y0165638D01*
X0070527Y0161368D01*
X0071595Y0160300D01*
X0068352Y0160300D02*
X0068352Y0164570D01*
X0066217Y0166705D01*
X0064082Y0164570D01*
X0064082Y0160300D01*
X0064082Y0163503D02*
X0068352Y0163503D01*
X0068758Y0170300D02*
X0068758Y0176705D01*
X0068758Y0173503D02*
X0064488Y0173503D01*
X0062313Y0173503D02*
X0060178Y0173503D01*
X0062313Y0173503D02*
X0062313Y0171368D01*
X0061245Y0170300D01*
X0059110Y0170300D01*
X0058042Y0171368D01*
X0058042Y0175638D01*
X0059110Y0176705D01*
X0061245Y0176705D01*
X0062313Y0175638D01*
X0064488Y0176705D02*
X0064488Y0170300D01*
X0061907Y0166705D02*
X0057636Y0166705D01*
X0059772Y0166705D02*
X0059772Y0160300D01*
X0055461Y0160300D02*
X0051191Y0160300D01*
X0051191Y0166705D01*
X0049016Y0165638D02*
X0049016Y0161368D01*
X0047948Y0160300D01*
X0045813Y0160300D01*
X0044745Y0161368D01*
X0044745Y0165638D01*
X0045813Y0166705D01*
X0047948Y0166705D01*
X0049016Y0165638D01*
X0047300Y0170300D02*
X0047300Y0176705D01*
X0047300Y0173503D02*
X0051570Y0173503D01*
X0051570Y0176705D02*
X0051570Y0170300D01*
X0053745Y0170300D02*
X0055881Y0170300D01*
X0054813Y0170300D02*
X0054813Y0176705D01*
X0053745Y0176705D02*
X0055881Y0176705D01*
X0042570Y0166705D02*
X0042570Y0162435D01*
X0040435Y0160300D01*
X0038300Y0162435D01*
X0038300Y0166705D01*
X0076973Y0166705D02*
X0076973Y0160300D01*
X0081243Y0160300D01*
X0079108Y0163503D02*
X0076973Y0163503D01*
X0076973Y0166705D02*
X0081243Y0166705D01*
X0050326Y0290300D02*
X0050326Y0296705D01*
X0048191Y0296705D02*
X0052461Y0296705D01*
X0046016Y0295638D02*
X0044948Y0296705D01*
X0042813Y0296705D01*
X0041745Y0295638D01*
X0041745Y0294570D01*
X0042813Y0293503D01*
X0044948Y0293503D01*
X0046016Y0292435D01*
X0046016Y0291368D01*
X0044948Y0290300D01*
X0042813Y0290300D01*
X0041745Y0291368D01*
X0039570Y0290300D02*
X0037435Y0292435D01*
X0038503Y0292435D02*
X0035300Y0292435D01*
X0035300Y0290300D02*
X0035300Y0296705D01*
X0038503Y0296705D01*
X0039570Y0295638D01*
X0039570Y0293503D01*
X0038503Y0292435D01*
X0264500Y0291000D02*
X0264500Y0261000D01*
X0287500Y0261000D01*
X0287500Y0291000D01*
X0280000Y0291000D01*
X0279998Y0290874D01*
X0279992Y0290749D01*
X0279982Y0290624D01*
X0279968Y0290499D01*
X0279951Y0290374D01*
X0279929Y0290250D01*
X0279904Y0290127D01*
X0279874Y0290005D01*
X0279841Y0289884D01*
X0279804Y0289764D01*
X0279764Y0289645D01*
X0279719Y0289528D01*
X0279671Y0289411D01*
X0279619Y0289297D01*
X0279564Y0289184D01*
X0279505Y0289073D01*
X0279443Y0288964D01*
X0279377Y0288857D01*
X0279308Y0288752D01*
X0279236Y0288649D01*
X0279161Y0288548D01*
X0279082Y0288450D01*
X0279000Y0288355D01*
X0278916Y0288262D01*
X0278828Y0288172D01*
X0278738Y0288084D01*
X0278645Y0288000D01*
X0278550Y0287918D01*
X0278452Y0287839D01*
X0278351Y0287764D01*
X0278248Y0287692D01*
X0278143Y0287623D01*
X0278036Y0287557D01*
X0277927Y0287495D01*
X0277816Y0287436D01*
X0277703Y0287381D01*
X0277589Y0287329D01*
X0277472Y0287281D01*
X0277355Y0287236D01*
X0277236Y0287196D01*
X0277116Y0287159D01*
X0276995Y0287126D01*
X0276873Y0287096D01*
X0276750Y0287071D01*
X0276626Y0287049D01*
X0276501Y0287032D01*
X0276376Y0287018D01*
X0276251Y0287008D01*
X0276126Y0287002D01*
X0276000Y0287000D01*
X0275874Y0287002D01*
X0275749Y0287008D01*
X0275624Y0287018D01*
X0275499Y0287032D01*
X0275374Y0287049D01*
X0275250Y0287071D01*
X0275127Y0287096D01*
X0275005Y0287126D01*
X0274884Y0287159D01*
X0274764Y0287196D01*
X0274645Y0287236D01*
X0274528Y0287281D01*
X0274411Y0287329D01*
X0274297Y0287381D01*
X0274184Y0287436D01*
X0274073Y0287495D01*
X0273964Y0287557D01*
X0273857Y0287623D01*
X0273752Y0287692D01*
X0273649Y0287764D01*
X0273548Y0287839D01*
X0273450Y0287918D01*
X0273355Y0288000D01*
X0273262Y0288084D01*
X0273172Y0288172D01*
X0273084Y0288262D01*
X0273000Y0288355D01*
X0272918Y0288450D01*
X0272839Y0288548D01*
X0272764Y0288649D01*
X0272692Y0288752D01*
X0272623Y0288857D01*
X0272557Y0288964D01*
X0272495Y0289073D01*
X0272436Y0289184D01*
X0272381Y0289297D01*
X0272329Y0289411D01*
X0272281Y0289528D01*
X0272236Y0289645D01*
X0272196Y0289764D01*
X0272159Y0289884D01*
X0272126Y0290005D01*
X0272096Y0290127D01*
X0272071Y0290250D01*
X0272049Y0290374D01*
X0272032Y0290499D01*
X0272018Y0290624D01*
X0272008Y0290749D01*
X0272002Y0290874D01*
X0272000Y0291000D01*
X0264500Y0291000D01*
X0264500Y0295000D02*
X0287500Y0295000D01*
X0287500Y0325000D01*
X0280000Y0325000D01*
X0279998Y0324874D01*
X0279992Y0324749D01*
X0279982Y0324624D01*
X0279968Y0324499D01*
X0279951Y0324374D01*
X0279929Y0324250D01*
X0279904Y0324127D01*
X0279874Y0324005D01*
X0279841Y0323884D01*
X0279804Y0323764D01*
X0279764Y0323645D01*
X0279719Y0323528D01*
X0279671Y0323411D01*
X0279619Y0323297D01*
X0279564Y0323184D01*
X0279505Y0323073D01*
X0279443Y0322964D01*
X0279377Y0322857D01*
X0279308Y0322752D01*
X0279236Y0322649D01*
X0279161Y0322548D01*
X0279082Y0322450D01*
X0279000Y0322355D01*
X0278916Y0322262D01*
X0278828Y0322172D01*
X0278738Y0322084D01*
X0278645Y0322000D01*
X0278550Y0321918D01*
X0278452Y0321839D01*
X0278351Y0321764D01*
X0278248Y0321692D01*
X0278143Y0321623D01*
X0278036Y0321557D01*
X0277927Y0321495D01*
X0277816Y0321436D01*
X0277703Y0321381D01*
X0277589Y0321329D01*
X0277472Y0321281D01*
X0277355Y0321236D01*
X0277236Y0321196D01*
X0277116Y0321159D01*
X0276995Y0321126D01*
X0276873Y0321096D01*
X0276750Y0321071D01*
X0276626Y0321049D01*
X0276501Y0321032D01*
X0276376Y0321018D01*
X0276251Y0321008D01*
X0276126Y0321002D01*
X0276000Y0321000D01*
X0275874Y0321002D01*
X0275749Y0321008D01*
X0275624Y0321018D01*
X0275499Y0321032D01*
X0275374Y0321049D01*
X0275250Y0321071D01*
X0275127Y0321096D01*
X0275005Y0321126D01*
X0274884Y0321159D01*
X0274764Y0321196D01*
X0274645Y0321236D01*
X0274528Y0321281D01*
X0274411Y0321329D01*
X0274297Y0321381D01*
X0274184Y0321436D01*
X0274073Y0321495D01*
X0273964Y0321557D01*
X0273857Y0321623D01*
X0273752Y0321692D01*
X0273649Y0321764D01*
X0273548Y0321839D01*
X0273450Y0321918D01*
X0273355Y0322000D01*
X0273262Y0322084D01*
X0273172Y0322172D01*
X0273084Y0322262D01*
X0273000Y0322355D01*
X0272918Y0322450D01*
X0272839Y0322548D01*
X0272764Y0322649D01*
X0272692Y0322752D01*
X0272623Y0322857D01*
X0272557Y0322964D01*
X0272495Y0323073D01*
X0272436Y0323184D01*
X0272381Y0323297D01*
X0272329Y0323411D01*
X0272281Y0323528D01*
X0272236Y0323645D01*
X0272196Y0323764D01*
X0272159Y0323884D01*
X0272126Y0324005D01*
X0272096Y0324127D01*
X0272071Y0324250D01*
X0272049Y0324374D01*
X0272032Y0324499D01*
X0272018Y0324624D01*
X0272008Y0324749D01*
X0272002Y0324874D01*
X0272000Y0325000D01*
X0264500Y0325000D01*
X0264500Y0295000D01*
X0264500Y0329000D02*
X0287500Y0329000D01*
X0287500Y0359000D01*
X0280000Y0359000D01*
X0279998Y0358874D01*
X0279992Y0358749D01*
X0279982Y0358624D01*
X0279968Y0358499D01*
X0279951Y0358374D01*
X0279929Y0358250D01*
X0279904Y0358127D01*
X0279874Y0358005D01*
X0279841Y0357884D01*
X0279804Y0357764D01*
X0279764Y0357645D01*
X0279719Y0357528D01*
X0279671Y0357411D01*
X0279619Y0357297D01*
X0279564Y0357184D01*
X0279505Y0357073D01*
X0279443Y0356964D01*
X0279377Y0356857D01*
X0279308Y0356752D01*
X0279236Y0356649D01*
X0279161Y0356548D01*
X0279082Y0356450D01*
X0279000Y0356355D01*
X0278916Y0356262D01*
X0278828Y0356172D01*
X0278738Y0356084D01*
X0278645Y0356000D01*
X0278550Y0355918D01*
X0278452Y0355839D01*
X0278351Y0355764D01*
X0278248Y0355692D01*
X0278143Y0355623D01*
X0278036Y0355557D01*
X0277927Y0355495D01*
X0277816Y0355436D01*
X0277703Y0355381D01*
X0277589Y0355329D01*
X0277472Y0355281D01*
X0277355Y0355236D01*
X0277236Y0355196D01*
X0277116Y0355159D01*
X0276995Y0355126D01*
X0276873Y0355096D01*
X0276750Y0355071D01*
X0276626Y0355049D01*
X0276501Y0355032D01*
X0276376Y0355018D01*
X0276251Y0355008D01*
X0276126Y0355002D01*
X0276000Y0355000D01*
X0275874Y0355002D01*
X0275749Y0355008D01*
X0275624Y0355018D01*
X0275499Y0355032D01*
X0275374Y0355049D01*
X0275250Y0355071D01*
X0275127Y0355096D01*
X0275005Y0355126D01*
X0274884Y0355159D01*
X0274764Y0355196D01*
X0274645Y0355236D01*
X0274528Y0355281D01*
X0274411Y0355329D01*
X0274297Y0355381D01*
X0274184Y0355436D01*
X0274073Y0355495D01*
X0273964Y0355557D01*
X0273857Y0355623D01*
X0273752Y0355692D01*
X0273649Y0355764D01*
X0273548Y0355839D01*
X0273450Y0355918D01*
X0273355Y0356000D01*
X0273262Y0356084D01*
X0273172Y0356172D01*
X0273084Y0356262D01*
X0273000Y0356355D01*
X0272918Y0356450D01*
X0272839Y0356548D01*
X0272764Y0356649D01*
X0272692Y0356752D01*
X0272623Y0356857D01*
X0272557Y0356964D01*
X0272495Y0357073D01*
X0272436Y0357184D01*
X0272381Y0357297D01*
X0272329Y0357411D01*
X0272281Y0357528D01*
X0272236Y0357645D01*
X0272196Y0357764D01*
X0272159Y0357884D01*
X0272126Y0358005D01*
X0272096Y0358127D01*
X0272071Y0358250D01*
X0272049Y0358374D01*
X0272032Y0358499D01*
X0272018Y0358624D01*
X0272008Y0358749D01*
X0272002Y0358874D01*
X0272000Y0359000D01*
X0264500Y0359000D01*
X0264500Y0329000D01*
X0318295Y0328270D02*
X0324700Y0328270D01*
X0324700Y0332540D01*
X0324700Y0336851D02*
X0318295Y0336851D01*
X0318295Y0338986D02*
X0318295Y0334715D01*
X0320430Y0341161D02*
X0318295Y0343296D01*
X0320430Y0345431D01*
X0324700Y0345431D01*
X0323632Y0347606D02*
X0324700Y0348674D01*
X0324700Y0350809D01*
X0323632Y0351877D01*
X0321497Y0351877D01*
X0321497Y0349742D01*
X0319362Y0351877D02*
X0318295Y0350809D01*
X0318295Y0348674D01*
X0319362Y0347606D01*
X0323632Y0347606D01*
X0321497Y0345431D02*
X0321497Y0341161D01*
X0320430Y0341161D02*
X0324700Y0341161D01*
X0328295Y0341134D02*
X0334700Y0341134D01*
X0333632Y0343309D02*
X0329362Y0343309D01*
X0328295Y0344377D01*
X0328295Y0346512D01*
X0329362Y0347580D01*
X0333632Y0347580D01*
X0334700Y0346512D01*
X0334700Y0344377D01*
X0333632Y0343309D01*
X0331497Y0341134D02*
X0331497Y0336864D01*
X0328295Y0336864D02*
X0334700Y0336864D01*
X0334700Y0328270D02*
X0333632Y0328270D01*
X0331497Y0328270D02*
X0327227Y0328270D01*
X0328295Y0326095D02*
X0334700Y0326095D01*
X0328295Y0321824D01*
X0334700Y0321824D01*
X0333632Y0319649D02*
X0329362Y0319649D01*
X0328295Y0318582D01*
X0328295Y0316447D01*
X0329362Y0315379D01*
X0333632Y0315379D01*
X0334700Y0316447D01*
X0334700Y0318582D01*
X0333632Y0319649D01*
X0334700Y0313217D02*
X0334700Y0311082D01*
X0334700Y0312150D02*
X0328295Y0312150D01*
X0328295Y0313217D02*
X0328295Y0311082D01*
X0328295Y0308907D02*
X0328295Y0304636D01*
X0328295Y0306772D02*
X0334700Y0306772D01*
X0333632Y0302461D02*
X0328295Y0302461D01*
X0324700Y0302488D02*
X0318295Y0302488D01*
X0319362Y0300313D02*
X0318295Y0299245D01*
X0318295Y0297110D01*
X0319362Y0296042D01*
X0323632Y0296042D01*
X0324700Y0297110D01*
X0324700Y0299245D01*
X0323632Y0300313D01*
X0321497Y0300313D01*
X0321497Y0298178D01*
X0321497Y0302488D02*
X0321497Y0306758D01*
X0318295Y0306758D02*
X0324700Y0306758D01*
X0322565Y0315379D02*
X0318295Y0315379D01*
X0322565Y0315379D02*
X0324700Y0317514D01*
X0322565Y0319649D01*
X0318295Y0319649D01*
X0319362Y0321824D02*
X0318295Y0322892D01*
X0318295Y0325027D01*
X0319362Y0326095D01*
X0323632Y0326095D01*
X0324700Y0325027D01*
X0324700Y0322892D01*
X0323632Y0321824D01*
X0319362Y0321824D01*
X0333632Y0302461D02*
X0334700Y0301394D01*
X0334700Y0299259D01*
X0333632Y0298191D01*
X0328295Y0298191D01*
X0330430Y0296016D02*
X0334700Y0296016D01*
X0331497Y0296016D02*
X0331497Y0291745D01*
X0330430Y0291745D02*
X0334700Y0291745D01*
X0333632Y0289570D02*
X0334700Y0288503D01*
X0334700Y0286368D01*
X0333632Y0285300D01*
X0329362Y0285300D01*
X0328295Y0286368D01*
X0328295Y0288503D01*
X0329362Y0289570D01*
X0330430Y0291745D02*
X0328295Y0293881D01*
X0330430Y0296016D01*
X0324700Y0293881D02*
X0324700Y0291745D01*
X0324700Y0292813D02*
X0318295Y0292813D01*
X0318295Y0291745D02*
X0318295Y0293881D01*
X0318295Y0289570D02*
X0324700Y0289570D01*
X0321497Y0289570D02*
X0321497Y0285300D01*
X0318295Y0285300D02*
X0324700Y0285300D01*
X0287500Y0257000D02*
X0280000Y0257000D01*
X0279998Y0256874D01*
X0279992Y0256749D01*
X0279982Y0256624D01*
X0279968Y0256499D01*
X0279951Y0256374D01*
X0279929Y0256250D01*
X0279904Y0256127D01*
X0279874Y0256005D01*
X0279841Y0255884D01*
X0279804Y0255764D01*
X0279764Y0255645D01*
X0279719Y0255528D01*
X0279671Y0255411D01*
X0279619Y0255297D01*
X0279564Y0255184D01*
X0279505Y0255073D01*
X0279443Y0254964D01*
X0279377Y0254857D01*
X0279308Y0254752D01*
X0279236Y0254649D01*
X0279161Y0254548D01*
X0279082Y0254450D01*
X0279000Y0254355D01*
X0278916Y0254262D01*
X0278828Y0254172D01*
X0278738Y0254084D01*
X0278645Y0254000D01*
X0278550Y0253918D01*
X0278452Y0253839D01*
X0278351Y0253764D01*
X0278248Y0253692D01*
X0278143Y0253623D01*
X0278036Y0253557D01*
X0277927Y0253495D01*
X0277816Y0253436D01*
X0277703Y0253381D01*
X0277589Y0253329D01*
X0277472Y0253281D01*
X0277355Y0253236D01*
X0277236Y0253196D01*
X0277116Y0253159D01*
X0276995Y0253126D01*
X0276873Y0253096D01*
X0276750Y0253071D01*
X0276626Y0253049D01*
X0276501Y0253032D01*
X0276376Y0253018D01*
X0276251Y0253008D01*
X0276126Y0253002D01*
X0276000Y0253000D01*
X0275874Y0253002D01*
X0275749Y0253008D01*
X0275624Y0253018D01*
X0275499Y0253032D01*
X0275374Y0253049D01*
X0275250Y0253071D01*
X0275127Y0253096D01*
X0275005Y0253126D01*
X0274884Y0253159D01*
X0274764Y0253196D01*
X0274645Y0253236D01*
X0274528Y0253281D01*
X0274411Y0253329D01*
X0274297Y0253381D01*
X0274184Y0253436D01*
X0274073Y0253495D01*
X0273964Y0253557D01*
X0273857Y0253623D01*
X0273752Y0253692D01*
X0273649Y0253764D01*
X0273548Y0253839D01*
X0273450Y0253918D01*
X0273355Y0254000D01*
X0273262Y0254084D01*
X0273172Y0254172D01*
X0273084Y0254262D01*
X0273000Y0254355D01*
X0272918Y0254450D01*
X0272839Y0254548D01*
X0272764Y0254649D01*
X0272692Y0254752D01*
X0272623Y0254857D01*
X0272557Y0254964D01*
X0272495Y0255073D01*
X0272436Y0255184D01*
X0272381Y0255297D01*
X0272329Y0255411D01*
X0272281Y0255528D01*
X0272236Y0255645D01*
X0272196Y0255764D01*
X0272159Y0255884D01*
X0272126Y0256005D01*
X0272096Y0256127D01*
X0272071Y0256250D01*
X0272049Y0256374D01*
X0272032Y0256499D01*
X0272018Y0256624D01*
X0272008Y0256749D01*
X0272002Y0256874D01*
X0272000Y0257000D01*
X0264500Y0257000D01*
X0264500Y0227000D01*
X0287500Y0227000D01*
X0287500Y0257000D01*
X0328000Y0248500D02*
X0329000Y0249500D01*
X0340500Y0250000D01*
X0328000Y0248500D02*
X0328000Y0211500D01*
X0329000Y0210500D01*
X0340500Y0210000D01*
X0368000Y0211500D02*
X0368000Y0248500D01*
X0369000Y0249500D01*
X0380500Y0250000D01*
X0408000Y0248500D02*
X0409000Y0249500D01*
X0420500Y0250000D01*
X0408000Y0248500D02*
X0408000Y0211500D01*
X0409000Y0210500D01*
X0420500Y0210000D01*
X0448000Y0211500D02*
X0448000Y0248500D01*
X0449000Y0249500D01*
X0460500Y0250000D01*
X0488000Y0248500D02*
X0489000Y0249500D01*
X0500500Y0250000D01*
X0488000Y0248500D02*
X0488000Y0211500D01*
X0489000Y0210500D01*
X0500500Y0210000D01*
X0528000Y0211500D02*
X0528000Y0248500D01*
X0529000Y0249500D01*
X0540500Y0250000D01*
X0568000Y0248500D02*
X0569000Y0249500D01*
X0580500Y0250000D01*
X0568000Y0248500D02*
X0568000Y0211500D01*
X0569000Y0210500D01*
X0580500Y0210000D01*
X0608000Y0211500D02*
X0608000Y0248500D01*
X0609000Y0249500D01*
X0620500Y0250000D01*
X0620500Y0210000D02*
X0609000Y0210500D01*
X0608000Y0211500D01*
X0540500Y0210000D02*
X0529000Y0210500D01*
X0528000Y0211500D01*
X0460500Y0210000D02*
X0449000Y0210500D01*
X0448000Y0211500D01*
X0380500Y0210000D02*
X0369000Y0210500D01*
X0368000Y0211500D01*
X0334700Y0171200D02*
X0333632Y0171200D01*
X0331497Y0171200D02*
X0327227Y0171200D01*
X0328295Y0169025D02*
X0328295Y0164755D01*
X0328295Y0166890D02*
X0334700Y0166890D01*
X0333632Y0162580D02*
X0329362Y0162580D01*
X0328295Y0161512D01*
X0328295Y0159377D01*
X0329362Y0158309D01*
X0333632Y0158309D01*
X0334700Y0159377D01*
X0334700Y0161512D01*
X0333632Y0162580D01*
X0334700Y0156134D02*
X0328295Y0156134D01*
X0331497Y0156134D02*
X0331497Y0151864D01*
X0328295Y0151864D02*
X0334700Y0151864D01*
X0334700Y0143270D02*
X0333632Y0143270D01*
X0331497Y0143270D02*
X0327227Y0143270D01*
X0328295Y0141095D02*
X0334700Y0141095D01*
X0328295Y0136824D01*
X0334700Y0136824D01*
X0333632Y0134649D02*
X0329362Y0134649D01*
X0328295Y0133582D01*
X0328295Y0131447D01*
X0329362Y0130379D01*
X0333632Y0130379D01*
X0334700Y0131447D01*
X0334700Y0133582D01*
X0333632Y0134649D01*
X0334700Y0128217D02*
X0334700Y0126082D01*
X0334700Y0127150D02*
X0328295Y0127150D01*
X0328295Y0128217D02*
X0328295Y0126082D01*
X0328295Y0123907D02*
X0328295Y0119636D01*
X0328295Y0121772D02*
X0334700Y0121772D01*
X0333632Y0117461D02*
X0328295Y0117461D01*
X0324700Y0117488D02*
X0318295Y0117488D01*
X0319362Y0115313D02*
X0318295Y0114245D01*
X0318295Y0112110D01*
X0319362Y0111042D01*
X0323632Y0111042D01*
X0324700Y0112110D01*
X0324700Y0114245D01*
X0323632Y0115313D01*
X0321497Y0115313D01*
X0321497Y0113178D01*
X0321497Y0117488D02*
X0321497Y0121758D01*
X0318295Y0121758D02*
X0324700Y0121758D01*
X0322565Y0130379D02*
X0318295Y0130379D01*
X0322565Y0130379D02*
X0324700Y0132514D01*
X0322565Y0134649D01*
X0318295Y0134649D01*
X0319362Y0136824D02*
X0318295Y0137892D01*
X0318295Y0140027D01*
X0319362Y0141095D01*
X0323632Y0141095D01*
X0324700Y0140027D01*
X0324700Y0137892D01*
X0323632Y0136824D01*
X0319362Y0136824D01*
X0318295Y0143270D02*
X0324700Y0143270D01*
X0324700Y0147540D01*
X0324700Y0151851D02*
X0318295Y0151851D01*
X0318295Y0153986D02*
X0318295Y0149715D01*
X0320430Y0156161D02*
X0318295Y0158296D01*
X0320430Y0160431D01*
X0324700Y0160431D01*
X0323632Y0162606D02*
X0324700Y0163674D01*
X0324700Y0165809D01*
X0323632Y0166877D01*
X0321497Y0166877D01*
X0321497Y0164742D01*
X0319362Y0166877D02*
X0318295Y0165809D01*
X0318295Y0163674D01*
X0319362Y0162606D01*
X0323632Y0162606D01*
X0321497Y0160431D02*
X0321497Y0156161D01*
X0320430Y0156161D02*
X0324700Y0156161D01*
X0324700Y0169052D02*
X0318295Y0169052D01*
X0318295Y0173322D01*
X0321497Y0171187D02*
X0321497Y0169052D01*
X0324700Y0169052D02*
X0324700Y0173322D01*
X0287500Y0159000D02*
X0264500Y0159000D01*
X0264500Y0189000D01*
X0272000Y0189000D01*
X0272002Y0188874D01*
X0272008Y0188749D01*
X0272018Y0188624D01*
X0272032Y0188499D01*
X0272049Y0188374D01*
X0272071Y0188250D01*
X0272096Y0188127D01*
X0272126Y0188005D01*
X0272159Y0187884D01*
X0272196Y0187764D01*
X0272236Y0187645D01*
X0272281Y0187528D01*
X0272329Y0187411D01*
X0272381Y0187297D01*
X0272436Y0187184D01*
X0272495Y0187073D01*
X0272557Y0186964D01*
X0272623Y0186857D01*
X0272692Y0186752D01*
X0272764Y0186649D01*
X0272839Y0186548D01*
X0272918Y0186450D01*
X0273000Y0186355D01*
X0273084Y0186262D01*
X0273172Y0186172D01*
X0273262Y0186084D01*
X0273355Y0186000D01*
X0273450Y0185918D01*
X0273548Y0185839D01*
X0273649Y0185764D01*
X0273752Y0185692D01*
X0273857Y0185623D01*
X0273964Y0185557D01*
X0274073Y0185495D01*
X0274184Y0185436D01*
X0274297Y0185381D01*
X0274411Y0185329D01*
X0274528Y0185281D01*
X0274645Y0185236D01*
X0274764Y0185196D01*
X0274884Y0185159D01*
X0275005Y0185126D01*
X0275127Y0185096D01*
X0275250Y0185071D01*
X0275374Y0185049D01*
X0275499Y0185032D01*
X0275624Y0185018D01*
X0275749Y0185008D01*
X0275874Y0185002D01*
X0276000Y0185000D01*
X0276126Y0185002D01*
X0276251Y0185008D01*
X0276376Y0185018D01*
X0276501Y0185032D01*
X0276626Y0185049D01*
X0276750Y0185071D01*
X0276873Y0185096D01*
X0276995Y0185126D01*
X0277116Y0185159D01*
X0277236Y0185196D01*
X0277355Y0185236D01*
X0277472Y0185281D01*
X0277589Y0185329D01*
X0277703Y0185381D01*
X0277816Y0185436D01*
X0277927Y0185495D01*
X0278036Y0185557D01*
X0278143Y0185623D01*
X0278248Y0185692D01*
X0278351Y0185764D01*
X0278452Y0185839D01*
X0278550Y0185918D01*
X0278645Y0186000D01*
X0278738Y0186084D01*
X0278828Y0186172D01*
X0278916Y0186262D01*
X0279000Y0186355D01*
X0279082Y0186450D01*
X0279161Y0186548D01*
X0279236Y0186649D01*
X0279308Y0186752D01*
X0279377Y0186857D01*
X0279443Y0186964D01*
X0279505Y0187073D01*
X0279564Y0187184D01*
X0279619Y0187297D01*
X0279671Y0187411D01*
X0279719Y0187528D01*
X0279764Y0187645D01*
X0279804Y0187764D01*
X0279841Y0187884D01*
X0279874Y0188005D01*
X0279904Y0188127D01*
X0279929Y0188250D01*
X0279951Y0188374D01*
X0279968Y0188499D01*
X0279982Y0188624D01*
X0279992Y0188749D01*
X0279998Y0188874D01*
X0280000Y0189000D01*
X0287500Y0189000D01*
X0287500Y0159000D01*
X0287500Y0155000D02*
X0280000Y0155000D01*
X0279998Y0154874D01*
X0279992Y0154749D01*
X0279982Y0154624D01*
X0279968Y0154499D01*
X0279951Y0154374D01*
X0279929Y0154250D01*
X0279904Y0154127D01*
X0279874Y0154005D01*
X0279841Y0153884D01*
X0279804Y0153764D01*
X0279764Y0153645D01*
X0279719Y0153528D01*
X0279671Y0153411D01*
X0279619Y0153297D01*
X0279564Y0153184D01*
X0279505Y0153073D01*
X0279443Y0152964D01*
X0279377Y0152857D01*
X0279308Y0152752D01*
X0279236Y0152649D01*
X0279161Y0152548D01*
X0279082Y0152450D01*
X0279000Y0152355D01*
X0278916Y0152262D01*
X0278828Y0152172D01*
X0278738Y0152084D01*
X0278645Y0152000D01*
X0278550Y0151918D01*
X0278452Y0151839D01*
X0278351Y0151764D01*
X0278248Y0151692D01*
X0278143Y0151623D01*
X0278036Y0151557D01*
X0277927Y0151495D01*
X0277816Y0151436D01*
X0277703Y0151381D01*
X0277589Y0151329D01*
X0277472Y0151281D01*
X0277355Y0151236D01*
X0277236Y0151196D01*
X0277116Y0151159D01*
X0276995Y0151126D01*
X0276873Y0151096D01*
X0276750Y0151071D01*
X0276626Y0151049D01*
X0276501Y0151032D01*
X0276376Y0151018D01*
X0276251Y0151008D01*
X0276126Y0151002D01*
X0276000Y0151000D01*
X0275874Y0151002D01*
X0275749Y0151008D01*
X0275624Y0151018D01*
X0275499Y0151032D01*
X0275374Y0151049D01*
X0275250Y0151071D01*
X0275127Y0151096D01*
X0275005Y0151126D01*
X0274884Y0151159D01*
X0274764Y0151196D01*
X0274645Y0151236D01*
X0274528Y0151281D01*
X0274411Y0151329D01*
X0274297Y0151381D01*
X0274184Y0151436D01*
X0274073Y0151495D01*
X0273964Y0151557D01*
X0273857Y0151623D01*
X0273752Y0151692D01*
X0273649Y0151764D01*
X0273548Y0151839D01*
X0273450Y0151918D01*
X0273355Y0152000D01*
X0273262Y0152084D01*
X0273172Y0152172D01*
X0273084Y0152262D01*
X0273000Y0152355D01*
X0272918Y0152450D01*
X0272839Y0152548D01*
X0272764Y0152649D01*
X0272692Y0152752D01*
X0272623Y0152857D01*
X0272557Y0152964D01*
X0272495Y0153073D01*
X0272436Y0153184D01*
X0272381Y0153297D01*
X0272329Y0153411D01*
X0272281Y0153528D01*
X0272236Y0153645D01*
X0272196Y0153764D01*
X0272159Y0153884D01*
X0272126Y0154005D01*
X0272096Y0154127D01*
X0272071Y0154250D01*
X0272049Y0154374D01*
X0272032Y0154499D01*
X0272018Y0154624D01*
X0272008Y0154749D01*
X0272002Y0154874D01*
X0272000Y0155000D01*
X0264500Y0155000D01*
X0264500Y0125000D01*
X0287500Y0125000D01*
X0287500Y0155000D01*
X0287500Y0121000D02*
X0280000Y0121000D01*
X0279998Y0120874D01*
X0279992Y0120749D01*
X0279982Y0120624D01*
X0279968Y0120499D01*
X0279951Y0120374D01*
X0279929Y0120250D01*
X0279904Y0120127D01*
X0279874Y0120005D01*
X0279841Y0119884D01*
X0279804Y0119764D01*
X0279764Y0119645D01*
X0279719Y0119528D01*
X0279671Y0119411D01*
X0279619Y0119297D01*
X0279564Y0119184D01*
X0279505Y0119073D01*
X0279443Y0118964D01*
X0279377Y0118857D01*
X0279308Y0118752D01*
X0279236Y0118649D01*
X0279161Y0118548D01*
X0279082Y0118450D01*
X0279000Y0118355D01*
X0278916Y0118262D01*
X0278828Y0118172D01*
X0278738Y0118084D01*
X0278645Y0118000D01*
X0278550Y0117918D01*
X0278452Y0117839D01*
X0278351Y0117764D01*
X0278248Y0117692D01*
X0278143Y0117623D01*
X0278036Y0117557D01*
X0277927Y0117495D01*
X0277816Y0117436D01*
X0277703Y0117381D01*
X0277589Y0117329D01*
X0277472Y0117281D01*
X0277355Y0117236D01*
X0277236Y0117196D01*
X0277116Y0117159D01*
X0276995Y0117126D01*
X0276873Y0117096D01*
X0276750Y0117071D01*
X0276626Y0117049D01*
X0276501Y0117032D01*
X0276376Y0117018D01*
X0276251Y0117008D01*
X0276126Y0117002D01*
X0276000Y0117000D01*
X0275874Y0117002D01*
X0275749Y0117008D01*
X0275624Y0117018D01*
X0275499Y0117032D01*
X0275374Y0117049D01*
X0275250Y0117071D01*
X0275127Y0117096D01*
X0275005Y0117126D01*
X0274884Y0117159D01*
X0274764Y0117196D01*
X0274645Y0117236D01*
X0274528Y0117281D01*
X0274411Y0117329D01*
X0274297Y0117381D01*
X0274184Y0117436D01*
X0274073Y0117495D01*
X0273964Y0117557D01*
X0273857Y0117623D01*
X0273752Y0117692D01*
X0273649Y0117764D01*
X0273548Y0117839D01*
X0273450Y0117918D01*
X0273355Y0118000D01*
X0273262Y0118084D01*
X0273172Y0118172D01*
X0273084Y0118262D01*
X0273000Y0118355D01*
X0272918Y0118450D01*
X0272839Y0118548D01*
X0272764Y0118649D01*
X0272692Y0118752D01*
X0272623Y0118857D01*
X0272557Y0118964D01*
X0272495Y0119073D01*
X0272436Y0119184D01*
X0272381Y0119297D01*
X0272329Y0119411D01*
X0272281Y0119528D01*
X0272236Y0119645D01*
X0272196Y0119764D01*
X0272159Y0119884D01*
X0272126Y0120005D01*
X0272096Y0120127D01*
X0272071Y0120250D01*
X0272049Y0120374D01*
X0272032Y0120499D01*
X0272018Y0120624D01*
X0272008Y0120749D01*
X0272002Y0120874D01*
X0272000Y0121000D01*
X0264500Y0121000D01*
X0264500Y0091000D01*
X0287500Y0091000D01*
X0287500Y0121000D01*
X0318295Y0108881D02*
X0318295Y0106745D01*
X0318295Y0107813D02*
X0324700Y0107813D01*
X0324700Y0106745D02*
X0324700Y0108881D01*
X0328295Y0108881D02*
X0330430Y0106745D01*
X0334700Y0106745D01*
X0333632Y0104570D02*
X0334700Y0103503D01*
X0334700Y0101368D01*
X0333632Y0100300D01*
X0329362Y0100300D01*
X0328295Y0101368D01*
X0328295Y0103503D01*
X0329362Y0104570D01*
X0331497Y0106745D02*
X0331497Y0111016D01*
X0330430Y0111016D02*
X0334700Y0111016D01*
X0333632Y0113191D02*
X0328295Y0113191D01*
X0330430Y0111016D02*
X0328295Y0108881D01*
X0324700Y0104570D02*
X0318295Y0104570D01*
X0321497Y0104570D02*
X0321497Y0100300D01*
X0318295Y0100300D02*
X0324700Y0100300D01*
X0333632Y0113191D02*
X0334700Y0114259D01*
X0334700Y0116394D01*
X0333632Y0117461D01*
X0355295Y0116837D02*
X0360632Y0116837D01*
X0361700Y0115769D01*
X0361700Y0113634D01*
X0360632Y0112566D01*
X0355295Y0112566D01*
X0356362Y0110391D02*
X0355295Y0109324D01*
X0355295Y0107188D01*
X0356362Y0106121D01*
X0360632Y0106121D01*
X0361700Y0107188D01*
X0361700Y0109324D01*
X0360632Y0110391D01*
X0356362Y0110391D01*
X0358497Y0103946D02*
X0358497Y0099675D01*
X0358497Y0097500D02*
X0358497Y0093230D01*
X0355295Y0096433D01*
X0361700Y0096433D01*
X0361700Y0091055D02*
X0359565Y0088920D01*
X0359565Y0089987D02*
X0359565Y0086784D01*
X0361700Y0086784D02*
X0355295Y0086784D01*
X0355295Y0089987D01*
X0356362Y0091055D01*
X0358497Y0091055D01*
X0359565Y0089987D01*
X0380295Y0095378D02*
X0380295Y0098581D01*
X0381362Y0099649D01*
X0383497Y0099649D01*
X0384565Y0098581D01*
X0384565Y0095378D01*
X0386700Y0095378D02*
X0380295Y0095378D01*
X0384565Y0097514D02*
X0386700Y0099649D01*
X0383497Y0101824D02*
X0383497Y0106094D01*
X0383497Y0108269D02*
X0383497Y0112540D01*
X0380295Y0114715D02*
X0380295Y0116850D01*
X0380295Y0115783D02*
X0386700Y0115783D01*
X0386700Y0116850D02*
X0386700Y0114715D01*
X0386700Y0119012D02*
X0380295Y0119012D01*
X0386700Y0123282D01*
X0380295Y0123282D01*
X0361700Y0121147D02*
X0355295Y0121147D01*
X0355295Y0119012D02*
X0355295Y0123282D01*
X0380295Y0105027D02*
X0383497Y0101824D01*
X0386700Y0105027D02*
X0380295Y0105027D01*
X0415295Y0107188D02*
X0416362Y0106121D01*
X0420632Y0106121D01*
X0421700Y0107188D01*
X0421700Y0109324D01*
X0420632Y0110391D01*
X0416362Y0110391D01*
X0415295Y0109324D01*
X0415295Y0107188D01*
X0418497Y0103946D02*
X0418497Y0099675D01*
X0418497Y0097500D02*
X0420632Y0097500D01*
X0421700Y0096433D01*
X0421700Y0094298D01*
X0420632Y0093230D01*
X0418497Y0093230D02*
X0417430Y0095365D01*
X0417430Y0096433D01*
X0418497Y0097500D01*
X0415295Y0097500D02*
X0415295Y0093230D01*
X0418497Y0093230D01*
X0418497Y0091055D02*
X0419565Y0089987D01*
X0419565Y0086784D01*
X0421700Y0086784D02*
X0415295Y0086784D01*
X0415295Y0089987D01*
X0416362Y0091055D01*
X0418497Y0091055D01*
X0419565Y0088920D02*
X0421700Y0091055D01*
X0440295Y0095378D02*
X0440295Y0098581D01*
X0441362Y0099649D01*
X0443497Y0099649D01*
X0444565Y0098581D01*
X0444565Y0095378D01*
X0446700Y0095378D02*
X0440295Y0095378D01*
X0444565Y0097514D02*
X0446700Y0099649D01*
X0445632Y0101824D02*
X0446700Y0102892D01*
X0446700Y0105027D01*
X0445632Y0106094D01*
X0443497Y0106094D01*
X0442430Y0105027D01*
X0442430Y0103959D01*
X0443497Y0101824D01*
X0440295Y0101824D01*
X0440295Y0106094D01*
X0443497Y0108269D02*
X0443497Y0112540D01*
X0440295Y0114715D02*
X0440295Y0116850D01*
X0440295Y0115783D02*
X0446700Y0115783D01*
X0446700Y0116850D02*
X0446700Y0114715D01*
X0446700Y0119012D02*
X0440295Y0119012D01*
X0446700Y0123282D01*
X0440295Y0123282D01*
X0421700Y0121147D02*
X0415295Y0121147D01*
X0415295Y0119012D02*
X0415295Y0123282D01*
X0415295Y0116837D02*
X0420632Y0116837D01*
X0421700Y0115769D01*
X0421700Y0113634D01*
X0420632Y0112566D01*
X0415295Y0112566D01*
X0475295Y0112566D02*
X0480632Y0112566D01*
X0481700Y0113634D01*
X0481700Y0115769D01*
X0480632Y0116837D01*
X0475295Y0116837D01*
X0475295Y0119012D02*
X0475295Y0123282D01*
X0475295Y0121147D02*
X0481700Y0121147D01*
X0480632Y0110391D02*
X0476362Y0110391D01*
X0475295Y0109324D01*
X0475295Y0107188D01*
X0476362Y0106121D01*
X0480632Y0106121D01*
X0481700Y0107188D01*
X0481700Y0109324D01*
X0480632Y0110391D01*
X0478497Y0103946D02*
X0478497Y0099675D01*
X0479565Y0097500D02*
X0478497Y0096433D01*
X0478497Y0093230D01*
X0480632Y0093230D01*
X0481700Y0094298D01*
X0481700Y0096433D01*
X0480632Y0097500D01*
X0479565Y0097500D01*
X0476362Y0095365D02*
X0478497Y0093230D01*
X0478497Y0091055D02*
X0479565Y0089987D01*
X0479565Y0086784D01*
X0481700Y0086784D02*
X0475295Y0086784D01*
X0475295Y0089987D01*
X0476362Y0091055D01*
X0478497Y0091055D01*
X0479565Y0088920D02*
X0481700Y0091055D01*
X0476362Y0095365D02*
X0475295Y0097500D01*
X0500295Y0098581D02*
X0500295Y0095378D01*
X0506700Y0095378D01*
X0504565Y0095378D02*
X0504565Y0098581D01*
X0503497Y0099649D01*
X0501362Y0099649D01*
X0500295Y0098581D01*
X0504565Y0097514D02*
X0506700Y0099649D01*
X0505632Y0101824D02*
X0506700Y0102892D01*
X0506700Y0105027D01*
X0505632Y0106094D01*
X0504565Y0106094D01*
X0503497Y0105027D01*
X0503497Y0101824D01*
X0505632Y0101824D01*
X0503497Y0101824D02*
X0501362Y0103959D01*
X0500295Y0106094D01*
X0503497Y0108269D02*
X0503497Y0112540D01*
X0500295Y0114715D02*
X0500295Y0116850D01*
X0500295Y0115783D02*
X0506700Y0115783D01*
X0506700Y0116850D02*
X0506700Y0114715D01*
X0506700Y0119012D02*
X0500295Y0119012D01*
X0506700Y0123282D01*
X0500295Y0123282D01*
X0535295Y0123282D02*
X0535295Y0119012D01*
X0535295Y0121147D02*
X0541700Y0121147D01*
X0540632Y0116837D02*
X0535295Y0116837D01*
X0535295Y0112566D02*
X0540632Y0112566D01*
X0541700Y0113634D01*
X0541700Y0115769D01*
X0540632Y0116837D01*
X0540632Y0110391D02*
X0536362Y0110391D01*
X0535295Y0109324D01*
X0535295Y0107188D01*
X0536362Y0106121D01*
X0540632Y0106121D01*
X0541700Y0107188D01*
X0541700Y0109324D01*
X0540632Y0110391D01*
X0538497Y0103946D02*
X0538497Y0099675D01*
X0536362Y0097500D02*
X0540632Y0093230D01*
X0541700Y0093230D01*
X0541700Y0091055D02*
X0539565Y0088920D01*
X0539565Y0089987D02*
X0539565Y0086784D01*
X0541700Y0086784D02*
X0535295Y0086784D01*
X0535295Y0089987D01*
X0536362Y0091055D01*
X0538497Y0091055D01*
X0539565Y0089987D01*
X0535295Y0093230D02*
X0535295Y0097500D01*
X0536362Y0097500D01*
X0560295Y0098581D02*
X0560295Y0095378D01*
X0566700Y0095378D01*
X0564565Y0095378D02*
X0564565Y0098581D01*
X0563497Y0099649D01*
X0561362Y0099649D01*
X0560295Y0098581D01*
X0560295Y0101824D02*
X0560295Y0106094D01*
X0561362Y0106094D01*
X0565632Y0101824D01*
X0566700Y0101824D01*
X0566700Y0099649D02*
X0564565Y0097514D01*
X0563497Y0108269D02*
X0563497Y0112540D01*
X0560295Y0114715D02*
X0560295Y0116850D01*
X0560295Y0115783D02*
X0566700Y0115783D01*
X0566700Y0116850D02*
X0566700Y0114715D01*
X0566700Y0119012D02*
X0560295Y0119012D01*
X0566700Y0123282D01*
X0560295Y0123282D01*
X0287500Y0193000D02*
X0264500Y0193000D01*
X0264500Y0223000D01*
X0272000Y0223000D01*
X0272002Y0222874D01*
X0272008Y0222749D01*
X0272018Y0222624D01*
X0272032Y0222499D01*
X0272049Y0222374D01*
X0272071Y0222250D01*
X0272096Y0222127D01*
X0272126Y0222005D01*
X0272159Y0221884D01*
X0272196Y0221764D01*
X0272236Y0221645D01*
X0272281Y0221528D01*
X0272329Y0221411D01*
X0272381Y0221297D01*
X0272436Y0221184D01*
X0272495Y0221073D01*
X0272557Y0220964D01*
X0272623Y0220857D01*
X0272692Y0220752D01*
X0272764Y0220649D01*
X0272839Y0220548D01*
X0272918Y0220450D01*
X0273000Y0220355D01*
X0273084Y0220262D01*
X0273172Y0220172D01*
X0273262Y0220084D01*
X0273355Y0220000D01*
X0273450Y0219918D01*
X0273548Y0219839D01*
X0273649Y0219764D01*
X0273752Y0219692D01*
X0273857Y0219623D01*
X0273964Y0219557D01*
X0274073Y0219495D01*
X0274184Y0219436D01*
X0274297Y0219381D01*
X0274411Y0219329D01*
X0274528Y0219281D01*
X0274645Y0219236D01*
X0274764Y0219196D01*
X0274884Y0219159D01*
X0275005Y0219126D01*
X0275127Y0219096D01*
X0275250Y0219071D01*
X0275374Y0219049D01*
X0275499Y0219032D01*
X0275624Y0219018D01*
X0275749Y0219008D01*
X0275874Y0219002D01*
X0276000Y0219000D01*
X0276126Y0219002D01*
X0276251Y0219008D01*
X0276376Y0219018D01*
X0276501Y0219032D01*
X0276626Y0219049D01*
X0276750Y0219071D01*
X0276873Y0219096D01*
X0276995Y0219126D01*
X0277116Y0219159D01*
X0277236Y0219196D01*
X0277355Y0219236D01*
X0277472Y0219281D01*
X0277589Y0219329D01*
X0277703Y0219381D01*
X0277816Y0219436D01*
X0277927Y0219495D01*
X0278036Y0219557D01*
X0278143Y0219623D01*
X0278248Y0219692D01*
X0278351Y0219764D01*
X0278452Y0219839D01*
X0278550Y0219918D01*
X0278645Y0220000D01*
X0278738Y0220084D01*
X0278828Y0220172D01*
X0278916Y0220262D01*
X0279000Y0220355D01*
X0279082Y0220450D01*
X0279161Y0220548D01*
X0279236Y0220649D01*
X0279308Y0220752D01*
X0279377Y0220857D01*
X0279443Y0220964D01*
X0279505Y0221073D01*
X0279564Y0221184D01*
X0279619Y0221297D01*
X0279671Y0221411D01*
X0279719Y0221528D01*
X0279764Y0221645D01*
X0279804Y0221764D01*
X0279841Y0221884D01*
X0279874Y0222005D01*
X0279904Y0222127D01*
X0279929Y0222250D01*
X0279951Y0222374D01*
X0279968Y0222499D01*
X0279982Y0222624D01*
X0279992Y0222749D01*
X0279998Y0222874D01*
X0280000Y0223000D01*
X0287500Y0223000D01*
X0287500Y0193000D01*
X0355295Y0316784D02*
X0355295Y0319987D01*
X0356362Y0321055D01*
X0358497Y0321055D01*
X0359565Y0319987D01*
X0359565Y0316784D01*
X0361700Y0316784D02*
X0355295Y0316784D01*
X0359565Y0318920D02*
X0361700Y0321055D01*
X0360632Y0323230D02*
X0361700Y0324298D01*
X0361700Y0326433D01*
X0360632Y0327500D01*
X0359565Y0327500D01*
X0358497Y0326433D01*
X0358497Y0325365D01*
X0358497Y0326433D02*
X0357430Y0327500D01*
X0356362Y0327500D01*
X0355295Y0326433D01*
X0355295Y0324298D01*
X0356362Y0323230D01*
X0358497Y0329675D02*
X0358497Y0333946D01*
X0356362Y0336121D02*
X0360632Y0336121D01*
X0361700Y0337188D01*
X0361700Y0339324D01*
X0360632Y0340391D01*
X0356362Y0340391D01*
X0355295Y0339324D01*
X0355295Y0337188D01*
X0356362Y0336121D01*
X0355295Y0342566D02*
X0360632Y0342566D01*
X0361700Y0343634D01*
X0361700Y0345769D01*
X0360632Y0346837D01*
X0355295Y0346837D01*
X0355295Y0349012D02*
X0355295Y0353282D01*
X0355295Y0351147D02*
X0361700Y0351147D01*
X0380295Y0349012D02*
X0386700Y0353282D01*
X0380295Y0353282D01*
X0380295Y0349012D02*
X0386700Y0349012D01*
X0386700Y0346850D02*
X0386700Y0344715D01*
X0386700Y0345783D02*
X0380295Y0345783D01*
X0380295Y0346850D02*
X0380295Y0344715D01*
X0383497Y0342540D02*
X0383497Y0338269D01*
X0382430Y0336094D02*
X0381362Y0336094D01*
X0380295Y0335027D01*
X0380295Y0332892D01*
X0381362Y0331824D01*
X0381362Y0329649D02*
X0383497Y0329649D01*
X0384565Y0328581D01*
X0384565Y0325378D01*
X0386700Y0325378D02*
X0380295Y0325378D01*
X0380295Y0328581D01*
X0381362Y0329649D01*
X0384565Y0327514D02*
X0386700Y0329649D01*
X0385632Y0331824D02*
X0386700Y0332892D01*
X0386700Y0335027D01*
X0385632Y0336094D01*
X0384565Y0336094D01*
X0383497Y0335027D01*
X0383497Y0333959D01*
X0383497Y0335027D02*
X0382430Y0336094D01*
X0415295Y0337188D02*
X0416362Y0336121D01*
X0420632Y0336121D01*
X0421700Y0337188D01*
X0421700Y0339324D01*
X0420632Y0340391D01*
X0416362Y0340391D01*
X0415295Y0339324D01*
X0415295Y0337188D01*
X0418497Y0333946D02*
X0418497Y0329675D01*
X0417430Y0327500D02*
X0416362Y0327500D01*
X0415295Y0326433D01*
X0415295Y0324298D01*
X0416362Y0323230D01*
X0416362Y0321055D02*
X0418497Y0321055D01*
X0419565Y0319987D01*
X0419565Y0316784D01*
X0421700Y0316784D02*
X0415295Y0316784D01*
X0415295Y0319987D01*
X0416362Y0321055D01*
X0419565Y0318920D02*
X0421700Y0321055D01*
X0421700Y0323230D02*
X0417430Y0327500D01*
X0421700Y0327500D02*
X0421700Y0323230D01*
X0440295Y0325378D02*
X0440295Y0328581D01*
X0441362Y0329649D01*
X0443497Y0329649D01*
X0444565Y0328581D01*
X0444565Y0325378D01*
X0446700Y0325378D02*
X0440295Y0325378D01*
X0444565Y0327514D02*
X0446700Y0329649D01*
X0446700Y0331824D02*
X0442430Y0336094D01*
X0441362Y0336094D01*
X0440295Y0335027D01*
X0440295Y0332892D01*
X0441362Y0331824D01*
X0446700Y0331824D02*
X0446700Y0336094D01*
X0443497Y0338269D02*
X0443497Y0342540D01*
X0440295Y0344715D02*
X0440295Y0346850D01*
X0440295Y0345783D02*
X0446700Y0345783D01*
X0446700Y0346850D02*
X0446700Y0344715D01*
X0446700Y0349012D02*
X0440295Y0349012D01*
X0446700Y0353282D01*
X0440295Y0353282D01*
X0421700Y0351147D02*
X0415295Y0351147D01*
X0415295Y0349012D02*
X0415295Y0353282D01*
X0415295Y0346837D02*
X0420632Y0346837D01*
X0421700Y0345769D01*
X0421700Y0343634D01*
X0420632Y0342566D01*
X0415295Y0342566D01*
X0475295Y0342566D02*
X0480632Y0342566D01*
X0481700Y0343634D01*
X0481700Y0345769D01*
X0480632Y0346837D01*
X0475295Y0346837D01*
X0475295Y0349012D02*
X0475295Y0353282D01*
X0475295Y0351147D02*
X0481700Y0351147D01*
X0480632Y0340391D02*
X0476362Y0340391D01*
X0475295Y0339324D01*
X0475295Y0337188D01*
X0476362Y0336121D01*
X0480632Y0336121D01*
X0481700Y0337188D01*
X0481700Y0339324D01*
X0480632Y0340391D01*
X0478497Y0333946D02*
X0478497Y0329675D01*
X0481700Y0327500D02*
X0481700Y0323230D01*
X0481700Y0325365D02*
X0475295Y0325365D01*
X0477430Y0323230D01*
X0478497Y0321055D02*
X0476362Y0321055D01*
X0475295Y0319987D01*
X0475295Y0316784D01*
X0481700Y0316784D01*
X0479565Y0316784D02*
X0479565Y0319987D01*
X0478497Y0321055D01*
X0479565Y0318920D02*
X0481700Y0321055D01*
X0500295Y0325378D02*
X0500295Y0328581D01*
X0501362Y0329649D01*
X0503497Y0329649D01*
X0504565Y0328581D01*
X0504565Y0325378D01*
X0506700Y0325378D02*
X0500295Y0325378D01*
X0504565Y0327514D02*
X0506700Y0329649D01*
X0506700Y0331824D02*
X0506700Y0336094D01*
X0506700Y0333959D02*
X0500295Y0333959D01*
X0502430Y0331824D01*
X0503497Y0338269D02*
X0503497Y0342540D01*
X0500295Y0344715D02*
X0500295Y0346850D01*
X0500295Y0345783D02*
X0506700Y0345783D01*
X0506700Y0346850D02*
X0506700Y0344715D01*
X0506700Y0349012D02*
X0500295Y0349012D01*
X0506700Y0353282D01*
X0500295Y0353282D01*
X0535295Y0353282D02*
X0535295Y0349012D01*
X0535295Y0351147D02*
X0541700Y0351147D01*
X0540632Y0346837D02*
X0535295Y0346837D01*
X0535295Y0342566D02*
X0540632Y0342566D01*
X0541700Y0343634D01*
X0541700Y0345769D01*
X0540632Y0346837D01*
X0540632Y0340391D02*
X0536362Y0340391D01*
X0535295Y0339324D01*
X0535295Y0337188D01*
X0536362Y0336121D01*
X0540632Y0336121D01*
X0541700Y0337188D01*
X0541700Y0339324D01*
X0540632Y0340391D01*
X0538497Y0333946D02*
X0538497Y0329675D01*
X0536362Y0327500D02*
X0540632Y0323230D01*
X0541700Y0324298D01*
X0541700Y0326433D01*
X0540632Y0327500D01*
X0536362Y0327500D01*
X0535295Y0326433D01*
X0535295Y0324298D01*
X0536362Y0323230D01*
X0540632Y0323230D01*
X0541700Y0321055D02*
X0539565Y0318920D01*
X0539565Y0319987D02*
X0539565Y0316784D01*
X0541700Y0316784D02*
X0535295Y0316784D01*
X0535295Y0319987D01*
X0536362Y0321055D01*
X0538497Y0321055D01*
X0539565Y0319987D01*
X0560295Y0325378D02*
X0560295Y0328581D01*
X0561362Y0329649D01*
X0563497Y0329649D01*
X0564565Y0328581D01*
X0564565Y0325378D01*
X0566700Y0325378D02*
X0560295Y0325378D01*
X0564565Y0327514D02*
X0566700Y0329649D01*
X0565632Y0331824D02*
X0561362Y0336094D01*
X0565632Y0336094D01*
X0566700Y0335027D01*
X0566700Y0332892D01*
X0565632Y0331824D01*
X0561362Y0331824D01*
X0560295Y0332892D01*
X0560295Y0335027D01*
X0561362Y0336094D01*
X0563497Y0338269D02*
X0563497Y0342540D01*
X0560295Y0344715D02*
X0560295Y0346850D01*
X0560295Y0345783D02*
X0566700Y0345783D01*
X0566700Y0346850D02*
X0566700Y0344715D01*
X0566700Y0349012D02*
X0560295Y0349012D01*
X0566700Y0353282D01*
X0560295Y0353282D01*
X0334700Y0351890D02*
X0328295Y0351890D01*
X0328295Y0349755D02*
X0328295Y0354025D01*
X0327227Y0356200D02*
X0331497Y0356200D01*
X0333632Y0356200D02*
X0334700Y0356200D01*
X0324700Y0358322D02*
X0324700Y0354052D01*
X0318295Y0354052D01*
X0318295Y0358322D01*
X0321497Y0356187D02*
X0321497Y0354052D01*
D12*
X0395000Y0350000D02*
X0395000Y0339724D01*
X0395000Y0337017D02*
X0395000Y0336526D01*
X0395000Y0333819D02*
X0395000Y0323543D01*
X0395000Y0320836D02*
X0395000Y0320345D01*
X0395000Y0317638D02*
X0395000Y0307362D01*
X0395000Y0304655D02*
X0395000Y0304164D01*
X0395000Y0301457D02*
X0395000Y0291181D01*
X0395000Y0288474D02*
X0395000Y0287983D01*
X0395000Y0285276D02*
X0395000Y0275000D01*
X0405571Y0275000D01*
X0408278Y0275000D02*
X0408769Y0275000D01*
X0411476Y0275000D02*
X0422047Y0275000D01*
X0424755Y0275000D02*
X0425245Y0275000D01*
X0427953Y0275000D02*
X0438524Y0275000D01*
X0441231Y0275000D02*
X0441722Y0275000D01*
X0444429Y0275000D02*
X0455000Y0275000D01*
X0455000Y0285276D01*
X0455000Y0287983D02*
X0455000Y0288474D01*
X0455000Y0291181D02*
X0455000Y0301457D01*
X0455000Y0304164D02*
X0455000Y0304655D01*
X0455000Y0307362D02*
X0455000Y0317638D01*
X0455000Y0320345D02*
X0455000Y0320836D01*
X0455000Y0323543D02*
X0455000Y0333819D01*
X0455000Y0336526D02*
X0455000Y0337017D01*
X0455000Y0339724D02*
X0455000Y0350000D01*
X0515000Y0350000D02*
X0515000Y0339724D01*
X0515000Y0337017D02*
X0515000Y0336526D01*
X0515000Y0333819D02*
X0515000Y0323543D01*
X0515000Y0320836D02*
X0515000Y0320345D01*
X0515000Y0317638D02*
X0515000Y0307362D01*
X0515000Y0304655D02*
X0515000Y0304164D01*
X0515000Y0301457D02*
X0515000Y0291181D01*
X0515000Y0288474D02*
X0515000Y0287983D01*
X0515000Y0285276D02*
X0515000Y0275000D01*
X0525652Y0275000D01*
X0528360Y0275000D02*
X0528850Y0275000D01*
X0531558Y0275000D02*
X0542210Y0275000D01*
X0544918Y0275000D02*
X0545408Y0275000D01*
X0548116Y0275000D02*
X0558768Y0275000D01*
X0561476Y0275000D02*
X0561966Y0275000D01*
X0564674Y0275000D02*
X0575326Y0275000D01*
X0578034Y0275000D02*
X0578524Y0275000D01*
X0581232Y0275000D02*
X0591884Y0275000D01*
X0594592Y0275000D02*
X0595082Y0275000D01*
X0597790Y0275000D02*
X0608442Y0275000D01*
X0611150Y0275000D02*
X0611640Y0275000D01*
X0614348Y0275000D02*
X0625000Y0275000D01*
X0515000Y0275000D02*
X0504429Y0275000D01*
X0501722Y0275000D02*
X0501231Y0275000D01*
X0498524Y0275000D02*
X0487953Y0275000D01*
X0485245Y0275000D02*
X0484755Y0275000D01*
X0482047Y0275000D02*
X0471476Y0275000D01*
X0468769Y0275000D02*
X0468278Y0275000D01*
X0465571Y0275000D02*
X0455000Y0275000D01*
X0395000Y0275000D02*
X0383724Y0275000D01*
X0381017Y0275000D02*
X0380526Y0275000D01*
X0377819Y0275000D02*
X0366543Y0275000D01*
X0363836Y0275000D02*
X0363345Y0275000D01*
X0360638Y0275000D02*
X0349362Y0275000D01*
X0346655Y0275000D02*
X0346164Y0275000D01*
X0343457Y0275000D02*
X0332181Y0275000D01*
X0329474Y0275000D02*
X0328983Y0275000D01*
X0326276Y0275000D02*
X0315000Y0275000D01*
X0194020Y0326102D02*
X0191020Y0326102D01*
X0315000Y0185000D02*
X0326276Y0185000D01*
X0328983Y0185000D02*
X0329474Y0185000D01*
X0332181Y0185000D02*
X0343457Y0185000D01*
X0346164Y0185000D02*
X0346655Y0185000D01*
X0349362Y0185000D02*
X0360638Y0185000D01*
X0363345Y0185000D02*
X0363836Y0185000D01*
X0366543Y0185000D02*
X0377819Y0185000D01*
X0380526Y0185000D02*
X0381017Y0185000D01*
X0383724Y0185000D02*
X0395000Y0185000D01*
X0395000Y0172724D01*
X0395000Y0170017D02*
X0395000Y0169526D01*
X0395000Y0166819D02*
X0395000Y0154543D01*
X0395000Y0151836D02*
X0395000Y0151345D01*
X0395000Y0148638D02*
X0395000Y0136362D01*
X0395000Y0133655D02*
X0395000Y0133164D01*
X0395000Y0130457D02*
X0395000Y0118181D01*
X0395000Y0115474D02*
X0395000Y0114983D01*
X0395000Y0112276D02*
X0395000Y0100000D01*
X0455000Y0100000D02*
X0455000Y0112276D01*
X0455000Y0114983D02*
X0455000Y0115474D01*
X0455000Y0118181D02*
X0455000Y0130457D01*
X0455000Y0133164D02*
X0455000Y0133655D01*
X0455000Y0136362D02*
X0455000Y0148638D01*
X0455000Y0151345D02*
X0455000Y0151836D01*
X0455000Y0154543D02*
X0455000Y0166819D01*
X0455000Y0169526D02*
X0455000Y0170017D01*
X0455000Y0172724D02*
X0455000Y0185000D01*
X0465571Y0185000D01*
X0468278Y0185000D02*
X0468769Y0185000D01*
X0471476Y0185000D02*
X0482047Y0185000D01*
X0484755Y0185000D02*
X0485245Y0185000D01*
X0487953Y0185000D02*
X0498524Y0185000D01*
X0501231Y0185000D02*
X0501722Y0185000D01*
X0504429Y0185000D02*
X0515000Y0185000D01*
X0515000Y0172724D01*
X0515000Y0170017D02*
X0515000Y0169526D01*
X0515000Y0166819D02*
X0515000Y0154543D01*
X0515000Y0151836D02*
X0515000Y0151345D01*
X0515000Y0148638D02*
X0515000Y0136362D01*
X0515000Y0133655D02*
X0515000Y0133164D01*
X0515000Y0130457D02*
X0515000Y0118181D01*
X0515000Y0115474D02*
X0515000Y0114983D01*
X0515000Y0112276D02*
X0515000Y0100000D01*
X0515000Y0185000D02*
X0525652Y0185000D01*
X0528360Y0185000D02*
X0528850Y0185000D01*
X0531558Y0185000D02*
X0542210Y0185000D01*
X0544918Y0185000D02*
X0545408Y0185000D01*
X0548116Y0185000D02*
X0558768Y0185000D01*
X0561476Y0185000D02*
X0561966Y0185000D01*
X0564674Y0185000D02*
X0575326Y0185000D01*
X0578034Y0185000D02*
X0578524Y0185000D01*
X0581232Y0185000D02*
X0591884Y0185000D01*
X0594592Y0185000D02*
X0595082Y0185000D01*
X0597790Y0185000D02*
X0608442Y0185000D01*
X0611150Y0185000D02*
X0611640Y0185000D01*
X0614348Y0185000D02*
X0625000Y0185000D01*
X0455000Y0185000D02*
X0444429Y0185000D01*
X0441722Y0185000D02*
X0441231Y0185000D01*
X0438524Y0185000D02*
X0427953Y0185000D01*
X0425245Y0185000D02*
X0424755Y0185000D01*
X0422047Y0185000D02*
X0411476Y0185000D01*
X0408769Y0185000D02*
X0408278Y0185000D01*
X0405571Y0185000D02*
X0395000Y0185000D01*
D13*
X0231756Y0182350D02*
X0231756Y0180669D01*
X0227606Y0180669D01*
X0231756Y0187650D02*
X0231756Y0189331D01*
X0227606Y0189331D01*
X0227606Y0196669D02*
X0231756Y0196669D01*
X0231756Y0198350D01*
X0231756Y0203650D02*
X0231756Y0205331D01*
X0227606Y0205331D01*
X0196500Y0204500D02*
X0194000Y0202000D01*
X0179000Y0202000D01*
X0176500Y0199500D01*
X0176500Y0194500D01*
X0179000Y0192000D01*
X0194000Y0192000D01*
X0196500Y0189500D01*
X0196500Y0184500D01*
X0194000Y0182000D01*
X0196500Y0179500D01*
X0196500Y0174500D01*
X0194000Y0172000D01*
X0179000Y0172000D01*
X0176500Y0169500D01*
X0176500Y0164500D01*
X0179000Y0162000D01*
X0194000Y0162000D01*
X0196500Y0159500D01*
X0196500Y0154500D01*
X0194000Y0152000D01*
X0179000Y0152000D01*
X0176500Y0154500D01*
X0176500Y0159500D01*
X0179000Y0162000D01*
X0194000Y0162000D02*
X0196500Y0164500D01*
X0196500Y0169500D01*
X0194000Y0172000D01*
X0194000Y0182000D02*
X0179000Y0182000D01*
X0176500Y0179500D01*
X0176500Y0174500D01*
X0179000Y0172000D01*
X0179000Y0182000D02*
X0176500Y0184500D01*
X0176500Y0189500D01*
X0179000Y0192000D01*
X0194000Y0192000D02*
X0196500Y0194500D01*
X0196500Y0199500D01*
X0194000Y0202000D01*
X0196500Y0204500D02*
X0196500Y0209500D01*
X0194000Y0212000D01*
X0179000Y0212000D01*
X0176500Y0209500D01*
X0176500Y0204500D01*
X0179000Y0202000D01*
X0179000Y0212000D02*
X0176500Y0214500D01*
X0176500Y0219500D01*
X0179000Y0222000D01*
X0194000Y0222000D01*
X0196500Y0219500D01*
X0196500Y0214500D01*
X0194000Y0212000D01*
X0194000Y0222000D02*
X0196500Y0224500D01*
X0196500Y0229500D01*
X0194000Y0232000D01*
X0179000Y0232000D01*
X0176500Y0229500D01*
X0176500Y0224500D01*
X0179000Y0222000D01*
X0179000Y0232000D02*
X0176500Y0234500D01*
X0176500Y0239500D01*
X0179000Y0242000D01*
X0194000Y0242000D01*
X0196500Y0239500D01*
X0196500Y0234500D01*
X0194000Y0232000D01*
X0194000Y0242000D02*
X0196500Y0244500D01*
X0196500Y0249500D01*
X0194000Y0252000D01*
X0179000Y0252000D01*
X0176500Y0249500D01*
X0176500Y0244500D01*
X0179000Y0242000D01*
X0179000Y0252000D02*
X0176500Y0254500D01*
X0176500Y0259500D01*
X0179000Y0262000D01*
X0194000Y0262000D01*
X0196500Y0259500D01*
X0196500Y0254500D01*
X0194000Y0252000D01*
X0194000Y0262000D02*
X0196500Y0264500D01*
X0196500Y0269500D01*
X0194000Y0272000D01*
X0179000Y0272000D01*
X0176500Y0269500D01*
X0176500Y0264500D01*
X0179000Y0262000D01*
X0175181Y0264500D02*
X0175181Y0269500D01*
X0227606Y0275669D02*
X0231756Y0275669D01*
X0231756Y0277350D01*
X0231756Y0282650D02*
X0231756Y0284331D01*
X0227606Y0284331D01*
X0227606Y0292669D02*
X0231756Y0292669D01*
X0231756Y0294350D01*
X0231756Y0299650D02*
X0231756Y0301331D01*
X0227606Y0301331D01*
X0227606Y0309669D02*
X0231756Y0309669D01*
X0231756Y0311350D01*
X0231756Y0316650D02*
X0231756Y0318331D01*
X0227606Y0318331D01*
X0139280Y0315189D02*
X0139280Y0313220D01*
X0137311Y0313220D01*
X0112689Y0313220D02*
X0110720Y0315189D01*
X0080846Y0301969D02*
X0080846Y0298031D01*
X0074154Y0298031D02*
X0074154Y0301969D01*
X0081444Y0288700D02*
X0085400Y0288700D01*
X0085400Y0288500D02*
X0085402Y0288402D01*
X0085408Y0288304D01*
X0085417Y0288206D01*
X0085431Y0288109D01*
X0085448Y0288012D01*
X0085469Y0287916D01*
X0085494Y0287821D01*
X0085522Y0287727D01*
X0085555Y0287635D01*
X0085590Y0287543D01*
X0085630Y0287453D01*
X0085672Y0287365D01*
X0085719Y0287278D01*
X0085768Y0287194D01*
X0085821Y0287111D01*
X0085877Y0287031D01*
X0085937Y0286952D01*
X0085999Y0286876D01*
X0086064Y0286803D01*
X0086132Y0286732D01*
X0086203Y0286664D01*
X0086276Y0286599D01*
X0086352Y0286537D01*
X0086431Y0286477D01*
X0086511Y0286421D01*
X0086594Y0286368D01*
X0086678Y0286319D01*
X0086765Y0286272D01*
X0086853Y0286230D01*
X0086943Y0286190D01*
X0087035Y0286155D01*
X0087127Y0286122D01*
X0087221Y0286094D01*
X0087316Y0286069D01*
X0087412Y0286048D01*
X0087509Y0286031D01*
X0087606Y0286017D01*
X0087704Y0286008D01*
X0087802Y0286002D01*
X0087900Y0286000D01*
X0087998Y0286002D01*
X0088096Y0286008D01*
X0088194Y0286017D01*
X0088291Y0286031D01*
X0088388Y0286048D01*
X0088484Y0286069D01*
X0088579Y0286094D01*
X0088673Y0286122D01*
X0088765Y0286155D01*
X0088857Y0286190D01*
X0088947Y0286230D01*
X0089035Y0286272D01*
X0089122Y0286319D01*
X0089206Y0286368D01*
X0089289Y0286421D01*
X0089369Y0286477D01*
X0089448Y0286537D01*
X0089524Y0286599D01*
X0089597Y0286664D01*
X0089668Y0286732D01*
X0089736Y0286803D01*
X0089801Y0286876D01*
X0089863Y0286952D01*
X0089923Y0287031D01*
X0089979Y0287111D01*
X0090032Y0287194D01*
X0090081Y0287278D01*
X0090128Y0287365D01*
X0090170Y0287453D01*
X0090210Y0287543D01*
X0090245Y0287635D01*
X0090278Y0287727D01*
X0090306Y0287821D01*
X0090331Y0287916D01*
X0090352Y0288012D01*
X0090369Y0288109D01*
X0090383Y0288206D01*
X0090392Y0288304D01*
X0090398Y0288402D01*
X0090400Y0288500D01*
X0090400Y0288700D02*
X0093719Y0288700D01*
X0093769Y0288701D02*
X0093850Y0288708D01*
X0093931Y0288712D01*
X0094012Y0288711D01*
X0094094Y0288707D01*
X0094174Y0288699D01*
X0094255Y0288687D01*
X0094335Y0288672D01*
X0094414Y0288652D01*
X0094492Y0288629D01*
X0094568Y0288602D01*
X0094644Y0288572D01*
X0094718Y0288538D01*
X0094790Y0288500D01*
X0094860Y0288459D01*
X0094928Y0288415D01*
X0094994Y0288368D01*
X0095058Y0288317D01*
X0095119Y0288264D01*
X0095178Y0288207D01*
X0095234Y0288148D01*
X0095287Y0288087D01*
X0095337Y0288023D01*
X0095384Y0287956D01*
X0095428Y0287888D01*
X0095468Y0287817D01*
X0095505Y0287745D01*
X0095539Y0287671D01*
X0095568Y0287595D01*
X0095595Y0287518D01*
X0095617Y0287440D01*
X0095636Y0287361D01*
X0095651Y0287281D01*
X0095663Y0287200D01*
X0095663Y0268800D01*
X0095661Y0268724D01*
X0095655Y0268649D01*
X0095646Y0268573D01*
X0095632Y0268498D01*
X0095615Y0268424D01*
X0095594Y0268351D01*
X0095570Y0268279D01*
X0095542Y0268209D01*
X0095510Y0268140D01*
X0095475Y0268072D01*
X0095436Y0268007D01*
X0095394Y0267943D01*
X0095349Y0267882D01*
X0095301Y0267823D01*
X0095250Y0267767D01*
X0095196Y0267713D01*
X0095140Y0267662D01*
X0095081Y0267614D01*
X0095020Y0267569D01*
X0094956Y0267527D01*
X0094891Y0267488D01*
X0094823Y0267453D01*
X0094754Y0267421D01*
X0094684Y0267393D01*
X0094612Y0267369D01*
X0094539Y0267348D01*
X0094465Y0267331D01*
X0094390Y0267317D01*
X0094314Y0267308D01*
X0094239Y0267302D01*
X0094163Y0267300D01*
X0081837Y0267300D01*
X0081838Y0267300D02*
X0081767Y0267291D01*
X0081696Y0267286D01*
X0081624Y0267285D01*
X0081553Y0267288D01*
X0081482Y0267295D01*
X0081411Y0267305D01*
X0081342Y0267319D01*
X0081272Y0267338D01*
X0081204Y0267359D01*
X0081138Y0267385D01*
X0081073Y0267414D01*
X0081009Y0267446D01*
X0080947Y0267482D01*
X0080888Y0267521D01*
X0080830Y0267564D01*
X0080775Y0267609D01*
X0080723Y0267658D01*
X0080673Y0267709D01*
X0080626Y0267762D01*
X0080582Y0267819D01*
X0080541Y0267877D01*
X0080503Y0267938D01*
X0080469Y0268000D01*
X0080438Y0268065D01*
X0080411Y0268131D01*
X0080387Y0268198D01*
X0080367Y0268266D01*
X0080350Y0268336D01*
X0080338Y0268406D01*
X0080337Y0268406D02*
X0080337Y0287200D01*
X0080338Y0287200D02*
X0080329Y0287270D01*
X0080324Y0287342D01*
X0080323Y0287413D01*
X0080326Y0287484D01*
X0080333Y0287555D01*
X0080343Y0287626D01*
X0080357Y0287696D01*
X0080375Y0287765D01*
X0080397Y0287833D01*
X0080423Y0287900D01*
X0080452Y0287965D01*
X0080484Y0288028D01*
X0080520Y0288090D01*
X0080559Y0288150D01*
X0080602Y0288207D01*
X0080647Y0288262D01*
X0080695Y0288315D01*
X0080747Y0288365D01*
X0080800Y0288412D01*
X0080856Y0288456D01*
X0080915Y0288496D01*
X0080976Y0288534D01*
X0081038Y0288568D01*
X0081102Y0288599D01*
X0081168Y0288627D01*
X0081236Y0288650D01*
X0081304Y0288670D01*
X0081374Y0288687D01*
X0081444Y0288699D01*
X0053374Y0280374D02*
X0053374Y0264626D01*
X0048937Y0257630D02*
X0036626Y0257630D01*
X0036626Y0287370D01*
X0048937Y0287370D01*
X0055809Y0240000D02*
X0059191Y0240000D01*
X0060291Y0236057D02*
X0060291Y0233943D01*
X0059191Y0230000D02*
X0055809Y0230000D01*
X0061988Y0342244D02*
X0061988Y0345394D01*
X0061988Y0342244D02*
X0064350Y0342244D01*
X0070650Y0342244D02*
X0073012Y0342244D01*
X0073012Y0345394D01*
X0110720Y0341780D02*
X0112689Y0341780D01*
X0110720Y0341780D02*
X0110720Y0339811D01*
X0137311Y0341780D02*
X0139280Y0341780D01*
X0139280Y0339811D01*
X0227606Y0173331D02*
X0231756Y0173331D01*
X0231756Y0171650D01*
X0231756Y0166350D02*
X0231756Y0164669D01*
X0227606Y0164669D01*
X0227606Y0157331D02*
X0231756Y0157331D01*
X0231756Y0155650D01*
X0231756Y0150350D02*
X0231756Y0148669D01*
X0227606Y0148669D01*
X0227606Y0141331D02*
X0231756Y0141331D01*
X0231756Y0139650D01*
X0231756Y0134350D02*
X0231756Y0132669D01*
X0227606Y0132669D01*
D14*
X0110539Y0313039D03*
D15*
X0101933Y0325540D02*
X0100348Y0325540D01*
X0100348Y0326808D02*
X0101933Y0326808D01*
X0102250Y0326491D01*
X0102250Y0325857D01*
X0101933Y0325540D01*
X0102250Y0327750D02*
X0102250Y0329018D01*
X0102250Y0328384D02*
X0100348Y0328384D01*
X0100982Y0327750D01*
X0080250Y0319201D02*
X0078348Y0319201D01*
X0079299Y0318250D01*
X0079299Y0319518D01*
X0078665Y0317308D02*
X0078348Y0316991D01*
X0078348Y0316357D01*
X0078665Y0316040D01*
X0079933Y0316040D01*
X0080250Y0316357D01*
X0080250Y0316991D01*
X0079933Y0317308D01*
X0066518Y0312335D02*
X0066201Y0312652D01*
X0065567Y0312652D01*
X0065250Y0312335D01*
X0064308Y0312335D02*
X0063991Y0312652D01*
X0063357Y0312652D01*
X0063040Y0312335D01*
X0063040Y0311067D01*
X0063357Y0310750D01*
X0063991Y0310750D01*
X0064308Y0311067D01*
X0065250Y0310750D02*
X0066518Y0312018D01*
X0066518Y0312335D01*
X0066518Y0310750D02*
X0065250Y0310750D01*
X0071242Y0300884D02*
X0073144Y0300884D01*
X0073144Y0300250D02*
X0073144Y0301518D01*
X0071876Y0300250D02*
X0071242Y0300884D01*
X0071242Y0299308D02*
X0071559Y0299308D01*
X0072193Y0298674D01*
X0073144Y0298674D01*
X0072193Y0298674D02*
X0071559Y0298040D01*
X0071242Y0298040D01*
X0066518Y0295750D02*
X0065250Y0295750D01*
X0065884Y0295750D02*
X0065884Y0297652D01*
X0065250Y0297018D01*
X0064308Y0297335D02*
X0063991Y0297652D01*
X0063357Y0297652D01*
X0063040Y0297335D01*
X0063040Y0296067D01*
X0063357Y0295750D01*
X0063991Y0295750D01*
X0064308Y0296067D01*
X0086040Y0292652D02*
X0086040Y0291067D01*
X0086357Y0290750D01*
X0086991Y0290750D01*
X0087308Y0291067D01*
X0087308Y0292652D01*
X0088250Y0292335D02*
X0088567Y0292652D01*
X0089201Y0292652D01*
X0089518Y0292335D01*
X0089518Y0292018D01*
X0089201Y0291701D01*
X0089518Y0291384D01*
X0089518Y0291067D01*
X0089201Y0290750D01*
X0088567Y0290750D01*
X0088250Y0291067D01*
X0088884Y0291701D02*
X0089201Y0291701D01*
X0094848Y0292935D02*
X0094848Y0293886D01*
X0095165Y0294203D01*
X0095799Y0294203D01*
X0096116Y0293886D01*
X0096116Y0292935D01*
X0096750Y0292935D02*
X0094848Y0292935D01*
X0096116Y0293569D02*
X0096750Y0294203D01*
X0096433Y0295145D02*
X0096750Y0295462D01*
X0096750Y0296096D01*
X0096433Y0296413D01*
X0096116Y0296413D01*
X0095799Y0296096D01*
X0095799Y0295145D01*
X0096433Y0295145D01*
X0095799Y0295145D02*
X0095165Y0295779D01*
X0094848Y0296413D01*
X0095482Y0297355D02*
X0094848Y0297989D01*
X0096750Y0297989D01*
X0096750Y0297355D02*
X0096750Y0298623D01*
X0122748Y0287489D02*
X0124650Y0287489D01*
X0124650Y0286855D02*
X0124650Y0288123D01*
X0123382Y0286855D02*
X0122748Y0287489D01*
X0123065Y0285913D02*
X0123382Y0285913D01*
X0123699Y0285596D01*
X0123699Y0284645D01*
X0122748Y0284645D02*
X0122748Y0285596D01*
X0123065Y0285913D01*
X0123699Y0285596D02*
X0124016Y0285913D01*
X0124333Y0285913D01*
X0124650Y0285596D01*
X0124650Y0284645D01*
X0122748Y0284645D01*
X0122748Y0283703D02*
X0122748Y0282435D01*
X0124650Y0282435D01*
X0123699Y0282435D02*
X0123699Y0283069D01*
X0126348Y0283857D02*
X0126665Y0283540D01*
X0127933Y0283540D01*
X0128250Y0283857D01*
X0128250Y0284491D01*
X0127933Y0284808D01*
X0127933Y0285750D02*
X0128250Y0286067D01*
X0128250Y0286701D01*
X0127933Y0287018D01*
X0127616Y0287018D01*
X0127299Y0286701D01*
X0127299Y0286384D01*
X0127299Y0286701D02*
X0126982Y0287018D01*
X0126665Y0287018D01*
X0126348Y0286701D01*
X0126348Y0286067D01*
X0126665Y0285750D01*
X0126665Y0284808D02*
X0126348Y0284491D01*
X0126348Y0283857D01*
X0086623Y0256435D02*
X0086306Y0256752D01*
X0085672Y0256752D01*
X0085355Y0256435D01*
X0084413Y0256752D02*
X0083779Y0256435D01*
X0083145Y0255801D01*
X0084096Y0255801D01*
X0084413Y0255484D01*
X0084413Y0255167D01*
X0084096Y0254850D01*
X0083462Y0254850D01*
X0083145Y0255167D01*
X0083145Y0255801D01*
X0082203Y0255801D02*
X0081886Y0255484D01*
X0080935Y0255484D01*
X0080935Y0254850D02*
X0080935Y0256752D01*
X0081886Y0256752D01*
X0082203Y0256435D01*
X0082203Y0255801D01*
X0081569Y0255484D02*
X0082203Y0254850D01*
X0085355Y0254850D02*
X0086623Y0256118D01*
X0086623Y0256435D01*
X0086623Y0254850D02*
X0085355Y0254850D01*
X0077333Y0236518D02*
X0077650Y0236201D01*
X0077650Y0235567D01*
X0077333Y0235250D01*
X0077016Y0235250D01*
X0076699Y0235567D01*
X0076699Y0236201D01*
X0077016Y0236518D01*
X0077333Y0236518D01*
X0076699Y0236201D02*
X0076382Y0236518D01*
X0076065Y0236518D01*
X0075748Y0236201D01*
X0075748Y0235567D01*
X0076065Y0235250D01*
X0076382Y0235250D01*
X0076699Y0235567D01*
X0076065Y0234308D02*
X0075748Y0233991D01*
X0075748Y0233357D01*
X0076065Y0233040D01*
X0077333Y0233040D01*
X0077650Y0233357D01*
X0077650Y0233991D01*
X0077333Y0234308D01*
X0081100Y0232200D02*
X0083300Y0232200D01*
X0167600Y0232300D01*
X0167600Y0099300D01*
X0081300Y0099300D01*
X0081100Y0099100D02*
X0081100Y0232200D01*
X0083300Y0232200D02*
X0084700Y0232200D01*
X0072042Y0224335D02*
X0072042Y0223701D01*
X0071725Y0223384D01*
X0070775Y0223384D01*
X0071409Y0223384D02*
X0072042Y0222750D01*
X0071250Y0221875D02*
X0071250Y0218125D01*
X0065413Y0222433D02*
X0064145Y0222433D01*
X0063203Y0223067D02*
X0063203Y0224335D01*
X0062886Y0224652D01*
X0061935Y0224652D01*
X0061935Y0222750D01*
X0062886Y0222750D01*
X0063203Y0223067D01*
X0060993Y0222750D02*
X0059725Y0222750D01*
X0059725Y0224652D01*
X0060993Y0224652D01*
X0060359Y0223701D02*
X0059725Y0223701D01*
X0058783Y0222750D02*
X0057515Y0222750D01*
X0057515Y0224652D01*
X0066355Y0224652D02*
X0067306Y0224652D01*
X0067623Y0224335D01*
X0067623Y0223701D01*
X0067306Y0223384D01*
X0066355Y0223384D01*
X0066355Y0222750D02*
X0066355Y0224652D01*
X0068565Y0224652D02*
X0068565Y0222750D01*
X0069199Y0223384D01*
X0069833Y0222750D01*
X0069833Y0224652D01*
X0070775Y0224652D02*
X0071725Y0224652D01*
X0072042Y0224335D01*
X0070775Y0224652D02*
X0070775Y0222750D01*
X0049018Y0215801D02*
X0047750Y0215801D01*
X0048701Y0216752D01*
X0048701Y0214850D01*
X0046808Y0214850D02*
X0046174Y0215484D01*
X0046491Y0215484D02*
X0045540Y0215484D01*
X0045540Y0214850D02*
X0045540Y0216752D01*
X0046491Y0216752D01*
X0046808Y0216435D01*
X0046808Y0215801D01*
X0046491Y0215484D01*
X0046065Y0233040D02*
X0047333Y0233040D01*
X0047650Y0233357D01*
X0047650Y0233991D01*
X0047333Y0234308D01*
X0047333Y0235250D02*
X0047650Y0235250D01*
X0047333Y0235250D02*
X0046065Y0236518D01*
X0045748Y0236518D01*
X0045748Y0235250D01*
X0046065Y0234308D02*
X0045748Y0233991D01*
X0045748Y0233357D01*
X0046065Y0233040D01*
X0054565Y0270540D02*
X0054882Y0270540D01*
X0055199Y0270857D01*
X0055199Y0271491D01*
X0055516Y0271808D01*
X0055833Y0271808D01*
X0056150Y0271491D01*
X0056150Y0270857D01*
X0055833Y0270540D01*
X0054565Y0270540D02*
X0054248Y0270857D01*
X0054248Y0271491D01*
X0054565Y0271808D01*
X0054882Y0272750D02*
X0054248Y0273384D01*
X0056150Y0273384D01*
X0056150Y0272750D02*
X0056150Y0274018D01*
X0065748Y0273384D02*
X0067650Y0273384D01*
X0067650Y0272750D02*
X0067650Y0274018D01*
X0066382Y0272750D02*
X0065748Y0273384D01*
X0066065Y0271808D02*
X0066699Y0271808D01*
X0067016Y0271491D01*
X0067016Y0270540D01*
X0067016Y0271174D02*
X0067650Y0271808D01*
X0067650Y0270540D02*
X0065748Y0270540D01*
X0065748Y0271491D01*
X0066065Y0271808D01*
X0155540Y0320167D02*
X0155857Y0319850D01*
X0156491Y0319850D01*
X0156808Y0320167D01*
X0157750Y0320167D02*
X0158067Y0319850D01*
X0158701Y0319850D01*
X0159018Y0320167D01*
X0159018Y0320484D01*
X0158701Y0320801D01*
X0157750Y0320801D01*
X0157750Y0320167D01*
X0157750Y0320801D02*
X0158384Y0321435D01*
X0159018Y0321752D01*
X0156808Y0321435D02*
X0156491Y0321752D01*
X0155857Y0321752D01*
X0155540Y0321435D01*
X0155540Y0320167D01*
X0180248Y0334184D02*
X0180248Y0334818D01*
X0180248Y0334501D02*
X0181833Y0334501D01*
X0182150Y0334184D01*
X0182150Y0333867D01*
X0181833Y0333550D01*
X0182150Y0335760D02*
X0180882Y0337028D01*
X0180565Y0337028D01*
X0180248Y0336711D01*
X0180248Y0336077D01*
X0180565Y0335760D01*
X0182150Y0335760D02*
X0182150Y0337028D01*
X0212935Y0321152D02*
X0212935Y0319250D01*
X0212935Y0319884D02*
X0213886Y0319884D01*
X0214203Y0320201D01*
X0214203Y0320835D01*
X0213886Y0321152D01*
X0212935Y0321152D01*
X0213569Y0319884D02*
X0214203Y0319250D01*
X0215145Y0320201D02*
X0216413Y0320201D01*
X0217355Y0320201D02*
X0217355Y0321152D01*
X0218623Y0321152D01*
X0218306Y0320518D02*
X0218623Y0320201D01*
X0218623Y0319567D01*
X0218306Y0319250D01*
X0217672Y0319250D01*
X0217355Y0319567D01*
X0217355Y0320201D02*
X0217989Y0320518D01*
X0218306Y0320518D01*
X0216096Y0321152D02*
X0215145Y0320201D01*
X0216096Y0319250D02*
X0216096Y0321152D01*
X0227040Y0320835D02*
X0227357Y0321152D01*
X0227991Y0321152D01*
X0228308Y0320835D01*
X0228308Y0319567D01*
X0227991Y0319250D01*
X0227357Y0319250D01*
X0227040Y0319567D01*
X0227040Y0320835D01*
X0227674Y0319884D02*
X0228308Y0319250D01*
X0229250Y0319250D02*
X0230518Y0319250D01*
X0229884Y0319250D02*
X0229884Y0321152D01*
X0229250Y0320518D01*
X0234848Y0316306D02*
X0235799Y0315355D01*
X0235799Y0316623D01*
X0236750Y0316306D02*
X0234848Y0316306D01*
X0234848Y0313779D02*
X0236750Y0313779D01*
X0236750Y0313145D02*
X0236750Y0314413D01*
X0235482Y0313145D02*
X0234848Y0313779D01*
X0235165Y0312203D02*
X0235799Y0312203D01*
X0236116Y0311886D01*
X0236116Y0310935D01*
X0236750Y0310935D02*
X0234848Y0310935D01*
X0234848Y0311886D01*
X0235165Y0312203D01*
X0236116Y0311569D02*
X0236750Y0312203D01*
X0242848Y0308306D02*
X0242848Y0307672D01*
X0243165Y0307355D01*
X0244433Y0307355D01*
X0243165Y0308623D01*
X0244433Y0308623D01*
X0244750Y0308306D01*
X0244750Y0307672D01*
X0244433Y0307355D01*
X0244750Y0306413D02*
X0244750Y0305145D01*
X0244750Y0305779D02*
X0242848Y0305779D01*
X0243482Y0305145D01*
X0243165Y0304203D02*
X0243799Y0304203D01*
X0244116Y0303886D01*
X0244116Y0302935D01*
X0244750Y0302935D02*
X0242848Y0302935D01*
X0242848Y0303886D01*
X0243165Y0304203D01*
X0244116Y0303569D02*
X0244750Y0304203D01*
X0242848Y0308306D02*
X0243165Y0308623D01*
X0230518Y0303835D02*
X0230201Y0304152D01*
X0229567Y0304152D01*
X0229250Y0303835D01*
X0228308Y0303835D02*
X0227991Y0304152D01*
X0227357Y0304152D01*
X0227040Y0303835D01*
X0227040Y0302567D01*
X0227357Y0302250D01*
X0227991Y0302250D01*
X0228308Y0302567D01*
X0228308Y0303835D01*
X0227674Y0302884D02*
X0228308Y0302250D01*
X0229250Y0302250D02*
X0230518Y0303518D01*
X0230518Y0303835D01*
X0230518Y0302250D02*
X0229250Y0302250D01*
X0218623Y0303835D02*
X0217355Y0302567D01*
X0217355Y0302250D01*
X0216096Y0302250D02*
X0216096Y0304152D01*
X0215145Y0303201D01*
X0216413Y0303201D01*
X0217355Y0304152D02*
X0218623Y0304152D01*
X0218623Y0303835D01*
X0214203Y0303835D02*
X0213886Y0304152D01*
X0212935Y0304152D01*
X0212935Y0302250D01*
X0212935Y0302884D02*
X0213886Y0302884D01*
X0214203Y0303201D01*
X0214203Y0303835D01*
X0213569Y0302884D02*
X0214203Y0302250D01*
X0213886Y0296152D02*
X0214203Y0295835D01*
X0214203Y0295201D01*
X0213886Y0294884D01*
X0212935Y0294884D01*
X0212935Y0294250D02*
X0212935Y0296152D01*
X0213886Y0296152D01*
X0213569Y0294884D02*
X0214203Y0294250D01*
X0215145Y0295201D02*
X0216413Y0295201D01*
X0217355Y0295518D02*
X0217355Y0295835D01*
X0217672Y0296152D01*
X0218306Y0296152D01*
X0218623Y0295835D01*
X0218623Y0295518D01*
X0218306Y0295201D01*
X0217672Y0295201D01*
X0217355Y0295518D01*
X0217672Y0295201D02*
X0217355Y0294884D01*
X0217355Y0294567D01*
X0217672Y0294250D01*
X0218306Y0294250D01*
X0218623Y0294567D01*
X0218623Y0294884D01*
X0218306Y0295201D01*
X0216096Y0296152D02*
X0215145Y0295201D01*
X0216096Y0294250D02*
X0216096Y0296152D01*
X0216096Y0288152D02*
X0215145Y0287201D01*
X0216413Y0287201D01*
X0217355Y0287518D02*
X0217672Y0287201D01*
X0218623Y0287201D01*
X0218623Y0287835D02*
X0218306Y0288152D01*
X0217672Y0288152D01*
X0217355Y0287835D01*
X0217355Y0287518D01*
X0217355Y0286567D02*
X0217672Y0286250D01*
X0218306Y0286250D01*
X0218623Y0286567D01*
X0218623Y0287835D01*
X0216096Y0288152D02*
X0216096Y0286250D01*
X0214203Y0286250D02*
X0213569Y0286884D01*
X0213886Y0286884D02*
X0212935Y0286884D01*
X0212935Y0286250D02*
X0212935Y0288152D01*
X0213886Y0288152D01*
X0214203Y0287835D01*
X0214203Y0287201D01*
X0213886Y0286884D01*
X0213886Y0280152D02*
X0214203Y0279835D01*
X0214203Y0279201D01*
X0213886Y0278884D01*
X0212935Y0278884D01*
X0212935Y0278250D02*
X0212935Y0280152D01*
X0213886Y0280152D01*
X0215145Y0280152D02*
X0215145Y0279201D01*
X0215779Y0279518D01*
X0216096Y0279518D01*
X0216413Y0279201D01*
X0216413Y0278567D01*
X0216096Y0278250D01*
X0215462Y0278250D01*
X0215145Y0278567D01*
X0214203Y0278250D02*
X0213569Y0278884D01*
X0215145Y0280152D02*
X0216413Y0280152D01*
X0217355Y0279835D02*
X0217672Y0280152D01*
X0218306Y0280152D01*
X0218623Y0279835D01*
X0217355Y0278567D01*
X0217672Y0278250D01*
X0218306Y0278250D01*
X0218623Y0278567D01*
X0218623Y0279835D01*
X0217355Y0279835D02*
X0217355Y0278567D01*
X0227040Y0285567D02*
X0227357Y0285250D01*
X0227991Y0285250D01*
X0228308Y0285567D01*
X0228308Y0286835D01*
X0227991Y0287152D01*
X0227357Y0287152D01*
X0227040Y0286835D01*
X0227040Y0285567D01*
X0227674Y0285884D02*
X0228308Y0285250D01*
X0229250Y0285567D02*
X0229567Y0285250D01*
X0230201Y0285250D01*
X0230518Y0285567D01*
X0230518Y0285884D01*
X0230201Y0286201D01*
X0229884Y0286201D01*
X0230201Y0286201D02*
X0230518Y0286518D01*
X0230518Y0286835D01*
X0230201Y0287152D01*
X0229567Y0287152D01*
X0229250Y0286835D01*
X0234848Y0282306D02*
X0235165Y0282623D01*
X0236433Y0282623D01*
X0236750Y0282306D01*
X0236750Y0281672D01*
X0236433Y0281355D01*
X0235799Y0281672D02*
X0235799Y0282623D01*
X0235799Y0281672D02*
X0235482Y0281355D01*
X0235165Y0281355D01*
X0234848Y0281672D01*
X0234848Y0282306D01*
X0234848Y0279779D02*
X0236750Y0279779D01*
X0236750Y0279145D02*
X0236750Y0280413D01*
X0235482Y0279145D02*
X0234848Y0279779D01*
X0235165Y0278203D02*
X0235799Y0278203D01*
X0236116Y0277886D01*
X0236116Y0276935D01*
X0236750Y0276935D02*
X0234848Y0276935D01*
X0234848Y0277886D01*
X0235165Y0278203D01*
X0236116Y0277569D02*
X0236750Y0278203D01*
X0242848Y0274623D02*
X0242848Y0273355D01*
X0243799Y0273355D01*
X0243482Y0273989D01*
X0243482Y0274306D01*
X0243799Y0274623D01*
X0244433Y0274623D01*
X0244750Y0274306D01*
X0244750Y0273672D01*
X0244433Y0273355D01*
X0244750Y0272413D02*
X0244750Y0271145D01*
X0244750Y0271779D02*
X0242848Y0271779D01*
X0243482Y0271145D01*
X0243165Y0270203D02*
X0243799Y0270203D01*
X0244116Y0269886D01*
X0244116Y0268935D01*
X0244750Y0268935D02*
X0242848Y0268935D01*
X0242848Y0269886D01*
X0243165Y0270203D01*
X0244116Y0269569D02*
X0244750Y0270203D01*
X0244333Y0264623D02*
X0244650Y0264306D01*
X0244650Y0263672D01*
X0244333Y0263355D01*
X0243699Y0263355D02*
X0243382Y0263989D01*
X0243382Y0264306D01*
X0243699Y0264623D01*
X0244333Y0264623D01*
X0243699Y0263355D02*
X0242748Y0263355D01*
X0242748Y0264623D01*
X0244967Y0262413D02*
X0244967Y0261145D01*
X0244650Y0260203D02*
X0244016Y0259569D01*
X0244016Y0259886D02*
X0244016Y0258935D01*
X0244650Y0258935D02*
X0242748Y0258935D01*
X0242748Y0259886D01*
X0243065Y0260203D01*
X0243699Y0260203D01*
X0244016Y0259886D01*
X0241875Y0259750D02*
X0238125Y0259750D01*
X0235799Y0248623D02*
X0235799Y0247355D01*
X0234848Y0248306D01*
X0236750Y0248306D01*
X0236750Y0246413D02*
X0236750Y0245145D01*
X0235482Y0246413D01*
X0235165Y0246413D01*
X0234848Y0246096D01*
X0234848Y0245462D01*
X0235165Y0245145D01*
X0235165Y0244203D02*
X0235799Y0244203D01*
X0236116Y0243886D01*
X0236116Y0242935D01*
X0236750Y0242935D02*
X0234848Y0242935D01*
X0234848Y0243886D01*
X0235165Y0244203D01*
X0236116Y0243569D02*
X0236750Y0244203D01*
X0242848Y0240306D02*
X0243165Y0240623D01*
X0244433Y0239355D01*
X0244750Y0239672D01*
X0244750Y0240306D01*
X0244433Y0240623D01*
X0243165Y0240623D01*
X0242848Y0240306D02*
X0242848Y0239672D01*
X0243165Y0239355D01*
X0244433Y0239355D01*
X0244750Y0238413D02*
X0244750Y0237145D01*
X0243482Y0238413D01*
X0243165Y0238413D01*
X0242848Y0238096D01*
X0242848Y0237462D01*
X0243165Y0237145D01*
X0243165Y0236203D02*
X0243799Y0236203D01*
X0244116Y0235886D01*
X0244116Y0234935D01*
X0244750Y0234935D02*
X0242848Y0234935D01*
X0242848Y0235886D01*
X0243165Y0236203D01*
X0244116Y0235569D02*
X0244750Y0236203D01*
X0243699Y0230623D02*
X0243699Y0229355D01*
X0242748Y0230306D01*
X0244650Y0230306D01*
X0244967Y0228413D02*
X0244967Y0227145D01*
X0244650Y0226203D02*
X0244016Y0225569D01*
X0244016Y0225886D02*
X0244016Y0224935D01*
X0244650Y0224935D02*
X0242748Y0224935D01*
X0242748Y0225886D01*
X0243065Y0226203D01*
X0243699Y0226203D01*
X0244016Y0225886D01*
X0241875Y0225750D02*
X0238125Y0225750D01*
X0236433Y0214623D02*
X0235165Y0214623D01*
X0234848Y0214306D01*
X0234848Y0213672D01*
X0235165Y0213355D01*
X0235482Y0213355D01*
X0235799Y0213672D01*
X0235799Y0214623D01*
X0236433Y0214623D02*
X0236750Y0214306D01*
X0236750Y0213672D01*
X0236433Y0213355D01*
X0236750Y0212413D02*
X0236750Y0211145D01*
X0235482Y0212413D01*
X0235165Y0212413D01*
X0234848Y0212096D01*
X0234848Y0211462D01*
X0235165Y0211145D01*
X0235165Y0210203D02*
X0235799Y0210203D01*
X0236116Y0209886D01*
X0236116Y0208935D01*
X0236750Y0208935D02*
X0234848Y0208935D01*
X0234848Y0209886D01*
X0235165Y0210203D01*
X0236116Y0209569D02*
X0236750Y0210203D01*
X0230201Y0208152D02*
X0229250Y0207201D01*
X0230518Y0207201D01*
X0230201Y0206250D02*
X0230201Y0208152D01*
X0228308Y0207835D02*
X0228308Y0206567D01*
X0227991Y0206250D01*
X0227357Y0206250D01*
X0227040Y0206567D01*
X0227040Y0207835D01*
X0227357Y0208152D01*
X0227991Y0208152D01*
X0228308Y0207835D01*
X0227674Y0206884D02*
X0228308Y0206250D01*
X0218623Y0207250D02*
X0217355Y0207250D01*
X0217989Y0207250D02*
X0217989Y0209152D01*
X0217355Y0208518D01*
X0216413Y0208201D02*
X0216413Y0207567D01*
X0216096Y0207250D01*
X0215462Y0207250D01*
X0215145Y0207567D01*
X0215145Y0208201D02*
X0215779Y0208518D01*
X0216096Y0208518D01*
X0216413Y0208201D01*
X0216413Y0209152D02*
X0215145Y0209152D01*
X0215145Y0208201D01*
X0214203Y0208201D02*
X0213886Y0207884D01*
X0212935Y0207884D01*
X0212935Y0207250D02*
X0212935Y0209152D01*
X0213886Y0209152D01*
X0214203Y0208835D01*
X0214203Y0208201D01*
X0213569Y0207884D02*
X0214203Y0207250D01*
X0213886Y0201152D02*
X0214203Y0200835D01*
X0214203Y0200201D01*
X0213886Y0199884D01*
X0212935Y0199884D01*
X0212935Y0199250D02*
X0212935Y0201152D01*
X0213886Y0201152D01*
X0215145Y0201152D02*
X0215145Y0200201D01*
X0215779Y0200518D01*
X0216096Y0200518D01*
X0216413Y0200201D01*
X0216413Y0199567D01*
X0216096Y0199250D01*
X0215462Y0199250D01*
X0215145Y0199567D01*
X0214203Y0199250D02*
X0213569Y0199884D01*
X0215145Y0201152D02*
X0216413Y0201152D01*
X0217355Y0200835D02*
X0217672Y0201152D01*
X0218306Y0201152D01*
X0218623Y0200835D01*
X0218623Y0200518D01*
X0217355Y0199250D01*
X0218623Y0199250D01*
X0218306Y0193152D02*
X0218623Y0192835D01*
X0218623Y0192518D01*
X0218306Y0192201D01*
X0218623Y0191884D01*
X0218623Y0191567D01*
X0218306Y0191250D01*
X0217672Y0191250D01*
X0217355Y0191567D01*
X0217989Y0192201D02*
X0218306Y0192201D01*
X0218306Y0193152D02*
X0217672Y0193152D01*
X0217355Y0192835D01*
X0216413Y0193152D02*
X0215145Y0193152D01*
X0215145Y0192201D01*
X0215779Y0192518D01*
X0216096Y0192518D01*
X0216413Y0192201D01*
X0216413Y0191567D01*
X0216096Y0191250D01*
X0215462Y0191250D01*
X0215145Y0191567D01*
X0214203Y0191250D02*
X0213569Y0191884D01*
X0213886Y0191884D02*
X0212935Y0191884D01*
X0212935Y0191250D02*
X0212935Y0193152D01*
X0213886Y0193152D01*
X0214203Y0192835D01*
X0214203Y0192201D01*
X0213886Y0191884D01*
X0213886Y0185152D02*
X0214203Y0184835D01*
X0214203Y0184201D01*
X0213886Y0183884D01*
X0212935Y0183884D01*
X0212935Y0183250D02*
X0212935Y0185152D01*
X0213886Y0185152D01*
X0215145Y0185152D02*
X0215145Y0184201D01*
X0215779Y0184518D01*
X0216096Y0184518D01*
X0216413Y0184201D01*
X0216413Y0183567D01*
X0216096Y0183250D01*
X0215462Y0183250D01*
X0215145Y0183567D01*
X0214203Y0183250D02*
X0213569Y0183884D01*
X0215145Y0185152D02*
X0216413Y0185152D01*
X0217355Y0184201D02*
X0218623Y0184201D01*
X0218306Y0185152D02*
X0217355Y0184201D01*
X0218306Y0183250D02*
X0218306Y0185152D01*
X0227040Y0190567D02*
X0227357Y0190250D01*
X0227991Y0190250D01*
X0228308Y0190567D01*
X0228308Y0191835D01*
X0227991Y0192152D01*
X0227357Y0192152D01*
X0227040Y0191835D01*
X0227040Y0190567D01*
X0227674Y0190884D02*
X0228308Y0190250D01*
X0229250Y0190567D02*
X0229567Y0190250D01*
X0230201Y0190250D01*
X0230518Y0190567D01*
X0230518Y0191201D01*
X0230201Y0191518D01*
X0229884Y0191518D01*
X0229250Y0191201D01*
X0229250Y0192152D01*
X0230518Y0192152D01*
X0238125Y0191750D02*
X0241875Y0191750D01*
X0242748Y0191886D02*
X0243065Y0192203D01*
X0243699Y0192203D01*
X0244016Y0191886D01*
X0244016Y0190935D01*
X0244650Y0190935D02*
X0242748Y0190935D01*
X0242748Y0191886D01*
X0244016Y0191569D02*
X0244650Y0192203D01*
X0244967Y0193145D02*
X0244967Y0194413D01*
X0244333Y0195355D02*
X0244650Y0195672D01*
X0244650Y0196306D01*
X0244333Y0196623D01*
X0244016Y0196623D01*
X0243699Y0196306D01*
X0243699Y0195989D01*
X0243699Y0196306D02*
X0243382Y0196623D01*
X0243065Y0196623D01*
X0242748Y0196306D01*
X0242748Y0195672D01*
X0243065Y0195355D01*
X0242848Y0200935D02*
X0242848Y0201886D01*
X0243165Y0202203D01*
X0243799Y0202203D01*
X0244116Y0201886D01*
X0244116Y0200935D01*
X0244750Y0200935D02*
X0242848Y0200935D01*
X0244116Y0201569D02*
X0244750Y0202203D01*
X0244750Y0203145D02*
X0243482Y0204413D01*
X0243165Y0204413D01*
X0242848Y0204096D01*
X0242848Y0203462D01*
X0243165Y0203145D01*
X0244750Y0203145D02*
X0244750Y0204413D01*
X0244433Y0205355D02*
X0244750Y0205672D01*
X0244750Y0206306D01*
X0244433Y0206623D01*
X0243799Y0206623D01*
X0243482Y0206306D01*
X0243482Y0205989D01*
X0243799Y0205355D01*
X0242848Y0205355D01*
X0242848Y0206623D01*
X0273246Y0206958D02*
X0273246Y0209960D01*
X0273246Y0208459D02*
X0277750Y0208459D01*
X0276999Y0211562D02*
X0277750Y0212312D01*
X0277750Y0213814D01*
X0276999Y0214564D01*
X0276249Y0214564D01*
X0275498Y0213814D01*
X0275498Y0213063D01*
X0275498Y0213814D02*
X0274747Y0214564D01*
X0273997Y0214564D01*
X0273246Y0213814D01*
X0273246Y0212312D01*
X0273997Y0211562D01*
X0273997Y0205356D02*
X0273246Y0204606D01*
X0273246Y0202354D01*
X0277750Y0202354D01*
X0276249Y0202354D02*
X0276249Y0204606D01*
X0275498Y0205356D01*
X0273997Y0205356D01*
X0273997Y0200753D02*
X0273246Y0200002D01*
X0273246Y0198501D01*
X0273997Y0197750D01*
X0276999Y0197750D01*
X0277750Y0198501D01*
X0277750Y0200002D01*
X0276999Y0200753D01*
X0273997Y0200753D01*
X0273997Y0180564D02*
X0273246Y0179814D01*
X0273246Y0178312D01*
X0273997Y0177562D01*
X0273246Y0175960D02*
X0273246Y0172958D01*
X0273246Y0174459D02*
X0277750Y0174459D01*
X0277750Y0177562D02*
X0274747Y0180564D01*
X0273997Y0180564D01*
X0277750Y0180564D02*
X0277750Y0177562D01*
X0275498Y0171356D02*
X0276249Y0170606D01*
X0276249Y0168354D01*
X0277750Y0168354D02*
X0273246Y0168354D01*
X0273246Y0170606D01*
X0273997Y0171356D01*
X0275498Y0171356D01*
X0273997Y0166753D02*
X0273246Y0166002D01*
X0273246Y0164501D01*
X0273997Y0163750D01*
X0276999Y0163750D01*
X0277750Y0164501D01*
X0277750Y0166002D01*
X0276999Y0166753D01*
X0273997Y0166753D01*
X0277750Y0146564D02*
X0277750Y0143562D01*
X0277750Y0145063D02*
X0273246Y0145063D01*
X0274747Y0143562D01*
X0273246Y0141960D02*
X0273246Y0138958D01*
X0273246Y0140459D02*
X0277750Y0140459D01*
X0275498Y0137356D02*
X0276249Y0136606D01*
X0276249Y0134354D01*
X0277750Y0134354D02*
X0273246Y0134354D01*
X0273246Y0136606D01*
X0273997Y0137356D01*
X0275498Y0137356D01*
X0273997Y0132753D02*
X0273246Y0132002D01*
X0273246Y0130501D01*
X0273997Y0129750D01*
X0276999Y0129750D01*
X0277750Y0130501D01*
X0277750Y0132002D01*
X0276999Y0132753D01*
X0273997Y0132753D01*
X0273997Y0112564D02*
X0273246Y0111814D01*
X0273246Y0110312D01*
X0273997Y0109562D01*
X0276999Y0109562D01*
X0273997Y0112564D01*
X0276999Y0112564D01*
X0277750Y0111814D01*
X0277750Y0110312D01*
X0276999Y0109562D01*
X0277750Y0106459D02*
X0273246Y0106459D01*
X0273246Y0104958D02*
X0273246Y0107960D01*
X0273997Y0103356D02*
X0275498Y0103356D01*
X0276249Y0102606D01*
X0276249Y0100354D01*
X0277750Y0100354D02*
X0273246Y0100354D01*
X0273246Y0102606D01*
X0273997Y0103356D01*
X0273997Y0098753D02*
X0273246Y0098002D01*
X0273246Y0096501D01*
X0273997Y0095750D01*
X0276999Y0095750D01*
X0277750Y0096501D01*
X0277750Y0098002D01*
X0276999Y0098753D01*
X0273997Y0098753D01*
X0244750Y0099935D02*
X0242848Y0099935D01*
X0242848Y0100886D01*
X0243165Y0101203D01*
X0243799Y0101203D01*
X0244116Y0100886D01*
X0244116Y0099935D01*
X0244116Y0100569D02*
X0244750Y0101203D01*
X0243799Y0102145D02*
X0243799Y0103413D01*
X0242848Y0103096D02*
X0243799Y0102145D01*
X0244750Y0103096D02*
X0242848Y0103096D01*
X0243165Y0104355D02*
X0242848Y0104672D01*
X0242848Y0105306D01*
X0243165Y0105623D01*
X0244433Y0104355D01*
X0244750Y0104672D01*
X0244750Y0105306D01*
X0244433Y0105623D01*
X0243165Y0105623D01*
X0243165Y0104355D02*
X0244433Y0104355D01*
X0236750Y0106935D02*
X0234848Y0106935D01*
X0234848Y0107886D01*
X0235165Y0108203D01*
X0235799Y0108203D01*
X0236116Y0107886D01*
X0236116Y0106935D01*
X0236116Y0107569D02*
X0236750Y0108203D01*
X0235799Y0109145D02*
X0235799Y0110413D01*
X0235799Y0111355D02*
X0234848Y0112306D01*
X0236750Y0112306D01*
X0235799Y0112623D02*
X0235799Y0111355D01*
X0234848Y0110096D02*
X0235799Y0109145D01*
X0236750Y0110096D02*
X0234848Y0110096D01*
X0238125Y0123750D02*
X0241875Y0123750D01*
X0242748Y0123886D02*
X0243065Y0124203D01*
X0243699Y0124203D01*
X0244016Y0123886D01*
X0244016Y0122935D01*
X0244650Y0122935D02*
X0242748Y0122935D01*
X0242748Y0123886D01*
X0244016Y0123569D02*
X0244650Y0124203D01*
X0244967Y0125145D02*
X0244967Y0126413D01*
X0244650Y0127355D02*
X0244650Y0128623D01*
X0244650Y0127989D02*
X0242748Y0127989D01*
X0243382Y0127355D01*
X0242848Y0132935D02*
X0242848Y0133886D01*
X0243165Y0134203D01*
X0243799Y0134203D01*
X0244116Y0133886D01*
X0244116Y0132935D01*
X0244750Y0132935D02*
X0242848Y0132935D01*
X0244116Y0133569D02*
X0244750Y0134203D01*
X0244433Y0135145D02*
X0244750Y0135462D01*
X0244750Y0136096D01*
X0244433Y0136413D01*
X0244116Y0136413D01*
X0243799Y0136096D01*
X0243799Y0135779D01*
X0243799Y0136096D02*
X0243482Y0136413D01*
X0243165Y0136413D01*
X0242848Y0136096D01*
X0242848Y0135462D01*
X0243165Y0135145D01*
X0242848Y0137355D02*
X0243799Y0137355D01*
X0243482Y0137989D01*
X0243482Y0138306D01*
X0243799Y0138623D01*
X0244433Y0138623D01*
X0244750Y0138306D01*
X0244750Y0137672D01*
X0244433Y0137355D01*
X0242848Y0137355D02*
X0242848Y0138623D01*
X0236750Y0140935D02*
X0234848Y0140935D01*
X0234848Y0141886D01*
X0235165Y0142203D01*
X0235799Y0142203D01*
X0236116Y0141886D01*
X0236116Y0140935D01*
X0236116Y0141569D02*
X0236750Y0142203D01*
X0236433Y0143145D02*
X0236750Y0143462D01*
X0236750Y0144096D01*
X0236433Y0144413D01*
X0236116Y0144413D01*
X0235799Y0144096D01*
X0235799Y0143779D01*
X0235799Y0144096D02*
X0235482Y0144413D01*
X0235165Y0144413D01*
X0234848Y0144096D01*
X0234848Y0143462D01*
X0235165Y0143145D01*
X0235165Y0145355D02*
X0235482Y0145355D01*
X0235799Y0145672D01*
X0235799Y0146623D01*
X0236433Y0146623D02*
X0235165Y0146623D01*
X0234848Y0146306D01*
X0234848Y0145672D01*
X0235165Y0145355D01*
X0236433Y0145355D02*
X0236750Y0145672D01*
X0236750Y0146306D01*
X0236433Y0146623D01*
X0230518Y0143835D02*
X0230518Y0143518D01*
X0230201Y0143201D01*
X0229567Y0143201D01*
X0229250Y0143518D01*
X0229250Y0143835D01*
X0229567Y0144152D01*
X0230201Y0144152D01*
X0230518Y0143835D01*
X0230201Y0143201D02*
X0230518Y0142884D01*
X0230518Y0142567D01*
X0230201Y0142250D01*
X0229567Y0142250D01*
X0229250Y0142567D01*
X0229250Y0142884D01*
X0229567Y0143201D01*
X0228308Y0143835D02*
X0228308Y0142567D01*
X0227991Y0142250D01*
X0227357Y0142250D01*
X0227040Y0142567D01*
X0227040Y0143835D01*
X0227357Y0144152D01*
X0227991Y0144152D01*
X0228308Y0143835D01*
X0227674Y0142884D02*
X0228308Y0142250D01*
X0218623Y0143567D02*
X0218623Y0144835D01*
X0218306Y0145152D01*
X0217672Y0145152D01*
X0217355Y0144835D01*
X0217355Y0144518D01*
X0217672Y0144201D01*
X0218623Y0144201D01*
X0218623Y0143567D02*
X0218306Y0143250D01*
X0217672Y0143250D01*
X0217355Y0143567D01*
X0216413Y0143567D02*
X0216096Y0143250D01*
X0215462Y0143250D01*
X0215145Y0143567D01*
X0215145Y0144201D02*
X0215779Y0144518D01*
X0216096Y0144518D01*
X0216413Y0144201D01*
X0216413Y0143567D01*
X0215145Y0144201D02*
X0215145Y0145152D01*
X0216413Y0145152D01*
X0214203Y0144835D02*
X0214203Y0144201D01*
X0213886Y0143884D01*
X0212935Y0143884D01*
X0212935Y0143250D02*
X0212935Y0145152D01*
X0213886Y0145152D01*
X0214203Y0144835D01*
X0213569Y0143884D02*
X0214203Y0143250D01*
X0213886Y0137152D02*
X0214203Y0136835D01*
X0214203Y0136201D01*
X0213886Y0135884D01*
X0212935Y0135884D01*
X0212935Y0135250D02*
X0212935Y0137152D01*
X0213886Y0137152D01*
X0213569Y0135884D02*
X0214203Y0135250D01*
X0215145Y0135567D02*
X0215462Y0135250D01*
X0216096Y0135250D01*
X0216413Y0135567D01*
X0216413Y0135884D01*
X0216096Y0136201D01*
X0215145Y0136201D01*
X0215145Y0135567D01*
X0215145Y0136201D02*
X0215779Y0136835D01*
X0216413Y0137152D01*
X0217355Y0136835D02*
X0217672Y0137152D01*
X0218306Y0137152D01*
X0218623Y0136835D01*
X0217355Y0135567D01*
X0217672Y0135250D01*
X0218306Y0135250D01*
X0218623Y0135567D01*
X0218623Y0136835D01*
X0217355Y0136835D02*
X0217355Y0135567D01*
X0217672Y0151250D02*
X0217355Y0151567D01*
X0217355Y0151884D01*
X0217672Y0152201D01*
X0218306Y0152201D01*
X0218623Y0151884D01*
X0218623Y0151567D01*
X0218306Y0151250D01*
X0217672Y0151250D01*
X0217672Y0152201D02*
X0217355Y0152518D01*
X0217355Y0152835D01*
X0217672Y0153152D01*
X0218306Y0153152D01*
X0218623Y0152835D01*
X0218623Y0152518D01*
X0218306Y0152201D01*
X0216413Y0152201D02*
X0216413Y0151567D01*
X0216096Y0151250D01*
X0215462Y0151250D01*
X0215145Y0151567D01*
X0215145Y0152201D02*
X0215779Y0152518D01*
X0216096Y0152518D01*
X0216413Y0152201D01*
X0216413Y0153152D02*
X0215145Y0153152D01*
X0215145Y0152201D01*
X0214203Y0152201D02*
X0213886Y0151884D01*
X0212935Y0151884D01*
X0212935Y0151250D02*
X0212935Y0153152D01*
X0213886Y0153152D01*
X0214203Y0152835D01*
X0214203Y0152201D01*
X0213569Y0151884D02*
X0214203Y0151250D01*
X0214203Y0159250D02*
X0213569Y0159884D01*
X0213886Y0159884D02*
X0212935Y0159884D01*
X0212935Y0159250D02*
X0212935Y0161152D01*
X0213886Y0161152D01*
X0214203Y0160835D01*
X0214203Y0160201D01*
X0213886Y0159884D01*
X0215145Y0160201D02*
X0215779Y0160518D01*
X0216096Y0160518D01*
X0216413Y0160201D01*
X0216413Y0159567D01*
X0216096Y0159250D01*
X0215462Y0159250D01*
X0215145Y0159567D01*
X0215145Y0160201D02*
X0215145Y0161152D01*
X0216413Y0161152D01*
X0217355Y0161152D02*
X0218623Y0161152D01*
X0218623Y0160835D01*
X0217355Y0159567D01*
X0217355Y0159250D01*
X0227040Y0159835D02*
X0227357Y0160152D01*
X0227991Y0160152D01*
X0228308Y0159835D01*
X0228308Y0158567D01*
X0227991Y0158250D01*
X0227357Y0158250D01*
X0227040Y0158567D01*
X0227040Y0159835D01*
X0227674Y0158884D02*
X0228308Y0158250D01*
X0229250Y0158250D02*
X0229250Y0158567D01*
X0230518Y0159835D01*
X0230518Y0160152D01*
X0229250Y0160152D01*
X0238125Y0157750D02*
X0241875Y0157750D01*
X0242748Y0157886D02*
X0243065Y0158203D01*
X0243699Y0158203D01*
X0244016Y0157886D01*
X0244016Y0156935D01*
X0244650Y0156935D02*
X0242748Y0156935D01*
X0242748Y0157886D01*
X0244016Y0157569D02*
X0244650Y0158203D01*
X0244967Y0159145D02*
X0244967Y0160413D01*
X0244650Y0161355D02*
X0243382Y0162623D01*
X0243065Y0162623D01*
X0242748Y0162306D01*
X0242748Y0161672D01*
X0243065Y0161355D01*
X0244650Y0161355D02*
X0244650Y0162623D01*
X0244750Y0166935D02*
X0242848Y0166935D01*
X0242848Y0167886D01*
X0243165Y0168203D01*
X0243799Y0168203D01*
X0244116Y0167886D01*
X0244116Y0166935D01*
X0244116Y0167569D02*
X0244750Y0168203D01*
X0244433Y0169145D02*
X0244750Y0169462D01*
X0244750Y0170096D01*
X0244433Y0170413D01*
X0244116Y0170413D01*
X0243799Y0170096D01*
X0243799Y0169779D01*
X0243799Y0170096D02*
X0243482Y0170413D01*
X0243165Y0170413D01*
X0242848Y0170096D01*
X0242848Y0169462D01*
X0243165Y0169145D01*
X0243165Y0171355D02*
X0242848Y0171672D01*
X0242848Y0172306D01*
X0243165Y0172623D01*
X0244433Y0171355D01*
X0244750Y0171672D01*
X0244750Y0172306D01*
X0244433Y0172623D01*
X0243165Y0172623D01*
X0243165Y0171355D02*
X0244433Y0171355D01*
X0236750Y0174935D02*
X0234848Y0174935D01*
X0234848Y0175886D01*
X0235165Y0176203D01*
X0235799Y0176203D01*
X0236116Y0175886D01*
X0236116Y0174935D01*
X0236116Y0175569D02*
X0236750Y0176203D01*
X0236433Y0177145D02*
X0236750Y0177462D01*
X0236750Y0178096D01*
X0236433Y0178413D01*
X0236116Y0178413D01*
X0235799Y0178096D01*
X0235799Y0177779D01*
X0235799Y0178096D02*
X0235482Y0178413D01*
X0235165Y0178413D01*
X0234848Y0178096D01*
X0234848Y0177462D01*
X0235165Y0177145D01*
X0235799Y0179355D02*
X0234848Y0180306D01*
X0236750Y0180306D01*
X0235799Y0180623D02*
X0235799Y0179355D01*
X0230518Y0176152D02*
X0229884Y0175835D01*
X0229250Y0175201D01*
X0230201Y0175201D01*
X0230518Y0174884D01*
X0230518Y0174567D01*
X0230201Y0174250D01*
X0229567Y0174250D01*
X0229250Y0174567D01*
X0229250Y0175201D01*
X0228308Y0175835D02*
X0228308Y0174567D01*
X0227991Y0174250D01*
X0227357Y0174250D01*
X0227040Y0174567D01*
X0227040Y0175835D01*
X0227357Y0176152D01*
X0227991Y0176152D01*
X0228308Y0175835D01*
X0227674Y0174884D02*
X0228308Y0174250D01*
X0218623Y0175567D02*
X0218306Y0175250D01*
X0217672Y0175250D01*
X0217355Y0175567D01*
X0217355Y0176201D02*
X0217989Y0176518D01*
X0218306Y0176518D01*
X0218623Y0176201D01*
X0218623Y0175567D01*
X0217355Y0176201D02*
X0217355Y0177152D01*
X0218623Y0177152D01*
X0216413Y0177152D02*
X0215145Y0177152D01*
X0215145Y0176201D01*
X0215779Y0176518D01*
X0216096Y0176518D01*
X0216413Y0176201D01*
X0216413Y0175567D01*
X0216096Y0175250D01*
X0215462Y0175250D01*
X0215145Y0175567D01*
X0214203Y0175250D02*
X0213569Y0175884D01*
X0213886Y0175884D02*
X0212935Y0175884D01*
X0212935Y0175250D02*
X0212935Y0177152D01*
X0213886Y0177152D01*
X0214203Y0176835D01*
X0214203Y0176201D01*
X0213886Y0175884D01*
X0213886Y0169152D02*
X0214203Y0168835D01*
X0214203Y0168201D01*
X0213886Y0167884D01*
X0212935Y0167884D01*
X0212935Y0167250D02*
X0212935Y0169152D01*
X0213886Y0169152D01*
X0215145Y0169152D02*
X0215145Y0168201D01*
X0215779Y0168518D01*
X0216096Y0168518D01*
X0216413Y0168201D01*
X0216413Y0167567D01*
X0216096Y0167250D01*
X0215462Y0167250D01*
X0215145Y0167567D01*
X0214203Y0167250D02*
X0213569Y0167884D01*
X0215145Y0169152D02*
X0216413Y0169152D01*
X0217355Y0168201D02*
X0218306Y0168201D01*
X0218623Y0167884D01*
X0218623Y0167567D01*
X0218306Y0167250D01*
X0217672Y0167250D01*
X0217355Y0167567D01*
X0217355Y0168201D01*
X0217989Y0168835D01*
X0218623Y0169152D01*
X0306935Y0155152D02*
X0306935Y0153250D01*
X0306935Y0153884D02*
X0307886Y0153884D01*
X0308203Y0154201D01*
X0308203Y0154835D01*
X0307886Y0155152D01*
X0306935Y0155152D01*
X0307569Y0153884D02*
X0308203Y0153250D01*
X0309145Y0153567D02*
X0309462Y0153250D01*
X0310096Y0153250D01*
X0310413Y0153567D01*
X0310413Y0153884D01*
X0310096Y0154201D01*
X0309779Y0154201D01*
X0310096Y0154201D02*
X0310413Y0154518D01*
X0310413Y0154835D01*
X0310096Y0155152D01*
X0309462Y0155152D01*
X0309145Y0154835D01*
X0311355Y0155152D02*
X0312623Y0155152D01*
X0312623Y0154835D01*
X0311355Y0153567D01*
X0311355Y0153250D01*
X0311672Y0121152D02*
X0311355Y0120835D01*
X0311672Y0121152D02*
X0312306Y0121152D01*
X0312623Y0120835D01*
X0312623Y0120518D01*
X0311355Y0119250D01*
X0312623Y0119250D01*
X0310413Y0120201D02*
X0309145Y0120201D01*
X0310096Y0121152D01*
X0310096Y0119250D01*
X0308203Y0119250D02*
X0307569Y0119884D01*
X0307886Y0119884D02*
X0306935Y0119884D01*
X0306935Y0119250D02*
X0306935Y0121152D01*
X0307886Y0121152D01*
X0308203Y0120835D01*
X0308203Y0120201D01*
X0307886Y0119884D01*
X0371935Y0143250D02*
X0371935Y0145152D01*
X0372886Y0145152D01*
X0373203Y0144835D01*
X0373203Y0144201D01*
X0372886Y0143884D01*
X0371935Y0143884D01*
X0372569Y0143884D02*
X0373203Y0143250D01*
X0374145Y0143250D02*
X0375413Y0144518D01*
X0375413Y0144835D01*
X0375096Y0145152D01*
X0374462Y0145152D01*
X0374145Y0144835D01*
X0374145Y0143250D02*
X0375413Y0143250D01*
X0376355Y0143567D02*
X0376672Y0143250D01*
X0377306Y0143250D01*
X0377623Y0143567D01*
X0377623Y0143884D01*
X0377306Y0144201D01*
X0376989Y0144201D01*
X0377306Y0144201D02*
X0377623Y0144518D01*
X0377623Y0144835D01*
X0377306Y0145152D01*
X0376672Y0145152D01*
X0376355Y0144835D01*
X0431935Y0145152D02*
X0432886Y0145152D01*
X0433203Y0144835D01*
X0433203Y0144201D01*
X0432886Y0143884D01*
X0431935Y0143884D01*
X0431935Y0143250D02*
X0431935Y0145152D01*
X0432569Y0143884D02*
X0433203Y0143250D01*
X0434145Y0143250D02*
X0435413Y0143250D01*
X0434779Y0143250D02*
X0434779Y0145152D01*
X0434145Y0144518D01*
X0436355Y0144518D02*
X0436355Y0144835D01*
X0436672Y0145152D01*
X0437306Y0145152D01*
X0437623Y0144835D01*
X0437623Y0144518D01*
X0437306Y0144201D01*
X0436672Y0144201D01*
X0436355Y0144518D01*
X0436672Y0144201D02*
X0436355Y0143884D01*
X0436355Y0143567D01*
X0436672Y0143250D01*
X0437306Y0143250D01*
X0437623Y0143567D01*
X0437623Y0143884D01*
X0437306Y0144201D01*
X0491935Y0143884D02*
X0492886Y0143884D01*
X0493203Y0144201D01*
X0493203Y0144835D01*
X0492886Y0145152D01*
X0491935Y0145152D01*
X0491935Y0143250D01*
X0492569Y0143884D02*
X0493203Y0143250D01*
X0494145Y0143250D02*
X0495413Y0143250D01*
X0494779Y0143250D02*
X0494779Y0145152D01*
X0494145Y0144518D01*
X0496355Y0144835D02*
X0496672Y0145152D01*
X0497306Y0145152D01*
X0497623Y0144835D01*
X0497623Y0144518D01*
X0497306Y0144201D01*
X0497623Y0143884D01*
X0497623Y0143567D01*
X0497306Y0143250D01*
X0496672Y0143250D01*
X0496355Y0143567D01*
X0496989Y0144201D02*
X0497306Y0144201D01*
X0553040Y0143884D02*
X0553991Y0143884D01*
X0554308Y0144201D01*
X0554308Y0144835D01*
X0553991Y0145152D01*
X0553040Y0145152D01*
X0553040Y0143250D01*
X0553674Y0143884D02*
X0554308Y0143250D01*
X0555250Y0143567D02*
X0555250Y0143884D01*
X0555567Y0144201D01*
X0556201Y0144201D01*
X0556518Y0143884D01*
X0556518Y0143567D01*
X0556201Y0143250D01*
X0555567Y0143250D01*
X0555250Y0143567D01*
X0555567Y0144201D02*
X0555250Y0144518D01*
X0555250Y0144835D01*
X0555567Y0145152D01*
X0556201Y0145152D01*
X0556518Y0144835D01*
X0556518Y0144518D01*
X0556201Y0144201D01*
X0547750Y0226935D02*
X0545848Y0226935D01*
X0545848Y0227886D01*
X0546165Y0228203D01*
X0546799Y0228203D01*
X0547116Y0227886D01*
X0547116Y0226935D01*
X0547116Y0227569D02*
X0547750Y0228203D01*
X0547433Y0229145D02*
X0547750Y0229462D01*
X0547750Y0230096D01*
X0547433Y0230413D01*
X0547116Y0230413D01*
X0546799Y0230096D01*
X0546799Y0229779D01*
X0546799Y0230096D02*
X0546482Y0230413D01*
X0546165Y0230413D01*
X0545848Y0230096D01*
X0545848Y0229462D01*
X0546165Y0229145D01*
X0546799Y0231355D02*
X0546799Y0232306D01*
X0547116Y0232623D01*
X0547433Y0232623D01*
X0547750Y0232306D01*
X0547750Y0231672D01*
X0547433Y0231355D01*
X0546799Y0231355D01*
X0546165Y0231989D01*
X0545848Y0232623D01*
X0558848Y0231518D02*
X0559165Y0230884D01*
X0559799Y0230250D01*
X0559799Y0231201D01*
X0560116Y0231518D01*
X0560433Y0231518D01*
X0560750Y0231201D01*
X0560750Y0230567D01*
X0560433Y0230250D01*
X0559799Y0230250D01*
X0559799Y0229308D02*
X0560116Y0228991D01*
X0560116Y0228040D01*
X0560116Y0228674D02*
X0560750Y0229308D01*
X0559799Y0229308D02*
X0559165Y0229308D01*
X0558848Y0228991D01*
X0558848Y0228040D01*
X0560750Y0228040D01*
X0561446Y0241042D02*
X0561446Y0244045D01*
X0561446Y0242543D02*
X0565950Y0242543D01*
X0565950Y0245646D02*
X0565199Y0245646D01*
X0562197Y0248649D01*
X0561446Y0248649D01*
X0561446Y0245646D01*
X0594848Y0231989D02*
X0596750Y0231989D01*
X0596750Y0231355D02*
X0596750Y0232623D01*
X0595482Y0231355D02*
X0594848Y0231989D01*
X0595799Y0230413D02*
X0595799Y0229145D01*
X0594848Y0230096D01*
X0596750Y0230096D01*
X0596750Y0228203D02*
X0596116Y0227569D01*
X0596116Y0227886D02*
X0596116Y0226935D01*
X0596750Y0226935D02*
X0594848Y0226935D01*
X0594848Y0227886D01*
X0595165Y0228203D01*
X0595799Y0228203D01*
X0596116Y0227886D01*
X0601446Y0241042D02*
X0601446Y0244045D01*
X0601446Y0242543D02*
X0605950Y0242543D01*
X0605199Y0245646D02*
X0602197Y0245646D01*
X0601446Y0246397D01*
X0601446Y0247898D01*
X0602197Y0248649D01*
X0605199Y0245646D01*
X0605950Y0246397D01*
X0605950Y0247898D01*
X0605199Y0248649D01*
X0602197Y0248649D01*
X0525950Y0248649D02*
X0525950Y0245646D01*
X0525950Y0247147D02*
X0521446Y0247147D01*
X0522947Y0245646D01*
X0521446Y0244045D02*
X0521446Y0241042D01*
X0521446Y0242543D02*
X0525950Y0242543D01*
X0485950Y0242543D02*
X0481446Y0242543D01*
X0481446Y0241042D02*
X0481446Y0244045D01*
X0483698Y0245646D02*
X0483698Y0247898D01*
X0484449Y0248649D01*
X0485199Y0248649D01*
X0485950Y0247898D01*
X0485950Y0246397D01*
X0485199Y0245646D01*
X0483698Y0245646D01*
X0482197Y0247147D01*
X0481446Y0248649D01*
X0480750Y0232623D02*
X0480750Y0231355D01*
X0480750Y0231989D02*
X0478848Y0231989D01*
X0479482Y0231355D01*
X0480750Y0230413D02*
X0480750Y0229145D01*
X0480750Y0229779D02*
X0478848Y0229779D01*
X0479482Y0229145D01*
X0479165Y0228203D02*
X0479799Y0228203D01*
X0480116Y0227886D01*
X0480116Y0226935D01*
X0480750Y0226935D02*
X0478848Y0226935D01*
X0478848Y0227886D01*
X0479165Y0228203D01*
X0480116Y0227569D02*
X0480750Y0228203D01*
X0467750Y0228203D02*
X0467116Y0227569D01*
X0467116Y0227886D02*
X0467116Y0226935D01*
X0467750Y0226935D02*
X0465848Y0226935D01*
X0465848Y0227886D01*
X0466165Y0228203D01*
X0466799Y0228203D01*
X0467116Y0227886D01*
X0467433Y0229145D02*
X0467750Y0229462D01*
X0467750Y0230096D01*
X0467433Y0230413D01*
X0467116Y0230413D01*
X0466799Y0230096D01*
X0466799Y0229779D01*
X0466799Y0230096D02*
X0466482Y0230413D01*
X0466165Y0230413D01*
X0465848Y0230096D01*
X0465848Y0229462D01*
X0466165Y0229145D01*
X0466482Y0231355D02*
X0465848Y0231989D01*
X0467750Y0231989D01*
X0467750Y0231355D02*
X0467750Y0232623D01*
X0445950Y0242543D02*
X0441446Y0242543D01*
X0441446Y0241042D02*
X0441446Y0244045D01*
X0442197Y0245646D02*
X0441446Y0246397D01*
X0441446Y0247898D01*
X0442197Y0248649D01*
X0442947Y0248649D01*
X0445950Y0245646D01*
X0445950Y0248649D01*
X0405950Y0247898D02*
X0405950Y0246397D01*
X0405199Y0245646D01*
X0403698Y0245646D02*
X0402947Y0247147D01*
X0402947Y0247898D01*
X0403698Y0248649D01*
X0405199Y0248649D01*
X0405950Y0247898D01*
X0403698Y0245646D02*
X0401446Y0245646D01*
X0401446Y0248649D01*
X0401446Y0244045D02*
X0401446Y0241042D01*
X0401446Y0242543D02*
X0405950Y0242543D01*
X0400433Y0232623D02*
X0400116Y0232623D01*
X0399799Y0232306D01*
X0399799Y0231355D01*
X0400433Y0231355D01*
X0400750Y0231672D01*
X0400750Y0232306D01*
X0400433Y0232623D01*
X0399165Y0231989D02*
X0399799Y0231355D01*
X0399165Y0231989D02*
X0398848Y0232623D01*
X0398848Y0229779D02*
X0400750Y0229779D01*
X0400750Y0229145D02*
X0400750Y0230413D01*
X0399482Y0229145D02*
X0398848Y0229779D01*
X0399165Y0228203D02*
X0399799Y0228203D01*
X0400116Y0227886D01*
X0400116Y0226935D01*
X0400750Y0226935D02*
X0398848Y0226935D01*
X0398848Y0227886D01*
X0399165Y0228203D01*
X0400116Y0227569D02*
X0400750Y0228203D01*
X0387750Y0228203D02*
X0387116Y0227569D01*
X0387116Y0227886D02*
X0387116Y0226935D01*
X0387750Y0226935D02*
X0385848Y0226935D01*
X0385848Y0227886D01*
X0386165Y0228203D01*
X0386799Y0228203D01*
X0387116Y0227886D01*
X0387750Y0229145D02*
X0386482Y0230413D01*
X0386165Y0230413D01*
X0385848Y0230096D01*
X0385848Y0229462D01*
X0386165Y0229145D01*
X0387750Y0229145D02*
X0387750Y0230413D01*
X0387433Y0231355D02*
X0387750Y0231672D01*
X0387750Y0232306D01*
X0387433Y0232623D01*
X0387116Y0232623D01*
X0386799Y0232306D01*
X0386799Y0231355D01*
X0387433Y0231355D01*
X0386799Y0231355D02*
X0386165Y0231989D01*
X0385848Y0232623D01*
X0365950Y0242543D02*
X0361446Y0242543D01*
X0361446Y0241042D02*
X0361446Y0244045D01*
X0362197Y0245646D02*
X0361446Y0246397D01*
X0361446Y0247898D01*
X0362197Y0248649D01*
X0362947Y0248649D01*
X0363698Y0247898D01*
X0364449Y0248649D01*
X0365199Y0248649D01*
X0365950Y0247898D01*
X0365950Y0246397D01*
X0365199Y0245646D01*
X0363698Y0247147D02*
X0363698Y0247898D01*
X0325950Y0247898D02*
X0321446Y0247898D01*
X0323698Y0245646D01*
X0323698Y0248649D01*
X0321446Y0244045D02*
X0321446Y0241042D01*
X0321446Y0242543D02*
X0325950Y0242543D01*
X0316750Y0232623D02*
X0316750Y0231355D01*
X0316750Y0231989D02*
X0314848Y0231989D01*
X0315482Y0231355D01*
X0315482Y0230413D02*
X0315165Y0230413D01*
X0314848Y0230096D01*
X0314848Y0229462D01*
X0315165Y0229145D01*
X0315165Y0228203D02*
X0315799Y0228203D01*
X0316116Y0227886D01*
X0316116Y0226935D01*
X0316750Y0226935D02*
X0314848Y0226935D01*
X0314848Y0227886D01*
X0315165Y0228203D01*
X0316116Y0227569D02*
X0316750Y0228203D01*
X0316750Y0229145D02*
X0315482Y0230413D01*
X0316750Y0230413D02*
X0316750Y0229145D01*
X0312623Y0223152D02*
X0311355Y0223152D01*
X0310413Y0222835D02*
X0310096Y0223152D01*
X0309462Y0223152D01*
X0309145Y0222835D01*
X0308203Y0222835D02*
X0308203Y0222201D01*
X0307886Y0221884D01*
X0306935Y0221884D01*
X0306935Y0221250D02*
X0306935Y0223152D01*
X0307886Y0223152D01*
X0308203Y0222835D01*
X0307569Y0221884D02*
X0308203Y0221250D01*
X0309145Y0221250D02*
X0310413Y0222518D01*
X0310413Y0222835D01*
X0311355Y0221567D02*
X0311355Y0221250D01*
X0311355Y0221567D02*
X0312623Y0222835D01*
X0312623Y0223152D01*
X0310413Y0221250D02*
X0309145Y0221250D01*
X0277750Y0232501D02*
X0277750Y0234002D01*
X0276999Y0234753D01*
X0273997Y0234753D01*
X0273246Y0234002D01*
X0273246Y0232501D01*
X0273997Y0231750D01*
X0276999Y0231750D01*
X0277750Y0232501D01*
X0277750Y0236354D02*
X0273246Y0236354D01*
X0273246Y0238606D01*
X0273997Y0239356D01*
X0275498Y0239356D01*
X0276249Y0238606D01*
X0276249Y0236354D01*
X0273246Y0240958D02*
X0273246Y0243960D01*
X0273246Y0242459D02*
X0277750Y0242459D01*
X0275498Y0245562D02*
X0273246Y0247814D01*
X0277750Y0247814D01*
X0275498Y0248564D02*
X0275498Y0245562D01*
X0273997Y0265750D02*
X0273246Y0266501D01*
X0273246Y0268002D01*
X0273997Y0268753D01*
X0276999Y0268753D01*
X0277750Y0268002D01*
X0277750Y0266501D01*
X0276999Y0265750D01*
X0273997Y0265750D01*
X0273246Y0270354D02*
X0273246Y0272606D01*
X0273997Y0273356D01*
X0275498Y0273356D01*
X0276249Y0272606D01*
X0276249Y0270354D01*
X0277750Y0270354D02*
X0273246Y0270354D01*
X0273246Y0274958D02*
X0273246Y0277960D01*
X0273246Y0276459D02*
X0277750Y0276459D01*
X0276999Y0279562D02*
X0277750Y0280312D01*
X0277750Y0281814D01*
X0276999Y0282564D01*
X0275498Y0282564D01*
X0274747Y0281814D01*
X0274747Y0281063D01*
X0275498Y0279562D01*
X0273246Y0279562D01*
X0273246Y0282564D01*
X0273997Y0299750D02*
X0273246Y0300501D01*
X0273246Y0302002D01*
X0273997Y0302753D01*
X0276999Y0302753D01*
X0277750Y0302002D01*
X0277750Y0300501D01*
X0276999Y0299750D01*
X0273997Y0299750D01*
X0273246Y0304354D02*
X0273246Y0306606D01*
X0273997Y0307356D01*
X0275498Y0307356D01*
X0276249Y0306606D01*
X0276249Y0304354D01*
X0277750Y0304354D02*
X0273246Y0304354D01*
X0273246Y0308958D02*
X0273246Y0311960D01*
X0273246Y0310459D02*
X0277750Y0310459D01*
X0276999Y0313562D02*
X0277750Y0314312D01*
X0277750Y0315814D01*
X0276999Y0316564D01*
X0276249Y0316564D01*
X0275498Y0315814D01*
X0275498Y0313562D01*
X0276999Y0313562D01*
X0275498Y0313562D02*
X0273997Y0315063D01*
X0273246Y0316564D01*
X0273997Y0333750D02*
X0276999Y0333750D01*
X0277750Y0334501D01*
X0277750Y0336002D01*
X0276999Y0336753D01*
X0273997Y0336753D01*
X0273246Y0336002D01*
X0273246Y0334501D01*
X0273997Y0333750D01*
X0273246Y0338354D02*
X0273246Y0340606D01*
X0273997Y0341356D01*
X0275498Y0341356D01*
X0276249Y0340606D01*
X0276249Y0338354D01*
X0277750Y0338354D02*
X0273246Y0338354D01*
X0273246Y0342958D02*
X0273246Y0345960D01*
X0273246Y0344459D02*
X0277750Y0344459D01*
X0277750Y0347562D02*
X0276999Y0347562D01*
X0273997Y0350564D01*
X0273246Y0350564D01*
X0273246Y0347562D01*
X0244750Y0341201D02*
X0244750Y0340567D01*
X0244433Y0340250D01*
X0243799Y0340250D02*
X0243482Y0340884D01*
X0243482Y0341201D01*
X0243799Y0341518D01*
X0244433Y0341518D01*
X0244750Y0341201D01*
X0243799Y0340250D02*
X0242848Y0340250D01*
X0242848Y0341518D01*
X0243165Y0339308D02*
X0243799Y0339308D01*
X0244116Y0338991D01*
X0244116Y0338040D01*
X0244116Y0338674D02*
X0244750Y0339308D01*
X0244750Y0338040D02*
X0242848Y0338040D01*
X0242848Y0338991D01*
X0243165Y0339308D01*
X0236750Y0346040D02*
X0234848Y0346040D01*
X0234848Y0346991D01*
X0235165Y0347308D01*
X0235799Y0347308D01*
X0236116Y0346991D01*
X0236116Y0346040D01*
X0236116Y0346674D02*
X0236750Y0347308D01*
X0236433Y0348250D02*
X0236750Y0348567D01*
X0236750Y0349201D01*
X0236433Y0349518D01*
X0235165Y0349518D01*
X0234848Y0349201D01*
X0234848Y0348567D01*
X0235165Y0348250D01*
X0235482Y0348250D01*
X0235799Y0348567D01*
X0235799Y0349518D01*
X0242748Y0332623D02*
X0243065Y0332623D01*
X0244333Y0331355D01*
X0244650Y0331355D01*
X0244967Y0330413D02*
X0244967Y0329145D01*
X0244650Y0328203D02*
X0244016Y0327569D01*
X0244016Y0327886D02*
X0244016Y0326935D01*
X0244650Y0326935D02*
X0242748Y0326935D01*
X0242748Y0327886D01*
X0243065Y0328203D01*
X0243699Y0328203D01*
X0244016Y0327886D01*
X0241875Y0327750D02*
X0238125Y0327750D01*
X0242748Y0331355D02*
X0242748Y0332623D01*
X0218623Y0312152D02*
X0217989Y0311835D01*
X0217355Y0311201D01*
X0218306Y0311201D01*
X0218623Y0310884D01*
X0218623Y0310567D01*
X0218306Y0310250D01*
X0217672Y0310250D01*
X0217355Y0310567D01*
X0217355Y0311201D01*
X0216413Y0311201D02*
X0215145Y0311201D01*
X0216096Y0312152D01*
X0216096Y0310250D01*
X0214203Y0310250D02*
X0213569Y0310884D01*
X0213886Y0310884D02*
X0212935Y0310884D01*
X0212935Y0310250D02*
X0212935Y0312152D01*
X0213886Y0312152D01*
X0214203Y0311835D01*
X0214203Y0311201D01*
X0213886Y0310884D01*
X0238125Y0293750D02*
X0241875Y0293750D01*
X0242748Y0293886D02*
X0243065Y0294203D01*
X0243699Y0294203D01*
X0244016Y0293886D01*
X0244016Y0292935D01*
X0244650Y0292935D02*
X0242748Y0292935D01*
X0242748Y0293886D01*
X0244016Y0293569D02*
X0244650Y0294203D01*
X0244967Y0295145D02*
X0244967Y0296413D01*
X0244333Y0297355D02*
X0244650Y0297672D01*
X0244650Y0298306D01*
X0244333Y0298623D01*
X0244016Y0298623D01*
X0243699Y0298306D01*
X0243699Y0297355D01*
X0244333Y0297355D01*
X0243699Y0297355D02*
X0243065Y0297989D01*
X0242748Y0298623D01*
X0199650Y0271308D02*
X0197748Y0271308D01*
X0197748Y0270040D02*
X0199650Y0271308D01*
X0199650Y0270040D02*
X0197748Y0270040D01*
X0197748Y0269098D02*
X0199650Y0269098D01*
X0197748Y0267830D01*
X0199650Y0267830D01*
X0199333Y0266888D02*
X0198065Y0266888D01*
X0197748Y0266571D01*
X0197748Y0265937D01*
X0198065Y0265620D01*
X0199333Y0265620D01*
X0199650Y0265937D01*
X0199650Y0266571D01*
X0199333Y0266888D01*
X0199333Y0264678D02*
X0199650Y0264361D01*
X0199650Y0263727D01*
X0199333Y0263410D01*
X0198065Y0263410D01*
X0197748Y0263727D01*
X0197748Y0264361D01*
X0198065Y0264678D01*
X0199967Y0262468D02*
X0199967Y0261201D01*
X0199333Y0260258D02*
X0198065Y0260258D01*
X0197748Y0259941D01*
X0197748Y0258991D01*
X0199650Y0258991D01*
X0199650Y0259941D01*
X0199333Y0260258D01*
X0199333Y0258049D02*
X0199650Y0257732D01*
X0199650Y0257098D01*
X0199333Y0256781D01*
X0198065Y0256781D01*
X0197748Y0257098D01*
X0197748Y0257732D01*
X0198065Y0258049D01*
X0199650Y0255839D02*
X0199650Y0254571D01*
X0197748Y0254571D01*
X0306935Y0255250D02*
X0306935Y0257152D01*
X0307886Y0257152D01*
X0308203Y0256835D01*
X0308203Y0256201D01*
X0307886Y0255884D01*
X0306935Y0255884D01*
X0307569Y0255884D02*
X0308203Y0255250D01*
X0309145Y0255250D02*
X0310413Y0256518D01*
X0310413Y0256835D01*
X0310096Y0257152D01*
X0309462Y0257152D01*
X0309145Y0256835D01*
X0309145Y0255250D02*
X0310413Y0255250D01*
X0311355Y0255250D02*
X0312623Y0256518D01*
X0312623Y0256835D01*
X0312306Y0257152D01*
X0311672Y0257152D01*
X0311355Y0256835D01*
X0311355Y0255250D02*
X0312623Y0255250D01*
X0311355Y0289250D02*
X0311355Y0289567D01*
X0312623Y0290835D01*
X0312623Y0291152D01*
X0311355Y0291152D01*
X0309779Y0291152D02*
X0309779Y0289250D01*
X0309145Y0289250D02*
X0310413Y0289250D01*
X0309145Y0290518D02*
X0309779Y0291152D01*
X0308203Y0290835D02*
X0307886Y0291152D01*
X0306935Y0291152D01*
X0306935Y0289250D01*
X0306935Y0289884D02*
X0307886Y0289884D01*
X0308203Y0290201D01*
X0308203Y0290835D01*
X0307569Y0289884D02*
X0308203Y0289250D01*
X0308203Y0323250D02*
X0307569Y0323884D01*
X0307886Y0323884D02*
X0306935Y0323884D01*
X0306935Y0323250D02*
X0306935Y0325152D01*
X0307886Y0325152D01*
X0308203Y0324835D01*
X0308203Y0324201D01*
X0307886Y0323884D01*
X0309145Y0324518D02*
X0309779Y0325152D01*
X0309779Y0323250D01*
X0309145Y0323250D02*
X0310413Y0323250D01*
X0311355Y0323250D02*
X0312623Y0324518D01*
X0312623Y0324835D01*
X0312306Y0325152D01*
X0311672Y0325152D01*
X0311355Y0324835D01*
X0311355Y0323250D02*
X0312623Y0323250D01*
X0310250Y0357250D02*
X0310250Y0357567D01*
X0311518Y0358835D01*
X0311518Y0359152D01*
X0310250Y0359152D01*
X0309308Y0358835D02*
X0309308Y0358201D01*
X0308991Y0357884D01*
X0308040Y0357884D01*
X0308674Y0357884D02*
X0309308Y0357250D01*
X0308040Y0357250D02*
X0308040Y0359152D01*
X0308991Y0359152D01*
X0309308Y0358835D01*
X0371935Y0315152D02*
X0372886Y0315152D01*
X0373203Y0314835D01*
X0373203Y0314201D01*
X0372886Y0313884D01*
X0371935Y0313884D01*
X0371935Y0313250D02*
X0371935Y0315152D01*
X0372569Y0313884D02*
X0373203Y0313250D01*
X0374145Y0313250D02*
X0375413Y0314518D01*
X0375413Y0314835D01*
X0375096Y0315152D01*
X0374462Y0315152D01*
X0374145Y0314835D01*
X0374145Y0313250D02*
X0375413Y0313250D01*
X0376355Y0313567D02*
X0376355Y0313884D01*
X0376672Y0314201D01*
X0377306Y0314201D01*
X0377623Y0313884D01*
X0377623Y0313567D01*
X0377306Y0313250D01*
X0376672Y0313250D01*
X0376355Y0313567D01*
X0376672Y0314201D02*
X0376355Y0314518D01*
X0376355Y0314835D01*
X0376672Y0315152D01*
X0377306Y0315152D01*
X0377623Y0314835D01*
X0377623Y0314518D01*
X0377306Y0314201D01*
X0431935Y0313884D02*
X0432886Y0313884D01*
X0433203Y0314201D01*
X0433203Y0314835D01*
X0432886Y0315152D01*
X0431935Y0315152D01*
X0431935Y0313250D01*
X0432569Y0313884D02*
X0433203Y0313250D01*
X0434145Y0313567D02*
X0434462Y0313250D01*
X0435096Y0313250D01*
X0435413Y0313567D01*
X0435413Y0313884D01*
X0435096Y0314201D01*
X0434779Y0314201D01*
X0435096Y0314201D02*
X0435413Y0314518D01*
X0435413Y0314835D01*
X0435096Y0315152D01*
X0434462Y0315152D01*
X0434145Y0314835D01*
X0436355Y0314835D02*
X0436672Y0315152D01*
X0437306Y0315152D01*
X0437623Y0314835D01*
X0437623Y0314518D01*
X0437306Y0314201D01*
X0437623Y0313884D01*
X0437623Y0313567D01*
X0437306Y0313250D01*
X0436672Y0313250D01*
X0436355Y0313567D01*
X0436989Y0314201D02*
X0437306Y0314201D01*
X0491935Y0313884D02*
X0492886Y0313884D01*
X0493203Y0314201D01*
X0493203Y0314835D01*
X0492886Y0315152D01*
X0491935Y0315152D01*
X0491935Y0313250D01*
X0492569Y0313884D02*
X0493203Y0313250D01*
X0494145Y0313567D02*
X0494462Y0313250D01*
X0495096Y0313250D01*
X0495413Y0313567D01*
X0495413Y0313884D01*
X0495096Y0314201D01*
X0494779Y0314201D01*
X0495096Y0314201D02*
X0495413Y0314518D01*
X0495413Y0314835D01*
X0495096Y0315152D01*
X0494462Y0315152D01*
X0494145Y0314835D01*
X0496355Y0314835D02*
X0496355Y0314518D01*
X0496672Y0314201D01*
X0497306Y0314201D01*
X0497623Y0313884D01*
X0497623Y0313567D01*
X0497306Y0313250D01*
X0496672Y0313250D01*
X0496355Y0313567D01*
X0496355Y0313884D01*
X0496672Y0314201D01*
X0497306Y0314201D02*
X0497623Y0314518D01*
X0497623Y0314835D01*
X0497306Y0315152D01*
X0496672Y0315152D01*
X0496355Y0314835D01*
X0551935Y0315152D02*
X0552886Y0315152D01*
X0553203Y0314835D01*
X0553203Y0314201D01*
X0552886Y0313884D01*
X0551935Y0313884D01*
X0551935Y0313250D02*
X0551935Y0315152D01*
X0552569Y0313884D02*
X0553203Y0313250D01*
X0554145Y0314201D02*
X0555413Y0314201D01*
X0555096Y0315152D02*
X0554145Y0314201D01*
X0555096Y0313250D02*
X0555096Y0315152D01*
X0556355Y0314835D02*
X0556672Y0315152D01*
X0557306Y0315152D01*
X0557623Y0314835D01*
X0557623Y0314518D01*
X0557306Y0314201D01*
X0557623Y0313884D01*
X0557623Y0313567D01*
X0557306Y0313250D01*
X0556672Y0313250D01*
X0556355Y0313567D01*
X0556989Y0314201D02*
X0557306Y0314201D01*
X0312623Y0188835D02*
X0312306Y0189152D01*
X0311672Y0189152D01*
X0311355Y0188835D01*
X0310413Y0188835D02*
X0310413Y0188518D01*
X0310096Y0188201D01*
X0310413Y0187884D01*
X0310413Y0187567D01*
X0310096Y0187250D01*
X0309462Y0187250D01*
X0309145Y0187567D01*
X0309779Y0188201D02*
X0310096Y0188201D01*
X0310413Y0188835D02*
X0310096Y0189152D01*
X0309462Y0189152D01*
X0309145Y0188835D01*
X0308203Y0188835D02*
X0308203Y0188201D01*
X0307886Y0187884D01*
X0306935Y0187884D01*
X0306935Y0187250D02*
X0306935Y0189152D01*
X0307886Y0189152D01*
X0308203Y0188835D01*
X0307569Y0187884D02*
X0308203Y0187250D01*
X0311355Y0187250D02*
X0312623Y0188518D01*
X0312623Y0188835D01*
X0312623Y0187250D02*
X0311355Y0187250D01*
X0244333Y0094623D02*
X0244650Y0094306D01*
X0244650Y0093672D01*
X0244333Y0093355D01*
X0243065Y0094623D01*
X0244333Y0094623D01*
X0243065Y0094623D02*
X0242748Y0094306D01*
X0242748Y0093672D01*
X0243065Y0093355D01*
X0244333Y0093355D01*
X0244967Y0092413D02*
X0244967Y0091145D01*
X0244650Y0090203D02*
X0244016Y0089569D01*
X0244016Y0089886D02*
X0244016Y0088935D01*
X0244650Y0088935D02*
X0242748Y0088935D01*
X0242748Y0089886D01*
X0243065Y0090203D01*
X0243699Y0090203D01*
X0244016Y0089886D01*
X0241875Y0089750D02*
X0238125Y0089750D01*
X0097933Y0342540D02*
X0098250Y0342857D01*
X0098250Y0343491D01*
X0097933Y0343808D01*
X0097933Y0344750D02*
X0098250Y0345067D01*
X0098250Y0345701D01*
X0097933Y0346018D01*
X0097299Y0346018D01*
X0096982Y0345701D01*
X0096982Y0345384D01*
X0097299Y0344750D01*
X0096348Y0344750D01*
X0096348Y0346018D01*
X0096665Y0343808D02*
X0096348Y0343491D01*
X0096348Y0342857D01*
X0096665Y0342540D01*
X0097933Y0342540D01*
X0084518Y0348567D02*
X0084201Y0348250D01*
X0083567Y0348250D01*
X0083250Y0348567D01*
X0083884Y0349201D02*
X0084201Y0349201D01*
X0084518Y0348884D01*
X0084518Y0348567D01*
X0084201Y0349201D02*
X0084518Y0349518D01*
X0084518Y0349835D01*
X0084201Y0350152D01*
X0083567Y0350152D01*
X0083250Y0349835D01*
X0082308Y0349835D02*
X0082308Y0349201D01*
X0081991Y0348884D01*
X0081040Y0348884D01*
X0081674Y0348884D02*
X0082308Y0348250D01*
X0081040Y0348250D02*
X0081040Y0350152D01*
X0081991Y0350152D01*
X0082308Y0349835D01*
X0082308Y0352350D02*
X0081674Y0352984D01*
X0081991Y0352984D02*
X0081040Y0352984D01*
X0081040Y0352350D02*
X0081040Y0354252D01*
X0081991Y0354252D01*
X0082308Y0353935D01*
X0082308Y0353301D01*
X0081991Y0352984D01*
X0083250Y0352350D02*
X0084518Y0353618D01*
X0084518Y0353935D01*
X0084201Y0354252D01*
X0083567Y0354252D01*
X0083250Y0353935D01*
X0083250Y0352350D02*
X0084518Y0352350D01*
X0076150Y0346518D02*
X0076150Y0345250D01*
X0076150Y0345884D02*
X0074248Y0345884D01*
X0074882Y0345250D01*
X0074565Y0344308D02*
X0074248Y0343991D01*
X0074248Y0343040D01*
X0076150Y0343040D01*
X0076150Y0343991D01*
X0075833Y0344308D01*
X0074565Y0344308D01*
X0051518Y0348350D02*
X0050250Y0348350D01*
X0050884Y0348350D02*
X0050884Y0350252D01*
X0050250Y0349618D01*
X0049308Y0350252D02*
X0048040Y0350252D01*
X0048040Y0348350D01*
X0048040Y0349301D02*
X0048674Y0349301D01*
X0041228Y0348750D02*
X0039960Y0348750D01*
X0040594Y0348750D02*
X0040594Y0350652D01*
X0039960Y0350018D01*
X0039018Y0350652D02*
X0038384Y0350652D01*
X0038701Y0350652D02*
X0038701Y0349067D01*
X0038384Y0348750D01*
X0038067Y0348750D01*
X0037750Y0349067D01*
D16*
X0038563Y0345748D02*
X0034626Y0345748D01*
X0050374Y0345720D02*
X0050374Y0345748D01*
X0050374Y0345720D02*
X0054240Y0345720D01*
X0054311Y0345748D02*
X0054311Y0341811D01*
X0054311Y0318189D02*
X0054311Y0314252D01*
X0050374Y0314252D01*
X0038563Y0314252D02*
X0034626Y0314252D01*
D17*
X0066299Y0238078D02*
X0066049Y0237827D01*
X0066049Y0237327D01*
X0066299Y0237077D01*
X0066049Y0236604D02*
X0067300Y0236604D01*
X0067550Y0236354D01*
X0067550Y0235854D01*
X0067300Y0235603D01*
X0066049Y0235603D01*
X0067550Y0237077D02*
X0066549Y0238078D01*
X0066299Y0238078D01*
X0067550Y0238078D02*
X0067550Y0237077D01*
D18*
X0053500Y0241300D03*
D19*
X0150200Y0295200D02*
X0150200Y0299804D01*
X0150200Y0297502D02*
X0153269Y0297502D01*
X0154804Y0297502D02*
X0156339Y0298269D01*
X0157106Y0298269D01*
X0157873Y0297502D01*
X0157873Y0295967D01*
X0157106Y0295200D01*
X0155571Y0295200D01*
X0154804Y0295967D01*
X0154804Y0297502D02*
X0154804Y0299804D01*
X0157873Y0299804D01*
X0153269Y0299804D02*
X0153269Y0295200D01*
X0219200Y0354200D02*
X0219200Y0358804D01*
X0219200Y0356502D02*
X0222269Y0356502D01*
X0223804Y0358037D02*
X0224571Y0358804D01*
X0226106Y0358804D01*
X0226873Y0358037D01*
X0226873Y0357269D01*
X0223804Y0354200D01*
X0226873Y0354200D01*
X0222269Y0354200D02*
X0222269Y0358804D01*
X0341388Y0304037D02*
X0341388Y0300967D01*
X0342156Y0300200D01*
X0343690Y0300200D01*
X0344457Y0300967D01*
X0345992Y0300200D02*
X0349061Y0300200D01*
X0347527Y0300200D02*
X0347527Y0304804D01*
X0345992Y0303269D01*
X0344457Y0304037D02*
X0343690Y0304804D01*
X0342156Y0304804D01*
X0341388Y0304037D01*
X0350596Y0304037D02*
X0351363Y0304804D01*
X0352898Y0304804D01*
X0353665Y0304037D01*
X0353665Y0303269D01*
X0352898Y0302502D01*
X0353665Y0301735D01*
X0353665Y0300967D01*
X0352898Y0300200D01*
X0351363Y0300200D01*
X0350596Y0300967D01*
X0352131Y0302502D02*
X0352898Y0302502D01*
X0401388Y0300967D02*
X0402156Y0300200D01*
X0403690Y0300200D01*
X0404457Y0300967D01*
X0405992Y0300200D02*
X0409061Y0300200D01*
X0407527Y0300200D02*
X0407527Y0304804D01*
X0405992Y0303269D01*
X0404457Y0304037D02*
X0403690Y0304804D01*
X0402156Y0304804D01*
X0401388Y0304037D01*
X0401388Y0300967D01*
X0410596Y0302502D02*
X0412898Y0304804D01*
X0412898Y0300200D01*
X0413665Y0302502D02*
X0410596Y0302502D01*
X0461388Y0304037D02*
X0461388Y0300967D01*
X0462156Y0300200D01*
X0463690Y0300200D01*
X0464457Y0300967D01*
X0465992Y0300200D02*
X0469061Y0300200D01*
X0467527Y0300200D02*
X0467527Y0304804D01*
X0465992Y0303269D01*
X0464457Y0304037D02*
X0463690Y0304804D01*
X0462156Y0304804D01*
X0461388Y0304037D01*
X0470596Y0304804D02*
X0470596Y0302502D01*
X0472131Y0303269D01*
X0472898Y0303269D01*
X0473665Y0302502D01*
X0473665Y0300967D01*
X0472898Y0300200D01*
X0471363Y0300200D01*
X0470596Y0300967D01*
X0470596Y0304804D02*
X0473665Y0304804D01*
X0521388Y0304037D02*
X0521388Y0300967D01*
X0522156Y0300200D01*
X0523690Y0300200D01*
X0524457Y0300967D01*
X0525992Y0300200D02*
X0529061Y0300200D01*
X0527527Y0300200D02*
X0527527Y0304804D01*
X0525992Y0303269D01*
X0524457Y0304037D02*
X0523690Y0304804D01*
X0522156Y0304804D01*
X0521388Y0304037D01*
X0530596Y0302502D02*
X0532898Y0302502D01*
X0533665Y0301735D01*
X0533665Y0300967D01*
X0532898Y0300200D01*
X0531363Y0300200D01*
X0530596Y0300967D01*
X0530596Y0302502D01*
X0532131Y0304037D01*
X0533665Y0304804D01*
X0585200Y0354200D02*
X0585200Y0358804D01*
X0585200Y0356502D02*
X0588269Y0356502D01*
X0589804Y0357269D02*
X0591339Y0358804D01*
X0591339Y0354200D01*
X0592873Y0354200D02*
X0589804Y0354200D01*
X0588269Y0354200D02*
X0588269Y0358804D01*
X0532898Y0134804D02*
X0531363Y0134804D01*
X0530596Y0134037D01*
X0530596Y0133269D01*
X0531363Y0132502D01*
X0533665Y0132502D01*
X0533665Y0130967D02*
X0533665Y0134037D01*
X0532898Y0134804D01*
X0529061Y0134037D02*
X0528294Y0134804D01*
X0526759Y0134804D01*
X0525992Y0134037D01*
X0525992Y0130967D01*
X0526759Y0130200D01*
X0528294Y0130200D01*
X0529061Y0130967D01*
X0530596Y0130967D02*
X0531363Y0130200D01*
X0532898Y0130200D01*
X0533665Y0130967D01*
X0585200Y0120804D02*
X0585200Y0116200D01*
X0585200Y0118502D02*
X0588269Y0118502D01*
X0589804Y0120037D02*
X0590571Y0120804D01*
X0592106Y0120804D01*
X0592873Y0120037D01*
X0592873Y0119269D01*
X0592106Y0118502D01*
X0592873Y0117735D01*
X0592873Y0116967D01*
X0592106Y0116200D01*
X0590571Y0116200D01*
X0589804Y0116967D01*
X0588269Y0116200D02*
X0588269Y0120804D01*
X0591339Y0118502D02*
X0592106Y0118502D01*
X0473665Y0130967D02*
X0472898Y0130200D01*
X0471363Y0130200D01*
X0470596Y0130967D01*
X0473665Y0134037D01*
X0473665Y0130967D01*
X0470596Y0130967D02*
X0470596Y0134037D01*
X0471363Y0134804D01*
X0472898Y0134804D01*
X0473665Y0134037D01*
X0469061Y0130200D02*
X0465992Y0130200D01*
X0467527Y0130200D02*
X0467527Y0134804D01*
X0465992Y0133269D01*
X0464457Y0134037D02*
X0463690Y0134804D01*
X0462156Y0134804D01*
X0461388Y0134037D01*
X0461388Y0130967D01*
X0462156Y0130200D01*
X0463690Y0130200D01*
X0464457Y0130967D01*
X0413665Y0130200D02*
X0410596Y0130200D01*
X0409061Y0130200D02*
X0405992Y0130200D01*
X0407527Y0130200D02*
X0407527Y0134804D01*
X0405992Y0133269D01*
X0404457Y0134037D02*
X0403690Y0134804D01*
X0402156Y0134804D01*
X0401388Y0134037D01*
X0401388Y0130967D01*
X0402156Y0130200D01*
X0403690Y0130200D01*
X0404457Y0130967D01*
X0410596Y0133269D02*
X0412131Y0134804D01*
X0412131Y0130200D01*
X0353665Y0130200D02*
X0350596Y0130200D01*
X0353665Y0133269D01*
X0353665Y0134037D01*
X0352898Y0134804D01*
X0351363Y0134804D01*
X0350596Y0134037D01*
X0347527Y0134804D02*
X0347527Y0130200D01*
X0349061Y0130200D02*
X0345992Y0130200D01*
X0344457Y0130967D02*
X0343690Y0130200D01*
X0342156Y0130200D01*
X0341388Y0130967D01*
X0341388Y0134037D01*
X0342156Y0134804D01*
X0343690Y0134804D01*
X0344457Y0134037D01*
X0345992Y0133269D02*
X0347527Y0134804D01*
X0226873Y0118502D02*
X0223804Y0118502D01*
X0226106Y0120804D01*
X0226106Y0116200D01*
X0222269Y0116200D02*
X0222269Y0120804D01*
X0222269Y0118502D02*
X0219200Y0118502D01*
X0219200Y0116200D02*
X0219200Y0120804D01*
D20*
X0330400Y0247700D03*
X0370400Y0247700D03*
X0410400Y0247700D03*
X0450400Y0247700D03*
X0490400Y0247700D03*
X0530400Y0247700D03*
X0570400Y0247700D03*
X0610400Y0247700D03*
D21*
X0623500Y0230000D03*
X0583500Y0230000D03*
X0543500Y0230000D03*
X0503500Y0230000D03*
X0463500Y0230000D03*
X0423500Y0230000D03*
X0383500Y0230000D03*
X0343500Y0230000D03*
D22*
X0341000Y0212750D03*
X0381000Y0212750D03*
X0421000Y0212750D03*
X0461000Y0212750D03*
X0501000Y0212750D03*
X0541000Y0212750D03*
X0581000Y0212750D03*
X0621000Y0212750D03*
X0621000Y0247250D03*
X0581000Y0247250D03*
X0541000Y0247250D03*
X0501000Y0247250D03*
X0461000Y0247250D03*
X0421000Y0247250D03*
X0381000Y0247250D03*
X0341000Y0247250D03*
D23*
X0341000Y0235000D03*
X0341000Y0225000D03*
X0381000Y0225000D03*
X0381000Y0235000D03*
X0421000Y0235000D03*
X0421000Y0225000D03*
X0461000Y0225000D03*
X0461000Y0235000D03*
X0501000Y0235000D03*
X0501000Y0225000D03*
X0541000Y0225000D03*
X0541000Y0235000D03*
X0581000Y0235000D03*
X0581000Y0225000D03*
X0621000Y0225000D03*
X0621000Y0235000D03*
D24*
X0156300Y0124098D02*
X0156300Y0122630D01*
X0154098Y0122630D01*
X0154098Y0121888D02*
X0156300Y0120420D01*
X0155933Y0119678D02*
X0156300Y0119311D01*
X0156300Y0118577D01*
X0155933Y0118210D01*
X0154465Y0118210D01*
X0154098Y0118577D01*
X0154098Y0119311D01*
X0154465Y0119678D01*
X0154832Y0117468D02*
X0156300Y0117468D01*
X0155199Y0117468D02*
X0155199Y0116000D01*
X0154832Y0116000D02*
X0154098Y0116734D01*
X0154832Y0117468D01*
X0154832Y0116000D02*
X0156300Y0116000D01*
X0096000Y0117800D02*
X0094532Y0117800D01*
X0093798Y0118534D01*
X0094532Y0119268D01*
X0096000Y0119268D01*
X0095633Y0120010D02*
X0094165Y0120010D01*
X0093798Y0120377D01*
X0093798Y0121111D01*
X0094165Y0121478D01*
X0095633Y0121478D02*
X0096000Y0121111D01*
X0096000Y0120377D01*
X0095633Y0120010D01*
X0094899Y0119268D02*
X0094899Y0117800D01*
X0096000Y0122220D02*
X0093798Y0123688D01*
X0093798Y0124430D02*
X0096000Y0125898D01*
X0093798Y0125898D01*
X0093798Y0124430D02*
X0096000Y0124430D01*
X0095699Y0208400D02*
X0095699Y0209868D01*
X0096066Y0210610D02*
X0096800Y0211344D01*
X0096066Y0212078D01*
X0094598Y0212078D01*
X0095699Y0212820D02*
X0095332Y0213187D01*
X0095332Y0213921D01*
X0095699Y0214288D01*
X0096433Y0214288D01*
X0096800Y0213921D01*
X0096800Y0213187D01*
X0096433Y0212820D01*
X0095699Y0212820D01*
X0096066Y0210610D02*
X0094598Y0210610D01*
X0124398Y0210978D02*
X0125866Y0210978D01*
X0126600Y0210244D01*
X0125866Y0209510D01*
X0124398Y0209510D01*
X0125499Y0208768D02*
X0125499Y0207300D01*
X0124765Y0208034D02*
X0126233Y0208034D01*
X0126233Y0211720D02*
X0126600Y0212087D01*
X0126600Y0212821D01*
X0126233Y0213188D01*
X0125499Y0213188D01*
X0125132Y0212821D01*
X0125132Y0212087D01*
X0125499Y0211720D01*
X0126233Y0211720D01*
D25*
X0079167Y0288749D02*
X0079404Y0288898D01*
X0079602Y0289096D01*
X0079751Y0289333D01*
X0079844Y0289597D01*
X0079875Y0289875D01*
X0079844Y0290153D01*
X0079751Y0290417D01*
X0079602Y0290654D01*
X0079404Y0290852D01*
X0079167Y0291001D01*
X0078903Y0291094D01*
X0078625Y0291125D01*
X0078347Y0291094D01*
X0078083Y0291001D01*
X0077846Y0290852D01*
X0077648Y0290654D01*
X0077499Y0290417D01*
X0077406Y0290153D01*
X0077375Y0289875D01*
X0077406Y0289597D01*
X0077499Y0289333D01*
X0077648Y0289096D01*
X0077846Y0288898D01*
X0078083Y0288749D01*
X0078347Y0288656D01*
X0078625Y0288625D01*
X0078903Y0288656D01*
X0079167Y0288749D01*
X0079172Y0288752D02*
X0078078Y0288752D01*
X0078064Y0288760D02*
X0079186Y0288760D01*
X0079199Y0288769D02*
X0078051Y0288769D01*
X0078037Y0288777D02*
X0079213Y0288777D01*
X0079226Y0288786D02*
X0078024Y0288786D01*
X0078010Y0288794D02*
X0079240Y0288794D01*
X0079253Y0288803D02*
X0077997Y0288803D01*
X0077983Y0288811D02*
X0079267Y0288811D01*
X0079280Y0288820D02*
X0077970Y0288820D01*
X0077956Y0288828D02*
X0079294Y0288828D01*
X0079308Y0288837D02*
X0077942Y0288837D01*
X0077929Y0288845D02*
X0079321Y0288845D01*
X0079335Y0288854D02*
X0077915Y0288854D01*
X0077902Y0288862D02*
X0079348Y0288862D01*
X0079362Y0288871D02*
X0077888Y0288871D01*
X0077875Y0288879D02*
X0079375Y0288879D01*
X0079389Y0288888D02*
X0077861Y0288888D01*
X0077848Y0288897D02*
X0079402Y0288897D01*
X0079412Y0288905D02*
X0077838Y0288905D01*
X0077830Y0288914D02*
X0079420Y0288914D01*
X0079429Y0288922D02*
X0077821Y0288922D01*
X0077813Y0288931D02*
X0079437Y0288931D01*
X0079446Y0288939D02*
X0077804Y0288939D01*
X0077796Y0288948D02*
X0079454Y0288948D01*
X0079463Y0288956D02*
X0077787Y0288956D01*
X0077779Y0288965D02*
X0079471Y0288965D01*
X0079480Y0288973D02*
X0077770Y0288973D01*
X0077762Y0288982D02*
X0079488Y0288982D01*
X0079497Y0288990D02*
X0077753Y0288990D01*
X0077745Y0288999D02*
X0079505Y0288999D01*
X0079514Y0289007D02*
X0077736Y0289007D01*
X0077728Y0289016D02*
X0079522Y0289016D01*
X0079531Y0289024D02*
X0077719Y0289024D01*
X0077711Y0289033D02*
X0079539Y0289033D01*
X0079548Y0289041D02*
X0077702Y0289041D01*
X0077694Y0289050D02*
X0079556Y0289050D01*
X0079565Y0289058D02*
X0077685Y0289058D01*
X0077677Y0289067D02*
X0079573Y0289067D01*
X0079582Y0289075D02*
X0077668Y0289075D01*
X0077660Y0289084D02*
X0079590Y0289084D01*
X0079599Y0289092D02*
X0077651Y0289092D01*
X0077644Y0289101D02*
X0079606Y0289101D01*
X0079611Y0289109D02*
X0077639Y0289109D01*
X0077634Y0289118D02*
X0079616Y0289118D01*
X0079622Y0289126D02*
X0077628Y0289126D01*
X0077623Y0289135D02*
X0079627Y0289135D01*
X0079632Y0289143D02*
X0077618Y0289143D01*
X0077612Y0289152D02*
X0079638Y0289152D01*
X0079643Y0289160D02*
X0077607Y0289160D01*
X0077602Y0289169D02*
X0079648Y0289169D01*
X0079654Y0289177D02*
X0077596Y0289177D01*
X0077591Y0289186D02*
X0079659Y0289186D01*
X0079664Y0289194D02*
X0077586Y0289194D01*
X0077580Y0289203D02*
X0079670Y0289203D01*
X0079675Y0289212D02*
X0077575Y0289212D01*
X0077570Y0289220D02*
X0079680Y0289220D01*
X0079686Y0289229D02*
X0077564Y0289229D01*
X0077559Y0289237D02*
X0079691Y0289237D01*
X0079696Y0289246D02*
X0077553Y0289246D01*
X0077548Y0289254D02*
X0079702Y0289254D01*
X0079707Y0289263D02*
X0077543Y0289263D01*
X0077537Y0289271D02*
X0079713Y0289271D01*
X0079718Y0289280D02*
X0077532Y0289280D01*
X0077527Y0289288D02*
X0079723Y0289288D01*
X0079729Y0289297D02*
X0077521Y0289297D01*
X0077516Y0289305D02*
X0079734Y0289305D01*
X0079739Y0289314D02*
X0077511Y0289314D01*
X0077505Y0289322D02*
X0079745Y0289322D01*
X0079750Y0289331D02*
X0077500Y0289331D01*
X0077496Y0289339D02*
X0079754Y0289339D01*
X0079756Y0289348D02*
X0077494Y0289348D01*
X0077491Y0289356D02*
X0079759Y0289356D01*
X0079762Y0289365D02*
X0077488Y0289365D01*
X0077485Y0289373D02*
X0079765Y0289373D01*
X0079768Y0289382D02*
X0077482Y0289382D01*
X0077479Y0289390D02*
X0079771Y0289390D01*
X0079774Y0289399D02*
X0077476Y0289399D01*
X0077473Y0289407D02*
X0079777Y0289407D01*
X0079780Y0289416D02*
X0077470Y0289416D01*
X0077467Y0289424D02*
X0079783Y0289424D01*
X0079786Y0289433D02*
X0077464Y0289433D01*
X0077461Y0289441D02*
X0079789Y0289441D01*
X0079792Y0289450D02*
X0077458Y0289450D01*
X0077455Y0289458D02*
X0079795Y0289458D01*
X0079798Y0289467D02*
X0077452Y0289467D01*
X0077449Y0289475D02*
X0079801Y0289475D01*
X0079804Y0289484D02*
X0077446Y0289484D01*
X0077443Y0289492D02*
X0079807Y0289492D01*
X0079810Y0289501D02*
X0077440Y0289501D01*
X0077437Y0289509D02*
X0079813Y0289509D01*
X0079816Y0289518D02*
X0077434Y0289518D01*
X0077431Y0289527D02*
X0079819Y0289527D01*
X0079822Y0289535D02*
X0077428Y0289535D01*
X0077425Y0289544D02*
X0079825Y0289544D01*
X0079828Y0289552D02*
X0077422Y0289552D01*
X0077419Y0289561D02*
X0079831Y0289561D01*
X0079834Y0289569D02*
X0077416Y0289569D01*
X0077413Y0289578D02*
X0079837Y0289578D01*
X0079840Y0289586D02*
X0077410Y0289586D01*
X0077407Y0289595D02*
X0079843Y0289595D01*
X0079844Y0289603D02*
X0077406Y0289603D01*
X0077405Y0289612D02*
X0079845Y0289612D01*
X0079846Y0289620D02*
X0077404Y0289620D01*
X0077403Y0289629D02*
X0079847Y0289629D01*
X0079848Y0289637D02*
X0077402Y0289637D01*
X0077401Y0289646D02*
X0079849Y0289646D01*
X0079850Y0289654D02*
X0077400Y0289654D01*
X0077399Y0289663D02*
X0079851Y0289663D01*
X0079852Y0289671D02*
X0077398Y0289671D01*
X0077397Y0289680D02*
X0079853Y0289680D01*
X0079854Y0289688D02*
X0077396Y0289688D01*
X0077395Y0289697D02*
X0079855Y0289697D01*
X0079856Y0289705D02*
X0077394Y0289705D01*
X0077393Y0289714D02*
X0079857Y0289714D01*
X0079858Y0289722D02*
X0077392Y0289722D01*
X0077391Y0289731D02*
X0079859Y0289731D01*
X0079860Y0289739D02*
X0077390Y0289739D01*
X0077389Y0289748D02*
X0079861Y0289748D01*
X0079862Y0289756D02*
X0077388Y0289756D01*
X0077387Y0289765D02*
X0079863Y0289765D01*
X0079864Y0289773D02*
X0077386Y0289773D01*
X0077385Y0289782D02*
X0079865Y0289782D01*
X0079865Y0289790D02*
X0077385Y0289790D01*
X0077384Y0289799D02*
X0079866Y0289799D01*
X0079867Y0289807D02*
X0077383Y0289807D01*
X0077382Y0289816D02*
X0079868Y0289816D01*
X0079869Y0289825D02*
X0077381Y0289825D01*
X0077380Y0289833D02*
X0079870Y0289833D01*
X0079871Y0289842D02*
X0077379Y0289842D01*
X0077378Y0289850D02*
X0079872Y0289850D01*
X0079873Y0289859D02*
X0077377Y0289859D01*
X0077376Y0289867D02*
X0079874Y0289867D01*
X0079875Y0289876D02*
X0077375Y0289876D01*
X0077376Y0289884D02*
X0079874Y0289884D01*
X0079873Y0289893D02*
X0077377Y0289893D01*
X0077378Y0289901D02*
X0079872Y0289901D01*
X0079871Y0289910D02*
X0077379Y0289910D01*
X0077380Y0289918D02*
X0079870Y0289918D01*
X0079869Y0289927D02*
X0077381Y0289927D01*
X0077382Y0289935D02*
X0079868Y0289935D01*
X0079867Y0289944D02*
X0077383Y0289944D01*
X0077384Y0289952D02*
X0079866Y0289952D01*
X0079865Y0289961D02*
X0077385Y0289961D01*
X0077386Y0289969D02*
X0079864Y0289969D01*
X0079863Y0289978D02*
X0077387Y0289978D01*
X0077388Y0289986D02*
X0079862Y0289986D01*
X0079862Y0289995D02*
X0077388Y0289995D01*
X0077389Y0290003D02*
X0079861Y0290003D01*
X0079860Y0290012D02*
X0077390Y0290012D01*
X0077391Y0290020D02*
X0079859Y0290020D01*
X0079858Y0290029D02*
X0077392Y0290029D01*
X0077393Y0290037D02*
X0079857Y0290037D01*
X0079856Y0290046D02*
X0077394Y0290046D01*
X0077395Y0290054D02*
X0079855Y0290054D01*
X0079854Y0290063D02*
X0077396Y0290063D01*
X0077397Y0290071D02*
X0079853Y0290071D01*
X0079852Y0290080D02*
X0077398Y0290080D01*
X0077399Y0290088D02*
X0079851Y0290088D01*
X0079850Y0290097D02*
X0077400Y0290097D01*
X0077401Y0290105D02*
X0079849Y0290105D01*
X0079848Y0290114D02*
X0077402Y0290114D01*
X0077403Y0290122D02*
X0079847Y0290122D01*
X0079846Y0290131D02*
X0077404Y0290131D01*
X0077405Y0290140D02*
X0079845Y0290140D01*
X0079844Y0290148D02*
X0077406Y0290148D01*
X0077408Y0290157D02*
X0079842Y0290157D01*
X0079840Y0290165D02*
X0077411Y0290165D01*
X0077413Y0290174D02*
X0079837Y0290174D01*
X0079834Y0290182D02*
X0077416Y0290182D01*
X0077419Y0290191D02*
X0079831Y0290191D01*
X0079828Y0290199D02*
X0077422Y0290199D01*
X0077425Y0290208D02*
X0079825Y0290208D01*
X0079822Y0290216D02*
X0077428Y0290216D01*
X0077431Y0290225D02*
X0079819Y0290225D01*
X0079816Y0290233D02*
X0077434Y0290233D01*
X0077437Y0290242D02*
X0079813Y0290242D01*
X0079810Y0290250D02*
X0077440Y0290250D01*
X0077443Y0290259D02*
X0079807Y0290259D01*
X0079804Y0290267D02*
X0077446Y0290267D01*
X0077449Y0290276D02*
X0079801Y0290276D01*
X0079798Y0290284D02*
X0077452Y0290284D01*
X0077455Y0290293D02*
X0079795Y0290293D01*
X0079792Y0290301D02*
X0077458Y0290301D01*
X0077461Y0290310D02*
X0079789Y0290310D01*
X0079786Y0290318D02*
X0077464Y0290318D01*
X0077467Y0290327D02*
X0079783Y0290327D01*
X0079780Y0290335D02*
X0077470Y0290335D01*
X0077473Y0290344D02*
X0079777Y0290344D01*
X0079774Y0290352D02*
X0077476Y0290352D01*
X0077479Y0290361D02*
X0079771Y0290361D01*
X0079768Y0290369D02*
X0077482Y0290369D01*
X0077485Y0290378D02*
X0079765Y0290378D01*
X0079762Y0290386D02*
X0077488Y0290386D01*
X0077491Y0290395D02*
X0079759Y0290395D01*
X0079756Y0290403D02*
X0077494Y0290403D01*
X0077497Y0290412D02*
X0079753Y0290412D01*
X0079749Y0290420D02*
X0077501Y0290420D01*
X0077506Y0290429D02*
X0079744Y0290429D01*
X0079739Y0290438D02*
X0077511Y0290438D01*
X0077517Y0290446D02*
X0079733Y0290446D01*
X0079728Y0290455D02*
X0077522Y0290455D01*
X0077527Y0290463D02*
X0079723Y0290463D01*
X0079717Y0290472D02*
X0077533Y0290472D01*
X0077538Y0290480D02*
X0079712Y0290480D01*
X0079706Y0290489D02*
X0077544Y0290489D01*
X0077549Y0290497D02*
X0079701Y0290497D01*
X0079696Y0290506D02*
X0077554Y0290506D01*
X0077560Y0290514D02*
X0079690Y0290514D01*
X0079685Y0290523D02*
X0077565Y0290523D01*
X0077570Y0290531D02*
X0079680Y0290531D01*
X0079674Y0290540D02*
X0077576Y0290540D01*
X0077581Y0290548D02*
X0079669Y0290548D01*
X0079664Y0290557D02*
X0077586Y0290557D01*
X0077592Y0290565D02*
X0079658Y0290565D01*
X0079653Y0290574D02*
X0077597Y0290574D01*
X0077602Y0290582D02*
X0079648Y0290582D01*
X0079642Y0290591D02*
X0077608Y0290591D01*
X0077613Y0290599D02*
X0079637Y0290599D01*
X0079632Y0290608D02*
X0077618Y0290608D01*
X0077624Y0290616D02*
X0079626Y0290616D01*
X0079621Y0290625D02*
X0077629Y0290625D01*
X0077634Y0290633D02*
X0079616Y0290633D01*
X0079610Y0290642D02*
X0077640Y0290642D01*
X0077645Y0290650D02*
X0079605Y0290650D01*
X0079598Y0290659D02*
X0077652Y0290659D01*
X0077661Y0290667D02*
X0079589Y0290667D01*
X0079581Y0290676D02*
X0077669Y0290676D01*
X0077678Y0290684D02*
X0079572Y0290684D01*
X0079564Y0290693D02*
X0077686Y0290693D01*
X0077695Y0290701D02*
X0079555Y0290701D01*
X0079547Y0290710D02*
X0077703Y0290710D01*
X0077712Y0290718D02*
X0079538Y0290718D01*
X0079530Y0290727D02*
X0077720Y0290727D01*
X0077729Y0290735D02*
X0079521Y0290735D01*
X0079513Y0290744D02*
X0077737Y0290744D01*
X0077746Y0290753D02*
X0079504Y0290753D01*
X0079496Y0290761D02*
X0077754Y0290761D01*
X0077763Y0290770D02*
X0079487Y0290770D01*
X0079479Y0290778D02*
X0077771Y0290778D01*
X0077780Y0290787D02*
X0079470Y0290787D01*
X0079462Y0290795D02*
X0077788Y0290795D01*
X0077797Y0290804D02*
X0079453Y0290804D01*
X0079445Y0290812D02*
X0077805Y0290812D01*
X0077814Y0290821D02*
X0079436Y0290821D01*
X0079428Y0290829D02*
X0077822Y0290829D01*
X0077831Y0290838D02*
X0079419Y0290838D01*
X0079410Y0290846D02*
X0077840Y0290846D01*
X0077849Y0290855D02*
X0079401Y0290855D01*
X0079387Y0290863D02*
X0077863Y0290863D01*
X0077877Y0290872D02*
X0079373Y0290872D01*
X0079360Y0290880D02*
X0077890Y0290880D01*
X0077904Y0290889D02*
X0079346Y0290889D01*
X0079333Y0290897D02*
X0077917Y0290897D01*
X0077931Y0290906D02*
X0079319Y0290906D01*
X0079306Y0290914D02*
X0077944Y0290914D01*
X0077958Y0290923D02*
X0079292Y0290923D01*
X0079279Y0290931D02*
X0077971Y0290931D01*
X0077985Y0290940D02*
X0079265Y0290940D01*
X0079252Y0290948D02*
X0077998Y0290948D01*
X0078012Y0290957D02*
X0079238Y0290957D01*
X0079224Y0290965D02*
X0078026Y0290965D01*
X0078039Y0290974D02*
X0079211Y0290974D01*
X0079197Y0290982D02*
X0078053Y0290982D01*
X0078066Y0290991D02*
X0079184Y0290991D01*
X0079170Y0290999D02*
X0078080Y0290999D01*
X0078102Y0291008D02*
X0079148Y0291008D01*
X0079124Y0291016D02*
X0078126Y0291016D01*
X0078151Y0291025D02*
X0079100Y0291025D01*
X0079075Y0291033D02*
X0078175Y0291033D01*
X0078199Y0291042D02*
X0079051Y0291042D01*
X0079027Y0291050D02*
X0078223Y0291050D01*
X0078248Y0291059D02*
X0079002Y0291059D01*
X0078978Y0291068D02*
X0078272Y0291068D01*
X0078296Y0291076D02*
X0078954Y0291076D01*
X0078929Y0291085D02*
X0078321Y0291085D01*
X0078345Y0291093D02*
X0078905Y0291093D01*
X0078833Y0291102D02*
X0078417Y0291102D01*
X0078493Y0291110D02*
X0078757Y0291110D01*
X0078682Y0291119D02*
X0078568Y0291119D01*
X0078098Y0288743D02*
X0079152Y0288743D01*
X0079127Y0288735D02*
X0078123Y0288735D01*
X0078147Y0288726D02*
X0079103Y0288726D01*
X0079079Y0288718D02*
X0078171Y0288718D01*
X0078196Y0288709D02*
X0079054Y0288709D01*
X0079030Y0288701D02*
X0078220Y0288701D01*
X0078244Y0288692D02*
X0079006Y0288692D01*
X0078981Y0288684D02*
X0078269Y0288684D01*
X0078293Y0288675D02*
X0078957Y0288675D01*
X0078933Y0288667D02*
X0078317Y0288667D01*
X0078342Y0288658D02*
X0078908Y0288658D01*
X0078843Y0288650D02*
X0078407Y0288650D01*
X0078482Y0288641D02*
X0078768Y0288641D01*
X0078692Y0288633D02*
X0078558Y0288633D01*
M02*
