G75*
%MOIN*%
%OFA0B0*%
%FSLAX25Y25*%
%IPPOS*%
%LPD*%
%AMOC8*
5,1,8,0,0,1.08239X$1,22.5*
%
%ADD10C,0.00600*%
D10*
X0449611Y0297435D02*
X0451746Y0295300D01*
X0453921Y0296368D02*
X0454989Y0295300D01*
X0457124Y0295300D01*
X0458191Y0296368D01*
X0456056Y0298503D02*
X0454989Y0298503D01*
X0453921Y0297435D01*
X0453921Y0296368D01*
X0454989Y0298503D02*
X0453921Y0299570D01*
X0453921Y0300638D01*
X0454989Y0301705D01*
X0457124Y0301705D01*
X0458191Y0300638D01*
X0451746Y0301705D02*
X0449611Y0299570D01*
X0449611Y0297435D01*
X0466792Y0296368D02*
X0466792Y0295300D01*
X0467860Y0295300D01*
X0467860Y0296368D01*
X0466792Y0296368D01*
X0470035Y0299570D02*
X0472170Y0295300D01*
X0474305Y0299570D01*
X0476480Y0298503D02*
X0476480Y0297435D01*
X0480751Y0297435D01*
X0480751Y0296368D02*
X0480751Y0298503D01*
X0479683Y0299570D01*
X0477548Y0299570D01*
X0476480Y0298503D01*
X0477548Y0295300D02*
X0479683Y0295300D01*
X0480751Y0296368D01*
X0482926Y0295300D02*
X0485061Y0297435D01*
X0483993Y0297435D02*
X0487196Y0297435D01*
X0487196Y0295300D02*
X0487196Y0301705D01*
X0483993Y0301705D01*
X0482926Y0300638D01*
X0482926Y0298503D01*
X0483993Y0297435D01*
X0489358Y0295300D02*
X0491493Y0297435D01*
X0491493Y0299570D01*
X0489358Y0301705D01*
X0500114Y0301705D02*
X0504384Y0301705D01*
X0504384Y0298503D01*
X0502249Y0299570D01*
X0501181Y0299570D01*
X0500114Y0298503D01*
X0500114Y0296368D01*
X0501181Y0295300D01*
X0503316Y0295300D01*
X0504384Y0296368D01*
X0506539Y0296368D02*
X0506539Y0295300D01*
X0507607Y0295300D01*
X0507607Y0296368D01*
X0506539Y0296368D01*
X0509782Y0295300D02*
X0514052Y0295300D01*
X0511917Y0295300D02*
X0511917Y0301705D01*
X0514052Y0299570D01*
X0516227Y0299570D02*
X0518363Y0295300D01*
X0520498Y0299570D01*
X0519424Y0291705D02*
X0518356Y0291705D01*
X0518356Y0285300D01*
X0519424Y0285300D02*
X0517288Y0285300D01*
X0515127Y0286368D02*
X0514059Y0287435D01*
X0510856Y0287435D01*
X0510856Y0288503D02*
X0510856Y0285300D01*
X0514059Y0285300D01*
X0515127Y0286368D01*
X0514059Y0289570D02*
X0511924Y0289570D01*
X0510856Y0288503D01*
X0508681Y0289570D02*
X0506546Y0289570D01*
X0507613Y0290638D02*
X0507613Y0286368D01*
X0506546Y0285300D01*
X0504384Y0286368D02*
X0504384Y0288503D01*
X0503316Y0289570D01*
X0501181Y0289570D01*
X0500114Y0288503D01*
X0500114Y0287435D01*
X0504384Y0287435D01*
X0504384Y0286368D02*
X0503316Y0285300D01*
X0501181Y0285300D01*
X0521599Y0288503D02*
X0522666Y0287435D01*
X0525869Y0287435D01*
X0525869Y0285300D02*
X0525869Y0291705D01*
X0522666Y0291705D01*
X0521599Y0290638D01*
X0521599Y0288503D01*
X0532315Y0295300D02*
X0532315Y0299570D01*
X0532315Y0297435D02*
X0530179Y0299570D01*
X0529112Y0299570D01*
X0534490Y0298503D02*
X0534490Y0297435D01*
X0538760Y0297435D01*
X0538760Y0296368D02*
X0538760Y0298503D01*
X0537692Y0299570D01*
X0535557Y0299570D01*
X0534490Y0298503D01*
X0535557Y0295300D02*
X0537692Y0295300D01*
X0538760Y0296368D01*
X0540935Y0295300D02*
X0540935Y0298503D01*
X0542003Y0299570D01*
X0543070Y0298503D01*
X0543070Y0295300D01*
X0545206Y0295300D02*
X0545206Y0299570D01*
X0544138Y0299570D01*
X0543070Y0298503D01*
X0547367Y0295300D02*
X0549503Y0295300D01*
X0548435Y0295300D02*
X0548435Y0299570D01*
X0549503Y0299570D01*
X0548435Y0301705D02*
X0548435Y0302773D01*
X0551678Y0301705D02*
X0555948Y0301705D01*
X0553813Y0301705D02*
X0553813Y0295300D01*
X0552725Y0291705D02*
X0551658Y0291705D01*
X0551658Y0285300D01*
X0552725Y0285300D02*
X0550590Y0285300D01*
X0548428Y0285300D02*
X0546293Y0285300D01*
X0547361Y0285300D02*
X0547361Y0291705D01*
X0548428Y0291705D01*
X0544131Y0288503D02*
X0543064Y0289570D01*
X0540929Y0289570D01*
X0539861Y0288503D01*
X0539861Y0287435D01*
X0544131Y0287435D01*
X0544131Y0286368D02*
X0544131Y0288503D01*
X0544131Y0286368D02*
X0543064Y0285300D01*
X0540929Y0285300D01*
X0537686Y0285300D02*
X0537686Y0289570D01*
X0537686Y0287435D02*
X0535551Y0289570D01*
X0534483Y0289570D01*
X0554900Y0288503D02*
X0554900Y0286368D01*
X0555968Y0285300D01*
X0558103Y0285300D01*
X0559171Y0286368D01*
X0559171Y0288503D01*
X0558103Y0289570D01*
X0555968Y0289570D01*
X0554900Y0288503D01*
X0561339Y0289570D02*
X0562407Y0289570D01*
X0564542Y0287435D01*
X0564542Y0285300D02*
X0564542Y0289570D01*
X0566704Y0289570D02*
X0568839Y0289570D01*
X0567771Y0290638D02*
X0567771Y0286368D01*
X0566704Y0285300D01*
X0571014Y0285300D02*
X0571014Y0288503D01*
X0572082Y0289570D01*
X0575285Y0289570D01*
X0575285Y0285300D01*
X0577460Y0286368D02*
X0577460Y0288503D01*
X0578527Y0289570D01*
X0580662Y0289570D01*
X0581730Y0288503D01*
X0581730Y0286368D01*
X0580662Y0285300D01*
X0578527Y0285300D01*
X0577460Y0286368D01*
X0583905Y0286368D02*
X0584973Y0285300D01*
X0587108Y0285300D01*
X0588176Y0286368D01*
X0588176Y0290638D01*
X0587108Y0291705D01*
X0584973Y0291705D01*
X0583905Y0290638D01*
X0581743Y0295300D02*
X0582811Y0296368D01*
X0582811Y0300638D01*
X0583879Y0299570D02*
X0581743Y0299570D01*
X0578514Y0299570D02*
X0576379Y0299570D01*
X0575311Y0298503D01*
X0575311Y0295300D01*
X0578514Y0295300D01*
X0579582Y0296368D01*
X0578514Y0297435D01*
X0575311Y0297435D01*
X0573136Y0299570D02*
X0571001Y0299570D01*
X0572068Y0300638D02*
X0572068Y0296368D01*
X0571001Y0295300D01*
X0568839Y0296368D02*
X0567771Y0295300D01*
X0565636Y0295300D01*
X0564569Y0297435D02*
X0568839Y0297435D01*
X0568839Y0296368D02*
X0568839Y0298503D01*
X0567771Y0299570D01*
X0565636Y0299570D01*
X0564569Y0298503D01*
X0564569Y0297435D01*
X0569933Y0281705D02*
X0572068Y0281705D01*
X0573136Y0280638D01*
X0573136Y0279570D01*
X0572068Y0278503D01*
X0568866Y0278503D01*
X0568866Y0280638D02*
X0569933Y0281705D01*
X0568866Y0280638D02*
X0568866Y0276368D01*
X0569933Y0275300D01*
X0572068Y0275300D01*
X0573136Y0276368D01*
X0571001Y0271705D02*
X0571001Y0265300D01*
X0573136Y0265300D02*
X0568866Y0265300D01*
X0566691Y0265300D02*
X0566691Y0266368D01*
X0562420Y0270638D01*
X0562420Y0271705D01*
X0566691Y0271705D01*
X0571001Y0271705D02*
X0573136Y0269570D01*
X0571001Y0261705D02*
X0571001Y0255300D01*
X0573136Y0255300D02*
X0568866Y0255300D01*
X0566691Y0256368D02*
X0565623Y0255300D01*
X0563488Y0255300D01*
X0562420Y0256368D01*
X0562420Y0260638D01*
X0563488Y0261705D01*
X0565623Y0261705D01*
X0566691Y0260638D01*
X0566691Y0259570D01*
X0565623Y0258503D01*
X0562420Y0258503D01*
X0560245Y0265300D02*
X0555975Y0269570D01*
X0555975Y0270638D01*
X0557042Y0271705D01*
X0559177Y0271705D01*
X0560245Y0270638D01*
X0553800Y0269570D02*
X0551664Y0271705D01*
X0551664Y0265300D01*
X0549529Y0265300D02*
X0553800Y0265300D01*
X0555975Y0265300D02*
X0560245Y0265300D01*
X0571001Y0261705D02*
X0573136Y0259570D01*
X0575311Y0258503D02*
X0579582Y0258503D01*
X0581757Y0258503D02*
X0586027Y0258503D01*
X0582824Y0261705D01*
X0582824Y0255300D01*
X0588202Y0256368D02*
X0588202Y0260638D01*
X0592473Y0256368D01*
X0591405Y0255300D01*
X0589270Y0255300D01*
X0588202Y0256368D01*
X0588202Y0260638D02*
X0589270Y0261705D01*
X0591405Y0261705D01*
X0592473Y0260638D01*
X0592473Y0256368D01*
X0594648Y0258503D02*
X0598918Y0258503D01*
X0601093Y0260638D02*
X0605364Y0256368D01*
X0605364Y0255300D01*
X0607539Y0255300D02*
X0611809Y0255300D01*
X0609674Y0255300D02*
X0609674Y0261705D01*
X0611809Y0259570D01*
X0613984Y0260638D02*
X0618255Y0256368D01*
X0617187Y0255300D01*
X0615052Y0255300D01*
X0613984Y0256368D01*
X0613984Y0260638D01*
X0615052Y0261705D01*
X0617187Y0261705D01*
X0618255Y0260638D01*
X0618255Y0256368D01*
X0620430Y0255300D02*
X0624700Y0255300D01*
X0620430Y0259570D01*
X0620430Y0260638D01*
X0621497Y0261705D01*
X0623632Y0261705D01*
X0624700Y0260638D01*
X0624700Y0265300D02*
X0620430Y0265300D01*
X0618255Y0265300D02*
X0613984Y0265300D01*
X0616119Y0268503D02*
X0618255Y0268503D01*
X0618255Y0271705D02*
X0613984Y0271705D01*
X0613984Y0275300D02*
X0618255Y0275300D01*
X0618255Y0281705D01*
X0613984Y0281705D01*
X0615052Y0285300D02*
X0617187Y0285300D01*
X0618255Y0286368D01*
X0618255Y0288503D01*
X0617187Y0289570D01*
X0615052Y0289570D01*
X0613984Y0288503D01*
X0613984Y0287435D01*
X0618255Y0287435D01*
X0620430Y0288503D02*
X0621497Y0287435D01*
X0624700Y0287435D01*
X0624700Y0285300D02*
X0624700Y0291705D01*
X0621497Y0291705D01*
X0620430Y0290638D01*
X0620430Y0288503D01*
X0622565Y0287435D02*
X0620430Y0285300D01*
X0620430Y0281705D02*
X0620430Y0275300D01*
X0620430Y0271705D02*
X0624700Y0271705D01*
X0624700Y0265300D01*
X0624700Y0268503D02*
X0622565Y0268503D01*
X0618255Y0271705D02*
X0618255Y0265300D01*
X0605364Y0261705D02*
X0601093Y0261705D01*
X0601093Y0260638D01*
X0603228Y0265300D02*
X0603228Y0271705D01*
X0601093Y0271705D02*
X0605364Y0271705D01*
X0603228Y0275300D02*
X0603228Y0281705D01*
X0601093Y0281705D02*
X0605364Y0281705D01*
X0606444Y0285300D02*
X0603242Y0285300D01*
X0603242Y0288503D01*
X0604309Y0289570D01*
X0606444Y0289570D01*
X0606444Y0287435D02*
X0603242Y0287435D01*
X0601067Y0286368D02*
X0601067Y0289570D01*
X0601067Y0286368D02*
X0599999Y0285300D01*
X0596796Y0285300D01*
X0596796Y0284232D02*
X0597864Y0283165D01*
X0598931Y0283165D01*
X0596796Y0284232D02*
X0596796Y0289570D01*
X0598945Y0295300D02*
X0602147Y0295300D01*
X0603215Y0296368D01*
X0603215Y0298503D01*
X0602147Y0299570D01*
X0598945Y0299570D01*
X0598945Y0301705D02*
X0598945Y0295300D01*
X0596770Y0298503D02*
X0592499Y0298503D01*
X0590324Y0299570D02*
X0590324Y0300638D01*
X0589256Y0301705D01*
X0587121Y0301705D01*
X0586054Y0300638D01*
X0587121Y0298503D02*
X0586054Y0297435D01*
X0586054Y0296368D01*
X0587121Y0295300D01*
X0589256Y0295300D01*
X0590324Y0296368D01*
X0589256Y0298503D02*
X0587121Y0298503D01*
X0589256Y0298503D02*
X0590324Y0299570D01*
X0605377Y0295300D02*
X0607512Y0295300D01*
X0606444Y0295300D02*
X0606444Y0299570D01*
X0607512Y0299570D01*
X0606444Y0301705D02*
X0606444Y0302773D01*
X0610741Y0301705D02*
X0610741Y0295300D01*
X0609674Y0295300D02*
X0611809Y0295300D01*
X0613984Y0296368D02*
X0615052Y0295300D01*
X0617187Y0295300D01*
X0618255Y0296368D01*
X0618255Y0298503D01*
X0617187Y0299570D01*
X0615052Y0299570D01*
X0613984Y0298503D01*
X0613984Y0296368D01*
X0611809Y0291705D02*
X0610741Y0291705D01*
X0610741Y0285300D01*
X0609674Y0285300D02*
X0611809Y0285300D01*
X0607512Y0286368D02*
X0606444Y0287435D01*
X0607512Y0286368D02*
X0606444Y0285300D01*
X0598918Y0278503D02*
X0597850Y0279570D01*
X0595715Y0279570D01*
X0594648Y0278503D01*
X0594648Y0277435D01*
X0598918Y0277435D01*
X0598918Y0276368D02*
X0598918Y0278503D01*
X0598918Y0276368D02*
X0597850Y0275300D01*
X0595715Y0275300D01*
X0592473Y0276368D02*
X0591405Y0277435D01*
X0588202Y0277435D01*
X0588202Y0278503D02*
X0588202Y0275300D01*
X0591405Y0275300D01*
X0592473Y0276368D01*
X0591405Y0279570D02*
X0589270Y0279570D01*
X0588202Y0278503D01*
X0586027Y0279570D02*
X0584959Y0279570D01*
X0583892Y0278503D01*
X0582824Y0279570D01*
X0581757Y0278503D01*
X0581757Y0275300D01*
X0583892Y0275300D02*
X0583892Y0278503D01*
X0586027Y0279570D02*
X0586027Y0275300D01*
X0586027Y0269570D02*
X0584959Y0269570D01*
X0583892Y0268503D01*
X0582824Y0269570D01*
X0581757Y0268503D01*
X0581757Y0265300D01*
X0583892Y0265300D02*
X0583892Y0268503D01*
X0586027Y0269570D02*
X0586027Y0265300D01*
X0588202Y0265300D02*
X0591405Y0265300D01*
X0592473Y0266368D01*
X0591405Y0267435D01*
X0588202Y0267435D01*
X0588202Y0268503D02*
X0588202Y0265300D01*
X0588202Y0268503D02*
X0589270Y0269570D01*
X0591405Y0269570D01*
X0594648Y0268503D02*
X0594648Y0267435D01*
X0598918Y0267435D01*
X0598918Y0266368D02*
X0598918Y0268503D01*
X0597850Y0269570D01*
X0595715Y0269570D01*
X0594648Y0268503D01*
X0595715Y0265300D02*
X0597850Y0265300D01*
X0598918Y0266368D01*
X0616119Y0278503D02*
X0618255Y0278503D01*
X0620430Y0281705D02*
X0622565Y0279570D01*
X0624700Y0281705D01*
X0624700Y0275300D01*
X0623632Y0295300D02*
X0624700Y0296368D01*
X0623632Y0295300D02*
X0621497Y0295300D01*
X0620430Y0296368D01*
X0620430Y0297435D01*
X0621497Y0298503D01*
X0623632Y0298503D01*
X0624700Y0299570D01*
X0624700Y0300638D01*
X0623632Y0301705D01*
X0621497Y0301705D01*
X0620430Y0300638D01*
X0611809Y0301705D02*
X0610741Y0301705D01*
M02*
