G75*
%MOIN*%
%OFA0B0*%
%FSLAX25Y25*%
%IPPOS*%
%LPD*%
%AMOC8*
5,1,8,0,0,1.08239X$1,22.5*
%
%ADD10C,0.08661*%
%ADD11C,0.06693*%
%ADD12C,0.04000*%
%ADD13OC8,0.07400*%
%ADD14C,0.08858*%
%ADD15C,0.05200*%
%ADD16C,0.22000*%
%ADD17C,0.06000*%
%ADD18R,0.04756X0.04756*%
%ADD19C,0.03569*%
%ADD20C,0.01000*%
%ADD21C,0.01600*%
%ADD22C,0.03962*%
%ADD23C,0.02400*%
%ADD24C,0.07000*%
%ADD25C,0.06600*%
%ADD26C,0.15000*%
D10*
X0054843Y0258720D03*
X0054843Y0286280D03*
D11*
X0045000Y0282343D03*
X0045000Y0262657D03*
D12*
X0187500Y0329500D03*
X0192500Y0329500D03*
X0192500Y0334500D03*
X0192500Y0339500D03*
X0192500Y0344500D03*
X0192500Y0349500D03*
X0187500Y0349500D03*
X0187500Y0344500D03*
X0187500Y0339500D03*
X0187500Y0334500D03*
D13*
X0191500Y0267000D03*
X0191500Y0257000D03*
X0181500Y0257000D03*
X0181500Y0267000D03*
X0181500Y0247000D03*
X0181500Y0237000D03*
X0181500Y0227000D03*
X0191500Y0227000D03*
X0191500Y0237000D03*
X0191500Y0247000D03*
X0191500Y0217000D03*
X0191500Y0207000D03*
X0191500Y0197000D03*
X0181500Y0197000D03*
X0181500Y0207000D03*
X0181500Y0217000D03*
X0181500Y0187000D03*
X0181500Y0177000D03*
X0181500Y0167000D03*
X0191500Y0167000D03*
X0191500Y0177000D03*
X0191500Y0187000D03*
X0191500Y0157000D03*
X0181500Y0157000D03*
D14*
X0053496Y0110000D02*
X0044638Y0110000D01*
X0065504Y0110000D02*
X0074362Y0110000D01*
X0074362Y0142500D02*
X0065504Y0142500D01*
X0053496Y0142500D02*
X0044638Y0142500D01*
X0350000Y0124862D02*
X0350000Y0116004D01*
X0350000Y0103996D02*
X0350000Y0095138D01*
X0375000Y0095138D02*
X0375000Y0103996D01*
X0375000Y0116004D02*
X0375000Y0124862D01*
X0410000Y0124862D02*
X0410000Y0116004D01*
X0410000Y0103996D02*
X0410000Y0095138D01*
X0435000Y0095138D02*
X0435000Y0103996D01*
X0435000Y0116004D02*
X0435000Y0124862D01*
X0470000Y0124862D02*
X0470000Y0116004D01*
X0470000Y0103996D02*
X0470000Y0095138D01*
X0495000Y0095138D02*
X0495000Y0103996D01*
X0495000Y0116004D02*
X0495000Y0124862D01*
X0530000Y0124862D02*
X0530000Y0116004D01*
X0530000Y0103996D02*
X0530000Y0095138D01*
X0555000Y0095138D02*
X0555000Y0103996D01*
X0555000Y0116004D02*
X0555000Y0124862D01*
X0555000Y0325138D02*
X0555000Y0333996D01*
X0555000Y0346004D02*
X0555000Y0354862D01*
X0530000Y0354862D02*
X0530000Y0346004D01*
X0530000Y0333996D02*
X0530000Y0325138D01*
X0495000Y0325138D02*
X0495000Y0333996D01*
X0495000Y0346004D02*
X0495000Y0354862D01*
X0470000Y0354862D02*
X0470000Y0346004D01*
X0470000Y0333996D02*
X0470000Y0325138D01*
X0435000Y0325138D02*
X0435000Y0333996D01*
X0435000Y0346004D02*
X0435000Y0354862D01*
X0410000Y0354862D02*
X0410000Y0346004D01*
X0410000Y0333996D02*
X0410000Y0325138D01*
X0375000Y0325138D02*
X0375000Y0333996D01*
X0375000Y0346004D02*
X0375000Y0354862D01*
X0350000Y0354862D02*
X0350000Y0346004D01*
X0350000Y0333996D02*
X0350000Y0325138D01*
D15*
X0296200Y0320000D02*
X0291000Y0320000D01*
X0291000Y0310000D02*
X0296200Y0310000D01*
X0296200Y0300000D02*
X0291000Y0300000D01*
X0291000Y0286000D02*
X0296200Y0286000D01*
X0296200Y0276000D02*
X0291000Y0276000D01*
X0291000Y0266000D02*
X0296200Y0266000D01*
X0296200Y0252000D02*
X0291000Y0252000D01*
X0291000Y0242000D02*
X0296200Y0242000D01*
X0296200Y0232000D02*
X0291000Y0232000D01*
X0291000Y0218000D02*
X0296200Y0218000D01*
X0296200Y0208000D02*
X0291000Y0208000D01*
X0291000Y0198000D02*
X0296200Y0198000D01*
X0296200Y0184000D02*
X0291000Y0184000D01*
X0291000Y0174000D02*
X0296200Y0174000D01*
X0296200Y0164000D02*
X0291000Y0164000D01*
X0291000Y0150000D02*
X0296200Y0150000D01*
X0296200Y0140000D02*
X0291000Y0140000D01*
X0291000Y0130000D02*
X0296200Y0130000D01*
X0296200Y0116000D02*
X0291000Y0116000D01*
X0291000Y0106000D02*
X0296200Y0106000D01*
X0296200Y0096000D02*
X0291000Y0096000D01*
X0261000Y0096000D02*
X0255800Y0096000D01*
X0255800Y0106000D02*
X0261000Y0106000D01*
X0261000Y0116000D02*
X0255800Y0116000D01*
X0255800Y0130000D02*
X0261000Y0130000D01*
X0261000Y0140000D02*
X0255800Y0140000D01*
X0255800Y0150000D02*
X0261000Y0150000D01*
X0261000Y0164000D02*
X0255800Y0164000D01*
X0255800Y0174000D02*
X0261000Y0174000D01*
X0261000Y0184000D02*
X0255800Y0184000D01*
X0255800Y0198000D02*
X0261000Y0198000D01*
X0261000Y0208000D02*
X0255800Y0208000D01*
X0255800Y0218000D02*
X0261000Y0218000D01*
X0261000Y0232000D02*
X0255800Y0232000D01*
X0255800Y0242000D02*
X0261000Y0242000D01*
X0261000Y0252000D02*
X0255800Y0252000D01*
X0255800Y0266000D02*
X0261000Y0266000D01*
X0261000Y0276000D02*
X0255800Y0276000D01*
X0255800Y0286000D02*
X0261000Y0286000D01*
X0261000Y0300000D02*
X0255800Y0300000D01*
X0255800Y0310000D02*
X0261000Y0310000D01*
X0261000Y0320000D02*
X0255800Y0320000D01*
X0255800Y0334000D02*
X0261000Y0334000D01*
X0261000Y0344000D02*
X0255800Y0344000D01*
X0255800Y0354000D02*
X0261000Y0354000D01*
X0291000Y0354000D02*
X0296200Y0354000D01*
X0296200Y0344000D02*
X0291000Y0344000D01*
X0291000Y0334000D02*
X0296200Y0334000D01*
D16*
X0219000Y0344000D03*
X0150000Y0285000D03*
X0219000Y0106000D03*
X0585000Y0106000D03*
X0585000Y0344000D03*
D17*
X0578000Y0240000D02*
X0572000Y0240000D01*
X0572000Y0230000D02*
X0578000Y0230000D01*
X0578000Y0220000D02*
X0572000Y0220000D01*
X0538000Y0220000D02*
X0532000Y0220000D01*
X0532000Y0230000D02*
X0538000Y0230000D01*
X0538000Y0240000D02*
X0532000Y0240000D01*
X0498000Y0240000D02*
X0492000Y0240000D01*
X0492000Y0230000D02*
X0498000Y0230000D01*
X0498000Y0220000D02*
X0492000Y0220000D01*
X0458000Y0220000D02*
X0452000Y0220000D01*
X0452000Y0230000D02*
X0458000Y0230000D01*
X0458000Y0240000D02*
X0452000Y0240000D01*
X0418000Y0240000D02*
X0412000Y0240000D01*
X0412000Y0230000D02*
X0418000Y0230000D01*
X0418000Y0220000D02*
X0412000Y0220000D01*
X0378000Y0220000D02*
X0372000Y0220000D01*
X0372000Y0230000D02*
X0378000Y0230000D01*
X0378000Y0240000D02*
X0372000Y0240000D01*
X0338000Y0240000D02*
X0332000Y0240000D01*
X0332000Y0230000D02*
X0338000Y0230000D01*
X0338000Y0220000D02*
X0332000Y0220000D01*
X0612000Y0220000D02*
X0618000Y0220000D01*
X0618000Y0230000D02*
X0612000Y0230000D01*
X0612000Y0240000D02*
X0618000Y0240000D01*
D18*
X0155000Y0110000D03*
X0095000Y0110000D03*
X0095000Y0220000D03*
X0125000Y0220000D03*
D19*
X0132000Y0207000D03*
X0131000Y0201000D03*
X0167000Y0212000D03*
X0172000Y0210000D03*
X0171000Y0219000D03*
X0147500Y0243500D03*
X0160500Y0267500D03*
X0135000Y0268000D03*
X0131000Y0271000D03*
X0127000Y0267000D03*
X0115047Y0284173D03*
X0124000Y0294000D03*
X0118000Y0296000D03*
X0112984Y0300000D03*
X0101000Y0313500D03*
X0095000Y0314500D03*
X0091500Y0318500D03*
X0091500Y0323000D03*
X0090000Y0331500D03*
X0093500Y0334500D03*
X0097000Y0344500D03*
X0090500Y0351500D03*
X0093500Y0358000D03*
X0107000Y0352500D03*
X0108500Y0345000D03*
X0115000Y0338500D03*
X0117500Y0335000D03*
X0122000Y0337000D03*
X0121500Y0332000D03*
X0130000Y0338000D03*
X0134500Y0336000D03*
X0133500Y0324500D03*
X0132000Y0320500D03*
X0136000Y0316500D03*
X0145000Y0311000D03*
X0143500Y0307000D03*
X0140500Y0302500D03*
X0148500Y0314500D03*
X0151500Y0318000D03*
X0148500Y0322000D03*
X0122984Y0349795D03*
X0076000Y0351000D03*
X0072500Y0337500D03*
X0083000Y0280500D03*
X0069000Y0269000D03*
X0080000Y0245000D03*
X0103000Y0236000D03*
X0106500Y0249500D03*
X0047000Y0205000D03*
X0192000Y0283000D03*
X0187000Y0302500D03*
X0189000Y0307000D03*
X0187000Y0311000D03*
X0189500Y0314500D03*
X0187000Y0318000D03*
X0189500Y0322000D03*
X0205000Y0353000D03*
X0247500Y0352500D03*
X0247500Y0320000D03*
X0233000Y0305000D03*
X0233000Y0288000D03*
X0247500Y0285000D03*
X0209000Y0259000D03*
X0238000Y0256000D03*
X0247500Y0252500D03*
X0214000Y0229000D03*
X0247500Y0217500D03*
X0247500Y0182500D03*
X0206500Y0156000D03*
X0202000Y0171000D03*
X0206000Y0140000D03*
X0247500Y0150000D03*
X0247500Y0115000D03*
X0204000Y0100000D03*
D20*
X0207631Y0101291D02*
X0209238Y0098509D01*
X0211509Y0096238D01*
X0214291Y0094631D01*
X0217394Y0093800D01*
X0220606Y0093800D01*
X0223709Y0094631D01*
X0226491Y0096238D01*
X0228762Y0098509D01*
X0230369Y0101291D01*
X0231200Y0104394D01*
X0231200Y0107606D01*
X0230369Y0110709D01*
X0228762Y0113491D01*
X0226491Y0115762D01*
X0223709Y0117369D01*
X0220606Y0118200D01*
X0217394Y0118200D01*
X0214291Y0117369D01*
X0211509Y0115762D01*
X0209238Y0113491D01*
X0207631Y0110709D01*
X0206800Y0107606D01*
X0206800Y0104394D01*
X0207631Y0101291D01*
X0207813Y0100976D02*
X0195000Y0100976D01*
X0195000Y0099978D02*
X0208390Y0099978D01*
X0208966Y0098979D02*
X0195000Y0098979D01*
X0195000Y0097981D02*
X0209766Y0097981D01*
X0210764Y0096982D02*
X0195000Y0096982D01*
X0195000Y0095984D02*
X0211949Y0095984D01*
X0213678Y0094985D02*
X0195000Y0094985D01*
X0195000Y0093987D02*
X0216697Y0093987D01*
X0221303Y0093987D02*
X0252521Y0093987D01*
X0252579Y0093847D02*
X0253647Y0092779D01*
X0255044Y0092200D01*
X0261756Y0092200D01*
X0263153Y0092779D01*
X0264221Y0093847D01*
X0264800Y0095244D01*
X0264800Y0096756D01*
X0264221Y0098153D01*
X0263153Y0099221D01*
X0261756Y0099800D01*
X0255044Y0099800D01*
X0253647Y0099221D01*
X0252579Y0098153D01*
X0252000Y0096756D01*
X0252000Y0095244D01*
X0252579Y0093847D01*
X0253438Y0092988D02*
X0195000Y0092988D01*
X0195000Y0091990D02*
X0265500Y0091990D01*
X0265500Y0092988D02*
X0263362Y0092988D01*
X0264279Y0093987D02*
X0265500Y0093987D01*
X0265500Y0094985D02*
X0264693Y0094985D01*
X0264800Y0095984D02*
X0265500Y0095984D01*
X0265500Y0096982D02*
X0264706Y0096982D01*
X0264293Y0097981D02*
X0265500Y0097981D01*
X0265500Y0098979D02*
X0263395Y0098979D01*
X0265500Y0099978D02*
X0229610Y0099978D01*
X0230187Y0100976D02*
X0265500Y0100976D01*
X0265500Y0101975D02*
X0230552Y0101975D01*
X0230819Y0102973D02*
X0253453Y0102973D01*
X0253647Y0102779D02*
X0255044Y0102200D01*
X0261756Y0102200D01*
X0263153Y0102779D01*
X0264221Y0103847D01*
X0264800Y0105244D01*
X0264800Y0106756D01*
X0264221Y0108153D01*
X0263153Y0109221D01*
X0261756Y0109800D01*
X0255044Y0109800D01*
X0253647Y0109221D01*
X0252579Y0108153D01*
X0252000Y0106756D01*
X0252000Y0105244D01*
X0252579Y0103847D01*
X0253647Y0102779D01*
X0252527Y0103972D02*
X0231087Y0103972D01*
X0231200Y0104970D02*
X0252113Y0104970D01*
X0252000Y0105969D02*
X0231200Y0105969D01*
X0231200Y0106967D02*
X0252088Y0106967D01*
X0252501Y0107966D02*
X0231104Y0107966D01*
X0230836Y0108964D02*
X0253390Y0108964D01*
X0255044Y0112200D02*
X0253647Y0112779D01*
X0252579Y0113847D01*
X0252000Y0115244D01*
X0252000Y0116756D01*
X0252579Y0118153D01*
X0253647Y0119221D01*
X0255044Y0119800D01*
X0261756Y0119800D01*
X0263153Y0119221D01*
X0264221Y0118153D01*
X0264800Y0116756D01*
X0264800Y0115244D01*
X0264221Y0113847D01*
X0263153Y0112779D01*
X0261756Y0112200D01*
X0255044Y0112200D01*
X0253468Y0112958D02*
X0249679Y0112958D01*
X0250030Y0113310D02*
X0250484Y0114406D01*
X0250484Y0115594D01*
X0250030Y0116690D01*
X0249900Y0116820D01*
X0249900Y0148180D01*
X0250030Y0148310D01*
X0250484Y0149406D01*
X0250484Y0150594D01*
X0250030Y0151690D01*
X0249900Y0151820D01*
X0249900Y0180680D01*
X0250030Y0180810D01*
X0250484Y0181906D01*
X0250484Y0183094D01*
X0250030Y0184190D01*
X0249900Y0184320D01*
X0249900Y0215680D01*
X0250030Y0215810D01*
X0250484Y0216906D01*
X0250484Y0218094D01*
X0250030Y0219190D01*
X0249900Y0219320D01*
X0249900Y0250680D01*
X0250030Y0250810D01*
X0250484Y0251906D01*
X0250484Y0253094D01*
X0250030Y0254190D01*
X0249900Y0254320D01*
X0249900Y0283180D01*
X0250030Y0283310D01*
X0250484Y0284406D01*
X0250484Y0285594D01*
X0250030Y0286690D01*
X0249900Y0286820D01*
X0249900Y0318180D01*
X0250030Y0318310D01*
X0250484Y0319406D01*
X0250484Y0320594D01*
X0250030Y0321690D01*
X0249900Y0321820D01*
X0249900Y0350680D01*
X0250030Y0350810D01*
X0250484Y0351906D01*
X0250484Y0353094D01*
X0250030Y0354190D01*
X0249190Y0355030D01*
X0248094Y0355484D01*
X0246906Y0355484D01*
X0245810Y0355030D01*
X0244970Y0354190D01*
X0244516Y0353094D01*
X0244516Y0351906D01*
X0244970Y0350810D01*
X0245100Y0350680D01*
X0245100Y0321820D01*
X0244970Y0321690D01*
X0244516Y0320594D01*
X0244516Y0319406D01*
X0244970Y0318310D01*
X0245100Y0318180D01*
X0245100Y0286820D01*
X0244970Y0286690D01*
X0244516Y0285594D01*
X0244516Y0284406D01*
X0244970Y0283310D01*
X0245100Y0283180D01*
X0245100Y0254320D01*
X0244970Y0254190D01*
X0244516Y0253094D01*
X0244516Y0251906D01*
X0244970Y0250810D01*
X0245100Y0250680D01*
X0245100Y0219320D01*
X0244970Y0219190D01*
X0244516Y0218094D01*
X0244516Y0216906D01*
X0244970Y0215810D01*
X0245100Y0215680D01*
X0245100Y0184320D01*
X0244970Y0184190D01*
X0244516Y0183094D01*
X0244516Y0181906D01*
X0244970Y0180810D01*
X0245100Y0180680D01*
X0245100Y0162400D01*
X0203523Y0162400D01*
X0202641Y0162035D01*
X0201965Y0161359D01*
X0196700Y0156094D01*
X0196700Y0156500D01*
X0192000Y0156500D01*
X0192000Y0157500D01*
X0196700Y0157500D01*
X0196700Y0159154D01*
X0193654Y0162200D01*
X0193630Y0162200D01*
X0196400Y0164970D01*
X0196400Y0168996D01*
X0201204Y0173800D01*
X0202200Y0174796D01*
X0202200Y0229204D01*
X0198700Y0232704D01*
X0197704Y0233700D01*
X0195130Y0233700D01*
X0196400Y0234970D01*
X0196400Y0239030D01*
X0193530Y0241900D01*
X0189470Y0241900D01*
X0186600Y0239030D01*
X0186600Y0234970D01*
X0187870Y0233700D01*
X0185130Y0233700D01*
X0186400Y0234970D01*
X0186400Y0239030D01*
X0183530Y0241900D01*
X0179470Y0241900D01*
X0176600Y0239030D01*
X0176600Y0234970D01*
X0177870Y0233700D01*
X0152704Y0233700D01*
X0146200Y0240204D01*
X0146200Y0268796D01*
X0146704Y0269300D01*
X0157204Y0269300D01*
X0165204Y0277300D01*
X0166200Y0278296D01*
X0166200Y0290204D01*
X0157200Y0299204D01*
X0156204Y0300200D01*
X0142420Y0300200D01*
X0143020Y0300800D01*
X0184480Y0300800D01*
X0185310Y0299970D01*
X0186406Y0299516D01*
X0187594Y0299516D01*
X0188690Y0299970D01*
X0189530Y0300810D01*
X0189984Y0301906D01*
X0189984Y0303094D01*
X0189601Y0304019D01*
X0190690Y0304470D01*
X0191530Y0305310D01*
X0191984Y0306406D01*
X0191984Y0307594D01*
X0191530Y0308690D01*
X0190690Y0309530D01*
X0189778Y0309908D01*
X0189984Y0310406D01*
X0189984Y0311516D01*
X0190094Y0311516D01*
X0191190Y0311970D01*
X0192030Y0312810D01*
X0192484Y0313906D01*
X0192484Y0315094D01*
X0192030Y0316190D01*
X0191190Y0317030D01*
X0190094Y0317484D01*
X0189984Y0317484D01*
X0189984Y0318594D01*
X0189809Y0319016D01*
X0190094Y0319016D01*
X0191190Y0319470D01*
X0192030Y0320310D01*
X0192484Y0321406D01*
X0192484Y0322594D01*
X0192030Y0323690D01*
X0191190Y0324530D01*
X0190094Y0324984D01*
X0188906Y0324984D01*
X0187810Y0324530D01*
X0186980Y0323700D01*
X0151020Y0323700D01*
X0150190Y0324530D01*
X0149094Y0324984D01*
X0147906Y0324984D01*
X0146810Y0324530D01*
X0145970Y0323690D01*
X0145516Y0322594D01*
X0145516Y0321406D01*
X0145970Y0320310D01*
X0146810Y0319470D01*
X0147906Y0319016D01*
X0148691Y0319016D01*
X0148516Y0318594D01*
X0148516Y0317484D01*
X0147906Y0317484D01*
X0146810Y0317030D01*
X0145970Y0316190D01*
X0145516Y0315094D01*
X0145516Y0313984D01*
X0144406Y0313984D01*
X0143310Y0313530D01*
X0142470Y0312690D01*
X0142016Y0311594D01*
X0142016Y0310406D01*
X0142295Y0309731D01*
X0141810Y0309530D01*
X0140970Y0308690D01*
X0140516Y0307594D01*
X0140516Y0306406D01*
X0140898Y0305484D01*
X0139906Y0305484D01*
X0138810Y0305030D01*
X0137970Y0304190D01*
X0137516Y0303094D01*
X0137516Y0301906D01*
X0137528Y0301876D01*
X0136200Y0303204D01*
X0136200Y0313516D01*
X0136594Y0313516D01*
X0137690Y0313970D01*
X0138530Y0314810D01*
X0138984Y0315906D01*
X0138984Y0317094D01*
X0138530Y0318190D01*
X0137690Y0319030D01*
X0136594Y0319484D01*
X0135406Y0319484D01*
X0134686Y0319186D01*
X0134984Y0319906D01*
X0134984Y0321094D01*
X0134705Y0321769D01*
X0135190Y0321970D01*
X0136030Y0322810D01*
X0136484Y0323906D01*
X0136484Y0325094D01*
X0136030Y0326190D01*
X0135700Y0326520D01*
X0135700Y0332704D01*
X0135302Y0333102D01*
X0136190Y0333470D01*
X0137030Y0334310D01*
X0137484Y0335406D01*
X0137484Y0336594D01*
X0137049Y0337645D01*
X0152704Y0353300D01*
X0155796Y0353300D01*
X0181296Y0327800D01*
X0184741Y0327800D01*
X0184787Y0327687D01*
X0185687Y0326787D01*
X0186863Y0326300D01*
X0188137Y0326300D01*
X0189313Y0326787D01*
X0190000Y0327475D01*
X0190687Y0326787D01*
X0191863Y0326300D01*
X0193137Y0326300D01*
X0194313Y0326787D01*
X0195213Y0327687D01*
X0195700Y0328863D01*
X0195700Y0330137D01*
X0195514Y0330585D01*
X0196404Y0331475D01*
X0197400Y0332470D01*
X0197400Y0352004D01*
X0190000Y0359404D01*
X0190000Y0359700D01*
X0265500Y0359700D01*
X0265500Y0090300D01*
X0195000Y0090300D01*
X0195000Y0123596D01*
X0195296Y0123300D01*
X0203704Y0123300D01*
X0204700Y0124296D01*
X0207700Y0127296D01*
X0207700Y0137480D01*
X0208530Y0138310D01*
X0208984Y0139406D01*
X0208984Y0140594D01*
X0208530Y0141690D01*
X0207690Y0142530D01*
X0206594Y0142984D01*
X0206388Y0142984D01*
X0208200Y0144796D01*
X0208200Y0153480D01*
X0209030Y0154310D01*
X0209484Y0155406D01*
X0209484Y0156594D01*
X0209067Y0157600D01*
X0245100Y0157600D01*
X0245100Y0151820D01*
X0244970Y0151690D01*
X0244516Y0150594D01*
X0244516Y0149406D01*
X0244970Y0148310D01*
X0245100Y0148180D01*
X0245100Y0116820D01*
X0244970Y0116690D01*
X0244516Y0115594D01*
X0244516Y0114406D01*
X0244970Y0113310D01*
X0245810Y0112470D01*
X0246906Y0112016D01*
X0248094Y0112016D01*
X0249190Y0112470D01*
X0250030Y0113310D01*
X0250298Y0113957D02*
X0252533Y0113957D01*
X0252120Y0114955D02*
X0250484Y0114955D01*
X0250335Y0115954D02*
X0252000Y0115954D01*
X0252081Y0116952D02*
X0249900Y0116952D01*
X0249900Y0117951D02*
X0252495Y0117951D01*
X0253375Y0118949D02*
X0249900Y0118949D01*
X0249900Y0119948D02*
X0265500Y0119948D01*
X0265500Y0120946D02*
X0249900Y0120946D01*
X0249900Y0121945D02*
X0265500Y0121945D01*
X0265500Y0122943D02*
X0249900Y0122943D01*
X0249900Y0123942D02*
X0265500Y0123942D01*
X0265500Y0124940D02*
X0249900Y0124940D01*
X0249900Y0125939D02*
X0265500Y0125939D01*
X0265500Y0126937D02*
X0263311Y0126937D01*
X0263153Y0126779D02*
X0264221Y0127847D01*
X0264800Y0129244D01*
X0264800Y0130756D01*
X0264221Y0132153D01*
X0263153Y0133221D01*
X0261756Y0133800D01*
X0255044Y0133800D01*
X0253647Y0133221D01*
X0252579Y0132153D01*
X0252000Y0130756D01*
X0252000Y0129244D01*
X0252579Y0127847D01*
X0253647Y0126779D01*
X0255044Y0126200D01*
X0261756Y0126200D01*
X0263153Y0126779D01*
X0264258Y0127936D02*
X0265500Y0127936D01*
X0265500Y0128934D02*
X0264672Y0128934D01*
X0264800Y0129933D02*
X0265500Y0129933D01*
X0265500Y0130932D02*
X0264727Y0130932D01*
X0264314Y0131930D02*
X0265500Y0131930D01*
X0265500Y0132929D02*
X0263445Y0132929D01*
X0265500Y0133927D02*
X0249900Y0133927D01*
X0249900Y0132929D02*
X0253355Y0132929D01*
X0252486Y0131930D02*
X0249900Y0131930D01*
X0249900Y0130932D02*
X0252073Y0130932D01*
X0252000Y0129933D02*
X0249900Y0129933D01*
X0249900Y0128934D02*
X0252128Y0128934D01*
X0252542Y0127936D02*
X0249900Y0127936D01*
X0249900Y0126937D02*
X0253489Y0126937D01*
X0245100Y0126937D02*
X0207342Y0126937D01*
X0207700Y0127936D02*
X0245100Y0127936D01*
X0245100Y0128934D02*
X0207700Y0128934D01*
X0207700Y0129933D02*
X0245100Y0129933D01*
X0245100Y0130932D02*
X0207700Y0130932D01*
X0207700Y0131930D02*
X0245100Y0131930D01*
X0245100Y0132929D02*
X0207700Y0132929D01*
X0207700Y0133927D02*
X0245100Y0133927D01*
X0245100Y0134926D02*
X0207700Y0134926D01*
X0207700Y0135924D02*
X0245100Y0135924D01*
X0245100Y0136923D02*
X0207700Y0136923D01*
X0208141Y0137921D02*
X0245100Y0137921D01*
X0245100Y0138920D02*
X0208783Y0138920D01*
X0208984Y0139918D02*
X0245100Y0139918D01*
X0245100Y0140917D02*
X0208850Y0140917D01*
X0208305Y0141915D02*
X0245100Y0141915D01*
X0245100Y0142914D02*
X0206764Y0142914D01*
X0207316Y0143912D02*
X0245100Y0143912D01*
X0245100Y0144911D02*
X0208200Y0144911D01*
X0208200Y0145909D02*
X0245100Y0145909D01*
X0245100Y0146908D02*
X0208200Y0146908D01*
X0208200Y0147906D02*
X0245100Y0147906D01*
X0244724Y0148905D02*
X0208200Y0148905D01*
X0208200Y0149903D02*
X0244516Y0149903D01*
X0244643Y0150902D02*
X0208200Y0150902D01*
X0208200Y0151900D02*
X0245100Y0151900D01*
X0245100Y0152899D02*
X0208200Y0152899D01*
X0208618Y0153897D02*
X0245100Y0153897D01*
X0245100Y0154896D02*
X0209273Y0154896D01*
X0209484Y0155894D02*
X0245100Y0155894D01*
X0245100Y0156893D02*
X0209360Y0156893D01*
X0206500Y0156000D02*
X0206500Y0145500D01*
X0196000Y0135000D01*
X0189000Y0135000D01*
X0137000Y0187000D01*
X0137000Y0262000D01*
X0140000Y0265000D01*
X0140000Y0271000D01*
X0121000Y0290000D01*
X0121000Y0291000D01*
X0124000Y0294000D01*
X0126688Y0292690D02*
X0135800Y0292690D01*
X0135800Y0291692D02*
X0125912Y0291692D01*
X0125690Y0291470D02*
X0126530Y0292310D01*
X0126984Y0293406D01*
X0126984Y0294594D01*
X0126530Y0295690D01*
X0125690Y0296530D01*
X0124594Y0296984D01*
X0123406Y0296984D01*
X0122310Y0296530D01*
X0121470Y0295690D01*
X0121016Y0294594D01*
X0121016Y0293420D01*
X0120296Y0292700D01*
X0119700Y0292104D01*
X0119700Y0293480D01*
X0120530Y0294310D01*
X0120984Y0295406D01*
X0120984Y0296594D01*
X0120530Y0297690D01*
X0119690Y0298530D01*
X0119000Y0298816D01*
X0130300Y0310116D01*
X0130300Y0299796D01*
X0131296Y0298800D01*
X0135800Y0294296D01*
X0135800Y0277604D01*
X0122904Y0290500D01*
X0123420Y0291016D01*
X0124594Y0291016D01*
X0125690Y0291470D01*
X0126984Y0293689D02*
X0135800Y0293689D01*
X0135408Y0294687D02*
X0126945Y0294687D01*
X0126532Y0295686D02*
X0134410Y0295686D01*
X0133411Y0296684D02*
X0125317Y0296684D01*
X0122683Y0296684D02*
X0120947Y0296684D01*
X0120984Y0295686D02*
X0121468Y0295686D01*
X0121055Y0294687D02*
X0120686Y0294687D01*
X0121016Y0293689D02*
X0119909Y0293689D01*
X0119700Y0292690D02*
X0120286Y0292690D01*
X0123097Y0290693D02*
X0135800Y0290693D01*
X0135800Y0289695D02*
X0123709Y0289695D01*
X0124708Y0288696D02*
X0135800Y0288696D01*
X0135800Y0287698D02*
X0125706Y0287698D01*
X0126705Y0286699D02*
X0135800Y0286699D01*
X0135800Y0285701D02*
X0127703Y0285701D01*
X0128702Y0284702D02*
X0135800Y0284702D01*
X0135800Y0283704D02*
X0129700Y0283704D01*
X0130699Y0282705D02*
X0135800Y0282705D01*
X0135800Y0281707D02*
X0131697Y0281707D01*
X0132696Y0280708D02*
X0135800Y0280708D01*
X0135800Y0279710D02*
X0133694Y0279710D01*
X0134693Y0278711D02*
X0135800Y0278711D01*
X0135800Y0277713D02*
X0135691Y0277713D01*
X0137500Y0277500D02*
X0142500Y0272500D01*
X0142500Y0237500D01*
X0158000Y0222000D01*
X0195500Y0222000D01*
X0197500Y0220000D01*
X0197500Y0183000D01*
X0191500Y0177000D01*
X0196400Y0176863D02*
X0198800Y0176863D01*
X0198800Y0176204D02*
X0194013Y0171417D01*
X0193530Y0171900D01*
X0189470Y0171900D01*
X0186600Y0169030D01*
X0186600Y0164970D01*
X0189370Y0162200D01*
X0189346Y0162200D01*
X0186300Y0159154D01*
X0186300Y0159130D01*
X0183530Y0161900D01*
X0179470Y0161900D01*
X0176600Y0159030D01*
X0176600Y0154970D01*
X0179170Y0152400D01*
X0178994Y0152400D01*
X0173400Y0157994D01*
X0173400Y0159006D01*
X0177982Y0163588D01*
X0179470Y0162100D01*
X0183530Y0162100D01*
X0186400Y0164970D01*
X0186400Y0169030D01*
X0183530Y0171900D01*
X0179470Y0171900D01*
X0176600Y0169030D01*
X0176600Y0168994D01*
X0169641Y0162035D01*
X0168965Y0161359D01*
X0168600Y0160477D01*
X0168600Y0157804D01*
X0138700Y0187704D01*
X0138700Y0261296D01*
X0140704Y0263300D01*
X0140800Y0263396D01*
X0140800Y0236796D01*
X0156300Y0221296D01*
X0157296Y0220300D01*
X0168308Y0220300D01*
X0168016Y0219594D01*
X0168016Y0218406D01*
X0168470Y0217310D01*
X0169310Y0216470D01*
X0170406Y0216016D01*
X0171580Y0216016D01*
X0171896Y0215700D01*
X0168296Y0215700D01*
X0167580Y0214984D01*
X0166406Y0214984D01*
X0165310Y0214530D01*
X0164470Y0213690D01*
X0164016Y0212594D01*
X0164016Y0211406D01*
X0164470Y0210310D01*
X0165310Y0209470D01*
X0166406Y0209016D01*
X0167594Y0209016D01*
X0168690Y0209470D01*
X0169016Y0209795D01*
X0169016Y0209406D01*
X0169470Y0208310D01*
X0170300Y0207480D01*
X0170300Y0204296D01*
X0171296Y0203300D01*
X0174300Y0200296D01*
X0174300Y0193296D01*
X0175296Y0192300D01*
X0177296Y0190300D01*
X0177870Y0190300D01*
X0176600Y0189030D01*
X0176600Y0184970D01*
X0179470Y0182100D01*
X0183530Y0182100D01*
X0186400Y0184970D01*
X0186400Y0189030D01*
X0185130Y0190300D01*
X0186296Y0190300D01*
X0187083Y0189513D01*
X0186600Y0189030D01*
X0186600Y0184970D01*
X0189470Y0182100D01*
X0193530Y0182100D01*
X0195800Y0184370D01*
X0195800Y0183704D01*
X0193763Y0181667D01*
X0193530Y0181900D01*
X0189470Y0181900D01*
X0186600Y0179030D01*
X0186600Y0174970D01*
X0189470Y0172100D01*
X0193530Y0172100D01*
X0196400Y0174970D01*
X0196400Y0179030D01*
X0196167Y0179263D01*
X0198800Y0181896D01*
X0198800Y0176204D01*
X0198460Y0175865D02*
X0196400Y0175865D01*
X0196296Y0174866D02*
X0197462Y0174866D01*
X0196463Y0173868D02*
X0195297Y0173868D01*
X0195465Y0172869D02*
X0194299Y0172869D01*
X0194466Y0171870D02*
X0193559Y0171870D01*
X0189441Y0171870D02*
X0183559Y0171870D01*
X0183530Y0172100D02*
X0186400Y0174970D01*
X0186400Y0179030D01*
X0183530Y0181900D01*
X0179470Y0181900D01*
X0176600Y0179030D01*
X0176600Y0174970D01*
X0179470Y0172100D01*
X0183530Y0172100D01*
X0184299Y0172869D02*
X0188701Y0172869D01*
X0187703Y0173868D02*
X0185297Y0173868D01*
X0186296Y0174866D02*
X0186704Y0174866D01*
X0186600Y0175865D02*
X0186400Y0175865D01*
X0186400Y0176863D02*
X0186600Y0176863D01*
X0186600Y0177862D02*
X0186400Y0177862D01*
X0186400Y0178860D02*
X0186600Y0178860D01*
X0187429Y0179859D02*
X0185571Y0179859D01*
X0184573Y0180857D02*
X0188427Y0180857D01*
X0189426Y0181856D02*
X0183574Y0181856D01*
X0184284Y0182854D02*
X0188716Y0182854D01*
X0187718Y0183853D02*
X0185282Y0183853D01*
X0186281Y0184851D02*
X0186719Y0184851D01*
X0186600Y0185850D02*
X0186400Y0185850D01*
X0186400Y0186848D02*
X0186600Y0186848D01*
X0186600Y0187847D02*
X0186400Y0187847D01*
X0186400Y0188845D02*
X0186600Y0188845D01*
X0186752Y0189844D02*
X0185586Y0189844D01*
X0187000Y0192000D02*
X0178000Y0192000D01*
X0176000Y0194000D01*
X0176000Y0201000D01*
X0172000Y0205000D01*
X0172000Y0210000D01*
X0169261Y0208815D02*
X0138700Y0208815D01*
X0138700Y0207817D02*
X0169963Y0207817D01*
X0170300Y0206818D02*
X0138700Y0206818D01*
X0138700Y0205820D02*
X0170300Y0205820D01*
X0170300Y0204821D02*
X0138700Y0204821D01*
X0138700Y0203823D02*
X0170773Y0203823D01*
X0171771Y0202824D02*
X0138700Y0202824D01*
X0138700Y0201826D02*
X0172770Y0201826D01*
X0173769Y0200827D02*
X0138700Y0200827D01*
X0138700Y0199829D02*
X0174300Y0199829D01*
X0174300Y0198830D02*
X0138700Y0198830D01*
X0138700Y0197832D02*
X0174300Y0197832D01*
X0174300Y0196833D02*
X0138700Y0196833D01*
X0138700Y0195835D02*
X0174300Y0195835D01*
X0174300Y0194836D02*
X0138700Y0194836D01*
X0138700Y0193838D02*
X0174300Y0193838D01*
X0174757Y0192839D02*
X0138700Y0192839D01*
X0138700Y0191841D02*
X0175755Y0191841D01*
X0176754Y0190842D02*
X0138700Y0190842D01*
X0138700Y0189844D02*
X0177414Y0189844D01*
X0176600Y0188845D02*
X0138700Y0188845D01*
X0138700Y0187847D02*
X0176600Y0187847D01*
X0176600Y0186848D02*
X0139556Y0186848D01*
X0140555Y0185850D02*
X0176600Y0185850D01*
X0176719Y0184851D02*
X0141553Y0184851D01*
X0142552Y0183853D02*
X0177718Y0183853D01*
X0178716Y0182854D02*
X0143550Y0182854D01*
X0144549Y0181856D02*
X0179426Y0181856D01*
X0178427Y0180857D02*
X0145547Y0180857D01*
X0146546Y0179859D02*
X0177429Y0179859D01*
X0176600Y0178860D02*
X0147544Y0178860D01*
X0148543Y0177862D02*
X0176600Y0177862D01*
X0176600Y0176863D02*
X0149541Y0176863D01*
X0150540Y0175865D02*
X0176600Y0175865D01*
X0176704Y0174866D02*
X0151538Y0174866D01*
X0152537Y0173868D02*
X0177703Y0173868D01*
X0178701Y0172869D02*
X0153535Y0172869D01*
X0154534Y0171870D02*
X0179441Y0171870D01*
X0178442Y0170872D02*
X0155532Y0170872D01*
X0156531Y0169873D02*
X0177444Y0169873D01*
X0176481Y0168875D02*
X0157529Y0168875D01*
X0158528Y0167876D02*
X0175482Y0167876D01*
X0174484Y0166878D02*
X0159526Y0166878D01*
X0160525Y0165879D02*
X0173485Y0165879D01*
X0172487Y0164881D02*
X0161523Y0164881D01*
X0162522Y0163882D02*
X0171488Y0163882D01*
X0170490Y0162884D02*
X0163520Y0162884D01*
X0164519Y0161885D02*
X0169491Y0161885D01*
X0168770Y0160887D02*
X0165517Y0160887D01*
X0166516Y0159888D02*
X0168600Y0159888D01*
X0168600Y0158890D02*
X0167514Y0158890D01*
X0168513Y0157891D02*
X0168600Y0157891D01*
X0173503Y0157891D02*
X0176600Y0157891D01*
X0176600Y0156893D02*
X0174501Y0156893D01*
X0175500Y0155894D02*
X0176600Y0155894D01*
X0176675Y0154896D02*
X0176498Y0154896D01*
X0177497Y0153897D02*
X0177673Y0153897D01*
X0178495Y0152899D02*
X0178672Y0152899D01*
X0183830Y0152400D02*
X0186300Y0154870D01*
X0186300Y0154846D01*
X0188746Y0152400D01*
X0183830Y0152400D01*
X0184328Y0152899D02*
X0188247Y0152899D01*
X0187249Y0153897D02*
X0185327Y0153897D01*
X0192000Y0156893D02*
X0197499Y0156893D01*
X0196700Y0157891D02*
X0198497Y0157891D01*
X0199496Y0158890D02*
X0196700Y0158890D01*
X0195966Y0159888D02*
X0200494Y0159888D01*
X0201493Y0160887D02*
X0194967Y0160887D01*
X0193969Y0161885D02*
X0202491Y0161885D01*
X0203516Y0156122D02*
X0203516Y0155406D01*
X0203970Y0154310D01*
X0204800Y0153480D01*
X0204800Y0146204D01*
X0195296Y0136700D01*
X0189704Y0136700D01*
X0178804Y0147600D01*
X0194477Y0147600D01*
X0195359Y0147965D01*
X0203516Y0156122D01*
X0203516Y0155894D02*
X0203288Y0155894D01*
X0203727Y0154896D02*
X0202290Y0154896D01*
X0201291Y0153897D02*
X0204382Y0153897D01*
X0204800Y0152899D02*
X0200293Y0152899D01*
X0199294Y0151900D02*
X0204800Y0151900D01*
X0204800Y0150902D02*
X0198296Y0150902D01*
X0197297Y0149903D02*
X0204800Y0149903D01*
X0204800Y0148905D02*
X0196299Y0148905D01*
X0195217Y0147906D02*
X0204800Y0147906D01*
X0204800Y0146908D02*
X0179496Y0146908D01*
X0180495Y0145909D02*
X0204505Y0145909D01*
X0203507Y0144911D02*
X0181493Y0144911D01*
X0182492Y0143912D02*
X0202508Y0143912D01*
X0201509Y0142914D02*
X0183490Y0142914D01*
X0184489Y0141915D02*
X0200511Y0141915D01*
X0199512Y0140917D02*
X0185488Y0140917D01*
X0186486Y0139918D02*
X0198514Y0139918D01*
X0197515Y0138920D02*
X0187485Y0138920D01*
X0188483Y0137921D02*
X0196517Y0137921D01*
X0195518Y0136923D02*
X0189482Y0136923D01*
X0190104Y0133300D02*
X0196704Y0133300D01*
X0197700Y0134296D01*
X0203016Y0139612D01*
X0203016Y0139406D01*
X0203470Y0138310D01*
X0204300Y0137480D01*
X0204300Y0128704D01*
X0202296Y0126700D01*
X0196704Y0126700D01*
X0190104Y0133300D01*
X0190476Y0132929D02*
X0204300Y0132929D01*
X0204300Y0133927D02*
X0197331Y0133927D01*
X0198330Y0134926D02*
X0204300Y0134926D01*
X0204300Y0135924D02*
X0199328Y0135924D01*
X0200327Y0136923D02*
X0204300Y0136923D01*
X0203859Y0137921D02*
X0201325Y0137921D01*
X0202324Y0138920D02*
X0203217Y0138920D01*
X0206000Y0140000D02*
X0206000Y0128000D01*
X0203000Y0125000D01*
X0196000Y0125000D01*
X0133000Y0188000D01*
X0133000Y0197000D01*
X0135000Y0199000D01*
X0135000Y0263000D01*
X0138000Y0266000D01*
X0138000Y0270000D01*
X0118000Y0290000D01*
X0118000Y0296000D01*
X0119325Y0298681D02*
X0131414Y0298681D01*
X0132413Y0297683D02*
X0120533Y0297683D01*
X0119864Y0299680D02*
X0130416Y0299680D01*
X0130300Y0300678D02*
X0120862Y0300678D01*
X0121861Y0301677D02*
X0130300Y0301677D01*
X0130300Y0302675D02*
X0122859Y0302675D01*
X0123858Y0303674D02*
X0130300Y0303674D01*
X0130300Y0304672D02*
X0124856Y0304672D01*
X0125855Y0305671D02*
X0130300Y0305671D01*
X0130300Y0306670D02*
X0126853Y0306670D01*
X0127852Y0307668D02*
X0130300Y0307668D01*
X0130300Y0308667D02*
X0128850Y0308667D01*
X0129849Y0309665D02*
X0130300Y0309665D01*
X0129000Y0311220D02*
X0115016Y0297236D01*
X0115016Y0294764D01*
X0115047Y0294732D01*
X0115047Y0284173D01*
X0112231Y0285173D02*
X0111700Y0285704D01*
X0111700Y0297302D01*
X0112391Y0297016D01*
X0113316Y0297016D01*
X0113316Y0294060D01*
X0113347Y0294028D01*
X0113347Y0286694D01*
X0112517Y0285864D01*
X0112231Y0285173D01*
X0112450Y0285701D02*
X0111703Y0285701D01*
X0111700Y0286699D02*
X0113347Y0286699D01*
X0113347Y0287698D02*
X0111700Y0287698D01*
X0111700Y0288696D02*
X0113347Y0288696D01*
X0113347Y0289695D02*
X0111700Y0289695D01*
X0111700Y0290693D02*
X0113347Y0290693D01*
X0113347Y0291692D02*
X0111700Y0291692D01*
X0111700Y0292690D02*
X0113347Y0292690D01*
X0113347Y0293689D02*
X0111700Y0293689D01*
X0111700Y0294687D02*
X0113316Y0294687D01*
X0113316Y0295686D02*
X0111700Y0295686D01*
X0111700Y0296684D02*
X0113316Y0296684D01*
X0112984Y0300000D02*
X0122000Y0309016D01*
X0122000Y0328280D01*
X0124484Y0330764D01*
X0124484Y0333236D01*
X0122000Y0335720D01*
X0122000Y0337000D01*
X0120528Y0339620D02*
X0117766Y0339620D01*
X0117984Y0339094D02*
X0117984Y0337984D01*
X0118094Y0337984D01*
X0119019Y0337601D01*
X0119470Y0338690D01*
X0120310Y0339530D01*
X0121284Y0339934D01*
X0121284Y0347275D01*
X0120454Y0348105D01*
X0120000Y0349202D01*
X0120000Y0350389D01*
X0120454Y0351486D01*
X0121294Y0352325D01*
X0121984Y0352611D01*
X0120296Y0354300D01*
X0119628Y0354300D01*
X0119328Y0354000D01*
X0099961Y0354000D01*
X0099000Y0352798D01*
X0099000Y0346720D01*
X0099530Y0346190D01*
X0099984Y0345094D01*
X0099984Y0343906D01*
X0099530Y0342810D01*
X0099347Y0342626D01*
X0101784Y0340189D01*
X0101784Y0335811D01*
X0099000Y0333027D01*
X0099000Y0327672D01*
X0097828Y0326500D01*
X0094484Y0323156D01*
X0094484Y0322406D01*
X0094030Y0321310D01*
X0093470Y0320750D01*
X0094030Y0320190D01*
X0094484Y0319094D01*
X0094484Y0317906D01*
X0094289Y0317436D01*
X0094406Y0317484D01*
X0095594Y0317484D01*
X0096690Y0317030D01*
X0097530Y0316190D01*
X0097984Y0315094D01*
X0097984Y0313906D01*
X0097530Y0312810D01*
X0096700Y0311980D01*
X0096700Y0236704D01*
X0124704Y0208700D01*
X0129480Y0208700D01*
X0130310Y0209530D01*
X0131406Y0209984D01*
X0132594Y0209984D01*
X0133300Y0209692D01*
X0133300Y0263704D01*
X0134612Y0265016D01*
X0134420Y0265016D01*
X0131704Y0262300D01*
X0121296Y0262300D01*
X0104300Y0279296D01*
X0104300Y0330204D01*
X0105296Y0331200D01*
X0112016Y0337920D01*
X0112016Y0339094D01*
X0112470Y0340190D01*
X0113310Y0341030D01*
X0114406Y0341484D01*
X0115594Y0341484D01*
X0116690Y0341030D01*
X0117530Y0340190D01*
X0117984Y0339094D01*
X0117984Y0338622D02*
X0119442Y0338622D01*
X0119028Y0337623D02*
X0118965Y0337623D01*
X0117500Y0335000D02*
X0108000Y0325000D01*
X0108000Y0283000D01*
X0124000Y0267000D01*
X0127000Y0267000D01*
X0129704Y0265731D02*
X0130326Y0265731D01*
X0130296Y0265700D02*
X0129692Y0265700D01*
X0129984Y0266406D01*
X0129984Y0267594D01*
X0129686Y0268314D01*
X0130406Y0268016D01*
X0131594Y0268016D01*
X0132016Y0268191D01*
X0132016Y0267420D01*
X0130296Y0265700D01*
X0129984Y0266729D02*
X0131325Y0266729D01*
X0132016Y0267728D02*
X0129929Y0267728D01*
X0131000Y0271000D02*
X0124000Y0271000D01*
X0110000Y0285000D01*
X0110000Y0320500D01*
X0121500Y0332000D01*
X0118516Y0332191D02*
X0118516Y0331420D01*
X0109700Y0322604D01*
X0109700Y0324321D01*
X0117010Y0332016D01*
X0118094Y0332016D01*
X0118516Y0332191D01*
X0118516Y0331632D02*
X0116645Y0331632D01*
X0115697Y0330634D02*
X0117730Y0330634D01*
X0116731Y0329635D02*
X0114748Y0329635D01*
X0113800Y0328637D02*
X0115733Y0328637D01*
X0114734Y0327638D02*
X0112851Y0327638D01*
X0113736Y0326640D02*
X0111903Y0326640D01*
X0112737Y0325641D02*
X0110954Y0325641D01*
X0111739Y0324643D02*
X0110005Y0324643D01*
X0109700Y0323644D02*
X0110740Y0323644D01*
X0109742Y0322646D02*
X0109700Y0322646D01*
X0111700Y0319796D02*
X0120300Y0328396D01*
X0120300Y0327575D01*
X0120300Y0309720D01*
X0113564Y0302984D01*
X0112391Y0302984D01*
X0111700Y0302698D01*
X0111700Y0319796D01*
X0111700Y0319650D02*
X0120300Y0319650D01*
X0120300Y0318652D02*
X0111700Y0318652D01*
X0111700Y0317653D02*
X0120300Y0317653D01*
X0120300Y0316655D02*
X0111700Y0316655D01*
X0111700Y0315656D02*
X0120300Y0315656D01*
X0120300Y0314658D02*
X0111700Y0314658D01*
X0111700Y0313659D02*
X0120300Y0313659D01*
X0120300Y0312661D02*
X0111700Y0312661D01*
X0111700Y0311662D02*
X0120300Y0311662D01*
X0120300Y0310664D02*
X0111700Y0310664D01*
X0111700Y0309665D02*
X0120245Y0309665D01*
X0119247Y0308667D02*
X0111700Y0308667D01*
X0111700Y0307668D02*
X0118248Y0307668D01*
X0117250Y0306670D02*
X0111700Y0306670D01*
X0111700Y0305671D02*
X0116251Y0305671D01*
X0115253Y0304672D02*
X0111700Y0304672D01*
X0111700Y0303674D02*
X0114254Y0303674D01*
X0104300Y0303674D02*
X0096700Y0303674D01*
X0096700Y0304672D02*
X0104300Y0304672D01*
X0104300Y0305671D02*
X0096700Y0305671D01*
X0096700Y0306670D02*
X0104300Y0306670D01*
X0104300Y0307668D02*
X0096700Y0307668D01*
X0096700Y0308667D02*
X0104300Y0308667D01*
X0104300Y0309665D02*
X0096700Y0309665D01*
X0096700Y0310664D02*
X0104300Y0310664D01*
X0104300Y0311662D02*
X0096700Y0311662D01*
X0097381Y0312661D02*
X0104300Y0312661D01*
X0104300Y0313659D02*
X0097882Y0313659D01*
X0097984Y0314658D02*
X0104300Y0314658D01*
X0104300Y0315656D02*
X0097751Y0315656D01*
X0097066Y0316655D02*
X0104300Y0316655D01*
X0104300Y0317653D02*
X0094379Y0317653D01*
X0094484Y0318652D02*
X0104300Y0318652D01*
X0104300Y0319650D02*
X0094254Y0319650D01*
X0093572Y0320649D02*
X0104300Y0320649D01*
X0104300Y0321647D02*
X0094170Y0321647D01*
X0094484Y0322646D02*
X0104300Y0322646D01*
X0104300Y0323644D02*
X0094973Y0323644D01*
X0095971Y0324643D02*
X0104300Y0324643D01*
X0104300Y0325641D02*
X0096970Y0325641D01*
X0097968Y0326640D02*
X0104300Y0326640D01*
X0104300Y0327638D02*
X0098967Y0327638D01*
X0099000Y0328637D02*
X0104300Y0328637D01*
X0104300Y0329635D02*
X0099000Y0329635D01*
X0099000Y0330634D02*
X0104730Y0330634D01*
X0105728Y0331632D02*
X0099000Y0331632D01*
X0099000Y0332631D02*
X0106727Y0332631D01*
X0107725Y0333629D02*
X0099602Y0333629D01*
X0100601Y0334628D02*
X0108724Y0334628D01*
X0109722Y0335626D02*
X0101599Y0335626D01*
X0101784Y0336625D02*
X0110721Y0336625D01*
X0111719Y0337623D02*
X0101784Y0337623D01*
X0101784Y0338622D02*
X0112016Y0338622D01*
X0112234Y0339620D02*
X0101784Y0339620D01*
X0101354Y0340619D02*
X0112899Y0340619D01*
X0115000Y0338500D02*
X0106000Y0329500D01*
X0106000Y0280000D01*
X0122000Y0264000D01*
X0131000Y0264000D01*
X0135000Y0268000D01*
X0133984Y0270809D02*
X0133984Y0271594D01*
X0133972Y0271624D01*
X0134612Y0270984D01*
X0134406Y0270984D01*
X0133984Y0270809D01*
X0131624Y0273972D02*
X0131594Y0273984D01*
X0130406Y0273984D01*
X0129310Y0273530D01*
X0128480Y0272700D01*
X0124704Y0272700D01*
X0116047Y0281357D01*
X0116738Y0281643D01*
X0117577Y0282483D01*
X0118031Y0283580D01*
X0118031Y0284767D01*
X0117577Y0285864D01*
X0116747Y0286694D01*
X0116747Y0288849D01*
X0117296Y0288300D01*
X0131624Y0273972D01*
X0130879Y0274717D02*
X0122687Y0274717D01*
X0123686Y0273719D02*
X0129765Y0273719D01*
X0128500Y0272720D02*
X0124684Y0272720D01*
X0125080Y0269300D02*
X0124592Y0268812D01*
X0124104Y0269300D01*
X0125080Y0269300D01*
X0121867Y0266729D02*
X0121675Y0266729D01*
X0120868Y0267728D02*
X0120677Y0267728D01*
X0119870Y0268726D02*
X0119678Y0268726D01*
X0118871Y0269725D02*
X0118680Y0269725D01*
X0117873Y0270723D02*
X0117681Y0270723D01*
X0116874Y0271722D02*
X0116683Y0271722D01*
X0115876Y0272720D02*
X0115684Y0272720D01*
X0114877Y0273719D02*
X0114686Y0273719D01*
X0113879Y0274717D02*
X0113687Y0274717D01*
X0112880Y0275716D02*
X0112688Y0275716D01*
X0111882Y0276714D02*
X0111690Y0276714D01*
X0110883Y0277713D02*
X0110691Y0277713D01*
X0109885Y0278711D02*
X0109693Y0278711D01*
X0108886Y0279710D02*
X0108694Y0279710D01*
X0107888Y0280708D02*
X0107700Y0280708D01*
X0107700Y0280704D02*
X0107700Y0280896D01*
X0122896Y0265700D01*
X0122704Y0265700D01*
X0107700Y0280704D01*
X0104300Y0280708D02*
X0096700Y0280708D01*
X0096700Y0279710D02*
X0104300Y0279710D01*
X0104885Y0278711D02*
X0096700Y0278711D01*
X0096700Y0277713D02*
X0105883Y0277713D01*
X0106882Y0276714D02*
X0096700Y0276714D01*
X0096700Y0275716D02*
X0107880Y0275716D01*
X0108879Y0274717D02*
X0096700Y0274717D01*
X0096700Y0273719D02*
X0109877Y0273719D01*
X0110876Y0272720D02*
X0096700Y0272720D01*
X0096700Y0271722D02*
X0111874Y0271722D01*
X0112873Y0270723D02*
X0096700Y0270723D01*
X0096700Y0269725D02*
X0113871Y0269725D01*
X0114870Y0268726D02*
X0096700Y0268726D01*
X0096700Y0267728D02*
X0115868Y0267728D01*
X0116867Y0266729D02*
X0096700Y0266729D01*
X0096700Y0265731D02*
X0117865Y0265731D01*
X0118864Y0264732D02*
X0096700Y0264732D01*
X0096700Y0263734D02*
X0119862Y0263734D01*
X0120861Y0262735D02*
X0096700Y0262735D01*
X0096700Y0261737D02*
X0133300Y0261737D01*
X0133300Y0262735D02*
X0132139Y0262735D01*
X0133138Y0263734D02*
X0133329Y0263734D01*
X0134136Y0264732D02*
X0134328Y0264732D01*
X0133300Y0260738D02*
X0096700Y0260738D01*
X0096700Y0259739D02*
X0133300Y0259739D01*
X0133300Y0258741D02*
X0096700Y0258741D01*
X0096700Y0257742D02*
X0133300Y0257742D01*
X0133300Y0256744D02*
X0096700Y0256744D01*
X0096700Y0255745D02*
X0133300Y0255745D01*
X0133300Y0254747D02*
X0096700Y0254747D01*
X0096700Y0253748D02*
X0133300Y0253748D01*
X0133300Y0252750D02*
X0096700Y0252750D01*
X0096700Y0251751D02*
X0133300Y0251751D01*
X0133300Y0250753D02*
X0096700Y0250753D01*
X0096700Y0249754D02*
X0133300Y0249754D01*
X0133300Y0248756D02*
X0096700Y0248756D01*
X0096700Y0247757D02*
X0133300Y0247757D01*
X0133300Y0246759D02*
X0096700Y0246759D01*
X0096700Y0245760D02*
X0133300Y0245760D01*
X0133300Y0244762D02*
X0096700Y0244762D01*
X0096700Y0243763D02*
X0133300Y0243763D01*
X0133300Y0242765D02*
X0096700Y0242765D01*
X0096700Y0241766D02*
X0133300Y0241766D01*
X0133300Y0240768D02*
X0096700Y0240768D01*
X0096700Y0239769D02*
X0133300Y0239769D01*
X0133300Y0238771D02*
X0096700Y0238771D01*
X0096700Y0237772D02*
X0133300Y0237772D01*
X0133300Y0236774D02*
X0096700Y0236774D01*
X0097629Y0235775D02*
X0133300Y0235775D01*
X0133300Y0234777D02*
X0098627Y0234777D01*
X0099626Y0233778D02*
X0133300Y0233778D01*
X0133300Y0232780D02*
X0100624Y0232780D01*
X0101623Y0231781D02*
X0133300Y0231781D01*
X0133300Y0230783D02*
X0102621Y0230783D01*
X0103620Y0229784D02*
X0133300Y0229784D01*
X0133300Y0228786D02*
X0104619Y0228786D01*
X0105617Y0227787D02*
X0133300Y0227787D01*
X0133300Y0226789D02*
X0106616Y0226789D01*
X0107614Y0225790D02*
X0133300Y0225790D01*
X0133300Y0224792D02*
X0108613Y0224792D01*
X0109611Y0223793D02*
X0133300Y0223793D01*
X0133300Y0222795D02*
X0128578Y0222795D01*
X0128578Y0222875D02*
X0127875Y0223578D01*
X0122125Y0223578D01*
X0121422Y0222875D01*
X0121422Y0217125D01*
X0122125Y0216422D01*
X0127875Y0216422D01*
X0128578Y0217125D01*
X0128578Y0222875D01*
X0128578Y0221796D02*
X0133300Y0221796D01*
X0133300Y0220798D02*
X0128578Y0220798D01*
X0128578Y0219799D02*
X0133300Y0219799D01*
X0133300Y0218801D02*
X0128578Y0218801D01*
X0128578Y0217802D02*
X0133300Y0217802D01*
X0133300Y0216803D02*
X0128256Y0216803D01*
X0133300Y0215805D02*
X0117599Y0215805D01*
X0116601Y0216803D02*
X0121744Y0216803D01*
X0121422Y0217802D02*
X0115602Y0217802D01*
X0114604Y0218801D02*
X0121422Y0218801D01*
X0121422Y0219799D02*
X0113605Y0219799D01*
X0112607Y0220798D02*
X0121422Y0220798D01*
X0121422Y0221796D02*
X0111608Y0221796D01*
X0110610Y0222795D02*
X0121422Y0222795D01*
X0118598Y0214806D02*
X0133300Y0214806D01*
X0133300Y0213808D02*
X0119596Y0213808D01*
X0120595Y0212809D02*
X0133300Y0212809D01*
X0133300Y0211811D02*
X0121593Y0211811D01*
X0122592Y0210812D02*
X0133300Y0210812D01*
X0133300Y0209814D02*
X0133005Y0209814D01*
X0130995Y0209814D02*
X0123590Y0209814D01*
X0124589Y0208815D02*
X0129595Y0208815D01*
X0132000Y0207000D02*
X0124000Y0207000D01*
X0095000Y0236000D01*
X0095000Y0314500D01*
X0093200Y0312080D02*
X0093300Y0311980D01*
X0093300Y0236104D01*
X0093200Y0236204D01*
X0093200Y0312080D01*
X0093200Y0311662D02*
X0093300Y0311662D01*
X0093300Y0310664D02*
X0093200Y0310664D01*
X0093200Y0309665D02*
X0093300Y0309665D01*
X0093300Y0308667D02*
X0093200Y0308667D01*
X0093200Y0307668D02*
X0093300Y0307668D01*
X0093300Y0306670D02*
X0093200Y0306670D01*
X0093200Y0305671D02*
X0093300Y0305671D01*
X0093300Y0304672D02*
X0093200Y0304672D01*
X0093200Y0303674D02*
X0093300Y0303674D01*
X0093300Y0302675D02*
X0093200Y0302675D01*
X0093200Y0301677D02*
X0093300Y0301677D01*
X0093300Y0300678D02*
X0093200Y0300678D01*
X0093200Y0299680D02*
X0093300Y0299680D01*
X0093300Y0298681D02*
X0093200Y0298681D01*
X0093200Y0297683D02*
X0093300Y0297683D01*
X0093300Y0296684D02*
X0093200Y0296684D01*
X0093200Y0295686D02*
X0093300Y0295686D01*
X0093300Y0294687D02*
X0093200Y0294687D01*
X0093200Y0293689D02*
X0093300Y0293689D01*
X0093300Y0292690D02*
X0093200Y0292690D01*
X0093200Y0291692D02*
X0093300Y0291692D01*
X0093300Y0290693D02*
X0093200Y0290693D01*
X0093200Y0289695D02*
X0093300Y0289695D01*
X0093300Y0288696D02*
X0093200Y0288696D01*
X0093200Y0287698D02*
X0093300Y0287698D01*
X0093300Y0286699D02*
X0093200Y0286699D01*
X0093200Y0285701D02*
X0093300Y0285701D01*
X0093300Y0284702D02*
X0093200Y0284702D01*
X0093200Y0283704D02*
X0093300Y0283704D01*
X0093300Y0282705D02*
X0093200Y0282705D01*
X0093200Y0281707D02*
X0093300Y0281707D01*
X0093300Y0280708D02*
X0093200Y0280708D01*
X0093200Y0279710D02*
X0093300Y0279710D01*
X0093300Y0278711D02*
X0093200Y0278711D01*
X0093200Y0277713D02*
X0093300Y0277713D01*
X0093300Y0276714D02*
X0093200Y0276714D01*
X0093200Y0275716D02*
X0093300Y0275716D01*
X0093300Y0274717D02*
X0093200Y0274717D01*
X0093200Y0273719D02*
X0093300Y0273719D01*
X0093300Y0272720D02*
X0093200Y0272720D01*
X0093200Y0271722D02*
X0093300Y0271722D01*
X0093300Y0270723D02*
X0093200Y0270723D01*
X0093200Y0269725D02*
X0093300Y0269725D01*
X0093300Y0268726D02*
X0093200Y0268726D01*
X0093200Y0267728D02*
X0093300Y0267728D01*
X0093300Y0266729D02*
X0093200Y0266729D01*
X0093200Y0265731D02*
X0093300Y0265731D01*
X0093300Y0264732D02*
X0093200Y0264732D01*
X0093200Y0263734D02*
X0093300Y0263734D01*
X0093300Y0262735D02*
X0093200Y0262735D01*
X0093200Y0261737D02*
X0093300Y0261737D01*
X0093300Y0260738D02*
X0093200Y0260738D01*
X0093200Y0259739D02*
X0093300Y0259739D01*
X0093300Y0258741D02*
X0093200Y0258741D01*
X0093200Y0257742D02*
X0093300Y0257742D01*
X0093300Y0256744D02*
X0093200Y0256744D01*
X0093200Y0255745D02*
X0093300Y0255745D01*
X0093300Y0254747D02*
X0093200Y0254747D01*
X0093200Y0253748D02*
X0093300Y0253748D01*
X0093300Y0252750D02*
X0093200Y0252750D01*
X0093200Y0251751D02*
X0093300Y0251751D01*
X0093300Y0250753D02*
X0093200Y0250753D01*
X0093200Y0249754D02*
X0093300Y0249754D01*
X0093300Y0248756D02*
X0093200Y0248756D01*
X0093200Y0247757D02*
X0093300Y0247757D01*
X0093300Y0246759D02*
X0093200Y0246759D01*
X0093200Y0245760D02*
X0093300Y0245760D01*
X0093300Y0244762D02*
X0093200Y0244762D01*
X0093200Y0243763D02*
X0093300Y0243763D01*
X0093300Y0242765D02*
X0093200Y0242765D01*
X0093200Y0241766D02*
X0093300Y0241766D01*
X0093300Y0240768D02*
X0093200Y0240768D01*
X0093200Y0239769D02*
X0093300Y0239769D01*
X0093300Y0238771D02*
X0093200Y0238771D01*
X0093200Y0237772D02*
X0093300Y0237772D01*
X0093300Y0236774D02*
X0093200Y0236774D01*
X0091500Y0235500D02*
X0126000Y0201000D01*
X0131000Y0201000D01*
X0128949Y0198830D02*
X0040300Y0198830D01*
X0040300Y0197832D02*
X0131428Y0197832D01*
X0131300Y0197704D02*
X0131300Y0188700D01*
X0125000Y0195000D01*
X0040300Y0195000D01*
X0040300Y0261439D01*
X0040509Y0260797D01*
X0040855Y0260117D01*
X0041303Y0259500D01*
X0041843Y0258961D01*
X0042460Y0258512D01*
X0043140Y0258166D01*
X0043865Y0257930D01*
X0044619Y0257811D01*
X0044713Y0257811D01*
X0044713Y0262370D01*
X0045287Y0262370D01*
X0045287Y0257811D01*
X0045381Y0257811D01*
X0046135Y0257930D01*
X0046860Y0258166D01*
X0047540Y0258512D01*
X0048157Y0258961D01*
X0048697Y0259500D01*
X0049145Y0260117D01*
X0049491Y0260797D01*
X0049727Y0261523D01*
X0049846Y0262276D01*
X0049846Y0262370D01*
X0045287Y0262370D01*
X0045287Y0262945D01*
X0044713Y0262945D01*
X0044713Y0267504D01*
X0044619Y0267504D01*
X0043865Y0267385D01*
X0043140Y0267149D01*
X0042460Y0266803D01*
X0041843Y0266354D01*
X0041303Y0265815D01*
X0040855Y0265198D01*
X0040509Y0264518D01*
X0040300Y0263876D01*
X0040300Y0359700D01*
X0090980Y0359700D01*
X0090970Y0359690D01*
X0090516Y0358594D01*
X0090516Y0357406D01*
X0090970Y0356310D01*
X0091800Y0355480D01*
X0091800Y0354192D01*
X0091094Y0354484D01*
X0089906Y0354484D01*
X0088810Y0354030D01*
X0087970Y0353190D01*
X0087516Y0352094D01*
X0087516Y0350906D01*
X0087970Y0349810D01*
X0088738Y0349042D01*
X0088363Y0334052D01*
X0088310Y0334030D01*
X0087470Y0333190D01*
X0087016Y0332094D01*
X0087016Y0330906D01*
X0087470Y0329810D01*
X0088310Y0328970D01*
X0089406Y0328516D01*
X0090594Y0328516D01*
X0091690Y0328970D01*
X0092530Y0329810D01*
X0092984Y0330906D01*
X0092984Y0331516D01*
X0094094Y0331516D01*
X0095000Y0331891D01*
X0095000Y0329328D01*
X0091656Y0325984D01*
X0090906Y0325984D01*
X0089810Y0325530D01*
X0088980Y0324700D01*
X0088296Y0324700D01*
X0068296Y0304700D01*
X0067300Y0303704D01*
X0067300Y0271520D01*
X0066470Y0270690D01*
X0066016Y0269594D01*
X0066016Y0268406D01*
X0066470Y0267310D01*
X0067310Y0266470D01*
X0068406Y0266016D01*
X0069594Y0266016D01*
X0070690Y0266470D01*
X0071530Y0267310D01*
X0071984Y0268406D01*
X0071984Y0269594D01*
X0071530Y0270690D01*
X0070700Y0271520D01*
X0070700Y0302296D01*
X0089342Y0320938D01*
X0089530Y0320750D01*
X0088970Y0320190D01*
X0088516Y0319094D01*
X0088516Y0317906D01*
X0088970Y0316810D01*
X0089800Y0315980D01*
X0089800Y0234796D01*
X0124300Y0200296D01*
X0125296Y0199300D01*
X0128480Y0199300D01*
X0129310Y0198470D01*
X0130406Y0198016D01*
X0131594Y0198016D01*
X0131624Y0198028D01*
X0131300Y0197704D01*
X0131300Y0196833D02*
X0040300Y0196833D01*
X0040300Y0195835D02*
X0131300Y0195835D01*
X0131300Y0194836D02*
X0125164Y0194836D01*
X0126162Y0193838D02*
X0131300Y0193838D01*
X0131300Y0192839D02*
X0127161Y0192839D01*
X0128159Y0191841D02*
X0131300Y0191841D01*
X0131300Y0190842D02*
X0129158Y0190842D01*
X0130156Y0189844D02*
X0131300Y0189844D01*
X0131300Y0188845D02*
X0131155Y0188845D01*
X0134700Y0188845D02*
X0135300Y0188845D01*
X0134700Y0188704D02*
X0135300Y0188104D01*
X0135300Y0196896D01*
X0134700Y0196296D01*
X0134700Y0188704D01*
X0134700Y0189844D02*
X0135300Y0189844D01*
X0135300Y0190842D02*
X0134700Y0190842D01*
X0134700Y0191841D02*
X0135300Y0191841D01*
X0135300Y0192839D02*
X0134700Y0192839D01*
X0134700Y0193838D02*
X0135300Y0193838D01*
X0135300Y0194836D02*
X0134700Y0194836D01*
X0134700Y0195835D02*
X0135300Y0195835D01*
X0135300Y0196833D02*
X0135237Y0196833D01*
X0133300Y0202920D02*
X0132690Y0203530D01*
X0131594Y0203984D01*
X0130406Y0203984D01*
X0129310Y0203530D01*
X0128480Y0202700D01*
X0126704Y0202700D01*
X0124104Y0205300D01*
X0129480Y0205300D01*
X0130310Y0204470D01*
X0131406Y0204016D01*
X0132594Y0204016D01*
X0133300Y0204308D01*
X0133300Y0202920D01*
X0133300Y0203823D02*
X0131983Y0203823D01*
X0130017Y0203823D02*
X0125581Y0203823D01*
X0124583Y0204821D02*
X0129958Y0204821D01*
X0128604Y0202824D02*
X0126580Y0202824D01*
X0123769Y0200827D02*
X0040300Y0200827D01*
X0040300Y0199829D02*
X0124767Y0199829D01*
X0122770Y0201826D02*
X0040300Y0201826D01*
X0040300Y0202824D02*
X0121771Y0202824D01*
X0120773Y0203823D02*
X0040300Y0203823D01*
X0040300Y0204821D02*
X0119774Y0204821D01*
X0118776Y0205820D02*
X0040300Y0205820D01*
X0040300Y0206818D02*
X0117777Y0206818D01*
X0116779Y0207817D02*
X0040300Y0207817D01*
X0040300Y0208815D02*
X0115780Y0208815D01*
X0114782Y0209814D02*
X0040300Y0209814D01*
X0040300Y0210812D02*
X0113783Y0210812D01*
X0112785Y0211811D02*
X0040300Y0211811D01*
X0040300Y0212809D02*
X0111786Y0212809D01*
X0110788Y0213808D02*
X0040300Y0213808D01*
X0040300Y0214806D02*
X0109789Y0214806D01*
X0108791Y0215805D02*
X0040300Y0215805D01*
X0040300Y0216803D02*
X0091363Y0216803D01*
X0091422Y0216701D02*
X0091701Y0216422D01*
X0092043Y0216224D01*
X0092425Y0216122D01*
X0094811Y0216122D01*
X0094811Y0219811D01*
X0095189Y0219811D01*
X0095189Y0220189D01*
X0094811Y0220189D01*
X0094811Y0223878D01*
X0092425Y0223878D01*
X0092043Y0223776D01*
X0091701Y0223578D01*
X0091422Y0223299D01*
X0091224Y0222957D01*
X0091122Y0222575D01*
X0091122Y0220189D01*
X0094811Y0220189D01*
X0094811Y0219811D01*
X0091122Y0219811D01*
X0091122Y0217425D01*
X0091224Y0217043D01*
X0091422Y0216701D01*
X0091122Y0217802D02*
X0040300Y0217802D01*
X0040300Y0218801D02*
X0091122Y0218801D01*
X0091122Y0219799D02*
X0040300Y0219799D01*
X0040300Y0220798D02*
X0091122Y0220798D01*
X0091122Y0221796D02*
X0040300Y0221796D01*
X0040300Y0222795D02*
X0091181Y0222795D01*
X0092108Y0223793D02*
X0040300Y0223793D01*
X0040300Y0224792D02*
X0099804Y0224792D01*
X0098806Y0225790D02*
X0040300Y0225790D01*
X0040300Y0226789D02*
X0097807Y0226789D01*
X0096809Y0227787D02*
X0040300Y0227787D01*
X0040300Y0228786D02*
X0095810Y0228786D01*
X0094812Y0229784D02*
X0040300Y0229784D01*
X0040300Y0230783D02*
X0093813Y0230783D01*
X0092815Y0231781D02*
X0040300Y0231781D01*
X0040300Y0232780D02*
X0091816Y0232780D01*
X0090818Y0233778D02*
X0040300Y0233778D01*
X0040300Y0234777D02*
X0089819Y0234777D01*
X0089800Y0235775D02*
X0040300Y0235775D01*
X0040300Y0236774D02*
X0089800Y0236774D01*
X0089800Y0237772D02*
X0040300Y0237772D01*
X0040300Y0238771D02*
X0089800Y0238771D01*
X0089800Y0239769D02*
X0040300Y0239769D01*
X0040300Y0240768D02*
X0089800Y0240768D01*
X0089800Y0241766D02*
X0040300Y0241766D01*
X0040300Y0242765D02*
X0045236Y0242765D01*
X0044803Y0243198D02*
X0045698Y0242303D01*
X0046867Y0241819D01*
X0048133Y0241819D01*
X0049302Y0242303D01*
X0049999Y0243000D01*
X0077780Y0243000D01*
X0078310Y0242470D01*
X0079406Y0242016D01*
X0080594Y0242016D01*
X0081690Y0242470D01*
X0082530Y0243310D01*
X0082984Y0244406D01*
X0082984Y0245594D01*
X0082530Y0246690D01*
X0081690Y0247530D01*
X0080594Y0247984D01*
X0079406Y0247984D01*
X0078310Y0247530D01*
X0077780Y0247000D01*
X0064500Y0247000D01*
X0064500Y0326672D01*
X0072344Y0334516D01*
X0073094Y0334516D01*
X0074190Y0334970D01*
X0075030Y0335810D01*
X0075484Y0336906D01*
X0075484Y0338094D01*
X0075030Y0339190D01*
X0074190Y0340030D01*
X0073094Y0340484D01*
X0071906Y0340484D01*
X0070810Y0340030D01*
X0069970Y0339190D01*
X0069516Y0338094D01*
X0069516Y0337344D01*
X0061672Y0329500D01*
X0060500Y0328328D01*
X0060500Y0247000D01*
X0049999Y0247000D01*
X0049302Y0247697D01*
X0048133Y0248181D01*
X0046867Y0248181D01*
X0045698Y0247697D01*
X0044803Y0246802D01*
X0044319Y0245633D01*
X0044319Y0244367D01*
X0044803Y0243198D01*
X0044569Y0243763D02*
X0040300Y0243763D01*
X0040300Y0244762D02*
X0044319Y0244762D01*
X0044372Y0245760D02*
X0040300Y0245760D01*
X0040300Y0246759D02*
X0044785Y0246759D01*
X0045844Y0247757D02*
X0040300Y0247757D01*
X0040300Y0248756D02*
X0060500Y0248756D01*
X0060500Y0249754D02*
X0040300Y0249754D01*
X0040300Y0250753D02*
X0060500Y0250753D01*
X0060500Y0251751D02*
X0040300Y0251751D01*
X0040300Y0252750D02*
X0060500Y0252750D01*
X0060500Y0253748D02*
X0057291Y0253748D01*
X0057975Y0254032D02*
X0055943Y0253190D01*
X0053742Y0253190D01*
X0051710Y0254032D01*
X0050154Y0255588D01*
X0049312Y0257620D01*
X0049312Y0259821D01*
X0050154Y0261853D01*
X0051710Y0263409D01*
X0053742Y0264251D01*
X0055943Y0264251D01*
X0057975Y0263409D01*
X0059531Y0261853D01*
X0060373Y0259821D01*
X0060373Y0257620D01*
X0059531Y0255588D01*
X0057975Y0254032D01*
X0058691Y0254747D02*
X0060500Y0254747D01*
X0060500Y0255745D02*
X0059597Y0255745D01*
X0060010Y0256744D02*
X0060500Y0256744D01*
X0060500Y0257742D02*
X0060373Y0257742D01*
X0060373Y0258741D02*
X0060500Y0258741D01*
X0060500Y0259739D02*
X0060373Y0259739D01*
X0060500Y0260738D02*
X0059993Y0260738D01*
X0059580Y0261737D02*
X0060500Y0261737D01*
X0060500Y0262735D02*
X0058650Y0262735D01*
X0057192Y0263734D02*
X0060500Y0263734D01*
X0060500Y0264732D02*
X0049382Y0264732D01*
X0049491Y0264518D02*
X0049145Y0265198D01*
X0048697Y0265815D01*
X0048157Y0266354D01*
X0047540Y0266803D01*
X0046860Y0267149D01*
X0046135Y0267385D01*
X0045381Y0267504D01*
X0045287Y0267504D01*
X0045287Y0262945D01*
X0049846Y0262945D01*
X0049846Y0263039D01*
X0049727Y0263792D01*
X0049491Y0264518D01*
X0049736Y0263734D02*
X0052493Y0263734D01*
X0051035Y0262735D02*
X0045287Y0262735D01*
X0045287Y0261737D02*
X0044713Y0261737D01*
X0044713Y0260738D02*
X0045287Y0260738D01*
X0045287Y0259739D02*
X0044713Y0259739D01*
X0044713Y0258741D02*
X0045287Y0258741D01*
X0047855Y0258741D02*
X0049312Y0258741D01*
X0049312Y0259739D02*
X0048870Y0259739D01*
X0049461Y0260738D02*
X0049692Y0260738D01*
X0049761Y0261737D02*
X0050105Y0261737D01*
X0049312Y0257742D02*
X0040300Y0257742D01*
X0040300Y0256744D02*
X0049675Y0256744D01*
X0050088Y0255745D02*
X0040300Y0255745D01*
X0040300Y0254747D02*
X0050994Y0254747D01*
X0052394Y0253748D02*
X0040300Y0253748D01*
X0040300Y0258741D02*
X0042145Y0258741D01*
X0041129Y0259739D02*
X0040300Y0259739D01*
X0040300Y0260738D02*
X0040539Y0260738D01*
X0040618Y0264732D02*
X0040300Y0264732D01*
X0040300Y0265731D02*
X0041242Y0265731D01*
X0040300Y0266729D02*
X0042359Y0266729D01*
X0040300Y0267728D02*
X0060500Y0267728D01*
X0060500Y0268726D02*
X0040300Y0268726D01*
X0040300Y0269725D02*
X0060500Y0269725D01*
X0060500Y0270723D02*
X0040300Y0270723D01*
X0040300Y0271722D02*
X0060500Y0271722D01*
X0060500Y0272720D02*
X0040300Y0272720D01*
X0040300Y0273719D02*
X0060500Y0273719D01*
X0060500Y0274717D02*
X0040300Y0274717D01*
X0040300Y0275716D02*
X0060500Y0275716D01*
X0060500Y0276714D02*
X0040300Y0276714D01*
X0040300Y0277713D02*
X0060500Y0277713D01*
X0060500Y0278711D02*
X0047798Y0278711D01*
X0047575Y0278488D02*
X0048854Y0279767D01*
X0049546Y0281438D01*
X0049546Y0283247D01*
X0048854Y0284918D01*
X0047575Y0286197D01*
X0045904Y0286889D01*
X0044096Y0286889D01*
X0042425Y0286197D01*
X0041146Y0284918D01*
X0040454Y0283247D01*
X0040454Y0281438D01*
X0041146Y0279767D01*
X0042425Y0278488D01*
X0044096Y0277796D01*
X0045904Y0277796D01*
X0047575Y0278488D01*
X0048797Y0279710D02*
X0060500Y0279710D01*
X0060500Y0280708D02*
X0049244Y0280708D01*
X0049546Y0281707D02*
X0051594Y0281707D01*
X0051710Y0281591D02*
X0053742Y0280749D01*
X0055943Y0280749D01*
X0057975Y0281591D01*
X0059531Y0283147D01*
X0060373Y0285179D01*
X0060373Y0287380D01*
X0059531Y0289412D01*
X0057975Y0290968D01*
X0055943Y0291810D01*
X0053742Y0291810D01*
X0051710Y0290968D01*
X0050154Y0289412D01*
X0049312Y0287380D01*
X0049312Y0285179D01*
X0050154Y0283147D01*
X0051710Y0281591D01*
X0050595Y0282705D02*
X0049546Y0282705D01*
X0049357Y0283704D02*
X0049923Y0283704D01*
X0049509Y0284702D02*
X0048944Y0284702D01*
X0049312Y0285701D02*
X0048071Y0285701D01*
X0049312Y0286699D02*
X0046362Y0286699D01*
X0043638Y0286699D02*
X0040300Y0286699D01*
X0040300Y0285701D02*
X0041929Y0285701D01*
X0041056Y0284702D02*
X0040300Y0284702D01*
X0040300Y0283704D02*
X0040643Y0283704D01*
X0040454Y0282705D02*
X0040300Y0282705D01*
X0040300Y0281707D02*
X0040454Y0281707D01*
X0040300Y0280708D02*
X0040756Y0280708D01*
X0041203Y0279710D02*
X0040300Y0279710D01*
X0040300Y0278711D02*
X0042202Y0278711D01*
X0040300Y0287698D02*
X0049444Y0287698D01*
X0049857Y0288696D02*
X0040300Y0288696D01*
X0040300Y0289695D02*
X0050436Y0289695D01*
X0051435Y0290693D02*
X0040300Y0290693D01*
X0040300Y0291692D02*
X0053457Y0291692D01*
X0056228Y0291692D02*
X0060500Y0291692D01*
X0060500Y0292690D02*
X0040300Y0292690D01*
X0040300Y0293689D02*
X0060500Y0293689D01*
X0060500Y0294687D02*
X0040300Y0294687D01*
X0040300Y0295686D02*
X0060500Y0295686D01*
X0060500Y0296684D02*
X0040300Y0296684D01*
X0040300Y0297683D02*
X0060500Y0297683D01*
X0060500Y0298681D02*
X0040300Y0298681D01*
X0040300Y0299680D02*
X0060500Y0299680D01*
X0060500Y0300678D02*
X0040300Y0300678D01*
X0040300Y0301677D02*
X0060500Y0301677D01*
X0060500Y0302675D02*
X0040300Y0302675D01*
X0040300Y0303674D02*
X0060500Y0303674D01*
X0060500Y0304672D02*
X0040300Y0304672D01*
X0040300Y0305671D02*
X0060500Y0305671D01*
X0060500Y0306670D02*
X0040300Y0306670D01*
X0040300Y0307668D02*
X0060500Y0307668D01*
X0060500Y0308667D02*
X0040300Y0308667D01*
X0040300Y0309665D02*
X0060500Y0309665D01*
X0060500Y0310664D02*
X0040300Y0310664D01*
X0040300Y0311662D02*
X0060500Y0311662D01*
X0060500Y0312661D02*
X0040300Y0312661D01*
X0040300Y0313659D02*
X0060500Y0313659D01*
X0060500Y0314658D02*
X0040300Y0314658D01*
X0040300Y0315656D02*
X0060500Y0315656D01*
X0060500Y0316655D02*
X0053133Y0316655D01*
X0052389Y0316346D02*
X0054658Y0317286D01*
X0056395Y0319023D01*
X0057335Y0321292D01*
X0057335Y0323748D01*
X0056395Y0326017D01*
X0054658Y0327753D01*
X0052389Y0328693D01*
X0049933Y0328693D01*
X0047665Y0327753D01*
X0045928Y0326017D01*
X0044988Y0323748D01*
X0044988Y0321292D01*
X0045928Y0319023D01*
X0047665Y0317286D01*
X0049933Y0316346D01*
X0052389Y0316346D01*
X0055025Y0317653D02*
X0060500Y0317653D01*
X0060500Y0318652D02*
X0056024Y0318652D01*
X0056655Y0319650D02*
X0060500Y0319650D01*
X0060500Y0320649D02*
X0057068Y0320649D01*
X0057335Y0321647D02*
X0060500Y0321647D01*
X0060500Y0322646D02*
X0057335Y0322646D01*
X0057335Y0323644D02*
X0060500Y0323644D01*
X0060500Y0324643D02*
X0056964Y0324643D01*
X0056550Y0325641D02*
X0060500Y0325641D01*
X0060500Y0326640D02*
X0055772Y0326640D01*
X0054773Y0327638D02*
X0060500Y0327638D01*
X0060808Y0328637D02*
X0052525Y0328637D01*
X0052389Y0331307D02*
X0049933Y0331307D01*
X0047665Y0332247D01*
X0045928Y0333983D01*
X0044988Y0336252D01*
X0044988Y0338708D01*
X0045928Y0340977D01*
X0047665Y0342714D01*
X0049933Y0343654D01*
X0052389Y0343654D01*
X0054658Y0342714D01*
X0056395Y0340977D01*
X0057335Y0338708D01*
X0057335Y0336252D01*
X0056395Y0333983D01*
X0054658Y0332247D01*
X0052389Y0331307D01*
X0053174Y0331632D02*
X0063804Y0331632D01*
X0062805Y0330634D02*
X0040300Y0330634D01*
X0040300Y0331632D02*
X0049148Y0331632D01*
X0047281Y0332631D02*
X0040300Y0332631D01*
X0040300Y0333629D02*
X0046282Y0333629D01*
X0045661Y0334628D02*
X0040300Y0334628D01*
X0040300Y0335626D02*
X0045247Y0335626D01*
X0044988Y0336625D02*
X0040300Y0336625D01*
X0040300Y0337623D02*
X0044988Y0337623D01*
X0044988Y0338622D02*
X0040300Y0338622D01*
X0040300Y0339620D02*
X0045366Y0339620D01*
X0045780Y0340619D02*
X0040300Y0340619D01*
X0040300Y0341617D02*
X0046568Y0341617D01*
X0047567Y0342616D02*
X0040300Y0342616D01*
X0040300Y0343614D02*
X0049839Y0343614D01*
X0052484Y0343614D02*
X0088602Y0343614D01*
X0088577Y0342616D02*
X0054756Y0342616D01*
X0055755Y0341617D02*
X0088552Y0341617D01*
X0088527Y0340619D02*
X0056543Y0340619D01*
X0056957Y0339620D02*
X0070400Y0339620D01*
X0069735Y0338622D02*
X0057335Y0338622D01*
X0057335Y0337623D02*
X0069516Y0337623D01*
X0068796Y0336625D02*
X0057335Y0336625D01*
X0057075Y0335626D02*
X0067798Y0335626D01*
X0066799Y0334628D02*
X0056662Y0334628D01*
X0056041Y0333629D02*
X0065801Y0333629D01*
X0064802Y0332631D02*
X0055042Y0332631D01*
X0049798Y0328637D02*
X0040300Y0328637D01*
X0040300Y0329635D02*
X0061807Y0329635D01*
X0064500Y0326640D02*
X0092311Y0326640D01*
X0093310Y0327638D02*
X0065467Y0327638D01*
X0066465Y0328637D02*
X0089114Y0328637D01*
X0090886Y0328637D02*
X0094308Y0328637D01*
X0095000Y0329635D02*
X0092356Y0329635D01*
X0092871Y0330634D02*
X0095000Y0330634D01*
X0095000Y0331632D02*
X0094375Y0331632D01*
X0093500Y0334500D02*
X0093500Y0358000D01*
X0096148Y0356595D02*
X0096915Y0356595D01*
X0097000Y0356702D02*
X0095507Y0354836D01*
X0095200Y0354528D01*
X0095200Y0355480D01*
X0096030Y0356310D01*
X0096484Y0357406D01*
X0096484Y0358594D01*
X0096030Y0359690D01*
X0096020Y0359700D01*
X0118872Y0359700D01*
X0117172Y0358000D01*
X0099702Y0358000D01*
X0099602Y0358079D01*
X0098889Y0358000D01*
X0098172Y0358000D01*
X0098082Y0357910D01*
X0097956Y0357896D01*
X0097507Y0357336D01*
X0097000Y0356828D01*
X0097000Y0356702D01*
X0096484Y0357594D02*
X0097714Y0357594D01*
X0096484Y0358592D02*
X0117764Y0358592D01*
X0118762Y0359591D02*
X0096071Y0359591D01*
X0096116Y0355597D02*
X0095317Y0355597D01*
X0095270Y0354598D02*
X0095200Y0354598D01*
X0091800Y0354598D02*
X0040300Y0354598D01*
X0040300Y0353600D02*
X0088379Y0353600D01*
X0087726Y0352601D02*
X0040300Y0352601D01*
X0040300Y0351603D02*
X0087516Y0351603D01*
X0087641Y0350604D02*
X0040300Y0350604D01*
X0040300Y0349605D02*
X0088174Y0349605D01*
X0088727Y0348607D02*
X0040300Y0348607D01*
X0040300Y0347608D02*
X0088702Y0347608D01*
X0088677Y0346610D02*
X0040300Y0346610D01*
X0040300Y0345611D02*
X0088652Y0345611D01*
X0088627Y0344613D02*
X0040300Y0344613D01*
X0040300Y0355597D02*
X0091683Y0355597D01*
X0090852Y0356595D02*
X0040300Y0356595D01*
X0040300Y0357594D02*
X0090516Y0357594D01*
X0090516Y0358592D02*
X0040300Y0358592D01*
X0040300Y0359591D02*
X0090929Y0359591D01*
X0090500Y0351500D02*
X0090000Y0331500D01*
X0087238Y0332631D02*
X0070459Y0332631D01*
X0069461Y0331632D02*
X0087016Y0331632D01*
X0087129Y0330634D02*
X0068462Y0330634D01*
X0067464Y0329635D02*
X0087644Y0329635D01*
X0087909Y0333629D02*
X0071458Y0333629D01*
X0073364Y0334628D02*
X0088378Y0334628D01*
X0088403Y0335626D02*
X0074847Y0335626D01*
X0075368Y0336625D02*
X0088428Y0336625D01*
X0088453Y0337623D02*
X0075484Y0337623D01*
X0075265Y0338622D02*
X0088478Y0338622D01*
X0088502Y0339620D02*
X0074600Y0339620D01*
X0064500Y0325641D02*
X0090078Y0325641D01*
X0088239Y0324643D02*
X0064500Y0324643D01*
X0064500Y0323644D02*
X0087240Y0323644D01*
X0086242Y0322646D02*
X0064500Y0322646D01*
X0064500Y0321647D02*
X0085243Y0321647D01*
X0084245Y0320649D02*
X0064500Y0320649D01*
X0064500Y0319650D02*
X0083246Y0319650D01*
X0082247Y0318652D02*
X0064500Y0318652D01*
X0064500Y0317653D02*
X0081249Y0317653D01*
X0080250Y0316655D02*
X0064500Y0316655D01*
X0064500Y0315656D02*
X0079252Y0315656D01*
X0078253Y0314658D02*
X0064500Y0314658D01*
X0064500Y0313659D02*
X0077255Y0313659D01*
X0076256Y0312661D02*
X0064500Y0312661D01*
X0064500Y0311662D02*
X0075258Y0311662D01*
X0074259Y0310664D02*
X0064500Y0310664D01*
X0064500Y0309665D02*
X0073261Y0309665D01*
X0072262Y0308667D02*
X0064500Y0308667D01*
X0064500Y0307668D02*
X0071264Y0307668D01*
X0070265Y0306670D02*
X0064500Y0306670D01*
X0064500Y0305671D02*
X0069267Y0305671D01*
X0068268Y0304672D02*
X0064500Y0304672D01*
X0064500Y0303674D02*
X0067300Y0303674D01*
X0067300Y0302675D02*
X0064500Y0302675D01*
X0064500Y0301677D02*
X0067300Y0301677D01*
X0067300Y0300678D02*
X0064500Y0300678D01*
X0064500Y0299680D02*
X0067300Y0299680D01*
X0067300Y0298681D02*
X0064500Y0298681D01*
X0064500Y0297683D02*
X0067300Y0297683D01*
X0067300Y0296684D02*
X0064500Y0296684D01*
X0064500Y0295686D02*
X0067300Y0295686D01*
X0067300Y0294687D02*
X0064500Y0294687D01*
X0064500Y0293689D02*
X0067300Y0293689D01*
X0067300Y0292690D02*
X0064500Y0292690D01*
X0064500Y0291692D02*
X0067300Y0291692D01*
X0067300Y0290693D02*
X0064500Y0290693D01*
X0064500Y0289695D02*
X0067300Y0289695D01*
X0067300Y0288696D02*
X0064500Y0288696D01*
X0064500Y0287698D02*
X0067300Y0287698D01*
X0067300Y0286699D02*
X0064500Y0286699D01*
X0064500Y0285701D02*
X0067300Y0285701D01*
X0067300Y0284702D02*
X0064500Y0284702D01*
X0064500Y0283704D02*
X0067300Y0283704D01*
X0067300Y0282705D02*
X0064500Y0282705D01*
X0064500Y0281707D02*
X0067300Y0281707D01*
X0067300Y0280708D02*
X0064500Y0280708D01*
X0064500Y0279710D02*
X0067300Y0279710D01*
X0067300Y0278711D02*
X0064500Y0278711D01*
X0064500Y0277713D02*
X0067300Y0277713D01*
X0067300Y0276714D02*
X0064500Y0276714D01*
X0064500Y0275716D02*
X0067300Y0275716D01*
X0067300Y0274717D02*
X0064500Y0274717D01*
X0064500Y0273719D02*
X0067300Y0273719D01*
X0067300Y0272720D02*
X0064500Y0272720D01*
X0064500Y0271722D02*
X0067300Y0271722D01*
X0066503Y0270723D02*
X0064500Y0270723D01*
X0064500Y0269725D02*
X0066070Y0269725D01*
X0066016Y0268726D02*
X0064500Y0268726D01*
X0064500Y0267728D02*
X0066297Y0267728D01*
X0067051Y0266729D02*
X0064500Y0266729D01*
X0064500Y0265731D02*
X0089800Y0265731D01*
X0089800Y0266729D02*
X0070949Y0266729D01*
X0071703Y0267728D02*
X0089800Y0267728D01*
X0089800Y0268726D02*
X0071984Y0268726D01*
X0071930Y0269725D02*
X0089800Y0269725D01*
X0089800Y0270723D02*
X0071497Y0270723D01*
X0070700Y0271722D02*
X0089800Y0271722D01*
X0089800Y0272720D02*
X0070700Y0272720D01*
X0070700Y0273719D02*
X0089800Y0273719D01*
X0089800Y0274717D02*
X0070700Y0274717D01*
X0070700Y0275716D02*
X0089800Y0275716D01*
X0089800Y0276714D02*
X0070700Y0276714D01*
X0070700Y0277713D02*
X0089800Y0277713D01*
X0089800Y0278711D02*
X0070700Y0278711D01*
X0070700Y0279710D02*
X0089800Y0279710D01*
X0089800Y0280708D02*
X0070700Y0280708D01*
X0070700Y0281707D02*
X0089800Y0281707D01*
X0089800Y0282705D02*
X0070700Y0282705D01*
X0070700Y0283704D02*
X0089800Y0283704D01*
X0089800Y0284702D02*
X0070700Y0284702D01*
X0070700Y0285701D02*
X0089800Y0285701D01*
X0089800Y0286699D02*
X0070700Y0286699D01*
X0070700Y0287698D02*
X0089800Y0287698D01*
X0089800Y0288696D02*
X0070700Y0288696D01*
X0070700Y0289695D02*
X0089800Y0289695D01*
X0089800Y0290693D02*
X0070700Y0290693D01*
X0070700Y0291692D02*
X0089800Y0291692D01*
X0089800Y0292690D02*
X0070700Y0292690D01*
X0070700Y0293689D02*
X0089800Y0293689D01*
X0089800Y0294687D02*
X0070700Y0294687D01*
X0070700Y0295686D02*
X0089800Y0295686D01*
X0089800Y0296684D02*
X0070700Y0296684D01*
X0070700Y0297683D02*
X0089800Y0297683D01*
X0089800Y0298681D02*
X0070700Y0298681D01*
X0070700Y0299680D02*
X0089800Y0299680D01*
X0089800Y0300678D02*
X0070700Y0300678D01*
X0070700Y0301677D02*
X0089800Y0301677D01*
X0089800Y0302675D02*
X0071080Y0302675D01*
X0072078Y0303674D02*
X0089800Y0303674D01*
X0089800Y0304672D02*
X0073077Y0304672D01*
X0074075Y0305671D02*
X0089800Y0305671D01*
X0089800Y0306670D02*
X0075074Y0306670D01*
X0076072Y0307668D02*
X0089800Y0307668D01*
X0089800Y0308667D02*
X0077071Y0308667D01*
X0078069Y0309665D02*
X0089800Y0309665D01*
X0089800Y0310664D02*
X0079068Y0310664D01*
X0080066Y0311662D02*
X0089800Y0311662D01*
X0089800Y0312661D02*
X0081065Y0312661D01*
X0082063Y0313659D02*
X0089800Y0313659D01*
X0089800Y0314658D02*
X0083062Y0314658D01*
X0084060Y0315656D02*
X0089800Y0315656D01*
X0089125Y0316655D02*
X0085059Y0316655D01*
X0086057Y0317653D02*
X0088621Y0317653D01*
X0088516Y0318652D02*
X0087056Y0318652D01*
X0088054Y0319650D02*
X0088746Y0319650D01*
X0089053Y0320649D02*
X0089428Y0320649D01*
X0089000Y0323000D02*
X0069000Y0303000D01*
X0069000Y0269000D01*
X0064500Y0264732D02*
X0089800Y0264732D01*
X0089800Y0263734D02*
X0064500Y0263734D01*
X0064500Y0262735D02*
X0089800Y0262735D01*
X0089800Y0261737D02*
X0064500Y0261737D01*
X0064500Y0260738D02*
X0089800Y0260738D01*
X0089800Y0259739D02*
X0064500Y0259739D01*
X0064500Y0258741D02*
X0089800Y0258741D01*
X0089800Y0257742D02*
X0064500Y0257742D01*
X0064500Y0256744D02*
X0089800Y0256744D01*
X0089800Y0255745D02*
X0064500Y0255745D01*
X0064500Y0254747D02*
X0089800Y0254747D01*
X0089800Y0253748D02*
X0064500Y0253748D01*
X0064500Y0252750D02*
X0089800Y0252750D01*
X0089800Y0251751D02*
X0064500Y0251751D01*
X0064500Y0250753D02*
X0089800Y0250753D01*
X0089800Y0249754D02*
X0064500Y0249754D01*
X0064500Y0248756D02*
X0089800Y0248756D01*
X0089800Y0247757D02*
X0081141Y0247757D01*
X0082462Y0246759D02*
X0089800Y0246759D01*
X0089800Y0245760D02*
X0082915Y0245760D01*
X0082984Y0244762D02*
X0089800Y0244762D01*
X0089800Y0243763D02*
X0082718Y0243763D01*
X0081985Y0242765D02*
X0089800Y0242765D01*
X0091500Y0235500D02*
X0091500Y0318500D01*
X0091500Y0323000D02*
X0089000Y0323000D01*
X0096170Y0335853D02*
X0096030Y0336190D01*
X0095200Y0337020D01*
X0095200Y0341116D01*
X0097784Y0338532D01*
X0097784Y0337468D01*
X0096172Y0335855D01*
X0096170Y0335853D01*
X0095596Y0336625D02*
X0096941Y0336625D01*
X0097784Y0337623D02*
X0095200Y0337623D01*
X0095200Y0338622D02*
X0097694Y0338622D01*
X0096696Y0339620D02*
X0095200Y0339620D01*
X0095200Y0340619D02*
X0095697Y0340619D01*
X0099357Y0342616D02*
X0121284Y0342616D01*
X0121284Y0343614D02*
X0099863Y0343614D01*
X0099984Y0344613D02*
X0121284Y0344613D01*
X0121284Y0345611D02*
X0099770Y0345611D01*
X0099110Y0346610D02*
X0121284Y0346610D01*
X0120951Y0347608D02*
X0099000Y0347608D01*
X0099000Y0348607D02*
X0120246Y0348607D01*
X0120000Y0349605D02*
X0099000Y0349605D01*
X0099000Y0350604D02*
X0120089Y0350604D01*
X0120571Y0351603D02*
X0099000Y0351603D01*
X0099000Y0352601D02*
X0121960Y0352601D01*
X0120996Y0353600D02*
X0099641Y0353600D01*
X0100356Y0341617D02*
X0121284Y0341617D01*
X0121284Y0340619D02*
X0117101Y0340619D01*
X0114516Y0335516D02*
X0114516Y0334406D01*
X0114539Y0334351D01*
X0107700Y0327152D01*
X0107700Y0328796D01*
X0114420Y0335516D01*
X0114516Y0335516D01*
X0114516Y0334628D02*
X0113532Y0334628D01*
X0113853Y0333629D02*
X0112533Y0333629D01*
X0112904Y0332631D02*
X0111535Y0332631D01*
X0111956Y0331632D02*
X0110536Y0331632D01*
X0111007Y0330634D02*
X0109538Y0330634D01*
X0110059Y0329635D02*
X0108539Y0329635D01*
X0109110Y0328637D02*
X0107700Y0328637D01*
X0107700Y0327638D02*
X0108162Y0327638D01*
X0113551Y0321647D02*
X0120300Y0321647D01*
X0120300Y0320649D02*
X0112553Y0320649D01*
X0114550Y0322646D02*
X0120300Y0322646D01*
X0120300Y0323644D02*
X0115548Y0323644D01*
X0116547Y0324643D02*
X0120300Y0324643D01*
X0120300Y0325641D02*
X0117545Y0325641D01*
X0118544Y0326640D02*
X0120300Y0326640D01*
X0120300Y0327638D02*
X0119542Y0327638D01*
X0123700Y0327575D02*
X0126184Y0330060D01*
X0126184Y0332412D01*
X0127300Y0331296D01*
X0127300Y0311925D01*
X0123700Y0308325D01*
X0123700Y0327575D01*
X0123763Y0327638D02*
X0127300Y0327638D01*
X0127300Y0326640D02*
X0123700Y0326640D01*
X0123700Y0325641D02*
X0127300Y0325641D01*
X0127300Y0324643D02*
X0123700Y0324643D01*
X0123700Y0323644D02*
X0127300Y0323644D01*
X0127300Y0322646D02*
X0123700Y0322646D01*
X0123700Y0321647D02*
X0127300Y0321647D01*
X0127300Y0320649D02*
X0123700Y0320649D01*
X0123700Y0319650D02*
X0127300Y0319650D01*
X0127300Y0318652D02*
X0123700Y0318652D01*
X0123700Y0317653D02*
X0127300Y0317653D01*
X0127300Y0316655D02*
X0123700Y0316655D01*
X0123700Y0315656D02*
X0127300Y0315656D01*
X0127300Y0314658D02*
X0123700Y0314658D01*
X0123700Y0313659D02*
X0127300Y0313659D01*
X0127300Y0312661D02*
X0123700Y0312661D01*
X0123700Y0311662D02*
X0127038Y0311662D01*
X0126039Y0310664D02*
X0123700Y0310664D01*
X0123700Y0309665D02*
X0125041Y0309665D01*
X0124042Y0308667D02*
X0123700Y0308667D01*
X0129000Y0311220D02*
X0129000Y0332000D01*
X0124984Y0336016D01*
X0124984Y0338236D01*
X0122984Y0340236D01*
X0122984Y0349795D01*
X0125722Y0348607D02*
X0125989Y0348607D01*
X0125800Y0348796D02*
X0126300Y0348296D01*
X0126300Y0340925D01*
X0125500Y0340125D01*
X0124684Y0340940D01*
X0124684Y0347275D01*
X0125514Y0348105D01*
X0125800Y0348796D01*
X0126300Y0347608D02*
X0125018Y0347608D01*
X0124684Y0346610D02*
X0126300Y0346610D01*
X0126300Y0345611D02*
X0124684Y0345611D01*
X0124684Y0344613D02*
X0126300Y0344613D01*
X0126300Y0343614D02*
X0124684Y0343614D01*
X0124684Y0342616D02*
X0126300Y0342616D01*
X0126300Y0341617D02*
X0124684Y0341617D01*
X0125006Y0340619D02*
X0125994Y0340619D01*
X0127016Y0339236D02*
X0127016Y0336764D01*
X0128764Y0335016D01*
X0131500Y0335016D01*
X0131516Y0335000D01*
X0131516Y0334484D01*
X0134000Y0332000D01*
X0134000Y0325000D01*
X0133500Y0324500D01*
X0130743Y0325641D02*
X0130700Y0325641D01*
X0130700Y0325538D02*
X0130700Y0331296D01*
X0130700Y0332704D01*
X0130088Y0333316D01*
X0130280Y0333316D01*
X0132300Y0331296D01*
X0132300Y0327233D01*
X0131810Y0327030D01*
X0130970Y0326190D01*
X0130700Y0325538D01*
X0130700Y0326640D02*
X0131419Y0326640D01*
X0130700Y0327638D02*
X0132300Y0327638D01*
X0132300Y0328637D02*
X0130700Y0328637D01*
X0130700Y0329635D02*
X0132300Y0329635D01*
X0132300Y0330634D02*
X0130700Y0330634D01*
X0130700Y0331632D02*
X0131964Y0331632D01*
X0130965Y0332631D02*
X0130700Y0332631D01*
X0126964Y0331632D02*
X0126184Y0331632D01*
X0126184Y0330634D02*
X0127300Y0330634D01*
X0127300Y0329635D02*
X0125760Y0329635D01*
X0124761Y0328637D02*
X0127300Y0328637D01*
X0130700Y0323462D02*
X0130700Y0323192D01*
X0130795Y0323231D01*
X0130700Y0323462D01*
X0132000Y0320500D02*
X0132000Y0300500D01*
X0137500Y0295000D01*
X0137500Y0277500D01*
X0139200Y0278204D02*
X0139200Y0279306D01*
X0140238Y0277509D01*
X0142509Y0275238D01*
X0145291Y0273631D01*
X0148394Y0272800D01*
X0151606Y0272800D01*
X0154709Y0273631D01*
X0157491Y0275238D01*
X0159762Y0277509D01*
X0161369Y0280291D01*
X0162200Y0283394D01*
X0162200Y0286606D01*
X0161369Y0289709D01*
X0160661Y0290935D01*
X0162800Y0288796D01*
X0162800Y0279704D01*
X0155796Y0272700D01*
X0145296Y0272700D01*
X0144300Y0271704D01*
X0144200Y0271604D01*
X0144200Y0273204D01*
X0143204Y0274200D01*
X0139200Y0278204D01*
X0139200Y0278711D02*
X0139543Y0278711D01*
X0139691Y0277713D02*
X0140120Y0277713D01*
X0140690Y0276714D02*
X0141032Y0276714D01*
X0141688Y0275716D02*
X0142031Y0275716D01*
X0142687Y0274717D02*
X0143410Y0274717D01*
X0143686Y0273719D02*
X0145140Y0273719D01*
X0144200Y0272720D02*
X0155816Y0272720D01*
X0154860Y0273719D02*
X0156814Y0273719D01*
X0156590Y0274717D02*
X0157813Y0274717D01*
X0157969Y0275716D02*
X0158812Y0275716D01*
X0158968Y0276714D02*
X0159810Y0276714D01*
X0159880Y0277713D02*
X0160809Y0277713D01*
X0160456Y0278711D02*
X0161807Y0278711D01*
X0161033Y0279710D02*
X0162800Y0279710D01*
X0162800Y0280708D02*
X0161480Y0280708D01*
X0161748Y0281707D02*
X0162800Y0281707D01*
X0162800Y0282705D02*
X0162015Y0282705D01*
X0162200Y0283704D02*
X0162800Y0283704D01*
X0162800Y0284702D02*
X0162200Y0284702D01*
X0162200Y0285701D02*
X0162800Y0285701D01*
X0162800Y0286699D02*
X0162175Y0286699D01*
X0161907Y0287698D02*
X0162800Y0287698D01*
X0162800Y0288696D02*
X0161640Y0288696D01*
X0161901Y0289695D02*
X0161372Y0289695D01*
X0160902Y0290693D02*
X0160800Y0290693D01*
X0163714Y0292690D02*
X0245100Y0292690D01*
X0245100Y0291692D02*
X0164712Y0291692D01*
X0165711Y0290693D02*
X0245100Y0290693D01*
X0245100Y0289695D02*
X0166200Y0289695D01*
X0166200Y0288696D02*
X0245100Y0288696D01*
X0245100Y0287698D02*
X0166200Y0287698D01*
X0166200Y0286699D02*
X0244979Y0286699D01*
X0244560Y0285701D02*
X0193278Y0285701D01*
X0193690Y0285530D02*
X0192594Y0285984D01*
X0191406Y0285984D01*
X0190310Y0285530D01*
X0189470Y0284690D01*
X0189016Y0283594D01*
X0189016Y0282406D01*
X0189470Y0281310D01*
X0190310Y0280470D01*
X0191406Y0280016D01*
X0192580Y0280016D01*
X0207300Y0265296D01*
X0207300Y0261520D01*
X0206470Y0260690D01*
X0206016Y0259594D01*
X0206016Y0258406D01*
X0206470Y0257310D01*
X0207310Y0256470D01*
X0208406Y0256016D01*
X0209594Y0256016D01*
X0210690Y0256470D01*
X0211530Y0257310D01*
X0211984Y0258406D01*
X0211984Y0259594D01*
X0211530Y0260690D01*
X0210700Y0261520D01*
X0210700Y0266704D01*
X0194984Y0282420D01*
X0194984Y0283594D01*
X0194530Y0284690D01*
X0193690Y0285530D01*
X0194518Y0284702D02*
X0244516Y0284702D01*
X0244807Y0283704D02*
X0194939Y0283704D01*
X0194984Y0282705D02*
X0245100Y0282705D01*
X0245100Y0281707D02*
X0195697Y0281707D01*
X0196696Y0280708D02*
X0245100Y0280708D01*
X0245100Y0279710D02*
X0197694Y0279710D01*
X0198693Y0278711D02*
X0245100Y0278711D01*
X0245100Y0277713D02*
X0199691Y0277713D01*
X0200690Y0276714D02*
X0245100Y0276714D01*
X0245100Y0275716D02*
X0201688Y0275716D01*
X0202687Y0274717D02*
X0245100Y0274717D01*
X0245100Y0273719D02*
X0203686Y0273719D01*
X0204684Y0272720D02*
X0245100Y0272720D01*
X0245100Y0271722D02*
X0205683Y0271722D01*
X0206681Y0270723D02*
X0245100Y0270723D01*
X0245100Y0269725D02*
X0207680Y0269725D01*
X0208678Y0268726D02*
X0245100Y0268726D01*
X0245100Y0267728D02*
X0209677Y0267728D01*
X0210675Y0266729D02*
X0245100Y0266729D01*
X0245100Y0265731D02*
X0210700Y0265731D01*
X0210700Y0264732D02*
X0245100Y0264732D01*
X0245100Y0263734D02*
X0210700Y0263734D01*
X0210700Y0262735D02*
X0245100Y0262735D01*
X0245100Y0261737D02*
X0210700Y0261737D01*
X0211482Y0260738D02*
X0245100Y0260738D01*
X0245100Y0259739D02*
X0211924Y0259739D01*
X0211984Y0258741D02*
X0245100Y0258741D01*
X0245100Y0257742D02*
X0211709Y0257742D01*
X0210964Y0256744D02*
X0245100Y0256744D01*
X0245100Y0255745D02*
X0196400Y0255745D01*
X0196400Y0254970D02*
X0193530Y0252100D01*
X0189470Y0252100D01*
X0186600Y0254970D01*
X0186600Y0259030D01*
X0189470Y0261900D01*
X0193530Y0261900D01*
X0196400Y0259030D01*
X0196400Y0254970D01*
X0196177Y0254747D02*
X0245100Y0254747D01*
X0244787Y0253748D02*
X0195178Y0253748D01*
X0194180Y0252750D02*
X0244516Y0252750D01*
X0244580Y0251751D02*
X0193678Y0251751D01*
X0193530Y0251900D02*
X0189470Y0251900D01*
X0186600Y0249030D01*
X0186600Y0244970D01*
X0189470Y0242100D01*
X0193530Y0242100D01*
X0196400Y0244970D01*
X0196400Y0249030D01*
X0193530Y0251900D01*
X0194677Y0250753D02*
X0245027Y0250753D01*
X0245100Y0249754D02*
X0195675Y0249754D01*
X0196400Y0248756D02*
X0245100Y0248756D01*
X0245100Y0247757D02*
X0196400Y0247757D01*
X0196400Y0246759D02*
X0245100Y0246759D01*
X0245100Y0245760D02*
X0196400Y0245760D01*
X0196191Y0244762D02*
X0245100Y0244762D01*
X0245100Y0243763D02*
X0195193Y0243763D01*
X0194194Y0242765D02*
X0245100Y0242765D01*
X0245100Y0241766D02*
X0193663Y0241766D01*
X0194662Y0240768D02*
X0245100Y0240768D01*
X0245100Y0239769D02*
X0195660Y0239769D01*
X0196400Y0238771D02*
X0245100Y0238771D01*
X0245100Y0237772D02*
X0196400Y0237772D01*
X0196400Y0236774D02*
X0245100Y0236774D01*
X0245100Y0235775D02*
X0196400Y0235775D01*
X0196206Y0234777D02*
X0245100Y0234777D01*
X0245100Y0233778D02*
X0195208Y0233778D01*
X0197000Y0232000D02*
X0152000Y0232000D01*
X0144500Y0239500D01*
X0144500Y0269500D01*
X0146000Y0271000D01*
X0156500Y0271000D01*
X0164500Y0279000D01*
X0164500Y0289500D01*
X0155500Y0298500D01*
X0138500Y0298500D01*
X0134500Y0302500D01*
X0134500Y0315000D01*
X0136000Y0316500D01*
X0138752Y0317653D02*
X0148516Y0317653D01*
X0148540Y0318652D02*
X0138069Y0318652D01*
X0138984Y0316655D02*
X0146434Y0316655D01*
X0145749Y0315656D02*
X0138881Y0315656D01*
X0138378Y0314658D02*
X0145516Y0314658D01*
X0143621Y0313659D02*
X0136940Y0313659D01*
X0136200Y0312661D02*
X0142458Y0312661D01*
X0142044Y0311662D02*
X0136200Y0311662D01*
X0136200Y0310664D02*
X0142016Y0310664D01*
X0142136Y0309665D02*
X0136200Y0309665D01*
X0136200Y0308667D02*
X0140960Y0308667D01*
X0140547Y0307668D02*
X0136200Y0307668D01*
X0136200Y0306670D02*
X0140516Y0306670D01*
X0140820Y0305671D02*
X0136200Y0305671D01*
X0136200Y0304672D02*
X0138452Y0304672D01*
X0137756Y0303674D02*
X0136200Y0303674D01*
X0136729Y0302675D02*
X0137516Y0302675D01*
X0140500Y0302500D02*
X0187000Y0302500D01*
X0189744Y0303674D02*
X0245100Y0303674D01*
X0245100Y0304672D02*
X0190893Y0304672D01*
X0191680Y0305671D02*
X0245100Y0305671D01*
X0245100Y0306670D02*
X0191984Y0306670D01*
X0191953Y0307668D02*
X0245100Y0307668D01*
X0245100Y0308667D02*
X0191540Y0308667D01*
X0190364Y0309665D02*
X0245100Y0309665D01*
X0245100Y0310664D02*
X0189984Y0310664D01*
X0190447Y0311662D02*
X0245100Y0311662D01*
X0245100Y0312661D02*
X0191881Y0312661D01*
X0192382Y0313659D02*
X0245100Y0313659D01*
X0245100Y0314658D02*
X0192484Y0314658D01*
X0192251Y0315656D02*
X0245100Y0315656D01*
X0245100Y0316655D02*
X0191566Y0316655D01*
X0189984Y0317653D02*
X0245100Y0317653D01*
X0244828Y0318652D02*
X0189960Y0318652D01*
X0191371Y0319650D02*
X0244516Y0319650D01*
X0244539Y0320649D02*
X0192170Y0320649D01*
X0192484Y0321647D02*
X0244952Y0321647D01*
X0245100Y0322646D02*
X0192463Y0322646D01*
X0192049Y0323644D02*
X0245100Y0323644D01*
X0245100Y0324643D02*
X0190918Y0324643D01*
X0191043Y0326640D02*
X0188957Y0326640D01*
X0188082Y0324643D02*
X0149918Y0324643D01*
X0147082Y0324643D02*
X0136484Y0324643D01*
X0136376Y0323644D02*
X0145951Y0323644D01*
X0145537Y0322646D02*
X0135866Y0322646D01*
X0134755Y0321647D02*
X0145516Y0321647D01*
X0145830Y0320649D02*
X0134984Y0320649D01*
X0134878Y0319650D02*
X0146629Y0319650D01*
X0148500Y0322000D02*
X0189500Y0322000D01*
X0187000Y0318000D02*
X0151500Y0318000D01*
X0153420Y0320300D02*
X0185080Y0320300D01*
X0184480Y0319700D01*
X0154020Y0319700D01*
X0153420Y0320300D01*
X0154020Y0316300D02*
X0184480Y0316300D01*
X0184580Y0316200D01*
X0153920Y0316200D01*
X0154020Y0316300D01*
X0151020Y0312800D02*
X0184580Y0312800D01*
X0184480Y0312700D01*
X0150920Y0312700D01*
X0151020Y0312800D01*
X0148500Y0314500D02*
X0189500Y0314500D01*
X0187000Y0311000D02*
X0145000Y0311000D01*
X0146920Y0308700D02*
X0147520Y0309300D01*
X0184480Y0309300D01*
X0185080Y0308700D01*
X0146920Y0308700D01*
X0146020Y0305300D02*
X0185962Y0305300D01*
X0185310Y0305030D01*
X0184480Y0304200D01*
X0144538Y0304200D01*
X0145190Y0304470D01*
X0146020Y0305300D01*
X0145393Y0304672D02*
X0184952Y0304672D01*
X0184601Y0300678D02*
X0142899Y0300678D01*
X0145291Y0296369D02*
X0146901Y0296800D01*
X0138104Y0296800D01*
X0138204Y0296700D01*
X0139200Y0295704D01*
X0139200Y0290694D01*
X0140238Y0292491D01*
X0142509Y0294762D01*
X0145291Y0296369D01*
X0146470Y0296684D02*
X0138220Y0296684D01*
X0139200Y0295686D02*
X0144109Y0295686D01*
X0142434Y0294687D02*
X0139200Y0294687D01*
X0139200Y0293689D02*
X0141435Y0293689D01*
X0140437Y0292690D02*
X0139200Y0292690D01*
X0139200Y0291692D02*
X0139776Y0291692D01*
X0122891Y0282705D02*
X0117669Y0282705D01*
X0118031Y0283704D02*
X0121892Y0283704D01*
X0120894Y0284702D02*
X0118031Y0284702D01*
X0117645Y0285701D02*
X0119895Y0285701D01*
X0118897Y0286699D02*
X0116747Y0286699D01*
X0116747Y0287698D02*
X0117898Y0287698D01*
X0116900Y0288696D02*
X0116747Y0288696D01*
X0116801Y0281707D02*
X0123889Y0281707D01*
X0124888Y0280708D02*
X0116696Y0280708D01*
X0117694Y0279710D02*
X0125886Y0279710D01*
X0126885Y0278711D02*
X0118693Y0278711D01*
X0119691Y0277713D02*
X0127883Y0277713D01*
X0128882Y0276714D02*
X0120690Y0276714D01*
X0121688Y0275716D02*
X0129880Y0275716D01*
X0122865Y0265731D02*
X0122674Y0265731D01*
X0138700Y0260738D02*
X0140800Y0260738D01*
X0140800Y0261737D02*
X0139141Y0261737D01*
X0140139Y0262735D02*
X0140800Y0262735D01*
X0140800Y0259739D02*
X0138700Y0259739D01*
X0138700Y0258741D02*
X0140800Y0258741D01*
X0140800Y0257742D02*
X0138700Y0257742D01*
X0138700Y0256744D02*
X0140800Y0256744D01*
X0140800Y0255745D02*
X0138700Y0255745D01*
X0138700Y0254747D02*
X0140800Y0254747D01*
X0140800Y0253748D02*
X0138700Y0253748D01*
X0138700Y0252750D02*
X0140800Y0252750D01*
X0140800Y0251751D02*
X0138700Y0251751D01*
X0138700Y0250753D02*
X0140800Y0250753D01*
X0140800Y0249754D02*
X0138700Y0249754D01*
X0138700Y0248756D02*
X0140800Y0248756D01*
X0140800Y0247757D02*
X0138700Y0247757D01*
X0138700Y0246759D02*
X0140800Y0246759D01*
X0140800Y0245760D02*
X0138700Y0245760D01*
X0138700Y0244762D02*
X0140800Y0244762D01*
X0140800Y0243763D02*
X0138700Y0243763D01*
X0138700Y0242765D02*
X0140800Y0242765D01*
X0140800Y0241766D02*
X0138700Y0241766D01*
X0138700Y0240768D02*
X0140800Y0240768D01*
X0140800Y0239769D02*
X0138700Y0239769D01*
X0138700Y0238771D02*
X0140800Y0238771D01*
X0140800Y0237772D02*
X0138700Y0237772D01*
X0138700Y0236774D02*
X0140822Y0236774D01*
X0141821Y0235775D02*
X0138700Y0235775D01*
X0138700Y0234777D02*
X0142819Y0234777D01*
X0143818Y0233778D02*
X0138700Y0233778D01*
X0138700Y0232780D02*
X0144816Y0232780D01*
X0145815Y0231781D02*
X0138700Y0231781D01*
X0138700Y0230783D02*
X0146813Y0230783D01*
X0147812Y0229784D02*
X0138700Y0229784D01*
X0138700Y0228786D02*
X0148810Y0228786D01*
X0149809Y0227787D02*
X0138700Y0227787D01*
X0138700Y0226789D02*
X0150807Y0226789D01*
X0151806Y0225790D02*
X0138700Y0225790D01*
X0138700Y0224792D02*
X0152804Y0224792D01*
X0153803Y0223793D02*
X0138700Y0223793D01*
X0138700Y0222795D02*
X0154801Y0222795D01*
X0155800Y0221796D02*
X0138700Y0221796D01*
X0138700Y0220798D02*
X0156798Y0220798D01*
X0158704Y0223700D02*
X0152104Y0230300D01*
X0177870Y0230300D01*
X0176600Y0229030D01*
X0176600Y0224970D01*
X0177870Y0223700D01*
X0158704Y0223700D01*
X0158611Y0223793D02*
X0177777Y0223793D01*
X0176779Y0224792D02*
X0157613Y0224792D01*
X0156614Y0225790D02*
X0176600Y0225790D01*
X0176600Y0226789D02*
X0155616Y0226789D01*
X0154617Y0227787D02*
X0176600Y0227787D01*
X0176600Y0228786D02*
X0153619Y0228786D01*
X0152620Y0229784D02*
X0177355Y0229784D01*
X0177792Y0233778D02*
X0152626Y0233778D01*
X0151627Y0234777D02*
X0176794Y0234777D01*
X0176600Y0235775D02*
X0150629Y0235775D01*
X0149630Y0236774D02*
X0176600Y0236774D01*
X0176600Y0237772D02*
X0148632Y0237772D01*
X0147633Y0238771D02*
X0176600Y0238771D01*
X0177340Y0239769D02*
X0146635Y0239769D01*
X0146200Y0240768D02*
X0178338Y0240768D01*
X0179337Y0241766D02*
X0146200Y0241766D01*
X0146200Y0242765D02*
X0178806Y0242765D01*
X0179470Y0242100D02*
X0183530Y0242100D01*
X0186400Y0244970D01*
X0186400Y0249030D01*
X0183530Y0251900D01*
X0179470Y0251900D01*
X0176600Y0249030D01*
X0176600Y0244970D01*
X0179470Y0242100D01*
X0177807Y0243763D02*
X0146200Y0243763D01*
X0146200Y0244762D02*
X0176809Y0244762D01*
X0176600Y0245760D02*
X0146200Y0245760D01*
X0146200Y0246759D02*
X0176600Y0246759D01*
X0176600Y0247757D02*
X0146200Y0247757D01*
X0146200Y0248756D02*
X0176600Y0248756D01*
X0177325Y0249754D02*
X0146200Y0249754D01*
X0146200Y0250753D02*
X0178323Y0250753D01*
X0179322Y0251751D02*
X0146200Y0251751D01*
X0146200Y0252750D02*
X0178820Y0252750D01*
X0179470Y0252100D02*
X0183530Y0252100D01*
X0186400Y0254970D01*
X0186400Y0259030D01*
X0183530Y0261900D01*
X0179470Y0261900D01*
X0176600Y0259030D01*
X0176600Y0254970D01*
X0179470Y0252100D01*
X0177822Y0253748D02*
X0146200Y0253748D01*
X0146200Y0254747D02*
X0176823Y0254747D01*
X0176600Y0255745D02*
X0146200Y0255745D01*
X0146200Y0256744D02*
X0176600Y0256744D01*
X0176600Y0257742D02*
X0146200Y0257742D01*
X0146200Y0258741D02*
X0176600Y0258741D01*
X0177310Y0259739D02*
X0146200Y0259739D01*
X0146200Y0260738D02*
X0178308Y0260738D01*
X0179307Y0261737D02*
X0146200Y0261737D01*
X0146200Y0262735D02*
X0178835Y0262735D01*
X0179470Y0262100D02*
X0183530Y0262100D01*
X0186400Y0264970D01*
X0186400Y0269030D01*
X0183530Y0271900D01*
X0179470Y0271900D01*
X0176600Y0269030D01*
X0176600Y0264970D01*
X0179470Y0262100D01*
X0177837Y0263734D02*
X0146200Y0263734D01*
X0146200Y0264732D02*
X0176838Y0264732D01*
X0176600Y0265731D02*
X0146200Y0265731D01*
X0146200Y0266729D02*
X0176600Y0266729D01*
X0176600Y0267728D02*
X0146200Y0267728D01*
X0146200Y0268726D02*
X0176600Y0268726D01*
X0177295Y0269725D02*
X0157629Y0269725D01*
X0158627Y0270723D02*
X0178293Y0270723D01*
X0179292Y0271722D02*
X0159626Y0271722D01*
X0160624Y0272720D02*
X0199876Y0272720D01*
X0200874Y0271722D02*
X0193708Y0271722D01*
X0193530Y0271900D02*
X0189470Y0271900D01*
X0186600Y0269030D01*
X0186600Y0264970D01*
X0189470Y0262100D01*
X0193530Y0262100D01*
X0196400Y0264970D01*
X0196400Y0269030D01*
X0193530Y0271900D01*
X0194707Y0270723D02*
X0201873Y0270723D01*
X0202871Y0269725D02*
X0195705Y0269725D01*
X0196400Y0268726D02*
X0203870Y0268726D01*
X0204868Y0267728D02*
X0196400Y0267728D01*
X0196400Y0266729D02*
X0205867Y0266729D01*
X0206865Y0265731D02*
X0196400Y0265731D01*
X0196162Y0264732D02*
X0207300Y0264732D01*
X0207300Y0263734D02*
X0195163Y0263734D01*
X0194165Y0262735D02*
X0207300Y0262735D01*
X0207300Y0261737D02*
X0193693Y0261737D01*
X0194692Y0260738D02*
X0206518Y0260738D01*
X0206076Y0259739D02*
X0195690Y0259739D01*
X0196400Y0258741D02*
X0206016Y0258741D01*
X0206291Y0257742D02*
X0196400Y0257742D01*
X0196400Y0256744D02*
X0207036Y0256744D01*
X0209000Y0259000D02*
X0209000Y0266000D01*
X0192000Y0283000D01*
X0190722Y0285701D02*
X0166200Y0285701D01*
X0166200Y0284702D02*
X0189482Y0284702D01*
X0189061Y0283704D02*
X0166200Y0283704D01*
X0166200Y0282705D02*
X0189016Y0282705D01*
X0189306Y0281707D02*
X0166200Y0281707D01*
X0166200Y0280708D02*
X0190071Y0280708D01*
X0192886Y0279710D02*
X0166200Y0279710D01*
X0166200Y0278711D02*
X0193885Y0278711D01*
X0194883Y0277713D02*
X0165617Y0277713D01*
X0164618Y0276714D02*
X0195882Y0276714D01*
X0196880Y0275716D02*
X0163620Y0275716D01*
X0162621Y0274717D02*
X0197879Y0274717D01*
X0198877Y0273719D02*
X0161623Y0273719D01*
X0144317Y0271722D02*
X0144200Y0271722D01*
X0162715Y0293689D02*
X0245100Y0293689D01*
X0245100Y0294687D02*
X0161717Y0294687D01*
X0160718Y0295686D02*
X0245100Y0295686D01*
X0245100Y0296684D02*
X0159720Y0296684D01*
X0158721Y0297683D02*
X0245100Y0297683D01*
X0245100Y0298681D02*
X0157723Y0298681D01*
X0156724Y0299680D02*
X0186010Y0299680D01*
X0187990Y0299680D02*
X0245100Y0299680D01*
X0245100Y0300678D02*
X0189399Y0300678D01*
X0189889Y0301677D02*
X0245100Y0301677D01*
X0245100Y0302675D02*
X0189984Y0302675D01*
X0189000Y0307000D02*
X0143500Y0307000D01*
X0153099Y0296800D02*
X0154796Y0296800D01*
X0155935Y0295661D01*
X0154709Y0296369D01*
X0153099Y0296800D01*
X0153530Y0296684D02*
X0154911Y0296684D01*
X0155891Y0295686D02*
X0155910Y0295686D01*
X0183708Y0271722D02*
X0189292Y0271722D01*
X0188293Y0270723D02*
X0184707Y0270723D01*
X0185705Y0269725D02*
X0187295Y0269725D01*
X0186600Y0268726D02*
X0186400Y0268726D01*
X0186400Y0267728D02*
X0186600Y0267728D01*
X0186600Y0266729D02*
X0186400Y0266729D01*
X0186400Y0265731D02*
X0186600Y0265731D01*
X0186838Y0264732D02*
X0186162Y0264732D01*
X0185163Y0263734D02*
X0187837Y0263734D01*
X0188835Y0262735D02*
X0184165Y0262735D01*
X0183693Y0261737D02*
X0189307Y0261737D01*
X0188308Y0260738D02*
X0184692Y0260738D01*
X0185690Y0259739D02*
X0187310Y0259739D01*
X0186600Y0258741D02*
X0186400Y0258741D01*
X0186400Y0257742D02*
X0186600Y0257742D01*
X0186600Y0256744D02*
X0186400Y0256744D01*
X0186400Y0255745D02*
X0186600Y0255745D01*
X0186823Y0254747D02*
X0186177Y0254747D01*
X0185178Y0253748D02*
X0187822Y0253748D01*
X0188820Y0252750D02*
X0184180Y0252750D01*
X0183678Y0251751D02*
X0189322Y0251751D01*
X0188323Y0250753D02*
X0184677Y0250753D01*
X0185675Y0249754D02*
X0187325Y0249754D01*
X0186600Y0248756D02*
X0186400Y0248756D01*
X0186400Y0247757D02*
X0186600Y0247757D01*
X0186600Y0246759D02*
X0186400Y0246759D01*
X0186400Y0245760D02*
X0186600Y0245760D01*
X0186809Y0244762D02*
X0186191Y0244762D01*
X0185193Y0243763D02*
X0187807Y0243763D01*
X0188806Y0242765D02*
X0184194Y0242765D01*
X0183663Y0241766D02*
X0189337Y0241766D01*
X0188338Y0240768D02*
X0184662Y0240768D01*
X0185660Y0239769D02*
X0187340Y0239769D01*
X0186600Y0238771D02*
X0186400Y0238771D01*
X0186400Y0237772D02*
X0186600Y0237772D01*
X0186600Y0236774D02*
X0186400Y0236774D01*
X0186400Y0235775D02*
X0186600Y0235775D01*
X0186794Y0234777D02*
X0186206Y0234777D01*
X0185208Y0233778D02*
X0187792Y0233778D01*
X0187870Y0230300D02*
X0186600Y0229030D01*
X0186600Y0224970D01*
X0187870Y0223700D01*
X0185130Y0223700D01*
X0186400Y0224970D01*
X0186400Y0229030D01*
X0185130Y0230300D01*
X0187870Y0230300D01*
X0187355Y0229784D02*
X0185645Y0229784D01*
X0186400Y0228786D02*
X0186600Y0228786D01*
X0186600Y0227787D02*
X0186400Y0227787D01*
X0186400Y0226789D02*
X0186600Y0226789D01*
X0186600Y0225790D02*
X0186400Y0225790D01*
X0186221Y0224792D02*
X0186779Y0224792D01*
X0187777Y0223793D02*
X0185223Y0223793D01*
X0185130Y0220300D02*
X0187870Y0220300D01*
X0186600Y0219030D01*
X0186600Y0214970D01*
X0189470Y0212100D01*
X0193530Y0212100D01*
X0195800Y0214370D01*
X0195800Y0209630D01*
X0193530Y0211900D01*
X0189470Y0211900D01*
X0188987Y0211417D01*
X0187700Y0212704D01*
X0186704Y0213700D01*
X0185130Y0213700D01*
X0186400Y0214970D01*
X0186400Y0219030D01*
X0185130Y0220300D01*
X0185631Y0219799D02*
X0187369Y0219799D01*
X0186600Y0218801D02*
X0186400Y0218801D01*
X0186400Y0217802D02*
X0186600Y0217802D01*
X0186600Y0216803D02*
X0186400Y0216803D01*
X0186400Y0215805D02*
X0186600Y0215805D01*
X0186764Y0214806D02*
X0186236Y0214806D01*
X0185238Y0213808D02*
X0187762Y0213808D01*
X0187595Y0212809D02*
X0188761Y0212809D01*
X0188593Y0211811D02*
X0189381Y0211811D01*
X0186000Y0212000D02*
X0179000Y0212000D01*
X0175000Y0216000D01*
X0174000Y0216000D01*
X0171000Y0219000D01*
X0168266Y0217802D02*
X0138700Y0217802D01*
X0138700Y0216803D02*
X0168976Y0216803D01*
X0168016Y0218801D02*
X0138700Y0218801D01*
X0138700Y0219799D02*
X0168101Y0219799D01*
X0165977Y0214806D02*
X0138700Y0214806D01*
X0138700Y0213808D02*
X0164588Y0213808D01*
X0164105Y0212809D02*
X0138700Y0212809D01*
X0138700Y0211811D02*
X0164016Y0211811D01*
X0164262Y0210812D02*
X0138700Y0210812D01*
X0138700Y0209814D02*
X0164966Y0209814D01*
X0167000Y0212000D02*
X0169000Y0214000D01*
X0174000Y0214000D01*
X0177000Y0211000D01*
X0177000Y0210000D01*
X0176000Y0209000D01*
X0176000Y0205000D01*
X0179000Y0202000D01*
X0187000Y0202000D01*
X0191500Y0197500D01*
X0191500Y0197000D01*
X0186600Y0196833D02*
X0186400Y0196833D01*
X0186400Y0195835D02*
X0186600Y0195835D01*
X0186600Y0194970D02*
X0189470Y0192100D01*
X0193530Y0192100D01*
X0195800Y0194370D01*
X0195800Y0189630D01*
X0193530Y0191900D01*
X0189504Y0191900D01*
X0188700Y0192704D01*
X0187704Y0193700D01*
X0185130Y0193700D01*
X0186400Y0194970D01*
X0186400Y0199030D01*
X0185130Y0200300D01*
X0186296Y0200300D01*
X0187083Y0199513D01*
X0186600Y0199030D01*
X0186600Y0194970D01*
X0186734Y0194836D02*
X0186266Y0194836D01*
X0185267Y0193838D02*
X0187733Y0193838D01*
X0188565Y0192839D02*
X0188731Y0192839D01*
X0187000Y0192000D02*
X0191500Y0187500D01*
X0191500Y0187000D01*
X0195282Y0183853D02*
X0195800Y0183853D01*
X0194950Y0182854D02*
X0194284Y0182854D01*
X0193951Y0181856D02*
X0193574Y0181856D01*
X0196763Y0179859D02*
X0198800Y0179859D01*
X0198800Y0180857D02*
X0197761Y0180857D01*
X0198760Y0181856D02*
X0198800Y0181856D01*
X0198800Y0178860D02*
X0196400Y0178860D01*
X0196400Y0177862D02*
X0198800Y0177862D01*
X0200500Y0175500D02*
X0200500Y0228500D01*
X0197000Y0232000D01*
X0198624Y0232780D02*
X0245100Y0232780D01*
X0245100Y0231781D02*
X0199623Y0231781D01*
X0200621Y0230783D02*
X0245100Y0230783D01*
X0245100Y0229784D02*
X0201620Y0229784D01*
X0202200Y0228786D02*
X0245100Y0228786D01*
X0245100Y0227787D02*
X0202200Y0227787D01*
X0202200Y0226789D02*
X0245100Y0226789D01*
X0245100Y0225790D02*
X0202200Y0225790D01*
X0202200Y0224792D02*
X0245100Y0224792D01*
X0245100Y0223793D02*
X0202200Y0223793D01*
X0202200Y0222795D02*
X0245100Y0222795D01*
X0245100Y0221796D02*
X0202200Y0221796D01*
X0202200Y0220798D02*
X0245100Y0220798D01*
X0245100Y0219799D02*
X0202200Y0219799D01*
X0202200Y0218801D02*
X0244809Y0218801D01*
X0244516Y0217802D02*
X0202200Y0217802D01*
X0202200Y0216803D02*
X0244558Y0216803D01*
X0244975Y0215805D02*
X0202200Y0215805D01*
X0202200Y0214806D02*
X0245100Y0214806D01*
X0245100Y0213808D02*
X0202200Y0213808D01*
X0202200Y0212809D02*
X0245100Y0212809D01*
X0245100Y0211811D02*
X0202200Y0211811D01*
X0202200Y0210812D02*
X0245100Y0210812D01*
X0245100Y0209814D02*
X0202200Y0209814D01*
X0202200Y0208815D02*
X0245100Y0208815D01*
X0245100Y0207817D02*
X0202200Y0207817D01*
X0202200Y0206818D02*
X0245100Y0206818D01*
X0245100Y0205820D02*
X0202200Y0205820D01*
X0202200Y0204821D02*
X0245100Y0204821D01*
X0245100Y0203823D02*
X0202200Y0203823D01*
X0202200Y0202824D02*
X0245100Y0202824D01*
X0245100Y0201826D02*
X0202200Y0201826D01*
X0202200Y0200827D02*
X0245100Y0200827D01*
X0245100Y0199829D02*
X0202200Y0199829D01*
X0202200Y0198830D02*
X0245100Y0198830D01*
X0245100Y0197832D02*
X0202200Y0197832D01*
X0202200Y0196833D02*
X0245100Y0196833D01*
X0245100Y0195835D02*
X0202200Y0195835D01*
X0202200Y0194836D02*
X0245100Y0194836D01*
X0245100Y0193838D02*
X0202200Y0193838D01*
X0202200Y0192839D02*
X0245100Y0192839D01*
X0245100Y0191841D02*
X0202200Y0191841D01*
X0202200Y0190842D02*
X0245100Y0190842D01*
X0245100Y0189844D02*
X0202200Y0189844D01*
X0202200Y0188845D02*
X0245100Y0188845D01*
X0245100Y0187847D02*
X0202200Y0187847D01*
X0202200Y0186848D02*
X0245100Y0186848D01*
X0245100Y0185850D02*
X0202200Y0185850D01*
X0202200Y0184851D02*
X0245100Y0184851D01*
X0244830Y0183853D02*
X0202200Y0183853D01*
X0202200Y0182854D02*
X0244516Y0182854D01*
X0244537Y0181856D02*
X0202200Y0181856D01*
X0202200Y0180857D02*
X0244950Y0180857D01*
X0245100Y0179859D02*
X0202200Y0179859D01*
X0202200Y0178860D02*
X0245100Y0178860D01*
X0245100Y0177862D02*
X0202200Y0177862D01*
X0202200Y0176863D02*
X0245100Y0176863D01*
X0245100Y0175865D02*
X0202200Y0175865D01*
X0202200Y0174866D02*
X0245100Y0174866D01*
X0245100Y0173868D02*
X0201272Y0173868D01*
X0200273Y0172869D02*
X0245100Y0172869D01*
X0245100Y0171870D02*
X0199275Y0171870D01*
X0198276Y0170872D02*
X0245100Y0170872D01*
X0245100Y0169873D02*
X0197278Y0169873D01*
X0196400Y0168875D02*
X0245100Y0168875D01*
X0245100Y0167876D02*
X0196400Y0167876D01*
X0196400Y0166878D02*
X0245100Y0166878D01*
X0245100Y0165879D02*
X0196400Y0165879D01*
X0196311Y0164881D02*
X0245100Y0164881D01*
X0245100Y0163882D02*
X0195312Y0163882D01*
X0194314Y0162884D02*
X0245100Y0162884D01*
X0249900Y0162884D02*
X0252149Y0162884D01*
X0252000Y0163244D02*
X0252579Y0161847D01*
X0253647Y0160779D01*
X0255044Y0160200D01*
X0261756Y0160200D01*
X0263153Y0160779D01*
X0264221Y0161847D01*
X0264800Y0163244D01*
X0264800Y0164756D01*
X0264221Y0166153D01*
X0263153Y0167221D01*
X0261756Y0167800D01*
X0255044Y0167800D01*
X0253647Y0167221D01*
X0252579Y0166153D01*
X0252000Y0164756D01*
X0252000Y0163244D01*
X0252000Y0163882D02*
X0249900Y0163882D01*
X0249900Y0164881D02*
X0252052Y0164881D01*
X0252465Y0165879D02*
X0249900Y0165879D01*
X0249900Y0166878D02*
X0253304Y0166878D01*
X0249900Y0167876D02*
X0265500Y0167876D01*
X0265500Y0166878D02*
X0263496Y0166878D01*
X0264335Y0165879D02*
X0265500Y0165879D01*
X0265500Y0164881D02*
X0264748Y0164881D01*
X0264800Y0163882D02*
X0265500Y0163882D01*
X0265500Y0162884D02*
X0264651Y0162884D01*
X0264237Y0161885D02*
X0265500Y0161885D01*
X0265500Y0160887D02*
X0263261Y0160887D01*
X0265500Y0159888D02*
X0249900Y0159888D01*
X0249900Y0158890D02*
X0265500Y0158890D01*
X0265500Y0157891D02*
X0249900Y0157891D01*
X0249900Y0156893D02*
X0265500Y0156893D01*
X0265500Y0155894D02*
X0249900Y0155894D01*
X0249900Y0154896D02*
X0265500Y0154896D01*
X0265500Y0153897D02*
X0249900Y0153897D01*
X0249900Y0152899D02*
X0253325Y0152899D01*
X0253647Y0153221D02*
X0252579Y0152153D01*
X0252000Y0150756D01*
X0252000Y0149244D01*
X0252579Y0147847D01*
X0253647Y0146779D01*
X0255044Y0146200D01*
X0261756Y0146200D01*
X0263153Y0146779D01*
X0264221Y0147847D01*
X0264800Y0149244D01*
X0264800Y0150756D01*
X0264221Y0152153D01*
X0263153Y0153221D01*
X0261756Y0153800D01*
X0255044Y0153800D01*
X0253647Y0153221D01*
X0252474Y0151900D02*
X0249900Y0151900D01*
X0250357Y0150902D02*
X0252060Y0150902D01*
X0252000Y0149903D02*
X0250484Y0149903D01*
X0250276Y0148905D02*
X0252141Y0148905D01*
X0252554Y0147906D02*
X0249900Y0147906D01*
X0249900Y0146908D02*
X0253518Y0146908D01*
X0255044Y0143800D02*
X0253647Y0143221D01*
X0252579Y0142153D01*
X0252000Y0140756D01*
X0252000Y0139244D01*
X0252579Y0137847D01*
X0253647Y0136779D01*
X0255044Y0136200D01*
X0261756Y0136200D01*
X0263153Y0136779D01*
X0264221Y0137847D01*
X0264800Y0139244D01*
X0264800Y0140756D01*
X0264221Y0142153D01*
X0263153Y0143221D01*
X0261756Y0143800D01*
X0255044Y0143800D01*
X0253340Y0142914D02*
X0249900Y0142914D01*
X0249900Y0143912D02*
X0265500Y0143912D01*
X0265500Y0142914D02*
X0263460Y0142914D01*
X0264320Y0141915D02*
X0265500Y0141915D01*
X0265500Y0140917D02*
X0264733Y0140917D01*
X0264800Y0139918D02*
X0265500Y0139918D01*
X0265500Y0138920D02*
X0264666Y0138920D01*
X0264252Y0137921D02*
X0265500Y0137921D01*
X0265500Y0136923D02*
X0263297Y0136923D01*
X0265500Y0135924D02*
X0249900Y0135924D01*
X0249900Y0134926D02*
X0265500Y0134926D01*
X0265500Y0144911D02*
X0249900Y0144911D01*
X0249900Y0145909D02*
X0265500Y0145909D01*
X0265500Y0146908D02*
X0263282Y0146908D01*
X0264246Y0147906D02*
X0265500Y0147906D01*
X0265500Y0148905D02*
X0264659Y0148905D01*
X0264800Y0149903D02*
X0265500Y0149903D01*
X0265500Y0150902D02*
X0264740Y0150902D01*
X0264326Y0151900D02*
X0265500Y0151900D01*
X0265500Y0152899D02*
X0263475Y0152899D01*
X0253539Y0160887D02*
X0249900Y0160887D01*
X0249900Y0161885D02*
X0252563Y0161885D01*
X0249900Y0168875D02*
X0265500Y0168875D01*
X0265500Y0169873D02*
X0249900Y0169873D01*
X0249900Y0170872D02*
X0253554Y0170872D01*
X0253647Y0170779D02*
X0255044Y0170200D01*
X0261756Y0170200D01*
X0263153Y0170779D01*
X0264221Y0171847D01*
X0264800Y0173244D01*
X0264800Y0174756D01*
X0264221Y0176153D01*
X0263153Y0177221D01*
X0261756Y0177800D01*
X0255044Y0177800D01*
X0253647Y0177221D01*
X0252579Y0176153D01*
X0252000Y0174756D01*
X0252000Y0173244D01*
X0252579Y0171847D01*
X0253647Y0170779D01*
X0252569Y0171870D02*
X0249900Y0171870D01*
X0249900Y0172869D02*
X0252155Y0172869D01*
X0252000Y0173868D02*
X0249900Y0173868D01*
X0249900Y0174866D02*
X0252046Y0174866D01*
X0252459Y0175865D02*
X0249900Y0175865D01*
X0249900Y0176863D02*
X0253289Y0176863D01*
X0249900Y0177862D02*
X0265500Y0177862D01*
X0265500Y0178860D02*
X0249900Y0178860D01*
X0249900Y0179859D02*
X0265500Y0179859D01*
X0265500Y0180857D02*
X0263231Y0180857D01*
X0263153Y0180779D02*
X0264221Y0181847D01*
X0264800Y0183244D01*
X0264800Y0184756D01*
X0264221Y0186153D01*
X0263153Y0187221D01*
X0261756Y0187800D01*
X0255044Y0187800D01*
X0253647Y0187221D01*
X0252579Y0186153D01*
X0252000Y0184756D01*
X0252000Y0183244D01*
X0252579Y0181847D01*
X0253647Y0180779D01*
X0255044Y0180200D01*
X0261756Y0180200D01*
X0263153Y0180779D01*
X0264225Y0181856D02*
X0265500Y0181856D01*
X0265500Y0182854D02*
X0264638Y0182854D01*
X0264800Y0183853D02*
X0265500Y0183853D01*
X0265500Y0184851D02*
X0264761Y0184851D01*
X0264347Y0185850D02*
X0265500Y0185850D01*
X0265500Y0186848D02*
X0263526Y0186848D01*
X0265500Y0187847D02*
X0249900Y0187847D01*
X0249900Y0188845D02*
X0265500Y0188845D01*
X0265500Y0189844D02*
X0249900Y0189844D01*
X0249900Y0190842D02*
X0265500Y0190842D01*
X0265500Y0191841D02*
X0249900Y0191841D01*
X0249900Y0192839D02*
X0265500Y0192839D01*
X0265500Y0193838D02*
X0249900Y0193838D01*
X0249900Y0194836D02*
X0253590Y0194836D01*
X0253647Y0194779D02*
X0255044Y0194200D01*
X0261756Y0194200D01*
X0263153Y0194779D01*
X0264221Y0195847D01*
X0264800Y0197244D01*
X0264800Y0198756D01*
X0264221Y0200153D01*
X0263153Y0201221D01*
X0261756Y0201800D01*
X0255044Y0201800D01*
X0253647Y0201221D01*
X0252579Y0200153D01*
X0252000Y0198756D01*
X0252000Y0197244D01*
X0252579Y0195847D01*
X0253647Y0194779D01*
X0252591Y0195835D02*
X0249900Y0195835D01*
X0249900Y0196833D02*
X0252170Y0196833D01*
X0252000Y0197832D02*
X0249900Y0197832D01*
X0249900Y0198830D02*
X0252031Y0198830D01*
X0252444Y0199829D02*
X0249900Y0199829D01*
X0249900Y0200827D02*
X0253253Y0200827D01*
X0249900Y0201826D02*
X0265500Y0201826D01*
X0265500Y0202824D02*
X0249900Y0202824D01*
X0249900Y0203823D02*
X0265500Y0203823D01*
X0265500Y0204821D02*
X0263195Y0204821D01*
X0263153Y0204779D02*
X0264221Y0205847D01*
X0264800Y0207244D01*
X0264800Y0208756D01*
X0264221Y0210153D01*
X0263153Y0211221D01*
X0261756Y0211800D01*
X0255044Y0211800D01*
X0253647Y0211221D01*
X0252579Y0210153D01*
X0252000Y0208756D01*
X0252000Y0207244D01*
X0252579Y0205847D01*
X0253647Y0204779D01*
X0255044Y0204200D01*
X0261756Y0204200D01*
X0263153Y0204779D01*
X0264194Y0205820D02*
X0265500Y0205820D01*
X0265500Y0206818D02*
X0264624Y0206818D01*
X0264800Y0207817D02*
X0265500Y0207817D01*
X0265500Y0208815D02*
X0264775Y0208815D01*
X0264362Y0209814D02*
X0265500Y0209814D01*
X0265500Y0210812D02*
X0263562Y0210812D01*
X0265500Y0211811D02*
X0249900Y0211811D01*
X0249900Y0212809D02*
X0265500Y0212809D01*
X0265500Y0213808D02*
X0249900Y0213808D01*
X0249900Y0214806D02*
X0253620Y0214806D01*
X0253647Y0214779D02*
X0255044Y0214200D01*
X0261756Y0214200D01*
X0263153Y0214779D01*
X0264221Y0215847D01*
X0264800Y0217244D01*
X0264800Y0218756D01*
X0264221Y0220153D01*
X0263153Y0221221D01*
X0261756Y0221800D01*
X0255044Y0221800D01*
X0253647Y0221221D01*
X0252579Y0220153D01*
X0252000Y0218756D01*
X0252000Y0217244D01*
X0252579Y0215847D01*
X0253647Y0214779D01*
X0252621Y0215805D02*
X0250025Y0215805D01*
X0250442Y0216803D02*
X0252183Y0216803D01*
X0252000Y0217802D02*
X0250484Y0217802D01*
X0250191Y0218801D02*
X0252019Y0218801D01*
X0252432Y0219799D02*
X0249900Y0219799D01*
X0249900Y0220798D02*
X0253224Y0220798D01*
X0255035Y0221796D02*
X0249900Y0221796D01*
X0249900Y0222795D02*
X0265500Y0222795D01*
X0265500Y0223793D02*
X0249900Y0223793D01*
X0249900Y0224792D02*
X0265500Y0224792D01*
X0265500Y0225790D02*
X0249900Y0225790D01*
X0249900Y0226789D02*
X0265500Y0226789D01*
X0265500Y0227787D02*
X0249900Y0227787D01*
X0249900Y0228786D02*
X0253640Y0228786D01*
X0253647Y0228779D02*
X0255044Y0228200D01*
X0261756Y0228200D01*
X0263153Y0228779D01*
X0264221Y0229847D01*
X0264800Y0231244D01*
X0264800Y0232756D01*
X0264221Y0234153D01*
X0263153Y0235221D01*
X0261756Y0235800D01*
X0255044Y0235800D01*
X0253647Y0235221D01*
X0252579Y0234153D01*
X0252000Y0232756D01*
X0252000Y0231244D01*
X0252579Y0229847D01*
X0253647Y0228779D01*
X0252642Y0229784D02*
X0249900Y0229784D01*
X0249900Y0230783D02*
X0252191Y0230783D01*
X0252000Y0231781D02*
X0249900Y0231781D01*
X0249900Y0232780D02*
X0252010Y0232780D01*
X0252423Y0233778D02*
X0249900Y0233778D01*
X0249900Y0234777D02*
X0253203Y0234777D01*
X0254984Y0235775D02*
X0249900Y0235775D01*
X0249900Y0236774D02*
X0265500Y0236774D01*
X0265500Y0237772D02*
X0249900Y0237772D01*
X0249900Y0238771D02*
X0253666Y0238771D01*
X0253647Y0238779D02*
X0255044Y0238200D01*
X0261756Y0238200D01*
X0263153Y0238779D01*
X0264221Y0239847D01*
X0264800Y0241244D01*
X0264800Y0242756D01*
X0264221Y0244153D01*
X0263153Y0245221D01*
X0261756Y0245800D01*
X0255044Y0245800D01*
X0253647Y0245221D01*
X0252579Y0244153D01*
X0252000Y0242756D01*
X0252000Y0241244D01*
X0252579Y0239847D01*
X0253647Y0238779D01*
X0252657Y0239769D02*
X0249900Y0239769D01*
X0249900Y0240768D02*
X0252197Y0240768D01*
X0252000Y0241766D02*
X0249900Y0241766D01*
X0249900Y0242765D02*
X0252004Y0242765D01*
X0252417Y0243763D02*
X0249900Y0243763D01*
X0249900Y0244762D02*
X0253188Y0244762D01*
X0254948Y0245760D02*
X0249900Y0245760D01*
X0249900Y0246759D02*
X0265500Y0246759D01*
X0265500Y0247757D02*
X0249900Y0247757D01*
X0249900Y0248756D02*
X0253702Y0248756D01*
X0253647Y0248779D02*
X0255044Y0248200D01*
X0261756Y0248200D01*
X0263153Y0248779D01*
X0264221Y0249847D01*
X0264800Y0251244D01*
X0264800Y0252756D01*
X0264221Y0254153D01*
X0263153Y0255221D01*
X0261756Y0255800D01*
X0255044Y0255800D01*
X0253647Y0255221D01*
X0252579Y0254153D01*
X0252000Y0252756D01*
X0252000Y0251244D01*
X0252579Y0249847D01*
X0253647Y0248779D01*
X0252672Y0249754D02*
X0249900Y0249754D01*
X0249973Y0250753D02*
X0252203Y0250753D01*
X0252000Y0251751D02*
X0250420Y0251751D01*
X0250484Y0252750D02*
X0252000Y0252750D01*
X0252411Y0253748D02*
X0250213Y0253748D01*
X0249900Y0254747D02*
X0253173Y0254747D01*
X0254912Y0255745D02*
X0249900Y0255745D01*
X0249900Y0256744D02*
X0265500Y0256744D01*
X0265500Y0257742D02*
X0249900Y0257742D01*
X0249900Y0258741D02*
X0265500Y0258741D01*
X0265500Y0259739D02*
X0249900Y0259739D01*
X0249900Y0260738D02*
X0265500Y0260738D01*
X0265500Y0261737D02*
X0249900Y0261737D01*
X0249900Y0262735D02*
X0253752Y0262735D01*
X0253647Y0262779D02*
X0255044Y0262200D01*
X0261756Y0262200D01*
X0263153Y0262779D01*
X0264221Y0263847D01*
X0264800Y0265244D01*
X0264800Y0266756D01*
X0264221Y0268153D01*
X0263153Y0269221D01*
X0261756Y0269800D01*
X0255044Y0269800D01*
X0253647Y0269221D01*
X0252579Y0268153D01*
X0252000Y0266756D01*
X0252000Y0265244D01*
X0252579Y0263847D01*
X0253647Y0262779D01*
X0252692Y0263734D02*
X0249900Y0263734D01*
X0249900Y0264732D02*
X0252212Y0264732D01*
X0252000Y0265731D02*
X0249900Y0265731D01*
X0249900Y0266729D02*
X0252000Y0266729D01*
X0252402Y0267728D02*
X0249900Y0267728D01*
X0249900Y0268726D02*
X0253152Y0268726D01*
X0254862Y0269725D02*
X0249900Y0269725D01*
X0249900Y0270723D02*
X0265500Y0270723D01*
X0265500Y0269725D02*
X0261938Y0269725D01*
X0263648Y0268726D02*
X0265500Y0268726D01*
X0265500Y0267728D02*
X0264398Y0267728D01*
X0264800Y0266729D02*
X0265500Y0266729D01*
X0265500Y0265731D02*
X0264800Y0265731D01*
X0264588Y0264732D02*
X0265500Y0264732D01*
X0265500Y0263734D02*
X0264108Y0263734D01*
X0263047Y0262735D02*
X0265500Y0262735D01*
X0265500Y0255745D02*
X0261888Y0255745D01*
X0263627Y0254747D02*
X0265500Y0254747D01*
X0265500Y0253748D02*
X0264389Y0253748D01*
X0264800Y0252750D02*
X0265500Y0252750D01*
X0265500Y0251751D02*
X0264800Y0251751D01*
X0264597Y0250753D02*
X0265500Y0250753D01*
X0265500Y0249754D02*
X0264128Y0249754D01*
X0263098Y0248756D02*
X0265500Y0248756D01*
X0265500Y0245760D02*
X0261852Y0245760D01*
X0263612Y0244762D02*
X0265500Y0244762D01*
X0265500Y0243763D02*
X0264383Y0243763D01*
X0264796Y0242765D02*
X0265500Y0242765D01*
X0265500Y0241766D02*
X0264800Y0241766D01*
X0264603Y0240768D02*
X0265500Y0240768D01*
X0265500Y0239769D02*
X0264143Y0239769D01*
X0263134Y0238771D02*
X0265500Y0238771D01*
X0265500Y0235775D02*
X0261816Y0235775D01*
X0263597Y0234777D02*
X0265500Y0234777D01*
X0265500Y0233778D02*
X0264377Y0233778D01*
X0264790Y0232780D02*
X0265500Y0232780D01*
X0265500Y0231781D02*
X0264800Y0231781D01*
X0264609Y0230783D02*
X0265500Y0230783D01*
X0265500Y0229784D02*
X0264158Y0229784D01*
X0263160Y0228786D02*
X0265500Y0228786D01*
X0265500Y0221796D02*
X0261765Y0221796D01*
X0263576Y0220798D02*
X0265500Y0220798D01*
X0265500Y0219799D02*
X0264368Y0219799D01*
X0264781Y0218801D02*
X0265500Y0218801D01*
X0265500Y0217802D02*
X0264800Y0217802D01*
X0264617Y0216803D02*
X0265500Y0216803D01*
X0265500Y0215805D02*
X0264179Y0215805D01*
X0263180Y0214806D02*
X0265500Y0214806D01*
X0253238Y0210812D02*
X0249900Y0210812D01*
X0249900Y0209814D02*
X0252438Y0209814D01*
X0252025Y0208815D02*
X0249900Y0208815D01*
X0249900Y0207817D02*
X0252000Y0207817D01*
X0252176Y0206818D02*
X0249900Y0206818D01*
X0249900Y0205820D02*
X0252606Y0205820D01*
X0253605Y0204821D02*
X0249900Y0204821D01*
X0263547Y0200827D02*
X0265500Y0200827D01*
X0265500Y0199829D02*
X0264356Y0199829D01*
X0264769Y0198830D02*
X0265500Y0198830D01*
X0265500Y0197832D02*
X0264800Y0197832D01*
X0264630Y0196833D02*
X0265500Y0196833D01*
X0265500Y0195835D02*
X0264209Y0195835D01*
X0263210Y0194836D02*
X0265500Y0194836D01*
X0253274Y0186848D02*
X0249900Y0186848D01*
X0249900Y0185850D02*
X0252453Y0185850D01*
X0252039Y0184851D02*
X0249900Y0184851D01*
X0250170Y0183853D02*
X0252000Y0183853D01*
X0252162Y0182854D02*
X0250484Y0182854D01*
X0250463Y0181856D02*
X0252575Y0181856D01*
X0253569Y0180857D02*
X0250050Y0180857D01*
X0263511Y0176863D02*
X0265500Y0176863D01*
X0265500Y0175865D02*
X0264341Y0175865D01*
X0264754Y0174866D02*
X0265500Y0174866D01*
X0265500Y0173868D02*
X0264800Y0173868D01*
X0264645Y0172869D02*
X0265500Y0172869D01*
X0265500Y0171870D02*
X0264231Y0171870D01*
X0263246Y0170872D02*
X0265500Y0170872D01*
X0252480Y0141915D02*
X0249900Y0141915D01*
X0249900Y0140917D02*
X0252067Y0140917D01*
X0252000Y0139918D02*
X0249900Y0139918D01*
X0249900Y0138920D02*
X0252134Y0138920D01*
X0252548Y0137921D02*
X0249900Y0137921D01*
X0249900Y0136923D02*
X0253503Y0136923D01*
X0245100Y0125939D02*
X0206343Y0125939D01*
X0205345Y0124940D02*
X0245100Y0124940D01*
X0245100Y0123942D02*
X0204346Y0123942D01*
X0202533Y0126937D02*
X0196467Y0126937D01*
X0195468Y0127936D02*
X0203532Y0127936D01*
X0204300Y0128934D02*
X0194470Y0128934D01*
X0193471Y0129933D02*
X0204300Y0129933D01*
X0204300Y0130932D02*
X0192473Y0130932D01*
X0191474Y0131930D02*
X0204300Y0131930D01*
X0195000Y0122943D02*
X0245100Y0122943D01*
X0245100Y0121945D02*
X0195000Y0121945D01*
X0195000Y0120946D02*
X0245100Y0120946D01*
X0245100Y0119948D02*
X0195000Y0119948D01*
X0195000Y0118949D02*
X0245100Y0118949D01*
X0245100Y0117951D02*
X0221536Y0117951D01*
X0224430Y0116952D02*
X0245100Y0116952D01*
X0244665Y0115954D02*
X0226159Y0115954D01*
X0227298Y0114955D02*
X0244516Y0114955D01*
X0244702Y0113957D02*
X0228297Y0113957D01*
X0229070Y0112958D02*
X0245321Y0112958D01*
X0230569Y0109963D02*
X0265500Y0109963D01*
X0265500Y0110961D02*
X0230223Y0110961D01*
X0229646Y0111960D02*
X0265500Y0111960D01*
X0265500Y0112958D02*
X0263332Y0112958D01*
X0264267Y0113957D02*
X0265500Y0113957D01*
X0265500Y0114955D02*
X0264680Y0114955D01*
X0264800Y0115954D02*
X0265500Y0115954D01*
X0265500Y0116952D02*
X0264719Y0116952D01*
X0264305Y0117951D02*
X0265500Y0117951D01*
X0265500Y0118949D02*
X0263425Y0118949D01*
X0263410Y0108964D02*
X0265500Y0108964D01*
X0265500Y0107966D02*
X0264299Y0107966D01*
X0264712Y0106967D02*
X0265500Y0106967D01*
X0265500Y0105969D02*
X0264800Y0105969D01*
X0264687Y0104970D02*
X0265500Y0104970D01*
X0265500Y0103972D02*
X0264273Y0103972D01*
X0263347Y0102973D02*
X0265500Y0102973D01*
X0253405Y0098979D02*
X0229034Y0098979D01*
X0228234Y0097981D02*
X0252507Y0097981D01*
X0252094Y0096982D02*
X0227236Y0096982D01*
X0226051Y0095984D02*
X0252000Y0095984D01*
X0252107Y0094985D02*
X0224322Y0094985D01*
X0207448Y0101975D02*
X0195000Y0101975D01*
X0195000Y0102973D02*
X0207181Y0102973D01*
X0206913Y0103972D02*
X0195000Y0103972D01*
X0195000Y0104970D02*
X0206800Y0104970D01*
X0206800Y0105969D02*
X0195000Y0105969D01*
X0195000Y0106967D02*
X0206800Y0106967D01*
X0206896Y0107966D02*
X0195000Y0107966D01*
X0195000Y0108964D02*
X0207164Y0108964D01*
X0207431Y0109963D02*
X0195000Y0109963D01*
X0195000Y0110961D02*
X0207777Y0110961D01*
X0208354Y0111960D02*
X0195000Y0111960D01*
X0195000Y0112958D02*
X0208930Y0112958D01*
X0209703Y0113957D02*
X0195000Y0113957D01*
X0195000Y0114955D02*
X0210702Y0114955D01*
X0211841Y0115954D02*
X0195000Y0115954D01*
X0195000Y0116952D02*
X0213570Y0116952D01*
X0216464Y0117951D02*
X0195000Y0117951D01*
X0195000Y0090991D02*
X0265500Y0090991D01*
X0189031Y0161885D02*
X0183544Y0161885D01*
X0184314Y0162884D02*
X0188686Y0162884D01*
X0187688Y0163882D02*
X0185312Y0163882D01*
X0186311Y0164881D02*
X0186689Y0164881D01*
X0186600Y0165879D02*
X0186400Y0165879D01*
X0186400Y0166878D02*
X0186600Y0166878D01*
X0186600Y0167876D02*
X0186400Y0167876D01*
X0186400Y0168875D02*
X0186600Y0168875D01*
X0187444Y0169873D02*
X0185556Y0169873D01*
X0184558Y0170872D02*
X0188442Y0170872D01*
X0191500Y0167000D02*
X0192000Y0167000D01*
X0200500Y0175500D01*
X0195800Y0189844D02*
X0195586Y0189844D01*
X0195800Y0190842D02*
X0194587Y0190842D01*
X0193589Y0191841D02*
X0195800Y0191841D01*
X0195800Y0192839D02*
X0194269Y0192839D01*
X0195267Y0193838D02*
X0195800Y0193838D01*
X0195800Y0199630D02*
X0193530Y0201900D01*
X0189504Y0201900D01*
X0188700Y0202704D01*
X0187704Y0203700D01*
X0185130Y0203700D01*
X0186400Y0204970D01*
X0186400Y0209030D01*
X0185130Y0210300D01*
X0185296Y0210300D01*
X0186600Y0208996D01*
X0186600Y0204970D01*
X0189470Y0202100D01*
X0193530Y0202100D01*
X0195800Y0204370D01*
X0195800Y0199630D01*
X0195800Y0199829D02*
X0195601Y0199829D01*
X0195800Y0200827D02*
X0194602Y0200827D01*
X0193604Y0201826D02*
X0195800Y0201826D01*
X0195800Y0202824D02*
X0194254Y0202824D01*
X0195252Y0203823D02*
X0195800Y0203823D01*
X0191500Y0207000D02*
X0191000Y0207000D01*
X0186000Y0212000D01*
X0185782Y0209814D02*
X0185616Y0209814D01*
X0186400Y0208815D02*
X0186600Y0208815D01*
X0186600Y0207817D02*
X0186400Y0207817D01*
X0186400Y0206818D02*
X0186600Y0206818D01*
X0186600Y0205820D02*
X0186400Y0205820D01*
X0186251Y0204821D02*
X0186749Y0204821D01*
X0187748Y0203823D02*
X0185252Y0203823D01*
X0188580Y0202824D02*
X0188746Y0202824D01*
X0186767Y0199829D02*
X0185601Y0199829D01*
X0186400Y0198830D02*
X0186600Y0198830D01*
X0186600Y0197832D02*
X0186400Y0197832D01*
X0178083Y0200513D02*
X0177700Y0200896D01*
X0177700Y0200130D01*
X0178083Y0200513D01*
X0177769Y0200827D02*
X0177700Y0200827D01*
X0174300Y0205104D02*
X0174300Y0208080D01*
X0173700Y0207480D01*
X0173700Y0205704D01*
X0174300Y0205104D01*
X0174300Y0205820D02*
X0173700Y0205820D01*
X0173700Y0206818D02*
X0174300Y0206818D01*
X0174300Y0207817D02*
X0174037Y0207817D01*
X0174984Y0210388D02*
X0174984Y0210594D01*
X0174972Y0210624D01*
X0175096Y0210500D01*
X0174984Y0210388D01*
X0170080Y0212300D02*
X0169984Y0212205D01*
X0169984Y0212300D01*
X0170080Y0212300D01*
X0171791Y0215805D02*
X0138700Y0215805D01*
X0107792Y0216803D02*
X0098637Y0216803D01*
X0098578Y0216701D02*
X0098776Y0217043D01*
X0098878Y0217425D01*
X0098878Y0219811D01*
X0095189Y0219811D01*
X0095189Y0216122D01*
X0097575Y0216122D01*
X0097957Y0216224D01*
X0098299Y0216422D01*
X0098578Y0216701D01*
X0098878Y0217802D02*
X0106794Y0217802D01*
X0105795Y0218801D02*
X0098878Y0218801D01*
X0098878Y0219799D02*
X0104797Y0219799D01*
X0103798Y0220798D02*
X0098878Y0220798D01*
X0098878Y0220189D02*
X0098878Y0222575D01*
X0098776Y0222957D01*
X0098578Y0223299D01*
X0098299Y0223578D01*
X0097957Y0223776D01*
X0097575Y0223878D01*
X0095189Y0223878D01*
X0095189Y0220189D01*
X0098878Y0220189D01*
X0098878Y0221796D02*
X0102800Y0221796D01*
X0101801Y0222795D02*
X0098819Y0222795D01*
X0097892Y0223793D02*
X0100803Y0223793D01*
X0095189Y0223793D02*
X0094811Y0223793D01*
X0094811Y0222795D02*
X0095189Y0222795D01*
X0095189Y0221796D02*
X0094811Y0221796D01*
X0094811Y0220798D02*
X0095189Y0220798D01*
X0095189Y0219799D02*
X0094811Y0219799D01*
X0094811Y0218801D02*
X0095189Y0218801D01*
X0095189Y0217802D02*
X0094811Y0217802D01*
X0094811Y0216803D02*
X0095189Y0216803D01*
X0078015Y0242765D02*
X0049764Y0242765D01*
X0049156Y0247757D02*
X0060500Y0247757D01*
X0064500Y0247757D02*
X0078859Y0247757D01*
X0060500Y0265731D02*
X0048758Y0265731D01*
X0047641Y0266729D02*
X0060500Y0266729D01*
X0045287Y0266729D02*
X0044713Y0266729D01*
X0044713Y0265731D02*
X0045287Y0265731D01*
X0045287Y0264732D02*
X0044713Y0264732D01*
X0044713Y0263734D02*
X0045287Y0263734D01*
X0058091Y0281707D02*
X0060500Y0281707D01*
X0060500Y0282705D02*
X0059090Y0282705D01*
X0059762Y0283704D02*
X0060500Y0283704D01*
X0060500Y0284702D02*
X0060176Y0284702D01*
X0060373Y0285701D02*
X0060500Y0285701D01*
X0060500Y0286699D02*
X0060373Y0286699D01*
X0060241Y0287698D02*
X0060500Y0287698D01*
X0060500Y0288696D02*
X0059828Y0288696D01*
X0059249Y0289695D02*
X0060500Y0289695D01*
X0060500Y0290693D02*
X0058250Y0290693D01*
X0049189Y0316655D02*
X0040300Y0316655D01*
X0040300Y0317653D02*
X0047298Y0317653D01*
X0046299Y0318652D02*
X0040300Y0318652D01*
X0040300Y0319650D02*
X0045668Y0319650D01*
X0045255Y0320649D02*
X0040300Y0320649D01*
X0040300Y0321647D02*
X0044988Y0321647D01*
X0044988Y0322646D02*
X0040300Y0322646D01*
X0040300Y0323644D02*
X0044988Y0323644D01*
X0045359Y0324643D02*
X0040300Y0324643D01*
X0040300Y0325641D02*
X0045773Y0325641D01*
X0046551Y0326640D02*
X0040300Y0326640D01*
X0040300Y0327638D02*
X0047550Y0327638D01*
X0096700Y0302675D02*
X0104300Y0302675D01*
X0104300Y0301677D02*
X0096700Y0301677D01*
X0096700Y0300678D02*
X0104300Y0300678D01*
X0104300Y0299680D02*
X0096700Y0299680D01*
X0096700Y0298681D02*
X0104300Y0298681D01*
X0104300Y0297683D02*
X0096700Y0297683D01*
X0096700Y0296684D02*
X0104300Y0296684D01*
X0104300Y0295686D02*
X0096700Y0295686D01*
X0096700Y0294687D02*
X0104300Y0294687D01*
X0104300Y0293689D02*
X0096700Y0293689D01*
X0096700Y0292690D02*
X0104300Y0292690D01*
X0104300Y0291692D02*
X0096700Y0291692D01*
X0096700Y0290693D02*
X0104300Y0290693D01*
X0104300Y0289695D02*
X0096700Y0289695D01*
X0096700Y0288696D02*
X0104300Y0288696D01*
X0104300Y0287698D02*
X0096700Y0287698D01*
X0096700Y0286699D02*
X0104300Y0286699D01*
X0104300Y0285701D02*
X0096700Y0285701D01*
X0096700Y0284702D02*
X0104300Y0284702D01*
X0104300Y0283704D02*
X0096700Y0283704D01*
X0096700Y0282705D02*
X0104300Y0282705D01*
X0104300Y0281707D02*
X0096700Y0281707D01*
X0136257Y0325641D02*
X0245100Y0325641D01*
X0245100Y0326640D02*
X0193957Y0326640D01*
X0195164Y0327638D02*
X0245100Y0327638D01*
X0245100Y0328637D02*
X0195606Y0328637D01*
X0195700Y0329635D02*
X0245100Y0329635D01*
X0245100Y0330634D02*
X0195563Y0330634D01*
X0196562Y0331632D02*
X0245100Y0331632D01*
X0245100Y0332631D02*
X0223707Y0332631D01*
X0223709Y0332631D02*
X0226491Y0334238D01*
X0228762Y0336509D01*
X0230369Y0339291D01*
X0231200Y0342394D01*
X0231200Y0345606D01*
X0230369Y0348709D01*
X0228762Y0351491D01*
X0226491Y0353762D01*
X0223709Y0355369D01*
X0220606Y0356200D01*
X0217394Y0356200D01*
X0214291Y0355369D01*
X0211509Y0353762D01*
X0209238Y0351491D01*
X0207631Y0348709D01*
X0206800Y0345606D01*
X0206800Y0342394D01*
X0207631Y0339291D01*
X0209238Y0336509D01*
X0211509Y0334238D01*
X0214291Y0332631D01*
X0217394Y0331800D01*
X0220606Y0331800D01*
X0223709Y0332631D01*
X0225437Y0333629D02*
X0245100Y0333629D01*
X0245100Y0334628D02*
X0226881Y0334628D01*
X0227880Y0335626D02*
X0245100Y0335626D01*
X0245100Y0336625D02*
X0228829Y0336625D01*
X0229406Y0337623D02*
X0245100Y0337623D01*
X0245100Y0338622D02*
X0229982Y0338622D01*
X0230457Y0339620D02*
X0245100Y0339620D01*
X0245100Y0340619D02*
X0230724Y0340619D01*
X0230992Y0341617D02*
X0245100Y0341617D01*
X0245100Y0342616D02*
X0231200Y0342616D01*
X0231200Y0343614D02*
X0245100Y0343614D01*
X0245100Y0344613D02*
X0231200Y0344613D01*
X0231199Y0345611D02*
X0245100Y0345611D01*
X0245100Y0346610D02*
X0230931Y0346610D01*
X0230663Y0347608D02*
X0245100Y0347608D01*
X0245100Y0348607D02*
X0230396Y0348607D01*
X0229851Y0349605D02*
X0245100Y0349605D01*
X0245100Y0350604D02*
X0229275Y0350604D01*
X0228651Y0351603D02*
X0244642Y0351603D01*
X0244516Y0352601D02*
X0227652Y0352601D01*
X0226654Y0353600D02*
X0244725Y0353600D01*
X0245378Y0354598D02*
X0225044Y0354598D01*
X0222858Y0355597D02*
X0252348Y0355597D01*
X0252579Y0356153D02*
X0252000Y0354756D01*
X0252000Y0353244D01*
X0252579Y0351847D01*
X0253647Y0350779D01*
X0255044Y0350200D01*
X0261756Y0350200D01*
X0263153Y0350779D01*
X0264221Y0351847D01*
X0264800Y0353244D01*
X0264800Y0354756D01*
X0264221Y0356153D01*
X0263153Y0357221D01*
X0261756Y0357800D01*
X0255044Y0357800D01*
X0253647Y0357221D01*
X0252579Y0356153D01*
X0253021Y0356595D02*
X0192809Y0356595D01*
X0193808Y0355597D02*
X0215142Y0355597D01*
X0212956Y0354598D02*
X0194806Y0354598D01*
X0195805Y0353600D02*
X0211346Y0353600D01*
X0210348Y0352601D02*
X0196803Y0352601D01*
X0197400Y0351603D02*
X0209349Y0351603D01*
X0208725Y0350604D02*
X0197400Y0350604D01*
X0197400Y0349605D02*
X0208149Y0349605D01*
X0207604Y0348607D02*
X0197400Y0348607D01*
X0197400Y0347608D02*
X0207337Y0347608D01*
X0207069Y0346610D02*
X0197400Y0346610D01*
X0197400Y0345611D02*
X0206801Y0345611D01*
X0206800Y0344613D02*
X0197400Y0344613D01*
X0197400Y0343614D02*
X0206800Y0343614D01*
X0206800Y0342616D02*
X0197400Y0342616D01*
X0197400Y0341617D02*
X0207008Y0341617D01*
X0207276Y0340619D02*
X0197400Y0340619D01*
X0197400Y0339620D02*
X0207543Y0339620D01*
X0208018Y0338622D02*
X0197400Y0338622D01*
X0197400Y0337623D02*
X0208594Y0337623D01*
X0209171Y0336625D02*
X0197400Y0336625D01*
X0197400Y0335626D02*
X0210120Y0335626D01*
X0211119Y0334628D02*
X0197400Y0334628D01*
X0197400Y0333629D02*
X0212563Y0333629D01*
X0214293Y0332631D02*
X0197400Y0332631D01*
X0195700Y0333175D02*
X0195700Y0351300D01*
X0188000Y0359000D01*
X0187596Y0357000D02*
X0191689Y0352907D01*
X0191479Y0352865D01*
X0190842Y0352602D01*
X0190269Y0352219D01*
X0189788Y0351738D01*
X0189313Y0352213D01*
X0188137Y0352700D01*
X0186863Y0352700D01*
X0185687Y0352213D01*
X0184787Y0351313D01*
X0184300Y0350137D01*
X0184300Y0348863D01*
X0184787Y0347687D01*
X0185475Y0347000D01*
X0184787Y0346313D01*
X0184300Y0345137D01*
X0184300Y0343863D01*
X0184787Y0342687D01*
X0185475Y0342000D01*
X0184787Y0341313D01*
X0184300Y0340137D01*
X0184300Y0338863D01*
X0184787Y0337687D01*
X0185475Y0337000D01*
X0184787Y0336313D01*
X0184741Y0336200D01*
X0180108Y0336200D01*
X0160652Y0355656D01*
X0160652Y0355752D01*
X0159404Y0357000D01*
X0187596Y0357000D01*
X0188001Y0356595D02*
X0159809Y0356595D01*
X0160712Y0355597D02*
X0188999Y0355597D01*
X0189998Y0354598D02*
X0161710Y0354598D01*
X0162709Y0353600D02*
X0190996Y0353600D01*
X0190841Y0352601D02*
X0188375Y0352601D01*
X0186625Y0352601D02*
X0163707Y0352601D01*
X0164706Y0351603D02*
X0185077Y0351603D01*
X0184494Y0350604D02*
X0165704Y0350604D01*
X0166703Y0349605D02*
X0184300Y0349605D01*
X0184406Y0348607D02*
X0167701Y0348607D01*
X0168700Y0347608D02*
X0184866Y0347608D01*
X0185084Y0346610D02*
X0169698Y0346610D01*
X0170697Y0345611D02*
X0184497Y0345611D01*
X0184300Y0344613D02*
X0171695Y0344613D01*
X0172694Y0343614D02*
X0184403Y0343614D01*
X0184859Y0342616D02*
X0173692Y0342616D01*
X0174691Y0341617D02*
X0185092Y0341617D01*
X0184500Y0340619D02*
X0175689Y0340619D01*
X0176688Y0339620D02*
X0184300Y0339620D01*
X0184400Y0338622D02*
X0177686Y0338622D01*
X0178685Y0337623D02*
X0184851Y0337623D01*
X0185099Y0336625D02*
X0179683Y0336625D01*
X0179404Y0334500D02*
X0158952Y0354952D01*
X0158952Y0355048D01*
X0157000Y0357000D01*
X0149000Y0357000D01*
X0130000Y0338000D01*
X0128000Y0340220D02*
X0127016Y0339236D01*
X0128000Y0340220D02*
X0128000Y0349000D01*
X0121000Y0356000D01*
X0118500Y0356000D01*
X0122404Y0357000D02*
X0146596Y0357000D01*
X0130580Y0340984D01*
X0129700Y0340984D01*
X0129700Y0349704D01*
X0128704Y0350700D01*
X0122404Y0357000D01*
X0122809Y0356595D02*
X0146191Y0356595D01*
X0145192Y0355597D02*
X0123808Y0355597D01*
X0124806Y0354598D02*
X0144194Y0354598D01*
X0143195Y0353600D02*
X0125805Y0353600D01*
X0126803Y0352601D02*
X0142197Y0352601D01*
X0141198Y0351603D02*
X0127802Y0351603D01*
X0128800Y0350604D02*
X0140200Y0350604D01*
X0139201Y0349605D02*
X0129700Y0349605D01*
X0129700Y0348607D02*
X0138203Y0348607D01*
X0137204Y0347608D02*
X0129700Y0347608D01*
X0129700Y0346610D02*
X0136206Y0346610D01*
X0135207Y0345611D02*
X0129700Y0345611D01*
X0129700Y0344613D02*
X0134209Y0344613D01*
X0133210Y0343614D02*
X0129700Y0343614D01*
X0129700Y0342616D02*
X0132212Y0342616D01*
X0131213Y0341617D02*
X0129700Y0341617D01*
X0133022Y0338618D02*
X0133349Y0338754D01*
X0133796Y0339200D01*
X0149896Y0355300D01*
X0149704Y0355300D01*
X0133022Y0338618D01*
X0133026Y0338622D02*
X0133032Y0338622D01*
X0134025Y0339620D02*
X0134216Y0339620D01*
X0135023Y0340619D02*
X0135215Y0340619D01*
X0136022Y0341617D02*
X0136213Y0341617D01*
X0137020Y0342616D02*
X0137212Y0342616D01*
X0138019Y0343614D02*
X0138210Y0343614D01*
X0139017Y0344613D02*
X0139209Y0344613D01*
X0140016Y0345611D02*
X0140207Y0345611D01*
X0141014Y0346610D02*
X0141206Y0346610D01*
X0142013Y0347608D02*
X0142204Y0347608D01*
X0143011Y0348607D02*
X0143203Y0348607D01*
X0144010Y0349605D02*
X0144201Y0349605D01*
X0145008Y0350604D02*
X0145200Y0350604D01*
X0146007Y0351603D02*
X0146198Y0351603D01*
X0147005Y0352601D02*
X0147197Y0352601D01*
X0148004Y0353600D02*
X0148195Y0353600D01*
X0149002Y0354598D02*
X0149194Y0354598D01*
X0152000Y0355000D02*
X0156500Y0355000D01*
X0182000Y0329500D01*
X0187500Y0329500D01*
X0189893Y0331632D02*
X0190107Y0331632D01*
X0190000Y0331525D02*
X0189525Y0332000D01*
X0189788Y0332262D01*
X0190262Y0331788D01*
X0190000Y0331525D01*
X0192500Y0329975D02*
X0192500Y0329500D01*
X0192500Y0329975D02*
X0195700Y0333175D01*
X0192500Y0334500D02*
X0192500Y0334500D01*
X0192500Y0339500D01*
X0192500Y0339500D01*
X0192500Y0338000D01*
X0192500Y0334500D01*
X0192500Y0334628D02*
X0192500Y0334628D01*
X0192500Y0335626D02*
X0192500Y0335626D01*
X0192500Y0336625D02*
X0192500Y0336625D01*
X0192500Y0337623D02*
X0192500Y0337623D01*
X0192500Y0338622D02*
X0192500Y0338622D01*
X0190050Y0337000D02*
X0189788Y0336738D01*
X0189525Y0337000D01*
X0189788Y0337262D01*
X0190050Y0337000D01*
X0187500Y0334500D02*
X0179404Y0334500D01*
X0181104Y0332800D02*
X0184741Y0332800D01*
X0184787Y0332687D01*
X0185475Y0332000D01*
X0184787Y0331313D01*
X0184741Y0331200D01*
X0182704Y0331200D01*
X0181104Y0332800D01*
X0181273Y0332631D02*
X0184844Y0332631D01*
X0185107Y0331632D02*
X0182272Y0331632D01*
X0179461Y0329635D02*
X0135700Y0329635D01*
X0135700Y0328637D02*
X0180459Y0328637D01*
X0178462Y0330634D02*
X0135700Y0330634D01*
X0135700Y0331632D02*
X0177464Y0331632D01*
X0176465Y0332631D02*
X0135700Y0332631D01*
X0136350Y0333629D02*
X0175467Y0333629D01*
X0174468Y0334628D02*
X0137162Y0334628D01*
X0137484Y0335626D02*
X0173469Y0335626D01*
X0172471Y0336625D02*
X0137471Y0336625D01*
X0137058Y0337623D02*
X0171472Y0337623D01*
X0170474Y0338622D02*
X0138026Y0338622D01*
X0139025Y0339620D02*
X0169475Y0339620D01*
X0168477Y0340619D02*
X0140023Y0340619D01*
X0141022Y0341617D02*
X0167478Y0341617D01*
X0166480Y0342616D02*
X0142020Y0342616D01*
X0143019Y0343614D02*
X0165481Y0343614D01*
X0164483Y0344613D02*
X0144017Y0344613D01*
X0145016Y0345611D02*
X0163484Y0345611D01*
X0162486Y0346610D02*
X0146014Y0346610D01*
X0147013Y0347608D02*
X0161487Y0347608D01*
X0160489Y0348607D02*
X0148011Y0348607D01*
X0149010Y0349605D02*
X0159490Y0349605D01*
X0158492Y0350604D02*
X0150008Y0350604D01*
X0151007Y0351603D02*
X0157493Y0351603D01*
X0156495Y0352601D02*
X0152005Y0352601D01*
X0152000Y0355000D02*
X0134500Y0337500D01*
X0134500Y0336000D01*
X0135700Y0327638D02*
X0184836Y0327638D01*
X0186043Y0326640D02*
X0135700Y0326640D01*
X0189525Y0342000D02*
X0189788Y0341738D01*
X0190262Y0342212D01*
X0190000Y0342475D01*
X0189525Y0342000D01*
X0190000Y0346525D02*
X0189525Y0347000D01*
X0189788Y0347262D01*
X0190262Y0346788D01*
X0190000Y0346525D01*
X0190084Y0346610D02*
X0189915Y0346610D01*
X0191811Y0357594D02*
X0254546Y0357594D01*
X0252000Y0354598D02*
X0249622Y0354598D01*
X0250275Y0353600D02*
X0252000Y0353600D01*
X0252266Y0352601D02*
X0250484Y0352601D01*
X0250358Y0351603D02*
X0252823Y0351603D01*
X0254069Y0350604D02*
X0249900Y0350604D01*
X0249900Y0349605D02*
X0265500Y0349605D01*
X0265500Y0348607D02*
X0249900Y0348607D01*
X0249900Y0347608D02*
X0254582Y0347608D01*
X0255044Y0347800D02*
X0253647Y0347221D01*
X0252579Y0346153D01*
X0252000Y0344756D01*
X0252000Y0343244D01*
X0252579Y0341847D01*
X0253647Y0340779D01*
X0255044Y0340200D01*
X0261756Y0340200D01*
X0263153Y0340779D01*
X0264221Y0341847D01*
X0264800Y0343244D01*
X0264800Y0344756D01*
X0264221Y0346153D01*
X0263153Y0347221D01*
X0261756Y0347800D01*
X0255044Y0347800D01*
X0253036Y0346610D02*
X0249900Y0346610D01*
X0249900Y0345611D02*
X0252354Y0345611D01*
X0252000Y0344613D02*
X0249900Y0344613D01*
X0249900Y0343614D02*
X0252000Y0343614D01*
X0252260Y0342616D02*
X0249900Y0342616D01*
X0249900Y0341617D02*
X0252809Y0341617D01*
X0254033Y0340619D02*
X0249900Y0340619D01*
X0249900Y0339620D02*
X0265500Y0339620D01*
X0265500Y0338622D02*
X0249900Y0338622D01*
X0249900Y0337623D02*
X0254618Y0337623D01*
X0255044Y0337800D02*
X0253647Y0337221D01*
X0252579Y0336153D01*
X0252000Y0334756D01*
X0252000Y0333244D01*
X0252579Y0331847D01*
X0253647Y0330779D01*
X0255044Y0330200D01*
X0261756Y0330200D01*
X0263153Y0330779D01*
X0264221Y0331847D01*
X0264800Y0333244D01*
X0264800Y0334756D01*
X0264221Y0336153D01*
X0263153Y0337221D01*
X0261756Y0337800D01*
X0255044Y0337800D01*
X0253051Y0336625D02*
X0249900Y0336625D01*
X0249900Y0335626D02*
X0252361Y0335626D01*
X0252000Y0334628D02*
X0249900Y0334628D01*
X0249900Y0333629D02*
X0252000Y0333629D01*
X0252254Y0332631D02*
X0249900Y0332631D01*
X0249900Y0331632D02*
X0252794Y0331632D01*
X0253997Y0330634D02*
X0249900Y0330634D01*
X0249900Y0329635D02*
X0265500Y0329635D01*
X0265500Y0328637D02*
X0249900Y0328637D01*
X0249900Y0327638D02*
X0265500Y0327638D01*
X0265500Y0326640D02*
X0249900Y0326640D01*
X0249900Y0325641D02*
X0265500Y0325641D01*
X0265500Y0324643D02*
X0249900Y0324643D01*
X0249900Y0323644D02*
X0254668Y0323644D01*
X0255044Y0323800D02*
X0253647Y0323221D01*
X0252579Y0322153D01*
X0252000Y0320756D01*
X0252000Y0319244D01*
X0252579Y0317847D01*
X0253647Y0316779D01*
X0255044Y0316200D01*
X0261756Y0316200D01*
X0263153Y0316779D01*
X0264221Y0317847D01*
X0264800Y0319244D01*
X0264800Y0320756D01*
X0264221Y0322153D01*
X0263153Y0323221D01*
X0261756Y0323800D01*
X0255044Y0323800D01*
X0253072Y0322646D02*
X0249900Y0322646D01*
X0250048Y0321647D02*
X0252369Y0321647D01*
X0252000Y0320649D02*
X0250461Y0320649D01*
X0250484Y0319650D02*
X0252000Y0319650D01*
X0252245Y0318652D02*
X0250172Y0318652D01*
X0249900Y0317653D02*
X0252773Y0317653D01*
X0253947Y0316655D02*
X0249900Y0316655D01*
X0249900Y0315656D02*
X0265500Y0315656D01*
X0265500Y0314658D02*
X0249900Y0314658D01*
X0249900Y0313659D02*
X0254704Y0313659D01*
X0255044Y0313800D02*
X0253647Y0313221D01*
X0252579Y0312153D01*
X0252000Y0310756D01*
X0252000Y0309244D01*
X0252579Y0307847D01*
X0253647Y0306779D01*
X0255044Y0306200D01*
X0261756Y0306200D01*
X0263153Y0306779D01*
X0264221Y0307847D01*
X0264800Y0309244D01*
X0264800Y0310756D01*
X0264221Y0312153D01*
X0263153Y0313221D01*
X0261756Y0313800D01*
X0255044Y0313800D01*
X0253087Y0312661D02*
X0249900Y0312661D01*
X0249900Y0311662D02*
X0252375Y0311662D01*
X0252000Y0310664D02*
X0249900Y0310664D01*
X0249900Y0309665D02*
X0252000Y0309665D01*
X0252239Y0308667D02*
X0249900Y0308667D01*
X0249900Y0307668D02*
X0252758Y0307668D01*
X0253911Y0306670D02*
X0249900Y0306670D01*
X0249900Y0305671D02*
X0265500Y0305671D01*
X0265500Y0306670D02*
X0262889Y0306670D01*
X0264042Y0307668D02*
X0265500Y0307668D01*
X0265500Y0308667D02*
X0264561Y0308667D01*
X0264800Y0309665D02*
X0265500Y0309665D01*
X0265500Y0310664D02*
X0264800Y0310664D01*
X0264425Y0311662D02*
X0265500Y0311662D01*
X0265500Y0312661D02*
X0263713Y0312661D01*
X0262096Y0313659D02*
X0265500Y0313659D01*
X0265500Y0316655D02*
X0262853Y0316655D01*
X0264027Y0317653D02*
X0265500Y0317653D01*
X0265500Y0318652D02*
X0264555Y0318652D01*
X0264800Y0319650D02*
X0265500Y0319650D01*
X0265500Y0320649D02*
X0264800Y0320649D01*
X0264431Y0321647D02*
X0265500Y0321647D01*
X0265500Y0322646D02*
X0263728Y0322646D01*
X0262132Y0323644D02*
X0265500Y0323644D01*
X0265500Y0330634D02*
X0262803Y0330634D01*
X0264006Y0331632D02*
X0265500Y0331632D01*
X0265500Y0332631D02*
X0264546Y0332631D01*
X0264800Y0333629D02*
X0265500Y0333629D01*
X0265500Y0334628D02*
X0264800Y0334628D01*
X0264439Y0335626D02*
X0265500Y0335626D01*
X0265500Y0336625D02*
X0263749Y0336625D01*
X0262182Y0337623D02*
X0265500Y0337623D01*
X0265500Y0340619D02*
X0262767Y0340619D01*
X0263991Y0341617D02*
X0265500Y0341617D01*
X0265500Y0342616D02*
X0264540Y0342616D01*
X0264800Y0343614D02*
X0265500Y0343614D01*
X0265500Y0344613D02*
X0264800Y0344613D01*
X0264446Y0345611D02*
X0265500Y0345611D01*
X0265500Y0346610D02*
X0263764Y0346610D01*
X0262218Y0347608D02*
X0265500Y0347608D01*
X0265500Y0350604D02*
X0262731Y0350604D01*
X0263977Y0351603D02*
X0265500Y0351603D01*
X0265500Y0352601D02*
X0264534Y0352601D01*
X0264800Y0353600D02*
X0265500Y0353600D01*
X0265500Y0354598D02*
X0264800Y0354598D01*
X0264452Y0355597D02*
X0265500Y0355597D01*
X0265500Y0356595D02*
X0263779Y0356595D01*
X0262254Y0357594D02*
X0265500Y0357594D01*
X0265500Y0358592D02*
X0190812Y0358592D01*
X0190000Y0359591D02*
X0265500Y0359591D01*
X0265500Y0304672D02*
X0249900Y0304672D01*
X0249900Y0303674D02*
X0254740Y0303674D01*
X0255044Y0303800D02*
X0253647Y0303221D01*
X0252579Y0302153D01*
X0252000Y0300756D01*
X0252000Y0299244D01*
X0252579Y0297847D01*
X0253647Y0296779D01*
X0255044Y0296200D01*
X0261756Y0296200D01*
X0263153Y0296779D01*
X0264221Y0297847D01*
X0264800Y0299244D01*
X0264800Y0300756D01*
X0264221Y0302153D01*
X0263153Y0303221D01*
X0261756Y0303800D01*
X0255044Y0303800D01*
X0253101Y0302675D02*
X0249900Y0302675D01*
X0249900Y0301677D02*
X0252382Y0301677D01*
X0252000Y0300678D02*
X0249900Y0300678D01*
X0249900Y0299680D02*
X0252000Y0299680D01*
X0252233Y0298681D02*
X0249900Y0298681D01*
X0249900Y0297683D02*
X0252743Y0297683D01*
X0253875Y0296684D02*
X0249900Y0296684D01*
X0249900Y0295686D02*
X0265500Y0295686D01*
X0265500Y0296684D02*
X0262925Y0296684D01*
X0264057Y0297683D02*
X0265500Y0297683D01*
X0265500Y0298681D02*
X0264567Y0298681D01*
X0264800Y0299680D02*
X0265500Y0299680D01*
X0265500Y0300678D02*
X0264800Y0300678D01*
X0264418Y0301677D02*
X0265500Y0301677D01*
X0265500Y0302675D02*
X0263699Y0302675D01*
X0262060Y0303674D02*
X0265500Y0303674D01*
X0265500Y0294687D02*
X0249900Y0294687D01*
X0249900Y0293689D02*
X0265500Y0293689D01*
X0265500Y0292690D02*
X0249900Y0292690D01*
X0249900Y0291692D02*
X0265500Y0291692D01*
X0265500Y0290693D02*
X0249900Y0290693D01*
X0249900Y0289695D02*
X0254790Y0289695D01*
X0255044Y0289800D02*
X0253647Y0289221D01*
X0252579Y0288153D01*
X0252000Y0286756D01*
X0252000Y0285244D01*
X0252579Y0283847D01*
X0253647Y0282779D01*
X0255044Y0282200D01*
X0261756Y0282200D01*
X0263153Y0282779D01*
X0264221Y0283847D01*
X0264800Y0285244D01*
X0264800Y0286756D01*
X0264221Y0288153D01*
X0263153Y0289221D01*
X0261756Y0289800D01*
X0255044Y0289800D01*
X0253122Y0288696D02*
X0249900Y0288696D01*
X0249900Y0287698D02*
X0252390Y0287698D01*
X0252000Y0286699D02*
X0250021Y0286699D01*
X0250440Y0285701D02*
X0252000Y0285701D01*
X0252224Y0284702D02*
X0250484Y0284702D01*
X0250193Y0283704D02*
X0252722Y0283704D01*
X0253824Y0282705D02*
X0249900Y0282705D01*
X0249900Y0281707D02*
X0265500Y0281707D01*
X0265500Y0282705D02*
X0262976Y0282705D01*
X0264078Y0283704D02*
X0265500Y0283704D01*
X0265500Y0284702D02*
X0264576Y0284702D01*
X0264800Y0285701D02*
X0265500Y0285701D01*
X0265500Y0286699D02*
X0264800Y0286699D01*
X0264410Y0287698D02*
X0265500Y0287698D01*
X0265500Y0288696D02*
X0263678Y0288696D01*
X0262010Y0289695D02*
X0265500Y0289695D01*
X0265500Y0280708D02*
X0249900Y0280708D01*
X0249900Y0279710D02*
X0254826Y0279710D01*
X0255044Y0279800D02*
X0253647Y0279221D01*
X0252579Y0278153D01*
X0252000Y0276756D01*
X0252000Y0275244D01*
X0252579Y0273847D01*
X0253647Y0272779D01*
X0255044Y0272200D01*
X0261756Y0272200D01*
X0263153Y0272779D01*
X0264221Y0273847D01*
X0264800Y0275244D01*
X0264800Y0276756D01*
X0264221Y0278153D01*
X0263153Y0279221D01*
X0261756Y0279800D01*
X0255044Y0279800D01*
X0253137Y0278711D02*
X0249900Y0278711D01*
X0249900Y0277713D02*
X0252396Y0277713D01*
X0252000Y0276714D02*
X0249900Y0276714D01*
X0249900Y0275716D02*
X0252000Y0275716D01*
X0252218Y0274717D02*
X0249900Y0274717D01*
X0249900Y0273719D02*
X0252707Y0273719D01*
X0253788Y0272720D02*
X0249900Y0272720D01*
X0249900Y0271722D02*
X0265500Y0271722D01*
X0265500Y0272720D02*
X0263012Y0272720D01*
X0264093Y0273719D02*
X0265500Y0273719D01*
X0265500Y0274717D02*
X0264582Y0274717D01*
X0264800Y0275716D02*
X0265500Y0275716D01*
X0265500Y0276714D02*
X0264800Y0276714D01*
X0264404Y0277713D02*
X0265500Y0277713D01*
X0265500Y0278711D02*
X0263663Y0278711D01*
X0261974Y0279710D02*
X0265500Y0279710D01*
X0198800Y0227796D02*
X0196296Y0230300D01*
X0195130Y0230300D01*
X0196400Y0229030D01*
X0196400Y0224970D01*
X0195130Y0223700D01*
X0196204Y0223700D01*
X0198204Y0221700D01*
X0198800Y0221104D01*
X0198800Y0227796D01*
X0198800Y0227787D02*
X0196400Y0227787D01*
X0196400Y0226789D02*
X0198800Y0226789D01*
X0198800Y0225790D02*
X0196400Y0225790D01*
X0196221Y0224792D02*
X0198800Y0224792D01*
X0198800Y0223793D02*
X0195223Y0223793D01*
X0197110Y0222795D02*
X0198800Y0222795D01*
X0198800Y0221796D02*
X0198108Y0221796D01*
X0197810Y0228786D02*
X0196400Y0228786D01*
X0196812Y0229784D02*
X0195645Y0229784D01*
X0177870Y0220300D02*
X0176600Y0219030D01*
X0176600Y0216804D01*
X0175704Y0217700D01*
X0174704Y0217700D01*
X0173984Y0218420D01*
X0173984Y0219594D01*
X0173692Y0220300D01*
X0177870Y0220300D01*
X0177369Y0219799D02*
X0173899Y0219799D01*
X0173984Y0218801D02*
X0176600Y0218801D01*
X0176600Y0217802D02*
X0174602Y0217802D01*
X0193619Y0211811D02*
X0195800Y0211811D01*
X0195800Y0212809D02*
X0194239Y0212809D01*
X0195238Y0213808D02*
X0195800Y0213808D01*
X0195800Y0210812D02*
X0194617Y0210812D01*
X0195616Y0209814D02*
X0195800Y0209814D01*
X0178686Y0162884D02*
X0177278Y0162884D01*
X0176279Y0161885D02*
X0179456Y0161885D01*
X0178457Y0160887D02*
X0175281Y0160887D01*
X0174282Y0159888D02*
X0177459Y0159888D01*
X0176600Y0158890D02*
X0173400Y0158890D01*
X0184543Y0160887D02*
X0188033Y0160887D01*
X0187034Y0159888D02*
X0185541Y0159888D01*
D21*
X0080000Y0245000D02*
X0062500Y0245000D01*
X0062500Y0327500D01*
X0072500Y0337500D01*
X0091500Y0323000D02*
X0097000Y0328500D01*
X0097000Y0333855D01*
X0099784Y0336640D01*
X0099784Y0339360D01*
X0097000Y0342145D01*
X0097000Y0344500D01*
X0097000Y0353500D01*
X0099000Y0356000D01*
X0118500Y0356000D01*
X0118500Y0356500D01*
X0121000Y0359000D01*
X0188000Y0359000D01*
X0062500Y0245000D02*
X0047500Y0245000D01*
D22*
X0047500Y0245000D03*
D23*
X0171000Y0160000D02*
X0171000Y0157000D01*
X0178000Y0150000D01*
X0194000Y0150000D01*
X0204000Y0160000D01*
X0247500Y0160000D01*
X0247500Y0182500D01*
X0247500Y0217500D01*
X0247500Y0252500D01*
X0247500Y0285000D01*
X0247500Y0320000D01*
X0247500Y0352500D01*
X0181500Y0167000D02*
X0178000Y0167000D01*
X0171000Y0160000D01*
X0247500Y0160000D02*
X0247500Y0150000D01*
X0247500Y0115000D01*
D24*
X0069933Y0110000D02*
X0049067Y0110000D01*
X0049067Y0142500D02*
X0069933Y0142500D01*
X0070000Y0142500D01*
D25*
X0069933Y0142500D02*
X0126500Y0142500D01*
X0155000Y0110000D01*
X0095000Y0110000D02*
X0069933Y0110000D01*
X0320000Y0240000D02*
X0335000Y0240000D01*
X0335000Y0230000D02*
X0345000Y0230000D01*
X0350000Y0225000D01*
X0370000Y0240000D02*
X0350000Y0260000D01*
X0370000Y0240000D02*
X0375000Y0240000D01*
X0375000Y0230000D02*
X0380000Y0230000D01*
X0395000Y0245000D01*
X0395000Y0250000D01*
X0410000Y0240000D02*
X0395000Y0225000D01*
X0395000Y0210000D01*
X0415000Y0230000D02*
X0425000Y0230000D01*
X0435000Y0220000D01*
X0435000Y0210000D01*
X0455000Y0230000D02*
X0460000Y0230000D01*
X0475000Y0245000D01*
X0475000Y0250000D01*
X0490000Y0240000D02*
X0475000Y0225000D01*
X0475000Y0210000D01*
X0495000Y0230000D02*
X0505000Y0230000D01*
X0515000Y0220000D01*
X0515000Y0210000D01*
X0535000Y0230000D02*
X0540000Y0230000D01*
X0555000Y0245000D01*
X0555000Y0250000D01*
X0570000Y0240000D02*
X0555000Y0225000D01*
X0555000Y0210000D01*
X0575000Y0230000D02*
X0585000Y0230000D01*
X0595000Y0220000D01*
X0595000Y0210000D01*
X0615000Y0230000D02*
X0620000Y0230000D01*
X0625000Y0235000D01*
X0625000Y0250000D01*
X0620000Y0255000D01*
X0615000Y0240000D02*
X0610000Y0240000D01*
X0600000Y0250000D01*
X0575000Y0240000D02*
X0570000Y0240000D01*
X0535000Y0240000D02*
X0530000Y0240000D01*
X0520000Y0250000D01*
X0495000Y0240000D02*
X0490000Y0240000D01*
X0455000Y0240000D02*
X0450000Y0240000D01*
X0440000Y0250000D01*
X0415000Y0240000D02*
X0410000Y0240000D01*
D26*
X0395000Y0250000D02*
X0375000Y0270000D01*
X0375000Y0329567D01*
X0375000Y0350433D01*
X0350000Y0350433D02*
X0350000Y0329567D01*
X0350000Y0260000D01*
X0355000Y0255000D01*
X0320000Y0240000D02*
X0310000Y0230000D01*
X0310000Y0155000D01*
X0344567Y0120433D01*
X0350000Y0120433D01*
X0350000Y0099567D01*
X0375000Y0099567D02*
X0375000Y0120433D01*
X0375000Y0145000D01*
X0355000Y0165000D01*
X0355000Y0220000D01*
X0350000Y0225000D01*
X0395000Y0210000D02*
X0395000Y0135433D01*
X0410000Y0120433D01*
X0410000Y0099567D01*
X0435000Y0099567D02*
X0435000Y0120433D01*
X0435000Y0210000D01*
X0470000Y0205000D02*
X0475000Y0210000D01*
X0470000Y0205000D02*
X0470000Y0120433D01*
X0470000Y0099567D01*
X0495000Y0099567D02*
X0495000Y0120433D01*
X0495000Y0190000D01*
X0515000Y0210000D01*
X0530000Y0185000D02*
X0555000Y0210000D01*
X0530000Y0185000D02*
X0530000Y0120433D01*
X0530000Y0099567D01*
X0555000Y0099567D02*
X0555000Y0120433D01*
X0555000Y0170000D01*
X0595000Y0210000D01*
X0590000Y0250000D02*
X0530000Y0310000D01*
X0530000Y0329567D01*
X0530000Y0320000D01*
X0530000Y0329567D02*
X0530000Y0350433D01*
X0555000Y0350433D02*
X0555000Y0329567D01*
X0555000Y0325000D01*
X0620000Y0260000D01*
X0620000Y0255000D01*
X0600000Y0250000D02*
X0590000Y0250000D01*
X0555000Y0250000D02*
X0495000Y0310000D01*
X0495000Y0329567D01*
X0495000Y0320000D01*
X0495000Y0329567D02*
X0495000Y0350433D01*
X0470000Y0350433D02*
X0470000Y0329567D01*
X0470000Y0295000D01*
X0515000Y0250000D01*
X0520000Y0250000D01*
X0475000Y0250000D02*
X0435000Y0290000D01*
X0435000Y0329567D01*
X0435000Y0350433D01*
X0410000Y0350433D02*
X0410000Y0329567D01*
X0410000Y0280000D01*
X0440000Y0250000D01*
X0375000Y0125000D02*
X0375000Y0120433D01*
M02*
