%
M48
M72
T01C0.0197
T02C0.0200
T03C0.0236
T04C0.0276
T05C0.0315
T06C0.0320
T07C0.0335
T08C0.0400
T09C0.0472
T10C0.0591
T11C0.1800
%
T01
X20400Y10000
X24750Y11500
X20600Y14000
X20650Y15600
X20200Y17100
X24750Y18250
X24750Y15000
X17200Y21000
X16700Y21200
X17100Y21900
X14750Y24350
X16050Y26750
X13500Y26800
X13100Y27100
X12700Y26700
X11505Y28417
X12400Y29400
X11800Y29600
X11298Y30000
X10100Y31350
X9500Y31450
X9150Y31850
X9150Y32300
X9000Y33150
X9350Y33450
X9700Y34450
X9050Y35150
X9350Y35800
X10700Y35250
X10850Y34500
X11500Y33850
X11750Y33500
X12200Y33700
X12150Y33200
X13000Y33800
X13450Y33600
X13350Y32450
X13200Y32050
X13600Y31650
X14500Y31100
X14350Y30700
X14050Y30250
X14850Y31450
X15150Y31800
X14850Y32200
X12298Y34980
X7600Y35100
X7250Y33750
X8300Y28050
X6900Y26900
X8000Y24500
X10300Y23600
X10650Y24950
X13200Y20700
X13100Y20100
X4700Y20500
X19200Y28300
X18700Y30250
X18900Y30700
X18700Y31100
X18950Y31450
X18700Y31800
X18950Y32200
X20500Y35300
X24750Y35250
X24750Y32000
X23300Y30500
X23300Y28800
X24750Y28500
X20900Y25900
X23800Y25600
X24750Y25250
X21400Y22900
X24750Y21750
T02
X19250Y32950
X18750Y32950
X18750Y33450
X18750Y33950
X18750Y34450
X18750Y34950
X19250Y34950
X19250Y34450
X19250Y33950
X19250Y33450
T03
X4750Y24500
T04
X9500Y22000
X12500Y22000
X9500Y11000
X15500Y11000
T05
X4500Y26266
X4500Y28234
T06
X26100Y28600
X26100Y27600
X26100Y26600
X26100Y25200
X26100Y24200
X26100Y23200
X26100Y21800
X26100Y20800
X26100Y19800
X26100Y18400
X26100Y17400
X26100Y16400
X26100Y15000
X26100Y14000
X26100Y13000
X26100Y11600
X26100Y10600
X26100Y9600
X29100Y9600
X29100Y10600
X29100Y11600
X29100Y13000
X29100Y14000
X29100Y15000
X29100Y16400
X29100Y17400
X29100Y18400
X29100Y19800
X29100Y20800
X29100Y21800
X29100Y23200
X29100Y24200
X29100Y25200
X29100Y26600
X29100Y27600
X29100Y28600
X29100Y30000
X29100Y31000
X29100Y32000
X29100Y33400
X29100Y34400
X29100Y35400
X26100Y35400
X26100Y34400
X26100Y33400
X26100Y32000
X26100Y31000
X26100Y30000
T07
X5116Y32252
X5116Y33748
T08
X18150Y26700
X18150Y25700
X19150Y25700
X19150Y26700
X19150Y24700
X19150Y23700
X19150Y22700
X18150Y22700
X18150Y23700
X18150Y24700
X18150Y21700
X18150Y20700
X18150Y19700
X19150Y19700
X19150Y20700
X19150Y21700
X19150Y18700
X19150Y17700
X19150Y16700
X18150Y16700
X18150Y17700
X18150Y18700
X18150Y15700
X19150Y15700
X33500Y22000
X33500Y23000
X33500Y24000
X37500Y24000
X37500Y23000
X37500Y22000
X41500Y22000
X41500Y23000
X41500Y24000
X45500Y24000
X45500Y23000
X45500Y22000
X49500Y22000
X49500Y23000
X49500Y24000
X53500Y24000
X53500Y23000
X53500Y22000
X57500Y22000
X57500Y23000
X57500Y24000
X61500Y24000
X61500Y23000
X61500Y22000
T09
X5484Y25872
X5484Y28628
T10
X4907Y11000
X6993Y11000
X6993Y14250
X4907Y14250
X35000Y12043
X37500Y12043
X37500Y9957
X35000Y9957
X41000Y9957
X43500Y9957
X43500Y12043
X41000Y12043
X47000Y12043
X49500Y12043
X49500Y9957
X47000Y9957
X53000Y9957
X55500Y9957
X55500Y12043
X53000Y12043
X53000Y32957
X53000Y35043
X55500Y35043
X55500Y32957
X49500Y32957
X49500Y35043
X47000Y35043
X47000Y32957
X43500Y32957
X43500Y35043
X41000Y35043
X41000Y32957
X37500Y32957
X37500Y35043
X35000Y35043
X35000Y32957
T11
X21900Y34400
X15000Y28500
X21900Y10600
X58500Y10600
X58500Y34400
M30
