G75*
%MOIN*%
%OFA0B0*%
%FSLAX25Y25*%
%IPPOS*%
%LPD*%
%AMOC8*
5,1,8,0,0,1.08239X$1,22.5*
%
%ADD10R,0.01102X0.05906*%
%ADD11R,0.05906X0.01102*%
%ADD12R,0.07087X0.03937*%
%ADD13R,0.04331X0.03937*%
%ADD14R,0.03937X0.04331*%
%ADD15R,0.05709X0.01575*%
%ADD16R,0.05906X0.07087*%
%ADD17R,0.02756X0.05906*%
%ADD18R,0.06299X0.07087*%
%ADD19R,0.04724X0.02165*%
%ADD20C,0.01181*%
%ADD21R,0.03150X0.03543*%
%ADD22R,0.02756X0.02756*%
%ADD23R,0.04724X0.02362*%
D10*
X0114173Y0310768D03*
X0116142Y0310768D03*
X0118110Y0310768D03*
X0120079Y0310768D03*
X0122047Y0310768D03*
X0124016Y0310768D03*
X0125984Y0310768D03*
X0127953Y0310768D03*
X0129921Y0310768D03*
X0131890Y0310768D03*
X0133858Y0310768D03*
X0135827Y0310768D03*
X0135827Y0344232D03*
X0133858Y0344232D03*
X0131890Y0344232D03*
X0129921Y0344232D03*
X0127953Y0344232D03*
X0125984Y0344232D03*
X0124016Y0344232D03*
X0122047Y0344232D03*
X0120079Y0344232D03*
X0118110Y0344232D03*
X0116142Y0344232D03*
X0114173Y0344232D03*
D11*
X0108268Y0338327D03*
X0108268Y0336358D03*
X0108268Y0334390D03*
X0108268Y0332421D03*
X0108268Y0330453D03*
X0108268Y0328484D03*
X0108268Y0326516D03*
X0108268Y0324547D03*
X0108268Y0322579D03*
X0108268Y0320610D03*
X0108268Y0318642D03*
X0108268Y0316673D03*
X0141732Y0316673D03*
X0141732Y0318642D03*
X0141732Y0320610D03*
X0141732Y0322579D03*
X0141732Y0324547D03*
X0141732Y0326516D03*
X0141732Y0328484D03*
X0141732Y0330453D03*
X0141732Y0332421D03*
X0141732Y0334390D03*
X0141732Y0336358D03*
X0141732Y0338327D03*
D12*
X0077500Y0304921D03*
X0077500Y0295079D03*
D13*
X0212654Y0132000D03*
X0219346Y0132000D03*
X0219346Y0140000D03*
X0212654Y0140000D03*
X0212654Y0148000D03*
X0219346Y0148000D03*
X0219346Y0156000D03*
X0212654Y0156000D03*
X0212654Y0164000D03*
X0219346Y0164000D03*
X0219346Y0172000D03*
X0212654Y0172000D03*
X0212654Y0180000D03*
X0219346Y0180000D03*
X0219346Y0188000D03*
X0212654Y0188000D03*
X0212654Y0196000D03*
X0219346Y0196000D03*
X0219346Y0204000D03*
X0212654Y0204000D03*
X0306654Y0218000D03*
X0313346Y0218000D03*
X0313346Y0184000D03*
X0306654Y0184000D03*
X0306654Y0150000D03*
X0313346Y0150000D03*
X0313346Y0116000D03*
X0306654Y0116000D03*
X0371654Y0140000D03*
X0378346Y0140000D03*
X0431654Y0140000D03*
X0438346Y0140000D03*
X0491654Y0140000D03*
X0498346Y0140000D03*
X0551654Y0140000D03*
X0558346Y0140000D03*
X0313346Y0252000D03*
X0306654Y0252000D03*
X0306654Y0286000D03*
X0313346Y0286000D03*
X0313346Y0320000D03*
X0306654Y0320000D03*
X0306654Y0354000D03*
X0313346Y0354000D03*
X0371654Y0310000D03*
X0378346Y0310000D03*
X0431654Y0310000D03*
X0438346Y0310000D03*
X0491654Y0310000D03*
X0498346Y0310000D03*
X0551654Y0310000D03*
X0558346Y0310000D03*
X0219346Y0307000D03*
X0212654Y0307000D03*
X0212654Y0299000D03*
X0219346Y0299000D03*
X0219346Y0291000D03*
X0212654Y0291000D03*
X0212654Y0283000D03*
X0219346Y0283000D03*
X0219346Y0275000D03*
X0212654Y0275000D03*
X0212654Y0316000D03*
X0219346Y0316000D03*
X0160846Y0325000D03*
X0154154Y0325000D03*
X0086346Y0345000D03*
X0079654Y0345000D03*
X0079654Y0357500D03*
X0086346Y0357500D03*
X0068346Y0307500D03*
X0061654Y0307500D03*
X0061654Y0292500D03*
X0068346Y0292500D03*
X0080654Y0260000D03*
X0087346Y0260000D03*
X0050846Y0220000D03*
X0044154Y0220000D03*
D14*
X0042500Y0231654D03*
X0042500Y0238346D03*
X0072500Y0238346D03*
X0072500Y0231654D03*
X0062500Y0269154D03*
X0062500Y0275846D03*
X0100000Y0292654D03*
X0100000Y0299346D03*
X0119500Y0288846D03*
X0119500Y0282154D03*
X0131500Y0282154D03*
X0131500Y0288846D03*
X0083500Y0314654D03*
X0083500Y0321346D03*
X0101500Y0341154D03*
X0101500Y0347846D03*
X0240000Y0344654D03*
X0248000Y0343346D03*
X0248000Y0336654D03*
X0240000Y0351346D03*
X0240000Y0317346D03*
X0240000Y0310654D03*
X0248000Y0309346D03*
X0248000Y0302654D03*
X0240000Y0283346D03*
X0240000Y0276654D03*
X0248000Y0275346D03*
X0248000Y0268654D03*
X0240000Y0249346D03*
X0240000Y0242654D03*
X0248000Y0241346D03*
X0248000Y0234654D03*
X0240000Y0215346D03*
X0240000Y0208654D03*
X0248000Y0207346D03*
X0248000Y0200654D03*
X0240000Y0181346D03*
X0240000Y0174654D03*
X0248000Y0173346D03*
X0248000Y0166654D03*
X0240000Y0147346D03*
X0240000Y0140654D03*
X0248000Y0139346D03*
X0248000Y0132654D03*
X0240000Y0113346D03*
X0240000Y0106654D03*
X0248000Y0106346D03*
X0248000Y0099654D03*
X0320000Y0226654D03*
X0320000Y0233346D03*
X0391000Y0233346D03*
X0391000Y0226654D03*
X0404000Y0226654D03*
X0404000Y0233346D03*
X0471000Y0233346D03*
X0471000Y0226654D03*
X0484000Y0226654D03*
X0484000Y0233346D03*
X0551000Y0233346D03*
X0551000Y0226654D03*
X0564000Y0226654D03*
X0564000Y0233346D03*
X0600000Y0233346D03*
X0600000Y0226654D03*
D15*
X0053228Y0324882D03*
X0053228Y0327441D03*
X0053228Y0330000D03*
X0053228Y0332559D03*
X0053228Y0335118D03*
D16*
X0042500Y0344504D03*
X0042500Y0315496D03*
D17*
X0042500Y0330000D03*
D18*
X0044488Y0355000D03*
X0055512Y0355000D03*
X0344488Y0310000D03*
X0355512Y0310000D03*
X0404488Y0310000D03*
X0415512Y0310000D03*
X0464488Y0310000D03*
X0475512Y0310000D03*
X0524488Y0310000D03*
X0535512Y0310000D03*
X0535512Y0140000D03*
X0524488Y0140000D03*
X0475512Y0140000D03*
X0464488Y0140000D03*
X0415512Y0140000D03*
X0404488Y0140000D03*
X0355512Y0140000D03*
X0344488Y0140000D03*
D19*
X0062619Y0231260D03*
X0062619Y0238740D03*
X0052381Y0238740D03*
X0052381Y0235000D03*
X0052381Y0231260D03*
D20*
X0060169Y0221378D02*
X0060169Y0218622D01*
X0060169Y0221378D02*
X0062925Y0221378D01*
X0062925Y0218622D01*
X0060169Y0218622D01*
X0060169Y0219802D02*
X0062925Y0219802D01*
X0062925Y0220982D02*
X0060169Y0220982D01*
X0067075Y0221378D02*
X0067075Y0218622D01*
X0067075Y0221378D02*
X0069831Y0221378D01*
X0069831Y0218622D01*
X0067075Y0218622D01*
X0067075Y0219802D02*
X0069831Y0219802D01*
X0069831Y0220982D02*
X0067075Y0220982D01*
X0238622Y0229925D02*
X0241378Y0229925D01*
X0241378Y0227169D01*
X0238622Y0227169D01*
X0238622Y0229925D01*
X0238622Y0228349D02*
X0241378Y0228349D01*
X0241378Y0229529D02*
X0238622Y0229529D01*
X0238622Y0236831D02*
X0241378Y0236831D01*
X0241378Y0234075D01*
X0238622Y0234075D01*
X0238622Y0236831D01*
X0238622Y0235255D02*
X0241378Y0235255D01*
X0241378Y0236435D02*
X0238622Y0236435D01*
X0238622Y0263925D02*
X0241378Y0263925D01*
X0241378Y0261169D01*
X0238622Y0261169D01*
X0238622Y0263925D01*
X0238622Y0262349D02*
X0241378Y0262349D01*
X0241378Y0263529D02*
X0238622Y0263529D01*
X0238622Y0270831D02*
X0241378Y0270831D01*
X0241378Y0268075D01*
X0238622Y0268075D01*
X0238622Y0270831D01*
X0238622Y0269255D02*
X0241378Y0269255D01*
X0241378Y0270435D02*
X0238622Y0270435D01*
X0238622Y0297925D02*
X0241378Y0297925D01*
X0241378Y0295169D01*
X0238622Y0295169D01*
X0238622Y0297925D01*
X0238622Y0296349D02*
X0241378Y0296349D01*
X0241378Y0297529D02*
X0238622Y0297529D01*
X0238622Y0304831D02*
X0241378Y0304831D01*
X0241378Y0302075D01*
X0238622Y0302075D01*
X0238622Y0304831D01*
X0238622Y0303255D02*
X0241378Y0303255D01*
X0241378Y0304435D02*
X0238622Y0304435D01*
X0238622Y0331925D02*
X0241378Y0331925D01*
X0241378Y0329169D01*
X0238622Y0329169D01*
X0238622Y0331925D01*
X0238622Y0330349D02*
X0241378Y0330349D01*
X0241378Y0331529D02*
X0238622Y0331529D01*
X0238622Y0338831D02*
X0241378Y0338831D01*
X0241378Y0336075D01*
X0238622Y0336075D01*
X0238622Y0338831D01*
X0238622Y0337255D02*
X0241378Y0337255D01*
X0241378Y0338435D02*
X0238622Y0338435D01*
X0238622Y0202831D02*
X0241378Y0202831D01*
X0241378Y0200075D01*
X0238622Y0200075D01*
X0238622Y0202831D01*
X0238622Y0201255D02*
X0241378Y0201255D01*
X0241378Y0202435D02*
X0238622Y0202435D01*
X0238622Y0195925D02*
X0241378Y0195925D01*
X0241378Y0193169D01*
X0238622Y0193169D01*
X0238622Y0195925D01*
X0238622Y0194349D02*
X0241378Y0194349D01*
X0241378Y0195529D02*
X0238622Y0195529D01*
X0238622Y0168831D02*
X0241378Y0168831D01*
X0241378Y0166075D01*
X0238622Y0166075D01*
X0238622Y0168831D01*
X0238622Y0167255D02*
X0241378Y0167255D01*
X0241378Y0168435D02*
X0238622Y0168435D01*
X0238622Y0161925D02*
X0241378Y0161925D01*
X0241378Y0159169D01*
X0238622Y0159169D01*
X0238622Y0161925D01*
X0238622Y0160349D02*
X0241378Y0160349D01*
X0241378Y0161529D02*
X0238622Y0161529D01*
X0238622Y0134831D02*
X0241378Y0134831D01*
X0241378Y0132075D01*
X0238622Y0132075D01*
X0238622Y0134831D01*
X0238622Y0133255D02*
X0241378Y0133255D01*
X0241378Y0134435D02*
X0238622Y0134435D01*
X0238622Y0127925D02*
X0241378Y0127925D01*
X0241378Y0125169D01*
X0238622Y0125169D01*
X0238622Y0127925D01*
X0238622Y0126349D02*
X0241378Y0126349D01*
X0241378Y0127529D02*
X0238622Y0127529D01*
X0238622Y0100831D02*
X0241378Y0100831D01*
X0241378Y0098075D01*
X0238622Y0098075D01*
X0238622Y0100831D01*
X0238622Y0099255D02*
X0241378Y0099255D01*
X0241378Y0100435D02*
X0238622Y0100435D01*
X0238622Y0093925D02*
X0241378Y0093925D01*
X0241378Y0091169D01*
X0238622Y0091169D01*
X0238622Y0093925D01*
X0238622Y0092349D02*
X0241378Y0092349D01*
X0241378Y0093529D02*
X0238622Y0093529D01*
D21*
X0067500Y0340669D03*
X0063760Y0348937D03*
X0071240Y0348937D03*
D22*
X0225358Y0316559D03*
X0225358Y0311441D03*
X0232642Y0314000D03*
X0225358Y0299559D03*
X0225358Y0294441D03*
X0232642Y0297000D03*
X0225358Y0282559D03*
X0232642Y0280000D03*
X0225358Y0277441D03*
X0225358Y0203559D03*
X0225358Y0198441D03*
X0232642Y0201000D03*
X0225358Y0187559D03*
X0225358Y0182441D03*
X0232642Y0185000D03*
X0225358Y0171559D03*
X0232642Y0169000D03*
X0225358Y0166441D03*
X0225358Y0155559D03*
X0225358Y0150441D03*
X0232642Y0153000D03*
X0225358Y0139559D03*
X0225358Y0134441D03*
X0232642Y0137000D03*
D23*
X0099024Y0270500D03*
X0099024Y0275500D03*
X0099024Y0280500D03*
X0099024Y0285500D03*
X0076976Y0285500D03*
X0076976Y0280500D03*
X0076976Y0275500D03*
X0076976Y0270500D03*
M02*
